<?xml version="1.0" encoding="UTF-8"?>
<svg xmlns="http://www.w3.org/2000/svg" xmlns:xlink="http://www.w3.org/1999/xlink" width="648" height="324" viewBox="0 0 648 324">
<defs>
<g>
<g id="glyph-0-0">
<path d="M 4.984375 -1.46875 L 5.46875 0 L 7 0 L 4.484375 -7.25 L 2.84375 -7.25 L 0.265625 0 L 1.78125 0 L 2.265625 -1.46875 Z M 4.578125 -2.703125 L 2.6875 -2.703125 L 3.640625 -5.546875 Z M 4.578125 -2.703125 "/>
</g>
<g id="glyph-0-1">
<path d="M 3.828125 -6.015625 L 5.953125 -6.015625 L 5.953125 -7.25 L 0.140625 -7.25 L 0.140625 -6.015625 L 2.34375 -6.015625 L 2.34375 0 L 3.828125 0 Z M 3.828125 -6.015625 "/>
</g>
<g id="glyph-0-2">
<path d="M 2.28125 -3.125 L 5.75 -3.125 L 5.75 -4.375 L 2.28125 -4.375 L 2.28125 -6.015625 L 6.03125 -6.015625 L 6.03125 -7.25 L 0.78125 -7.25 L 0.78125 0 L 6.203125 0 L 6.203125 -1.25 L 2.28125 -1.25 Z M 2.28125 -3.125 "/>
</g>
<g id="glyph-0-3">
</g>
<g id="glyph-0-4">
<path d="M 5.3125 -4.09375 L 0.5 -4.09375 L 0.5 -2.90625 L 5.3125 -2.90625 Z M 5.3125 -1.703125 L 0.5 -1.703125 L 0.5 -0.515625 L 5.3125 -0.515625 Z M 5.3125 -1.703125 "/>
</g>
<g id="glyph-0-5">
<path d="M 5.140625 -4.953125 C 5.125 -6.203125 4.34375 -6.984375 3.09375 -7.0625 L 3.09375 -7.59375 L 2.421875 -7.59375 L 2.421875 -7.0625 C 1.140625 -6.9375 0.390625 -6.203125 0.390625 -5.09375 C 0.390625 -3.984375 1.078125 -3.28125 2.421875 -2.96875 L 2.421875 -0.859375 C 1.859375 -0.953125 1.546875 -1.359375 1.515625 -2.0625 L 0.21875 -2.0625 L 0.21875 -1.96875 C 0.21875 -1.25 0.515625 -0.65625 1.078125 -0.25 C 1.453125 0.015625 1.828125 0.15625 2.421875 0.203125 L 2.421875 1.25 L 3.09375 1.25 L 3.09375 0.203125 C 3.640625 0.15625 4.0625 0.015625 4.390625 -0.203125 C 4.921875 -0.546875 5.25 -1.1875 5.25 -1.9375 C 5.25 -3.03125 4.640625 -3.625 3.09375 -4.046875 L 3.09375 -6.046875 C 3.609375 -5.984375 3.890625 -5.5625 3.875 -4.953125 Z M 2.421875 -4.25 C 1.859375 -4.421875 1.609375 -4.703125 1.609375 -5.140625 C 1.609375 -5.65625 1.875 -5.9375 2.421875 -6.046875 Z M 3.09375 -2.8125 C 3.65625 -2.640625 3.9375 -2.296875 3.9375 -1.828125 C 3.9375 -1.328125 3.65625 -1 3.09375 -0.859375 Z M 3.09375 -2.8125 "/>
</g>
<g id="glyph-0-6">
<path d="M 2.71875 -7.203125 C 1.953125 -7.203125 1.3125 -6.890625 0.890625 -6.296875 C 0.484375 -5.75 0.28125 -4.859375 0.28125 -3.484375 C 0.28125 -2.234375 0.453125 -1.359375 0.78125 -0.8125 C 1.203125 -0.140625 1.890625 0.234375 2.71875 0.234375 C 3.484375 0.234375 4.109375 -0.078125 4.546875 -0.671875 C 4.953125 -1.21875 5.140625 -2.125 5.140625 -3.4375 C 5.140625 -4.734375 4.984375 -5.609375 4.640625 -6.15625 C 4.234375 -6.84375 3.546875 -7.203125 2.71875 -7.203125 Z M 2.71875 -6.078125 C 3.078125 -6.078125 3.359375 -5.875 3.53125 -5.515625 C 3.671875 -5.21875 3.75 -4.453125 3.75 -3.46875 C 3.75 -2.671875 3.6875 -1.90625 3.578125 -1.609375 C 3.40625 -1.1875 3.109375 -0.96875 2.71875 -0.96875 C 2.34375 -0.96875 2.0625 -1.15625 1.90625 -1.515625 C 1.765625 -1.8125 1.6875 -2.546875 1.6875 -3.5 C 1.6875 -4.328125 1.75 -5.125 1.859375 -5.421875 C 2.015625 -5.84375 2.3125 -6.078125 2.71875 -6.078125 Z M 2.71875 -6.078125 "/>
</g>
<g id="glyph-0-7">
<path d="M 2.125 -1.453125 L 0.640625 -1.453125 L 0.640625 0 L 2.125 0 Z M 2.125 -1.453125 "/>
</g>
<g id="glyph-0-8">
<path d="M 4.859375 -7.0625 L 1.09375 -7.0625 L 0.46875 -3.125 L 1.71875 -3.125 C 1.875 -3.46875 2.1875 -3.65625 2.625 -3.65625 C 3.328125 -3.65625 3.75 -3.15625 3.75 -2.296875 C 3.75 -1.46875 3.328125 -0.96875 2.625 -0.96875 C 2.015625 -0.96875 1.671875 -1.28125 1.640625 -1.84375 L 0.265625 -1.84375 C 0.28125 -0.609375 1.21875 0.234375 2.59375 0.234375 C 4.109375 0.234375 5.140625 -0.8125 5.140625 -2.328125 C 5.140625 -3.78125 4.25 -4.765625 2.953125 -4.765625 C 2.484375 -4.765625 2.125 -4.640625 1.71875 -4.34375 L 1.953125 -5.8125 L 4.859375 -5.8125 Z M 4.859375 -7.0625 "/>
</g>
<g id="glyph-0-9">
<path d="M 0.375 -1.640625 C 0.40625 -0.5625 1.328125 0.234375 2.53125 0.234375 C 3.4375 0.234375 4.125 -0.140625 4.546875 -0.859375 C 4.921875 -1.484375 5.140625 -2.546875 5.140625 -3.6875 C 5.140625 -4.71875 4.96875 -5.515625 4.640625 -6.046875 C 4.203125 -6.8125 3.5 -7.203125 2.65625 -7.203125 C 1.25 -7.203125 0.28125 -6.1875 0.28125 -4.71875 C 0.28125 -3.265625 1.140625 -2.265625 2.390625 -2.265625 C 2.75 -2.265625 3.078125 -2.375 3.296875 -2.53125 C 3.4375 -2.625 3.515625 -2.703125 3.75 -2.96875 C 3.75 -1.609375 3.359375 -0.953125 2.578125 -0.953125 C 2.078125 -0.953125 1.75 -1.21875 1.71875 -1.640625 Z M 2.625 -6.078125 C 3.296875 -6.078125 3.71875 -5.546875 3.71875 -4.71875 C 3.71875 -3.9375 3.28125 -3.421875 2.640625 -3.421875 C 2 -3.421875 1.609375 -3.921875 1.609375 -4.734375 C 1.609375 -5.546875 1.984375 -6.078125 2.625 -6.078125 Z M 2.625 -6.078125 "/>
</g>
<g id="glyph-1-0">
<path d="M 2.640625 -6.9375 C 2 -6.9375 1.421875 -6.65625 1.078125 -6.171875 C 0.640625 -5.5625 0.40625 -4.640625 0.40625 -3.359375 C 0.40625 -1.015625 1.1875 0.21875 2.640625 0.21875 C 4.078125 0.21875 4.859375 -1.015625 4.859375 -3.296875 C 4.859375 -4.640625 4.65625 -5.546875 4.203125 -6.171875 C 3.84375 -6.65625 3.28125 -6.9375 2.640625 -6.9375 Z M 2.640625 -6.1875 C 3.546875 -6.1875 4 -5.25 4 -3.375 C 4 -1.40625 3.5625 -0.484375 2.625 -0.484375 C 1.734375 -0.484375 1.28125 -1.4375 1.28125 -3.34375 C 1.28125 -5.25 1.734375 -6.1875 2.640625 -6.1875 Z M 2.640625 -6.1875 "/>
</g>
<g id="glyph-1-1">
<path d="M 4.859375 -0.828125 L 1.28125 -0.828125 C 1.359375 -1.40625 1.671875 -1.78125 2.5 -2.28125 L 3.46875 -2.828125 C 4.40625 -3.34375 4.90625 -4.0625 4.90625 -4.90625 C 4.90625 -5.484375 4.671875 -6.03125 4.265625 -6.40625 C 3.859375 -6.765625 3.375 -6.9375 2.71875 -6.9375 C 1.859375 -6.9375 1.21875 -6.625 0.84375 -6.03125 C 0.609375 -5.671875 0.5 -5.234375 0.484375 -4.53125 L 1.328125 -4.53125 C 1.359375 -5.015625 1.40625 -5.28125 1.53125 -5.515625 C 1.75 -5.9375 2.1875 -6.203125 2.703125 -6.203125 C 3.46875 -6.203125 4.03125 -5.640625 4.03125 -4.890625 C 4.03125 -4.34375 3.71875 -3.859375 3.125 -3.515625 L 2.234375 -3 C 0.8125 -2.171875 0.40625 -1.53125 0.328125 -0.015625 L 4.859375 -0.015625 Z M 4.859375 -0.828125 "/>
</g>
<g id="glyph-1-2">
<path d="M 3.140625 -1.671875 L 3.140625 0 L 3.984375 0 L 3.984375 -1.671875 L 4.984375 -1.671875 L 4.984375 -2.4375 L 3.984375 -2.4375 L 3.984375 -6.9375 L 3.359375 -6.9375 L 0.265625 -2.578125 L 0.265625 -1.671875 Z M 3.140625 -2.4375 L 1 -2.4375 L 3.140625 -5.5 Z M 3.140625 -2.4375 "/>
</g>
<g id="glyph-1-3">
<path d="M 4.78125 -5.125 C 4.609375 -6.265625 3.890625 -6.9375 2.84375 -6.9375 C 2.09375 -6.9375 1.421875 -6.578125 1.03125 -5.953125 C 0.59375 -5.265625 0.40625 -4.421875 0.40625 -3.171875 C 0.40625 -2 0.578125 -1.25 0.984375 -0.640625 C 1.359375 -0.078125 1.953125 0.21875 2.703125 0.21875 C 3.984375 0.21875 4.921875 -0.75 4.921875 -2.09375 C 4.921875 -3.375 4.0625 -4.28125 2.84375 -4.28125 C 2.171875 -4.28125 1.640625 -4.03125 1.28125 -3.515625 C 1.28125 -5.234375 1.828125 -6.1875 2.796875 -6.1875 C 3.390625 -6.1875 3.796875 -5.796875 3.9375 -5.125 Z M 2.734375 -3.53125 C 3.546875 -3.53125 4.0625 -2.953125 4.0625 -2.03125 C 4.0625 -1.15625 3.484375 -0.53125 2.703125 -0.53125 C 1.921875 -0.53125 1.328125 -1.1875 1.328125 -2.078125 C 1.328125 -2.9375 1.90625 -3.53125 2.734375 -3.53125 Z M 2.734375 -3.53125 "/>
</g>
<g id="glyph-1-4">
<path d="M 3.75 -3.65625 C 4.46875 -4.09375 4.6875 -4.4375 4.6875 -5.078125 C 4.6875 -6.171875 3.84375 -6.9375 2.640625 -6.9375 C 1.4375 -6.9375 0.59375 -6.171875 0.59375 -5.09375 C 0.59375 -4.4375 0.8125 -4.09375 1.515625 -3.65625 C 0.734375 -3.265625 0.359375 -2.703125 0.359375 -1.921875 C 0.359375 -0.65625 1.28125 0.21875 2.640625 0.21875 C 3.984375 0.21875 4.921875 -0.65625 4.921875 -1.921875 C 4.921875 -2.703125 4.53125 -3.265625 3.75 -3.65625 Z M 2.640625 -6.1875 C 3.359375 -6.1875 3.8125 -5.75 3.8125 -5.0625 C 3.8125 -4.40625 3.34375 -3.984375 2.640625 -3.984375 C 1.921875 -3.984375 1.453125 -4.40625 1.453125 -5.078125 C 1.453125 -5.75 1.921875 -6.1875 2.640625 -6.1875 Z M 2.640625 -3.265625 C 3.484375 -3.265625 4.0625 -2.71875 4.0625 -1.90625 C 4.0625 -1.078125 3.484375 -0.53125 2.625 -0.53125 C 1.796875 -0.53125 1.21875 -1.09375 1.21875 -1.90625 C 1.21875 -2.71875 1.78125 -3.265625 2.640625 -3.265625 Z M 2.640625 -3.265625 "/>
</g>
<g id="glyph-1-5">
<path d="M 2.71875 -3 L 0.4375 -3 L 0.4375 -2.296875 L 2.71875 -2.296875 Z M 2.71875 -3 "/>
</g>
<g id="glyph-1-6">
<path d="M 1.65625 -7 L 0.765625 -7 L 0.765625 0 L 5.109375 0 L 5.109375 -0.78125 L 1.65625 -0.78125 Z M 1.65625 -7 "/>
</g>
<g id="glyph-1-7">
<path d="M 2.609375 -5.171875 C 1.1875 -5.171875 0.34375 -4.15625 0.34375 -2.46875 C 0.34375 -0.78125 1.1875 0.21875 2.625 0.21875 C 4.03125 0.21875 4.890625 -0.78125 4.890625 -2.4375 C 4.890625 -4.1875 4.0625 -5.171875 2.609375 -5.171875 Z M 2.625 -4.4375 C 3.515625 -4.4375 4.0625 -3.6875 4.0625 -2.453125 C 4.0625 -1.25 3.5 -0.515625 2.625 -0.515625 C 1.734375 -0.515625 1.1875 -1.25 1.1875 -2.46875 C 1.1875 -3.6875 1.734375 -4.4375 2.625 -4.4375 Z M 2.625 -4.4375 "/>
</g>
<g id="glyph-1-8">
<path d="M 5.3125 0 L 6.796875 -5.03125 L 5.890625 -5.03125 L 4.890625 -1.109375 L 3.90625 -5.03125 L 2.921875 -5.03125 L 1.96875 -1.109375 L 0.9375 -5.03125 L 0.0625 -5.03125 L 1.515625 0 L 2.421875 0 L 3.390625 -3.9375 L 4.40625 0 Z M 5.3125 0 "/>
</g>
<g id="glyph-1-9">
<path d="M 4.484375 0 L 6.453125 -5.859375 L 6.453125 0 L 7.296875 0 L 7.296875 -7 L 6.0625 -7 L 4.03125 -0.90625 L 1.953125 -7 L 0.71875 -7 L 0.71875 0 L 1.5625 0 L 1.5625 -5.859375 L 3.546875 0 Z M 4.484375 0 "/>
</g>
<g id="glyph-1-10">
<path d="M 4.75 -7 L 3.953125 -7 L 3.953125 -4.390625 C 3.609375 -4.90625 3.078125 -5.171875 2.40625 -5.171875 C 1.109375 -5.171875 0.25 -4.125 0.25 -2.515625 C 0.25 -0.828125 1.078125 0.21875 2.4375 0.21875 C 3.125 0.21875 3.609375 -0.03125 4.03125 -0.65625 L 4.03125 0 L 4.75 0 Z M 2.546875 -4.421875 C 3.40625 -4.421875 3.953125 -3.671875 3.953125 -2.453125 C 3.953125 -1.296875 3.390625 -0.53125 2.546875 -0.53125 C 1.671875 -0.53125 1.078125 -1.3125 1.078125 -2.46875 C 1.078125 -3.640625 1.671875 -4.421875 2.546875 -4.421875 Z M 2.546875 -4.421875 "/>
</g>
<g id="glyph-1-11">
<path d="M 4.921875 -2.25 C 4.921875 -3.015625 4.859375 -3.46875 4.71875 -3.84375 C 4.390625 -4.671875 3.625 -5.171875 2.6875 -5.171875 C 1.28125 -5.171875 0.390625 -4.109375 0.390625 -2.453125 C 0.390625 -0.78125 1.25 0.21875 2.671875 0.21875 C 3.8125 0.21875 4.609375 -0.4375 4.8125 -1.53125 L 4.015625 -1.53125 C 3.796875 -0.859375 3.34375 -0.515625 2.703125 -0.515625 C 2.1875 -0.515625 1.75 -0.75 1.484375 -1.171875 C 1.296875 -1.453125 1.234375 -1.75 1.21875 -2.25 Z M 1.234375 -2.890625 C 1.3125 -3.828125 1.875 -4.4375 2.671875 -4.4375 C 3.484375 -4.4375 4.0625 -3.796875 4.0625 -2.890625 Z M 1.234375 -2.890625 "/>
</g>
<g id="glyph-1-12">
<path d="M 0.65625 -5.03125 L 0.65625 0 L 1.46875 0 L 1.46875 -2.609375 C 1.484375 -3.8125 1.96875 -4.359375 3.078125 -4.328125 L 3.078125 -5.140625 C 2.9375 -5.15625 2.875 -5.171875 2.765625 -5.171875 C 2.25 -5.171875 1.859375 -4.859375 1.40625 -4.109375 L 1.40625 -5.03125 Z M 0.65625 -5.03125 "/>
</g>
<g id="glyph-1-13">
<path d="M 5.125 -0.46875 C 5.046875 -0.453125 5.015625 -0.453125 4.953125 -0.453125 C 4.6875 -0.453125 4.53125 -0.59375 4.53125 -0.84375 L 4.53125 -3.796875 C 4.53125 -4.6875 3.875 -5.171875 2.640625 -5.171875 C 1.90625 -5.171875 1.3125 -4.953125 0.96875 -4.578125 C 0.734375 -4.328125 0.640625 -4.03125 0.625 -3.546875 L 1.421875 -3.546875 C 1.5 -4.15625 1.859375 -4.4375 2.609375 -4.4375 C 3.34375 -4.4375 3.734375 -4.15625 3.734375 -3.6875 L 3.734375 -3.46875 C 3.71875 -3.125 3.546875 -3 2.890625 -2.921875 C 1.765625 -2.765625 1.59375 -2.734375 1.28125 -2.609375 C 0.703125 -2.359375 0.40625 -1.921875 0.40625 -1.265625 C 0.40625 -0.359375 1.03125 0.21875 2.046875 0.21875 C 2.6875 0.21875 3.1875 0 3.765625 -0.515625 C 3.8125 0 4.0625 0.21875 4.578125 0.21875 C 4.765625 0.21875 4.859375 0.203125 5.125 0.140625 Z M 3.734375 -1.578125 C 3.734375 -1.3125 3.65625 -1.15625 3.421875 -0.9375 C 3.09375 -0.640625 2.703125 -0.484375 2.21875 -0.484375 C 1.609375 -0.484375 1.234375 -0.78125 1.234375 -1.28125 C 1.234375 -1.8125 1.578125 -2.078125 2.453125 -2.203125 C 3.296875 -2.328125 3.46875 -2.359375 3.734375 -2.484375 Z M 3.734375 -1.578125 "/>
</g>
<g id="glyph-1-14">
<path d="M 2.4375 -5.03125 L 1.609375 -5.03125 L 1.609375 -6.40625 L 0.8125 -6.40625 L 0.8125 -5.03125 L 0.140625 -5.03125 L 0.140625 -4.375 L 0.8125 -4.375 L 0.8125 -0.578125 C 0.8125 -0.0625 1.15625 0.21875 1.78125 0.21875 C 2 0.21875 2.171875 0.203125 2.4375 0.15625 L 2.4375 -0.515625 C 2.328125 -0.484375 2.21875 -0.484375 2.046875 -0.484375 C 1.703125 -0.484375 1.609375 -0.578125 1.609375 -0.9375 L 1.609375 -4.375 L 2.4375 -4.375 Z M 2.4375 -5.03125 "/>
</g>
<g id="glyph-1-15">
<path d="M 5.28125 -3.1875 L 5.28125 0 L 6.171875 0 L 6.171875 -7 L 5.28125 -7 L 5.28125 -3.96875 L 1.6875 -3.96875 L 1.6875 -7 L 0.796875 -7 L 0.796875 0 L 1.6875 0 L 1.6875 -3.1875 Z M 5.28125 -3.1875 "/>
</g>
<g id="glyph-1-16">
<path d="M 1.4375 -5.03125 L 0.640625 -5.03125 L 0.640625 0 L 1.4375 0 Z M 1.4375 -7 L 0.640625 -7 L 0.640625 -5.984375 L 1.4375 -5.984375 Z M 1.4375 -7 "/>
</g>
<g id="glyph-1-17">
<path d="M 3.875 -5.03125 L 3.875 -4.296875 C 3.46875 -4.90625 3.03125 -5.171875 2.390625 -5.171875 C 1.1875 -5.171875 0.328125 -4.03125 0.328125 -2.421875 C 0.328125 -1.578125 0.53125 -0.96875 0.96875 -0.453125 C 1.34375 -0.015625 1.828125 0.21875 2.34375 0.21875 C 2.9375 0.21875 3.375 -0.046875 3.796875 -0.6875 L 3.796875 -0.421875 C 3.796875 0.921875 3.421875 1.421875 2.421875 1.421875 C 1.75 1.421875 1.390625 1.15625 1.3125 0.578125 L 0.5 0.578125 C 0.578125 1.5 1.3125 2.09375 2.40625 2.09375 C 3.140625 2.09375 3.765625 1.859375 4.09375 1.453125 C 4.46875 0.984375 4.609375 0.359375 4.609375 -0.828125 L 4.609375 -5.03125 Z M 2.46875 -4.4375 C 3.3125 -4.4375 3.796875 -3.71875 3.796875 -2.453125 C 3.796875 -1.234375 3.3125 -0.515625 2.46875 -0.515625 C 1.65625 -0.515625 1.171875 -1.234375 1.171875 -2.46875 C 1.171875 -3.703125 1.65625 -4.4375 2.46875 -4.4375 Z M 2.46875 -4.4375 "/>
</g>
<g id="glyph-1-18">
<path d="M 0.671875 -7 L 0.671875 0 L 1.46875 0 L 1.46875 -2.765625 C 1.46875 -3.796875 2 -4.46875 2.828125 -4.46875 C 3.09375 -4.46875 3.34375 -4.390625 3.546875 -4.25 C 3.765625 -4.078125 3.859375 -3.84375 3.859375 -3.484375 L 3.859375 0 L 4.65625 0 L 4.65625 -3.796875 C 4.65625 -4.640625 4.0625 -5.171875 3.078125 -5.171875 C 2.375 -5.171875 1.9375 -4.953125 1.46875 -4.34375 L 1.46875 -7 Z M 0.671875 -7 "/>
</g>
<g id="glyph-2-0">
<path d="M 2.328125 -8.75 L 1.203125 -8.75 L 1.203125 0 L 2.328125 0 Z M 2.328125 -8.75 "/>
</g>
<g id="glyph-2-1">
<path d="M 0.84375 -6.28125 L 0.84375 0 L 1.84375 0 L 1.84375 -3.46875 C 1.84375 -4.75 2.515625 -5.59375 3.546875 -5.59375 C 4.34375 -5.59375 4.84375 -5.109375 4.84375 -4.359375 L 4.84375 0 L 5.84375 0 L 5.84375 -4.75 C 5.84375 -5.796875 5.0625 -6.46875 3.859375 -6.46875 C 2.921875 -6.46875 2.3125 -6.109375 1.765625 -5.234375 L 1.765625 -6.28125 Z M 0.84375 -6.28125 "/>
</g>
<g id="glyph-2-2">
<path d="M 5.9375 -8.75 L 4.9375 -8.75 L 4.9375 -5.5 C 4.53125 -6.125 3.859375 -6.46875 3.015625 -6.46875 C 1.375 -6.46875 0.3125 -5.15625 0.3125 -3.15625 C 0.3125 -1.03125 1.34375 0.28125 3.046875 0.28125 C 3.90625 0.28125 4.515625 -0.046875 5.046875 -0.828125 L 5.046875 0 L 5.9375 0 Z M 3.1875 -5.53125 C 4.265625 -5.53125 4.9375 -4.578125 4.9375 -3.078125 C 4.9375 -1.625 4.25 -0.65625 3.1875 -0.65625 C 2.09375 -0.65625 1.359375 -1.625 1.359375 -3.09375 C 1.359375 -4.5625 2.09375 -5.53125 3.1875 -5.53125 Z M 3.1875 -5.53125 "/>
</g>
<g id="glyph-2-3">
<path d="M 1.796875 -6.28125 L 0.796875 -6.28125 L 0.796875 0 L 1.796875 0 Z M 1.796875 -8.75 L 0.796875 -8.75 L 0.796875 -7.484375 L 1.796875 -7.484375 Z M 1.796875 -8.75 "/>
</g>
<g id="glyph-2-4">
<path d="M 3.421875 0 L 5.828125 -6.28125 L 4.703125 -6.28125 L 2.921875 -1.1875 L 1.25 -6.28125 L 0.125 -6.28125 L 2.328125 0 Z M 3.421875 0 "/>
</g>
<g id="glyph-2-5">
<path d="M 5.78125 0 L 5.78125 -6.28125 L 4.78125 -6.28125 L 4.78125 -2.71875 C 4.78125 -1.4375 4.109375 -0.59375 3.078125 -0.59375 C 2.28125 -0.59375 1.78125 -1.078125 1.78125 -1.84375 L 1.78125 -6.28125 L 0.78125 -6.28125 L 0.78125 -1.4375 C 0.78125 -0.390625 1.5625 0.28125 2.78125 0.28125 C 3.703125 0.28125 4.296875 -0.046875 4.890625 -0.875 L 4.890625 0 Z M 5.78125 0 "/>
</g>
<g id="glyph-2-6">
<path d="M 6.421875 -0.59375 C 6.3125 -0.5625 6.265625 -0.5625 6.203125 -0.5625 C 5.859375 -0.5625 5.65625 -0.75 5.65625 -1.0625 L 5.65625 -4.75 C 5.65625 -5.875 4.84375 -6.46875 3.296875 -6.46875 C 2.375 -6.46875 1.640625 -6.203125 1.21875 -5.734375 C 0.921875 -5.40625 0.796875 -5.046875 0.78125 -4.421875 L 1.78125 -4.421875 C 1.875 -5.203125 2.328125 -5.546875 3.265625 -5.546875 C 4.171875 -5.546875 4.671875 -5.203125 4.671875 -4.609375 L 4.671875 -4.34375 C 4.65625 -3.90625 4.4375 -3.75 3.625 -3.640625 C 2.203125 -3.46875 1.984375 -3.421875 1.609375 -3.265625 C 0.875 -2.953125 0.5 -2.40625 0.5 -1.578125 C 0.5 -0.4375 1.296875 0.28125 2.5625 0.28125 C 3.359375 0.28125 4 0 4.703125 -0.640625 C 4.78125 0 5.09375 0.28125 5.734375 0.28125 C 5.953125 0.28125 6.078125 0.25 6.421875 0.171875 Z M 4.671875 -1.984375 C 4.671875 -1.640625 4.578125 -1.4375 4.265625 -1.15625 C 3.859375 -0.796875 3.375 -0.59375 2.78125 -0.59375 C 2 -0.59375 1.546875 -0.96875 1.546875 -1.609375 C 1.546875 -2.265625 1.984375 -2.609375 3.0625 -2.765625 C 4.125 -2.90625 4.328125 -2.953125 4.671875 -3.109375 Z M 4.671875 -1.984375 "/>
</g>
<g id="glyph-2-7">
<path d="M 1.828125 -8.75 L 0.8125 -8.75 L 0.8125 0 L 1.828125 0 Z M 1.828125 -8.75 "/>
</g>
<g id="glyph-2-8">
</g>
<g id="glyph-2-9">
<path d="M 4.25 -7.765625 L 7.109375 -7.765625 L 7.109375 -8.75 L 0.25 -8.75 L 0.25 -7.765625 L 3.125 -7.765625 L 3.125 0 L 4.25 0 Z M 4.25 -7.765625 "/>
</g>
<g id="glyph-2-10">
<path d="M 0.828125 -6.28125 L 0.828125 0 L 1.84375 0 L 1.84375 -3.265625 C 1.84375 -4.78125 2.46875 -5.453125 3.859375 -5.40625 L 3.859375 -6.4375 C 3.6875 -6.453125 3.59375 -6.46875 3.46875 -6.46875 C 2.8125 -6.46875 2.328125 -6.078125 1.75 -5.140625 L 1.75 -6.28125 Z M 0.828125 -6.28125 "/>
</g>
<g id="glyph-2-11">
<path d="M 6.15625 -2.8125 C 6.15625 -3.765625 6.078125 -4.34375 5.90625 -4.8125 C 5.5 -5.84375 4.53125 -6.46875 3.359375 -6.46875 C 1.609375 -6.46875 0.484375 -5.140625 0.484375 -3.0625 C 0.484375 -0.984375 1.5625 0.28125 3.34375 0.28125 C 4.78125 0.28125 5.765625 -0.546875 6.03125 -1.90625 L 5.015625 -1.90625 C 4.734375 -1.078125 4.171875 -0.640625 3.375 -0.640625 C 2.734375 -0.640625 2.203125 -0.9375 1.859375 -1.46875 C 1.625 -1.828125 1.53125 -2.1875 1.53125 -2.8125 Z M 1.546875 -3.625 C 1.625 -4.78125 2.34375 -5.546875 3.34375 -5.546875 C 4.375 -5.546875 5.078125 -4.75 5.078125 -3.625 Z M 1.546875 -3.625 "/>
</g>
<g id="glyph-2-12">
<path d="M 3.046875 -6.28125 L 2.015625 -6.28125 L 2.015625 -8.015625 L 1.015625 -8.015625 L 1.015625 -6.28125 L 0.171875 -6.28125 L 0.171875 -5.46875 L 1.015625 -5.46875 L 1.015625 -0.71875 C 1.015625 -0.078125 1.453125 0.28125 2.234375 0.28125 C 2.5 0.28125 2.71875 0.25 3.046875 0.1875 L 3.046875 -0.640625 C 2.90625 -0.609375 2.765625 -0.59375 2.5625 -0.59375 C 2.140625 -0.59375 2.015625 -0.71875 2.015625 -1.15625 L 2.015625 -5.46875 L 3.046875 -5.46875 Z M 3.046875 -6.28125 "/>
</g>
<g id="glyph-2-13">
<path d="M 0.84375 -6.28125 L 0.84375 0 L 1.84375 0 L 1.84375 -3.953125 C 1.84375 -4.859375 2.515625 -5.59375 3.328125 -5.59375 C 4.0625 -5.59375 4.484375 -5.140625 4.484375 -4.328125 L 4.484375 0 L 5.5 0 L 5.5 -3.953125 C 5.5 -4.859375 6.15625 -5.59375 6.96875 -5.59375 C 7.703125 -5.59375 8.140625 -5.125 8.140625 -4.328125 L 8.140625 0 L 9.140625 0 L 9.140625 -4.71875 C 9.140625 -5.84375 8.5 -6.46875 7.3125 -6.46875 C 6.484375 -6.46875 5.96875 -6.21875 5.390625 -5.515625 C 5.015625 -6.1875 4.515625 -6.46875 3.703125 -6.46875 C 2.859375 -6.46875 2.296875 -6.15625 1.765625 -5.40625 L 1.765625 -6.28125 Z M 0.84375 -6.28125 "/>
</g>
<g id="glyph-2-14">
<path d="M 2.203125 -3.984375 L 6.953125 -3.984375 L 6.953125 -4.96875 L 2.203125 -4.96875 L 2.203125 -7.765625 L 7.140625 -7.765625 L 7.140625 -8.75 L 1.078125 -8.75 L 1.078125 0 L 7.359375 0 L 7.359375 -0.984375 L 2.203125 -0.984375 Z M 2.203125 -3.984375 "/>
</g>
<g id="glyph-2-15">
<path d="M 3.125 -6.28125 L 2.078125 -6.28125 L 2.078125 -7.265625 C 2.078125 -7.6875 2.296875 -7.90625 2.765625 -7.90625 C 2.859375 -7.90625 2.890625 -7.90625 3.125 -7.890625 L 3.125 -8.71875 C 2.890625 -8.765625 2.765625 -8.78125 2.5625 -8.78125 C 1.625 -8.78125 1.078125 -8.25 1.078125 -7.359375 L 1.078125 -6.28125 L 0.234375 -6.28125 L 0.234375 -5.46875 L 1.078125 -5.46875 L 1.078125 0 L 2.078125 0 L 2.078125 -5.46875 L 3.125 -5.46875 Z M 6.34375 -6.28125 L 5.296875 -6.28125 L 5.296875 -7.265625 C 5.296875 -7.6875 5.53125 -7.90625 6 -7.90625 C 6.078125 -7.90625 6.125 -7.90625 6.34375 -7.890625 L 6.34375 -8.71875 C 6.125 -8.765625 5.984375 -8.78125 5.78125 -8.78125 C 4.859375 -8.78125 4.3125 -8.25 4.3125 -7.359375 L 4.3125 -6.28125 L 3.46875 -6.28125 L 3.46875 -5.46875 L 4.3125 -5.46875 L 4.3125 0 L 5.296875 0 L 5.296875 -5.46875 L 6.34375 -5.46875 Z M 6.34375 -6.28125 "/>
</g>
<g id="glyph-2-16">
<path d="M 5.65625 -4.171875 C 5.609375 -4.78125 5.46875 -5.1875 5.234375 -5.53125 C 4.796875 -6.125 4.046875 -6.46875 3.171875 -6.46875 C 1.46875 -6.46875 0.375 -5.125 0.375 -3.03125 C 0.375 -1.015625 1.453125 0.28125 3.15625 0.28125 C 4.65625 0.28125 5.609375 -0.625 5.71875 -2.15625 L 4.71875 -2.15625 C 4.546875 -1.15625 4.03125 -0.640625 3.1875 -0.640625 C 2.078125 -0.640625 1.421875 -1.546875 1.421875 -3.03125 C 1.421875 -4.609375 2.0625 -5.546875 3.15625 -5.546875 C 4 -5.546875 4.53125 -5.046875 4.640625 -4.171875 Z M 5.65625 -4.171875 "/>
</g>
<g id="glyph-2-17">
<path d="M 4.640625 -3.4375 L 7.9375 -8.75 L 6.59375 -8.75 L 4.109375 -4.484375 L 1.53125 -8.75 L 0.15625 -8.75 L 3.53125 -3.4375 L 3.53125 0 L 4.640625 0 Z M 4.640625 -3.4375 "/>
</g>
<g id="glyph-2-18">
<path d="M 2.828125 -8.75 C 1.625 -7.171875 0.875 -4.984375 0.875 -3.109375 C 0.875 -1.21875 1.625 0.96875 2.828125 2.546875 L 3.484375 2.546875 C 2.4375 0.828125 1.84375 -1.1875 1.84375 -3.109375 C 1.84375 -5.015625 2.4375 -7.046875 3.484375 -8.75 Z M 2.828125 -8.75 "/>
</g>
<g id="glyph-2-19">
<path d="M 3.109375 -6.1875 L 3.109375 0 L 4.15625 0 L 4.15625 -8.671875 L 3.46875 -8.671875 C 3.09375 -7.34375 2.859375 -7.15625 1.21875 -6.953125 L 1.21875 -6.1875 Z M 3.109375 -6.1875 "/>
</g>
<g id="glyph-2-20">
<path d="M 1.109375 2.546875 C 2.3125 0.96875 3.078125 -1.21875 3.078125 -3.09375 C 3.078125 -4.984375 2.3125 -7.171875 1.109375 -8.75 L 0.453125 -8.75 C 1.515625 -7.03125 2.09375 -5.015625 2.09375 -3.09375 C 2.09375 -1.1875 1.515625 0.84375 0.453125 2.546875 Z M 1.109375 2.546875 "/>
</g>
<g id="glyph-2-21">
<path d="M 6.53125 -3.203125 L 0.484375 -3.203125 L 0.484375 -2.359375 L 6.53125 -2.359375 Z M 6.53125 -3.203125 "/>
</g>
<g id="glyph-2-22">
<path d="M 3.296875 -8.671875 C 2.515625 -8.671875 1.78125 -8.3125 1.34375 -7.734375 C 0.796875 -6.953125 0.515625 -5.8125 0.515625 -4.203125 C 0.515625 -1.265625 1.46875 0.28125 3.296875 0.28125 C 5.09375 0.28125 6.078125 -1.265625 6.078125 -4.125 C 6.078125 -5.8125 5.8125 -6.9375 5.25 -7.734375 C 4.8125 -8.328125 4.109375 -8.671875 3.296875 -8.671875 Z M 3.296875 -7.734375 C 4.4375 -7.734375 5 -6.578125 5 -4.21875 C 5 -1.75 4.453125 -0.59375 3.28125 -0.59375 C 2.15625 -0.59375 1.59375 -1.796875 1.59375 -4.1875 C 1.59375 -6.578125 2.15625 -7.734375 3.296875 -7.734375 Z M 3.296875 -7.734375 "/>
</g>
<g id="glyph-2-23">
<path d="M 3 -9.234375 L 3 -8.59375 C 1.46875 -8.40625 0.640625 -7.5625 0.640625 -6.1875 C 0.640625 -5.4375 0.921875 -4.84375 1.46875 -4.4375 C 1.796875 -4.21875 2.140625 -4.078125 3 -3.8125 L 3 -0.546875 C 2.453125 -0.625 2 -0.859375 1.734375 -1.234375 C 1.546875 -1.515625 1.5 -1.71875 1.421875 -2.5 L 0.484375 -2.5 C 0.390625 -0.828125 1.3125 0.171875 3 0.28125 L 3 1.515625 L 3.703125 1.515625 L 3.703125 0.28125 C 4.359375 0.234375 4.796875 0.09375 5.203125 -0.140625 C 5.890625 -0.578125 6.296875 -1.390625 6.296875 -2.34375 C 6.296875 -3.1875 5.96875 -3.796875 5.28125 -4.1875 C 4.96875 -4.375 4.8125 -4.421875 3.703125 -4.765625 L 3.703125 -7.75 C 4.515625 -7.71875 5.078125 -7.109375 5.09375 -6.234375 L 6.03125 -6.234375 C 6.03125 -7.59375 5.15625 -8.484375 3.703125 -8.59375 L 3.703125 -9.234375 Z M 3 -4.859375 C 2.046875 -5.109375 1.609375 -5.578125 1.609375 -6.3125 C 1.609375 -7.109375 2.109375 -7.625 3 -7.734375 Z M 3.703125 -3.703125 C 4.9375 -3.34375 5.3125 -2.984375 5.3125 -2.203125 C 5.3125 -1.734375 5.140625 -1.3125 4.8125 -1 C 4.53125 -0.71875 4.21875 -0.609375 3.703125 -0.546875 Z M 3.703125 -3.703125 "/>
</g>
<g id="glyph-2-24">
<path d="M 5.25 -4.53125 C 5.25 -5.765625 4.421875 -6.46875 2.96875 -6.46875 C 1.515625 -6.46875 0.5625 -5.71875 0.5625 -4.546875 C 0.5625 -3.5625 1.0625 -3.09375 2.5625 -2.734375 L 3.484375 -2.515625 C 4.1875 -2.34375 4.46875 -2.09375 4.46875 -1.640625 C 4.46875 -1.046875 3.875 -0.640625 3 -0.640625 C 2.453125 -0.640625 2 -0.796875 1.75 -1.0625 C 1.59375 -1.25 1.53125 -1.421875 1.46875 -1.875 L 0.40625 -1.875 C 0.453125 -0.421875 1.265625 0.28125 2.921875 0.28125 C 4.5 0.28125 5.515625 -0.5 5.515625 -1.71875 C 5.515625 -2.65625 4.984375 -3.171875 3.734375 -3.46875 L 2.765625 -3.703125 C 1.953125 -3.890625 1.609375 -4.15625 1.609375 -4.59375 C 1.609375 -5.1875 2.125 -5.546875 2.9375 -5.546875 C 3.75 -5.546875 4.171875 -5.203125 4.203125 -4.53125 Z M 5.25 -4.53125 "/>
</g>
<g id="glyph-2-25">
<path d="M 0.84375 -8.75 L 0.84375 0 L 1.84375 0 L 1.84375 -3.46875 C 1.84375 -4.75 2.515625 -5.59375 3.546875 -5.59375 C 3.875 -5.59375 4.1875 -5.5 4.421875 -5.3125 C 4.71875 -5.09375 4.84375 -4.796875 4.84375 -4.359375 L 4.84375 0 L 5.828125 0 L 5.828125 -4.75 C 5.828125 -5.8125 5.078125 -6.46875 3.859375 -6.46875 C 2.96875 -6.46875 2.421875 -6.1875 1.84375 -5.421875 L 1.84375 -8.75 Z M 0.84375 -8.75 "/>
</g>
<g id="glyph-2-26">
<path d="M 4.65625 -6.28125 L 2.921875 -1.390625 L 1.3125 -6.28125 L 0.234375 -6.28125 L 2.359375 0.03125 L 1.984375 1.015625 C 1.8125 1.46875 1.59375 1.625 1.171875 1.625 C 1.015625 1.625 0.859375 1.609375 0.640625 1.5625 L 0.640625 2.453125 C 0.859375 2.5625 1.0625 2.609375 1.3125 2.609375 C 1.640625 2.609375 1.984375 2.515625 2.25 2.3125 C 2.5625 2.09375 2.75 1.828125 2.9375 1.3125 L 5.734375 -6.28125 Z M 4.65625 -6.28125 "/>
</g>
<g id="glyph-2-27">
<path d="M 3.265625 -6.46875 C 1.484375 -6.46875 0.4375 -5.203125 0.4375 -3.09375 C 0.4375 -0.96875 1.484375 0.28125 3.28125 0.28125 C 5.046875 0.28125 6.125 -0.984375 6.125 -3.046875 C 6.125 -5.234375 5.09375 -6.46875 3.265625 -6.46875 Z M 3.28125 -5.546875 C 4.40625 -5.546875 5.078125 -4.625 5.078125 -3.0625 C 5.078125 -1.578125 4.375 -0.640625 3.28125 -0.640625 C 2.15625 -0.640625 1.46875 -1.578125 1.46875 -3.09375 C 1.46875 -4.625 2.15625 -5.546875 3.28125 -5.546875 Z M 3.28125 -5.546875 "/>
</g>
<g id="glyph-2-28">
<path d="M 0.640625 -8.75 L 0.640625 0 L 1.546875 0 L 1.546875 -0.796875 C 2.03125 -0.078125 2.65625 0.28125 3.546875 0.28125 C 5.203125 0.28125 6.28125 -1.078125 6.28125 -3.171875 C 6.28125 -5.203125 5.25 -6.46875 3.59375 -6.46875 C 2.71875 -6.46875 2.109375 -6.140625 1.640625 -5.4375 L 1.640625 -8.75 Z M 3.390625 -5.53125 C 4.515625 -5.53125 5.234375 -4.5625 5.234375 -3.0625 C 5.234375 -1.625 4.484375 -0.65625 3.390625 -0.65625 C 2.328125 -0.65625 1.640625 -1.625 1.640625 -3.09375 C 1.640625 -4.578125 2.328125 -5.53125 3.390625 -5.53125 Z M 3.390625 -5.53125 "/>
</g>
<g id="glyph-2-29">
<path d="M 12.015625 -3.75 L -0.109375 -3.75 L -0.109375 -2.875 L 12.015625 -2.875 Z M 12.015625 -3.75 "/>
</g>
<g id="glyph-2-30">
<path d="M 5.6875 -2.625 L 6.59375 0 L 7.84375 0 L 4.765625 -8.75 L 3.328125 -8.75 L 0.203125 0 L 1.390625 0 L 2.3125 -2.625 Z M 5.375 -3.5625 L 2.59375 -3.5625 L 4.03125 -7.546875 Z M 5.375 -3.5625 "/>
</g>
<g id="glyph-3-0">
<path d="M -6.03125 -7.9375 C -7.953125 -7.59375 -8.890625 -6.484375 -8.890625 -4.578125 C -8.890625 -3.390625 -8.515625 -2.453125 -7.796875 -1.796875 C -6.9375 -1.015625 -5.6875 -0.578125 -4.265625 -0.578125 C -2.828125 -0.578125 -1.59375 -1.015625 -0.75 -1.84375 C -0.046875 -2.515625 0.28125 -3.390625 0.28125 -4.53125 C 0.28125 -6.65625 -0.875 -7.859375 -3.1875 -8.125 L -3.1875 -6.96875 C -2.59375 -6.875 -2.1875 -6.75 -1.84375 -6.578125 C -1.109375 -6.21875 -0.703125 -5.46875 -0.703125 -4.53125 C -0.703125 -2.796875 -2.09375 -1.6875 -4.28125 -1.6875 C -6.53125 -1.6875 -7.90625 -2.734375 -7.90625 -4.4375 C -7.90625 -5.140625 -7.703125 -5.8125 -7.359375 -6.171875 C -7.0625 -6.484375 -6.703125 -6.671875 -6.03125 -6.796875 Z M -6.03125 -7.9375 "/>
</g>
<g id="glyph-3-1">
<path d="M -6.46875 -3.265625 C -6.46875 -1.484375 -5.203125 -0.4375 -3.09375 -0.4375 C -0.96875 -0.4375 0.28125 -1.484375 0.28125 -3.28125 C 0.28125 -5.046875 -0.984375 -6.125 -3.046875 -6.125 C -5.234375 -6.125 -6.46875 -5.09375 -6.46875 -3.265625 Z M -5.546875 -3.28125 C -5.546875 -4.40625 -4.625 -5.078125 -3.0625 -5.078125 C -1.578125 -5.078125 -0.640625 -4.375 -0.640625 -3.28125 C -0.640625 -2.15625 -1.578125 -1.46875 -3.09375 -1.46875 C -4.625 -1.46875 -5.546875 -2.15625 -5.546875 -3.28125 Z M -5.546875 -3.28125 "/>
</g>
<g id="glyph-3-2">
<path d="M 0 -5.78125 L -6.28125 -5.78125 L -6.28125 -4.78125 L -2.71875 -4.78125 C -1.4375 -4.78125 -0.59375 -4.109375 -0.59375 -3.078125 C -0.59375 -2.28125 -1.078125 -1.78125 -1.84375 -1.78125 L -6.28125 -1.78125 L -6.28125 -0.78125 L -1.4375 -0.78125 C -0.390625 -0.78125 0.28125 -1.5625 0.28125 -2.78125 C 0.28125 -3.703125 -0.046875 -4.296875 -0.875 -4.890625 L 0 -4.890625 Z M 0 -5.78125 "/>
</g>
<g id="glyph-3-3">
<path d="M -6.28125 -0.84375 L 0 -0.84375 L 0 -1.84375 L -3.46875 -1.84375 C -4.75 -1.84375 -5.59375 -2.515625 -5.59375 -3.546875 C -5.59375 -4.34375 -5.109375 -4.84375 -4.359375 -4.84375 L 0 -4.84375 L 0 -5.84375 L -4.75 -5.84375 C -5.796875 -5.84375 -6.46875 -5.0625 -6.46875 -3.859375 C -6.46875 -2.921875 -6.109375 -2.3125 -5.234375 -1.765625 L -6.28125 -1.765625 Z M -6.28125 -0.84375 "/>
</g>
<g id="glyph-3-4">
<path d="M -6.28125 -3.046875 L -6.28125 -2.015625 L -8.015625 -2.015625 L -8.015625 -1.015625 L -6.28125 -1.015625 L -6.28125 -0.171875 L -5.46875 -0.171875 L -5.46875 -1.015625 L -0.71875 -1.015625 C -0.078125 -1.015625 0.28125 -1.453125 0.28125 -2.234375 C 0.28125 -2.5 0.25 -2.71875 0.1875 -3.046875 L -0.640625 -3.046875 C -0.609375 -2.90625 -0.59375 -2.765625 -0.59375 -2.5625 C -0.59375 -2.140625 -0.71875 -2.015625 -1.15625 -2.015625 L -5.46875 -2.015625 L -5.46875 -3.046875 Z M -6.28125 -3.046875 "/>
</g>
<g id="glyph-4-0">
<path d="M 5.09375 -9.328125 L 8.546875 -9.328125 L 8.546875 -10.5 L 0.296875 -10.5 L 0.296875 -9.328125 L 3.765625 -9.328125 L 3.765625 0 L 5.09375 0 Z M 5.09375 -9.328125 "/>
</g>
<g id="glyph-4-1">
<path d="M 1.015625 -10.5 L 1.015625 0 L 2.203125 0 L 2.203125 -4.15625 C 2.203125 -5.703125 3.015625 -6.71875 4.25 -6.71875 C 4.65625 -6.71875 5.03125 -6.59375 5.3125 -6.375 C 5.65625 -6.125 5.8125 -5.765625 5.8125 -5.234375 L 5.8125 0 L 7 0 L 7 -5.703125 C 7 -6.96875 6.09375 -7.765625 4.625 -7.765625 C 3.5625 -7.765625 2.90625 -7.4375 2.203125 -6.515625 L 2.203125 -10.5 Z M 1.015625 -10.5 "/>
</g>
<g id="glyph-4-2">
<path d="M 7.390625 -3.375 C 7.390625 -4.53125 7.296875 -5.21875 7.09375 -5.78125 C 6.59375 -7.015625 5.453125 -7.765625 4.03125 -7.765625 C 1.9375 -7.765625 0.578125 -6.171875 0.578125 -3.671875 C 0.578125 -1.1875 1.875 0.328125 4 0.328125 C 5.734375 0.328125 6.921875 -0.640625 7.234375 -2.296875 L 6.015625 -2.296875 C 5.6875 -1.296875 5.015625 -0.78125 4.046875 -0.78125 C 3.28125 -0.78125 2.640625 -1.125 2.234375 -1.75 C 1.9375 -2.1875 1.84375 -2.625 1.828125 -3.375 Z M 1.859375 -4.34375 C 1.953125 -5.75 2.8125 -6.65625 4.015625 -6.65625 C 5.25 -6.65625 6.09375 -5.703125 6.09375 -4.34375 Z M 1.859375 -4.34375 "/>
</g>
<g id="glyph-4-3">
</g>
<g id="glyph-4-4">
<path d="M 6.78125 -5.015625 C 6.734375 -5.75 6.5625 -6.21875 6.28125 -6.640625 C 5.765625 -7.34375 4.859375 -7.765625 3.796875 -7.765625 C 1.75 -7.765625 0.453125 -6.15625 0.453125 -3.640625 C 0.453125 -1.203125 1.75 0.328125 3.78125 0.328125 C 5.59375 0.328125 6.734375 -0.75 6.875 -2.59375 L 5.65625 -2.59375 C 5.453125 -1.390625 4.84375 -0.78125 3.8125 -0.78125 C 2.5 -0.78125 1.703125 -1.859375 1.703125 -3.640625 C 1.703125 -5.53125 2.484375 -6.65625 3.78125 -6.65625 C 4.796875 -6.65625 5.4375 -6.0625 5.578125 -5.015625 Z M 6.78125 -5.015625 "/>
</g>
<g id="glyph-4-5">
<path d="M 3.921875 -7.765625 C 1.78125 -7.765625 0.515625 -6.25 0.515625 -3.71875 C 0.515625 -1.171875 1.78125 0.328125 3.9375 0.328125 C 6.0625 0.328125 7.34375 -1.1875 7.34375 -3.65625 C 7.34375 -6.28125 6.109375 -7.765625 3.921875 -7.765625 Z M 3.9375 -6.65625 C 5.28125 -6.65625 6.09375 -5.546875 6.09375 -3.671875 C 6.09375 -1.890625 5.265625 -0.78125 3.9375 -0.78125 C 2.59375 -0.78125 1.765625 -1.890625 1.765625 -3.71875 C 1.765625 -5.546875 2.59375 -6.65625 3.9375 -6.65625 Z M 3.9375 -6.65625 "/>
</g>
<g id="glyph-4-6">
<path d="M 4.09375 -4.5 L 0.65625 -4.5 L 0.65625 -3.453125 L 4.09375 -3.453125 Z M 4.09375 -4.5 "/>
</g>
<g id="glyph-4-7">
<path d="M 2.1875 -10.5 L 0.984375 -10.5 L 0.984375 0 L 2.1875 0 Z M 2.1875 -10.5 "/>
</g>
<g id="glyph-4-8">
<path d="M 7.703125 -0.703125 C 7.578125 -0.671875 7.515625 -0.671875 7.453125 -0.671875 C 7.03125 -0.671875 6.796875 -0.890625 6.796875 -1.265625 L 6.796875 -5.703125 C 6.796875 -7.046875 5.8125 -7.765625 3.96875 -7.765625 C 2.859375 -7.765625 1.96875 -7.453125 1.453125 -6.890625 C 1.109375 -6.5 0.96875 -6.0625 0.9375 -5.3125 L 2.140625 -5.3125 C 2.25 -6.234375 2.796875 -6.65625 3.921875 -6.65625 C 5.015625 -6.65625 5.609375 -6.25 5.609375 -5.53125 L 5.609375 -5.21875 C 5.59375 -4.703125 5.328125 -4.515625 4.34375 -4.375 C 2.65625 -4.15625 2.390625 -4.109375 1.9375 -3.921875 C 1.046875 -3.546875 0.609375 -2.875 0.609375 -1.90625 C 0.609375 -0.53125 1.5625 0.328125 3.078125 0.328125 C 4.03125 0.328125 4.796875 0 5.640625 -0.78125 C 5.734375 0 6.109375 0.328125 6.890625 0.328125 C 7.140625 0.328125 7.296875 0.296875 7.703125 0.203125 Z M 5.609375 -2.375 C 5.609375 -1.96875 5.484375 -1.734375 5.125 -1.390625 C 4.640625 -0.953125 4.046875 -0.71875 3.34375 -0.71875 C 2.40625 -0.71875 1.859375 -1.171875 1.859375 -1.9375 C 1.859375 -2.71875 2.375 -3.125 3.671875 -3.3125 C 4.953125 -3.484375 5.203125 -3.546875 5.609375 -3.734375 Z M 5.609375 -2.375 "/>
</g>
<g id="glyph-4-9">
<path d="M 0.78125 -10.5 L 0.78125 0 L 1.859375 0 L 1.859375 -0.96875 C 2.4375 -0.09375 3.203125 0.328125 4.25 0.328125 C 6.234375 0.328125 7.53125 -1.296875 7.53125 -3.796875 C 7.53125 -6.25 6.3125 -7.765625 4.3125 -7.765625 C 3.265625 -7.765625 2.53125 -7.375 1.96875 -6.53125 L 1.96875 -10.5 Z M 4.078125 -6.640625 C 5.421875 -6.640625 6.28125 -5.46875 6.28125 -3.671875 C 6.28125 -1.953125 5.390625 -0.796875 4.078125 -0.796875 C 2.796875 -0.796875 1.96875 -1.9375 1.96875 -3.71875 C 1.96875 -5.484375 2.796875 -6.640625 4.078125 -6.640625 Z M 4.078125 -6.640625 "/>
</g>
<g id="glyph-4-10">
<path d="M 3.75 -7.546875 L 2.5 -7.546875 L 2.5 -8.734375 C 2.5 -9.234375 2.765625 -9.5 3.328125 -9.5 C 3.421875 -9.5 3.46875 -9.5 3.75 -9.484375 L 3.75 -10.46875 C 3.46875 -10.53125 3.3125 -10.546875 3.0625 -10.546875 C 1.953125 -10.546875 1.296875 -9.90625 1.296875 -8.828125 L 1.296875 -7.546875 L 0.28125 -7.546875 L 0.28125 -6.5625 L 1.296875 -6.5625 L 1.296875 0 L 2.5 0 L 2.5 -6.5625 L 3.75 -6.5625 Z M 7.625 -7.546875 L 6.375 -7.546875 L 6.375 -8.734375 C 6.375 -9.234375 6.640625 -9.5 7.203125 -9.5 C 7.296875 -9.5 7.34375 -9.5 7.625 -9.484375 L 7.625 -10.46875 C 7.34375 -10.53125 7.1875 -10.546875 6.9375 -10.546875 C 5.828125 -10.546875 5.171875 -9.90625 5.171875 -8.828125 L 5.171875 -7.546875 L 4.15625 -7.546875 L 4.15625 -6.5625 L 5.171875 -6.5625 L 5.171875 0 L 6.375 0 L 6.375 -6.5625 L 7.625 -6.5625 Z M 7.625 -7.546875 "/>
</g>
<g id="glyph-4-11">
<path d="M 3.65625 -7.546875 L 2.421875 -7.546875 L 2.421875 -9.625 L 1.21875 -9.625 L 1.21875 -7.546875 L 0.203125 -7.546875 L 0.203125 -6.5625 L 1.21875 -6.5625 L 1.21875 -0.859375 C 1.21875 -0.09375 1.75 0.328125 2.671875 0.328125 C 3 0.328125 3.25 0.296875 3.65625 0.234375 L 3.65625 -0.78125 C 3.484375 -0.734375 3.328125 -0.71875 3.078125 -0.71875 C 2.5625 -0.71875 2.421875 -0.859375 2.421875 -1.390625 L 2.421875 -6.5625 L 3.65625 -6.5625 Z M 3.65625 -7.546875 "/>
</g>
<g id="glyph-4-12">
<path d="M 2.15625 -7.546875 L 0.96875 -7.546875 L 0.96875 0 L 2.15625 0 Z M 2.15625 -10.5 L 0.953125 -10.5 L 0.953125 -8.984375 L 2.15625 -8.984375 Z M 2.15625 -10.5 "/>
</g>
<g id="glyph-4-13">
<path d="M 6.3125 -5.453125 C 6.296875 -6.921875 5.3125 -7.765625 3.578125 -7.765625 C 1.8125 -7.765625 0.671875 -6.859375 0.671875 -5.453125 C 0.671875 -4.28125 1.28125 -3.71875 3.0625 -3.28125 L 4.1875 -3.015625 C 5.03125 -2.8125 5.359375 -2.5 5.359375 -1.96875 C 5.359375 -1.25 4.65625 -0.78125 3.59375 -0.78125 C 2.953125 -0.78125 2.40625 -0.96875 2.109375 -1.28125 C 1.921875 -1.5 1.828125 -1.71875 1.75 -2.25 L 0.484375 -2.25 C 0.546875 -0.5 1.53125 0.328125 3.5 0.328125 C 5.40625 0.328125 6.609375 -0.609375 6.609375 -2.0625 C 6.609375 -3.1875 5.984375 -3.796875 4.484375 -4.15625 L 3.328125 -4.4375 C 2.34375 -4.671875 1.9375 -4.984375 1.9375 -5.515625 C 1.9375 -6.21875 2.546875 -6.65625 3.53125 -6.65625 C 4.5 -6.65625 5.015625 -6.234375 5.046875 -5.453125 Z M 6.3125 -5.453125 "/>
</g>
<g id="glyph-4-14">
<path d="M 7.984375 0 L 10.203125 -7.546875 L 8.84375 -7.546875 L 7.34375 -1.671875 L 5.859375 -7.546875 L 4.390625 -7.546875 L 2.953125 -1.671875 L 1.40625 -7.546875 L 0.09375 -7.546875 L 2.28125 0 L 3.625 0 L 5.078125 -5.921875 L 6.609375 0 Z M 7.984375 0 "/>
</g>
<g id="glyph-4-15">
<path d="M 7.125 -10.5 L 5.9375 -10.5 L 5.9375 -6.59375 C 5.4375 -7.359375 4.625 -7.765625 3.609375 -7.765625 C 1.65625 -7.765625 0.375 -6.1875 0.375 -3.78125 C 0.375 -1.234375 1.609375 0.328125 3.65625 0.328125 C 4.703125 0.328125 5.421875 -0.0625 6.0625 -1 L 6.0625 0 L 7.125 0 Z M 3.8125 -6.640625 C 5.109375 -6.640625 5.9375 -5.5 5.9375 -3.6875 C 5.9375 -1.9375 5.09375 -0.796875 3.828125 -0.796875 C 2.5 -0.796875 1.625 -1.953125 1.625 -3.71875 C 1.625 -5.46875 2.5 -6.640625 3.8125 -6.640625 Z M 3.8125 -6.640625 "/>
</g>
<g id="glyph-4-16">
<path d="M 5.59375 -7.546875 L 3.5 -1.671875 L 1.5625 -7.546875 L 0.28125 -7.546875 L 2.84375 0.03125 L 2.375 1.21875 C 2.171875 1.75 1.921875 1.953125 1.40625 1.953125 C 1.203125 1.953125 1.03125 1.9375 0.78125 1.875 L 0.78125 2.953125 C 1.015625 3.078125 1.265625 3.140625 1.578125 3.140625 C 1.96875 3.140625 2.390625 3.015625 2.703125 2.78125 C 3.078125 2.5 3.296875 2.1875 3.53125 1.578125 L 6.890625 -7.546875 Z M 5.59375 -7.546875 "/>
</g>
<g id="glyph-4-17">
<path d="M 1 -7.546875 L 1 0 L 2.203125 0 L 2.203125 -3.921875 C 2.21875 -5.734375 2.96875 -6.546875 4.625 -6.5 L 4.625 -7.71875 C 4.421875 -7.75 4.3125 -7.765625 4.15625 -7.765625 C 3.390625 -7.765625 2.796875 -7.296875 2.109375 -6.1875 L 2.109375 -7.546875 Z M 1 -7.546875 "/>
</g>
<g id="glyph-4-18">
<path d="M 1.015625 -7.546875 L 1.015625 0 L 2.21875 0 L 2.21875 -4.15625 C 2.21875 -5.703125 3.03125 -6.71875 4.265625 -6.71875 C 5.21875 -6.71875 5.8125 -6.140625 5.8125 -5.234375 L 5.8125 0 L 7.015625 0 L 7.015625 -5.703125 C 7.015625 -6.953125 6.078125 -7.765625 4.625 -7.765625 C 3.5 -7.765625 2.78125 -7.328125 2.125 -6.28125 L 2.125 -7.546875 Z M 1.015625 -7.546875 "/>
</g>
<g id="glyph-4-19">
<path d="M 4.109375 0 L 7 -7.546875 L 5.640625 -7.546875 L 3.515625 -1.421875 L 1.5 -7.546875 L 0.140625 -7.546875 L 2.796875 0 Z M 4.109375 0 "/>
</g>
<g id="glyph-4-20">
<path d="M 6.9375 0 L 6.9375 -7.546875 L 5.75 -7.546875 L 5.75 -3.265625 C 5.75 -1.734375 4.9375 -0.71875 3.6875 -0.71875 C 2.734375 -0.71875 2.125 -1.296875 2.125 -2.203125 L 2.125 -7.546875 L 0.9375 -7.546875 L 0.9375 -1.734375 C 0.9375 -0.46875 1.875 0.328125 3.34375 0.328125 C 4.453125 0.328125 5.15625 -0.0625 5.859375 -1.046875 L 5.859375 0 Z M 6.9375 0 "/>
</g>
</g>
<clipPath id="clip-0">
<path clip-rule="nonzero" d="M 36.347656 236 L 642.023438 236 L 642.023438 238 L 36.347656 238 Z M 36.347656 236 "/>
</clipPath>
<clipPath id="clip-1">
<path clip-rule="nonzero" d="M 36.347656 192 L 642.023438 192 L 642.023438 194 L 36.347656 194 Z M 36.347656 192 "/>
</clipPath>
<clipPath id="clip-2">
<path clip-rule="nonzero" d="M 36.347656 147 L 642.023438 147 L 642.023438 149 L 36.347656 149 Z M 36.347656 147 "/>
</clipPath>
<clipPath id="clip-3">
<path clip-rule="nonzero" d="M 36.347656 102 L 642.023438 102 L 642.023438 104 L 36.347656 104 Z M 36.347656 102 "/>
</clipPath>
<clipPath id="clip-4">
<path clip-rule="nonzero" d="M 36.347656 57 L 642.023438 57 L 642.023438 60 L 36.347656 60 Z M 36.347656 57 "/>
</clipPath>
<clipPath id="clip-5">
<path clip-rule="nonzero" d="M 107 44.933594 L 109 44.933594 L 109 246.464844 L 107 246.464844 Z M 107 44.933594 "/>
</clipPath>
<clipPath id="clip-6">
<path clip-rule="nonzero" d="M 283 44.933594 L 285 44.933594 L 285 246.464844 L 283 246.464844 Z M 283 44.933594 "/>
</clipPath>
<clipPath id="clip-7">
<path clip-rule="nonzero" d="M 458 44.933594 L 460 44.933594 L 460 246.464844 L 458 246.464844 Z M 458 44.933594 "/>
</clipPath>
<clipPath id="clip-8">
<path clip-rule="nonzero" d="M 634 44.933594 L 636 44.933594 L 636 246.464844 L 634 246.464844 Z M 634 44.933594 "/>
</clipPath>
<clipPath id="clip-9">
<path clip-rule="nonzero" d="M 333 44.933594 L 337 44.933594 L 337 246.464844 L 333 246.464844 Z M 333 44.933594 "/>
</clipPath>
</defs>
<rect x="-64.8" y="-32.4" width="777.6" height="388.8" fill="rgb(100%, 100%, 100%)" fill-opacity="1"/>
<rect x="-64.8" y="-32.4" width="777.6" height="388.8" fill="rgb(100%, 100%, 100%)" fill-opacity="1"/>
<g clip-path="url(#clip-0)">
<path fill="none" stroke-width="1.163976" stroke-linecap="butt" stroke-linejoin="round" stroke="rgb(92.156863%, 92.156863%, 92.156863%)" stroke-opacity="1" stroke-miterlimit="10" d="M 36.347656 237.304688 L 642.023438 237.304688 "/>
</g>
<g clip-path="url(#clip-1)">
<path fill="none" stroke-width="1.163976" stroke-linecap="butt" stroke-linejoin="round" stroke="rgb(92.156863%, 92.156863%, 92.156863%)" stroke-opacity="1" stroke-miterlimit="10" d="M 36.347656 192.617188 L 642.023438 192.617188 "/>
</g>
<g clip-path="url(#clip-2)">
<path fill="none" stroke-width="1.163976" stroke-linecap="butt" stroke-linejoin="round" stroke="rgb(92.156863%, 92.156863%, 92.156863%)" stroke-opacity="1" stroke-miterlimit="10" d="M 36.347656 147.933594 L 642.023438 147.933594 "/>
</g>
<g clip-path="url(#clip-3)">
<path fill="none" stroke-width="1.163976" stroke-linecap="butt" stroke-linejoin="round" stroke="rgb(92.156863%, 92.156863%, 92.156863%)" stroke-opacity="1" stroke-miterlimit="10" d="M 36.347656 103.246094 L 642.023438 103.246094 "/>
</g>
<g clip-path="url(#clip-4)">
<path fill="none" stroke-width="1.163976" stroke-linecap="butt" stroke-linejoin="round" stroke="rgb(92.156863%, 92.156863%, 92.156863%)" stroke-opacity="1" stroke-miterlimit="10" d="M 36.347656 58.5625 L 642.023438 58.5625 "/>
</g>
<g clip-path="url(#clip-5)">
<path fill="none" stroke-width="1.163976" stroke-linecap="butt" stroke-linejoin="round" stroke="rgb(92.156863%, 92.156863%, 92.156863%)" stroke-opacity="1" stroke-miterlimit="10" d="M 108.230469 246.464844 L 108.230469 44.933594 "/>
</g>
<g clip-path="url(#clip-6)">
<path fill="none" stroke-width="1.163976" stroke-linecap="butt" stroke-linejoin="round" stroke="rgb(92.156863%, 92.156863%, 92.156863%)" stroke-opacity="1" stroke-miterlimit="10" d="M 283.695312 246.464844 L 283.695312 44.933594 "/>
</g>
<g clip-path="url(#clip-7)">
<path fill="none" stroke-width="1.163976" stroke-linecap="butt" stroke-linejoin="round" stroke="rgb(92.156863%, 92.156863%, 92.156863%)" stroke-opacity="1" stroke-miterlimit="10" d="M 459.164062 246.464844 L 459.164062 44.933594 "/>
</g>
<g clip-path="url(#clip-8)">
<path fill="none" stroke-width="1.163976" stroke-linecap="butt" stroke-linejoin="round" stroke="rgb(92.156863%, 92.156863%, 92.156863%)" stroke-opacity="1" stroke-miterlimit="10" d="M 634.632812 246.464844 L 634.632812 44.933594 "/>
</g>
<path fill-rule="nonzero" fill="rgb(29.019608%, 56.470588%, 85.098039%)" fill-opacity="0.74902" d="M 63.875 237.304688 L 74.886719 237.304688 L 74.886719 232.835938 L 63.875 232.835938 Z M 63.875 237.304688 "/>
<path fill-rule="nonzero" fill="rgb(29.019608%, 56.470588%, 85.098039%)" fill-opacity="0.74902" d="M 85.902344 237.304688 L 96.914062 237.304688 L 96.914062 230.601562 L 85.902344 230.601562 Z M 85.902344 237.304688 "/>
<path fill-rule="nonzero" fill="rgb(29.019608%, 56.470588%, 85.098039%)" fill-opacity="0.74902" d="M 96.914062 237.304688 L 107.925781 237.304688 L 107.925781 228.367188 L 96.914062 228.367188 Z M 96.914062 237.304688 "/>
<path fill-rule="nonzero" fill="rgb(29.019608%, 56.470588%, 85.098039%)" fill-opacity="0.74902" d="M 107.925781 237.304688 L 118.9375 237.304688 L 118.9375 219.429688 L 107.925781 219.429688 Z M 107.925781 237.304688 "/>
<path fill-rule="nonzero" fill="rgb(29.019608%, 56.470588%, 85.098039%)" fill-opacity="0.74902" d="M 118.9375 237.304688 L 129.949219 237.304688 L 129.949219 212.726562 L 118.9375 212.726562 Z M 118.9375 237.304688 "/>
<path fill-rule="nonzero" fill="rgb(29.019608%, 56.470588%, 85.098039%)" fill-opacity="0.74902" d="M 129.949219 237.304688 L 140.960938 237.304688 L 140.960938 228.367188 L 129.949219 228.367188 Z M 129.949219 237.304688 "/>
<path fill-rule="nonzero" fill="rgb(29.019608%, 56.470588%, 85.098039%)" fill-opacity="0.74902" d="M 140.964844 237.304688 L 151.976562 237.304688 L 151.976562 221.664062 L 140.964844 221.664062 Z M 140.964844 237.304688 "/>
<path fill-rule="nonzero" fill="rgb(29.019608%, 56.470588%, 85.098039%)" fill-opacity="0.74902" d="M 151.976562 237.304688 L 162.988281 237.304688 L 162.988281 214.960938 L 151.976562 214.960938 Z M 151.976562 237.304688 "/>
<path fill-rule="nonzero" fill="rgb(29.019608%, 56.470588%, 85.098039%)" fill-opacity="0.74902" d="M 162.988281 237.304688 L 174 237.304688 L 174 210.492188 L 162.988281 210.492188 Z M 162.988281 237.304688 "/>
<path fill-rule="nonzero" fill="rgb(29.019608%, 56.470588%, 85.098039%)" fill-opacity="0.74902" d="M 174 237.304688 L 185.011719 237.304688 L 185.011719 192.621094 L 174 192.621094 Z M 174 237.304688 "/>
<path fill-rule="nonzero" fill="rgb(29.019608%, 56.470588%, 85.098039%)" fill-opacity="0.74902" d="M 185.011719 237.304688 L 196.023438 237.304688 L 196.023438 172.511719 L 185.011719 172.511719 Z M 185.011719 237.304688 "/>
<path fill-rule="nonzero" fill="rgb(29.019608%, 56.470588%, 85.098039%)" fill-opacity="0.74902" d="M 196.023438 237.304688 L 207.035156 237.304688 L 207.035156 185.917969 L 196.023438 185.917969 Z M 196.023438 237.304688 "/>
<path fill-rule="nonzero" fill="rgb(29.019608%, 56.470588%, 85.098039%)" fill-opacity="0.74902" d="M 207.035156 237.304688 L 218.046875 237.304688 L 218.046875 172.511719 L 207.035156 172.511719 Z M 207.035156 237.304688 "/>
<path fill-rule="nonzero" fill="rgb(29.019608%, 56.470588%, 85.098039%)" fill-opacity="0.74902" d="M 218.050781 237.304688 L 229.0625 237.304688 L 229.0625 156.871094 L 218.050781 156.871094 Z M 218.050781 237.304688 "/>
<path fill-rule="nonzero" fill="rgb(29.019608%, 56.470588%, 85.098039%)" fill-opacity="0.74902" d="M 229.0625 237.304688 L 240.074219 237.304688 L 240.074219 161.339844 L 229.0625 161.339844 Z M 229.0625 237.304688 "/>
<path fill-rule="nonzero" fill="rgb(29.019608%, 56.470588%, 85.098039%)" fill-opacity="0.74902" d="M 240.074219 237.304688 L 251.085938 237.304688 L 251.085938 132.292969 L 240.074219 132.292969 Z M 240.074219 237.304688 "/>
<path fill-rule="nonzero" fill="rgb(29.019608%, 56.470588%, 85.098039%)" fill-opacity="0.74902" d="M 251.085938 237.304688 L 262.097656 237.304688 L 262.097656 161.339844 L 251.085938 161.339844 Z M 251.085938 237.304688 "/>
<path fill-rule="nonzero" fill="rgb(29.019608%, 56.470588%, 85.098039%)" fill-opacity="0.74902" d="M 262.097656 237.304688 L 273.109375 237.304688 L 273.109375 154.636719 L 262.097656 154.636719 Z M 262.097656 237.304688 "/>
<path fill-rule="nonzero" fill="rgb(29.019608%, 56.470588%, 85.098039%)" fill-opacity="0.74902" d="M 273.109375 237.304688 L 284.121094 237.304688 L 284.121094 172.511719 L 273.109375 172.511719 Z M 273.109375 237.304688 "/>
<path fill-rule="nonzero" fill="rgb(29.019608%, 56.470588%, 85.098039%)" fill-opacity="0.74902" d="M 284.121094 237.304688 L 295.132812 237.304688 L 295.132812 163.574219 L 284.121094 163.574219 Z M 284.121094 237.304688 "/>
<path fill-rule="nonzero" fill="rgb(29.019608%, 56.470588%, 85.098039%)" fill-opacity="0.74902" d="M 295.136719 237.304688 L 306.148438 237.304688 L 306.148438 183.683594 L 295.136719 183.683594 Z M 295.136719 237.304688 "/>
<path fill-rule="nonzero" fill="rgb(29.019608%, 56.470588%, 85.098039%)" fill-opacity="0.74902" d="M 306.148438 237.304688 L 317.160156 237.304688 L 317.160156 172.511719 L 306.148438 172.511719 Z M 306.148438 237.304688 "/>
<path fill-rule="nonzero" fill="rgb(29.019608%, 56.470588%, 85.098039%)" fill-opacity="0.74902" d="M 317.160156 237.304688 L 328.171875 237.304688 L 328.171875 172.511719 L 317.160156 172.511719 Z M 317.160156 237.304688 "/>
<path fill-rule="nonzero" fill="rgb(29.019608%, 56.470588%, 85.098039%)" fill-opacity="0.74902" d="M 328.171875 237.304688 L 339.183594 237.304688 L 339.183594 183.683594 L 328.171875 183.683594 Z M 328.171875 237.304688 "/>
<path fill-rule="nonzero" fill="rgb(29.019608%, 56.470588%, 85.098039%)" fill-opacity="0.74902" d="M 339.183594 237.304688 L 350.195312 237.304688 L 350.195312 185.917969 L 339.183594 185.917969 Z M 339.183594 237.304688 "/>
<path fill-rule="nonzero" fill="rgb(29.019608%, 56.470588%, 85.098039%)" fill-opacity="0.74902" d="M 350.195312 237.304688 L 361.207031 237.304688 L 361.207031 190.386719 L 350.195312 190.386719 Z M 350.195312 237.304688 "/>
<path fill-rule="nonzero" fill="rgb(29.019608%, 56.470588%, 85.098039%)" fill-opacity="0.74902" d="M 361.207031 237.304688 L 372.21875 237.304688 L 372.21875 217.195312 L 361.207031 217.195312 Z M 361.207031 237.304688 "/>
<path fill-rule="nonzero" fill="rgb(29.019608%, 56.470588%, 85.098039%)" fill-opacity="0.74902" d="M 372.222656 237.304688 L 383.234375 237.304688 L 383.234375 217.195312 L 372.222656 217.195312 Z M 372.222656 237.304688 "/>
<path fill-rule="nonzero" fill="rgb(29.019608%, 56.470588%, 85.098039%)" fill-opacity="0.74902" d="M 383.234375 237.304688 L 394.246094 237.304688 L 394.246094 226.132812 L 383.234375 226.132812 Z M 383.234375 237.304688 "/>
<path fill-rule="nonzero" fill="rgb(29.019608%, 56.470588%, 85.098039%)" fill-opacity="0.74902" d="M 394.246094 237.304688 L 405.257812 237.304688 L 405.257812 226.132812 L 394.246094 226.132812 Z M 394.246094 237.304688 "/>
<path fill-rule="nonzero" fill="rgb(29.019608%, 56.470588%, 85.098039%)" fill-opacity="0.74902" d="M 405.257812 237.304688 L 416.269531 237.304688 L 416.269531 230.601562 L 405.257812 230.601562 Z M 405.257812 237.304688 "/>
<path fill-rule="nonzero" fill="rgb(29.019608%, 56.470588%, 85.098039%)" fill-opacity="0.74902" d="M 416.269531 237.304688 L 427.28125 237.304688 L 427.28125 232.835938 L 416.269531 232.835938 Z M 416.269531 237.304688 "/>
<path fill-rule="nonzero" fill="rgb(29.019608%, 56.470588%, 85.098039%)" fill-opacity="0.74902" d="M 438.296875 237.304688 L 449.308594 237.304688 L 449.308594 235.070312 L 438.296875 235.070312 Z M 438.296875 237.304688 "/>
<path fill-rule="nonzero" fill="rgb(29.019608%, 56.470588%, 85.098039%)" fill-opacity="0.74902" d="M 493.355469 237.304688 L 504.367188 237.304688 L 504.367188 235.070312 L 493.355469 235.070312 Z M 493.355469 237.304688 "/>
<path fill-rule="nonzero" fill="rgb(45.490196%, 72.54902%, 62.745098%)" fill-opacity="0.74902" d="M 118.9375 237.304688 L 129.949219 237.304688 L 129.949219 235.070312 L 118.9375 235.070312 Z M 118.9375 237.304688 "/>
<path fill-rule="nonzero" fill="rgb(45.490196%, 72.54902%, 62.745098%)" fill-opacity="0.74902" d="M 151.976562 237.304688 L 162.988281 237.304688 L 162.988281 232.835938 L 151.976562 232.835938 Z M 151.976562 237.304688 "/>
<path fill-rule="nonzero" fill="rgb(45.490196%, 72.54902%, 62.745098%)" fill-opacity="0.74902" d="M 162.988281 237.304688 L 174 237.304688 L 174 235.070312 L 162.988281 235.070312 Z M 162.988281 237.304688 "/>
<path fill-rule="nonzero" fill="rgb(45.490196%, 72.54902%, 62.745098%)" fill-opacity="0.74902" d="M 174 237.304688 L 185.011719 237.304688 L 185.011719 228.367188 L 174 228.367188 Z M 174 237.304688 "/>
<path fill-rule="nonzero" fill="rgb(45.490196%, 72.54902%, 62.745098%)" fill-opacity="0.74902" d="M 185.011719 237.304688 L 196.023438 237.304688 L 196.023438 228.367188 L 185.011719 228.367188 Z M 185.011719 237.304688 "/>
<path fill-rule="nonzero" fill="rgb(45.490196%, 72.54902%, 62.745098%)" fill-opacity="0.74902" d="M 196.023438 237.304688 L 207.035156 237.304688 L 207.035156 221.664062 L 196.023438 221.664062 Z M 196.023438 237.304688 "/>
<path fill-rule="nonzero" fill="rgb(45.490196%, 72.54902%, 62.745098%)" fill-opacity="0.74902" d="M 207.035156 237.304688 L 218.046875 237.304688 L 218.046875 219.429688 L 207.035156 219.429688 Z M 207.035156 237.304688 "/>
<path fill-rule="nonzero" fill="rgb(45.490196%, 72.54902%, 62.745098%)" fill-opacity="0.74902" d="M 218.050781 237.304688 L 229.0625 237.304688 L 229.0625 217.195312 L 218.050781 217.195312 Z M 218.050781 237.304688 "/>
<path fill-rule="nonzero" fill="rgb(45.490196%, 72.54902%, 62.745098%)" fill-opacity="0.74902" d="M 229.0625 237.304688 L 240.074219 237.304688 L 240.074219 208.257812 L 229.0625 208.257812 Z M 229.0625 237.304688 "/>
<path fill-rule="nonzero" fill="rgb(45.490196%, 72.54902%, 62.745098%)" fill-opacity="0.74902" d="M 240.074219 237.304688 L 251.085938 237.304688 L 251.085938 185.917969 L 240.074219 185.917969 Z M 240.074219 237.304688 "/>
<path fill-rule="nonzero" fill="rgb(45.490196%, 72.54902%, 62.745098%)" fill-opacity="0.74902" d="M 251.085938 237.304688 L 262.097656 237.304688 L 262.097656 183.683594 L 251.085938 183.683594 Z M 251.085938 237.304688 "/>
<path fill-rule="nonzero" fill="rgb(45.490196%, 72.54902%, 62.745098%)" fill-opacity="0.74902" d="M 262.097656 237.304688 L 273.109375 237.304688 L 273.109375 159.105469 L 262.097656 159.105469 Z M 262.097656 237.304688 "/>
<path fill-rule="nonzero" fill="rgb(45.490196%, 72.54902%, 62.745098%)" fill-opacity="0.74902" d="M 273.109375 237.304688 L 284.121094 237.304688 L 284.121094 147.933594 L 273.109375 147.933594 Z M 273.109375 237.304688 "/>
<path fill-rule="nonzero" fill="rgb(45.490196%, 72.54902%, 62.745098%)" fill-opacity="0.74902" d="M 284.121094 237.304688 L 295.132812 237.304688 L 295.132812 134.527344 L 284.121094 134.527344 Z M 284.121094 237.304688 "/>
<path fill-rule="nonzero" fill="rgb(45.490196%, 72.54902%, 62.745098%)" fill-opacity="0.74902" d="M 295.136719 237.304688 L 306.148438 237.304688 L 306.148438 116.65625 L 295.136719 116.65625 Z M 295.136719 237.304688 "/>
<path fill-rule="nonzero" fill="rgb(45.490196%, 72.54902%, 62.745098%)" fill-opacity="0.74902" d="M 306.148438 237.304688 L 317.160156 237.304688 L 317.160156 116.65625 L 306.148438 116.65625 Z M 306.148438 237.304688 "/>
<path fill-rule="nonzero" fill="rgb(45.490196%, 72.54902%, 62.745098%)" fill-opacity="0.74902" d="M 317.160156 237.304688 L 328.171875 237.304688 L 328.171875 123.355469 L 317.160156 123.355469 Z M 317.160156 237.304688 "/>
<path fill-rule="nonzero" fill="rgb(45.490196%, 72.54902%, 62.745098%)" fill-opacity="0.74902" d="M 328.171875 237.304688 L 339.183594 237.304688 L 339.183594 123.355469 L 328.171875 123.355469 Z M 328.171875 237.304688 "/>
<path fill-rule="nonzero" fill="rgb(45.490196%, 72.54902%, 62.745098%)" fill-opacity="0.74902" d="M 339.183594 237.304688 L 350.195312 237.304688 L 350.195312 138.996094 L 339.183594 138.996094 Z M 339.183594 237.304688 "/>
<path fill-rule="nonzero" fill="rgb(45.490196%, 72.54902%, 62.745098%)" fill-opacity="0.74902" d="M 350.195312 237.304688 L 361.207031 237.304688 L 361.207031 134.527344 L 350.195312 134.527344 Z M 350.195312 237.304688 "/>
<path fill-rule="nonzero" fill="rgb(45.490196%, 72.54902%, 62.745098%)" fill-opacity="0.74902" d="M 361.207031 237.304688 L 372.21875 237.304688 L 372.21875 121.121094 L 361.207031 121.121094 Z M 361.207031 237.304688 "/>
<path fill-rule="nonzero" fill="rgb(45.490196%, 72.54902%, 62.745098%)" fill-opacity="0.74902" d="M 372.222656 237.304688 L 383.234375 237.304688 L 383.234375 156.871094 L 372.222656 156.871094 Z M 372.222656 237.304688 "/>
<path fill-rule="nonzero" fill="rgb(45.490196%, 72.54902%, 62.745098%)" fill-opacity="0.74902" d="M 383.234375 237.304688 L 394.246094 237.304688 L 394.246094 132.292969 L 383.234375 132.292969 Z M 383.234375 237.304688 "/>
<path fill-rule="nonzero" fill="rgb(45.490196%, 72.54902%, 62.745098%)" fill-opacity="0.74902" d="M 394.246094 237.304688 L 405.257812 237.304688 L 405.257812 181.449219 L 394.246094 181.449219 Z M 394.246094 237.304688 "/>
<path fill-rule="nonzero" fill="rgb(45.490196%, 72.54902%, 62.745098%)" fill-opacity="0.74902" d="M 405.257812 237.304688 L 416.269531 237.304688 L 416.269531 199.320312 L 405.257812 199.320312 Z M 405.257812 237.304688 "/>
<path fill-rule="nonzero" fill="rgb(45.490196%, 72.54902%, 62.745098%)" fill-opacity="0.74902" d="M 416.269531 237.304688 L 427.28125 237.304688 L 427.28125 172.511719 L 416.269531 172.511719 Z M 416.269531 237.304688 "/>
<path fill-rule="nonzero" fill="rgb(45.490196%, 72.54902%, 62.745098%)" fill-opacity="0.74902" d="M 427.28125 237.304688 L 438.292969 237.304688 L 438.292969 197.089844 L 427.28125 197.089844 Z M 427.28125 237.304688 "/>
<path fill-rule="nonzero" fill="rgb(45.490196%, 72.54902%, 62.745098%)" fill-opacity="0.74902" d="M 438.296875 237.304688 L 449.308594 237.304688 L 449.308594 230.601562 L 438.296875 230.601562 Z M 438.296875 237.304688 "/>
<path fill-rule="nonzero" fill="rgb(45.490196%, 72.54902%, 62.745098%)" fill-opacity="0.74902" d="M 449.308594 237.304688 L 460.320312 237.304688 L 460.320312 210.492188 L 449.308594 210.492188 Z M 449.308594 237.304688 "/>
<path fill-rule="nonzero" fill="rgb(45.490196%, 72.54902%, 62.745098%)" fill-opacity="0.74902" d="M 460.320312 237.304688 L 471.332031 237.304688 L 471.332031 219.429688 L 460.320312 219.429688 Z M 460.320312 237.304688 "/>
<path fill-rule="nonzero" fill="rgb(45.490196%, 72.54902%, 62.745098%)" fill-opacity="0.74902" d="M 471.332031 237.304688 L 482.34375 237.304688 L 482.34375 219.429688 L 471.332031 219.429688 Z M 471.332031 237.304688 "/>
<path fill-rule="nonzero" fill="rgb(45.490196%, 72.54902%, 62.745098%)" fill-opacity="0.74902" d="M 482.34375 237.304688 L 493.355469 237.304688 L 493.355469 230.601562 L 482.34375 230.601562 Z M 482.34375 237.304688 "/>
<path fill-rule="nonzero" fill="rgb(45.490196%, 72.54902%, 62.745098%)" fill-opacity="0.74902" d="M 493.355469 237.304688 L 504.367188 237.304688 L 504.367188 232.835938 L 493.355469 232.835938 Z M 493.355469 237.304688 "/>
<path fill-rule="nonzero" fill="rgb(45.490196%, 72.54902%, 62.745098%)" fill-opacity="0.74902" d="M 526.394531 237.304688 L 537.40625 237.304688 L 537.40625 235.070312 L 526.394531 235.070312 Z M 526.394531 237.304688 "/>
<path fill-rule="nonzero" fill="rgb(17.647059%, 41.568627%, 30.980392%)" fill-opacity="0.74902" d="M 196.023438 237.304688 L 207.035156 237.304688 L 207.035156 235.070312 L 196.023438 235.070312 Z M 196.023438 237.304688 "/>
<path fill-rule="nonzero" fill="rgb(17.647059%, 41.568627%, 30.980392%)" fill-opacity="0.74902" d="M 207.035156 237.304688 L 218.046875 237.304688 L 218.046875 235.070312 L 207.035156 235.070312 Z M 207.035156 237.304688 "/>
<path fill-rule="nonzero" fill="rgb(17.647059%, 41.568627%, 30.980392%)" fill-opacity="0.74902" d="M 218.050781 237.304688 L 229.0625 237.304688 L 229.0625 232.835938 L 218.050781 232.835938 Z M 218.050781 237.304688 "/>
<path fill-rule="nonzero" fill="rgb(17.647059%, 41.568627%, 30.980392%)" fill-opacity="0.74902" d="M 229.0625 237.304688 L 240.074219 237.304688 L 240.074219 235.070312 L 229.0625 235.070312 Z M 229.0625 237.304688 "/>
<path fill-rule="nonzero" fill="rgb(17.647059%, 41.568627%, 30.980392%)" fill-opacity="0.74902" d="M 240.074219 237.304688 L 251.085938 237.304688 L 251.085938 235.070312 L 240.074219 235.070312 Z M 240.074219 237.304688 "/>
<path fill-rule="nonzero" fill="rgb(17.647059%, 41.568627%, 30.980392%)" fill-opacity="0.74902" d="M 251.085938 237.304688 L 262.097656 237.304688 L 262.097656 228.367188 L 251.085938 228.367188 Z M 251.085938 237.304688 "/>
<path fill-rule="nonzero" fill="rgb(17.647059%, 41.568627%, 30.980392%)" fill-opacity="0.74902" d="M 262.097656 237.304688 L 273.109375 237.304688 L 273.109375 232.835938 L 262.097656 232.835938 Z M 262.097656 237.304688 "/>
<path fill-rule="nonzero" fill="rgb(17.647059%, 41.568627%, 30.980392%)" fill-opacity="0.74902" d="M 273.109375 237.304688 L 284.121094 237.304688 L 284.121094 221.664062 L 273.109375 221.664062 Z M 273.109375 237.304688 "/>
<path fill-rule="nonzero" fill="rgb(17.647059%, 41.568627%, 30.980392%)" fill-opacity="0.74902" d="M 284.121094 237.304688 L 295.132812 237.304688 L 295.132812 228.367188 L 284.121094 228.367188 Z M 284.121094 237.304688 "/>
<path fill-rule="nonzero" fill="rgb(17.647059%, 41.568627%, 30.980392%)" fill-opacity="0.74902" d="M 295.136719 237.304688 L 306.148438 237.304688 L 306.148438 217.195312 L 295.136719 217.195312 Z M 295.136719 237.304688 "/>
<path fill-rule="nonzero" fill="rgb(17.647059%, 41.568627%, 30.980392%)" fill-opacity="0.74902" d="M 306.148438 237.304688 L 317.160156 237.304688 L 317.160156 201.554688 L 306.148438 201.554688 Z M 306.148438 237.304688 "/>
<path fill-rule="nonzero" fill="rgb(17.647059%, 41.568627%, 30.980392%)" fill-opacity="0.74902" d="M 317.160156 237.304688 L 328.171875 237.304688 L 328.171875 206.023438 L 317.160156 206.023438 Z M 317.160156 237.304688 "/>
<path fill-rule="nonzero" fill="rgb(17.647059%, 41.568627%, 30.980392%)" fill-opacity="0.74902" d="M 328.171875 237.304688 L 339.183594 237.304688 L 339.183594 197.089844 L 328.171875 197.089844 Z M 328.171875 237.304688 "/>
<path fill-rule="nonzero" fill="rgb(17.647059%, 41.568627%, 30.980392%)" fill-opacity="0.74902" d="M 339.183594 237.304688 L 350.195312 237.304688 L 350.195312 188.152344 L 339.183594 188.152344 Z M 339.183594 237.304688 "/>
<path fill-rule="nonzero" fill="rgb(17.647059%, 41.568627%, 30.980392%)" fill-opacity="0.74902" d="M 350.195312 237.304688 L 361.207031 237.304688 L 361.207031 181.449219 L 350.195312 181.449219 Z M 350.195312 237.304688 "/>
<path fill-rule="nonzero" fill="rgb(17.647059%, 41.568627%, 30.980392%)" fill-opacity="0.74902" d="M 361.207031 237.304688 L 372.21875 237.304688 L 372.21875 159.105469 L 361.207031 159.105469 Z M 361.207031 237.304688 "/>
<path fill-rule="nonzero" fill="rgb(17.647059%, 41.568627%, 30.980392%)" fill-opacity="0.74902" d="M 372.222656 237.304688 L 383.234375 237.304688 L 383.234375 145.699219 L 372.222656 145.699219 Z M 372.222656 237.304688 "/>
<path fill-rule="nonzero" fill="rgb(17.647059%, 41.568627%, 30.980392%)" fill-opacity="0.74902" d="M 383.234375 237.304688 L 394.246094 237.304688 L 394.246094 170.277344 L 383.234375 170.277344 Z M 383.234375 237.304688 "/>
<path fill-rule="nonzero" fill="rgb(17.647059%, 41.568627%, 30.980392%)" fill-opacity="0.74902" d="M 394.246094 237.304688 L 405.257812 237.304688 L 405.257812 159.105469 L 394.246094 159.105469 Z M 394.246094 237.304688 "/>
<path fill-rule="nonzero" fill="rgb(17.647059%, 41.568627%, 30.980392%)" fill-opacity="0.74902" d="M 405.257812 237.304688 L 416.269531 237.304688 L 416.269531 159.105469 L 405.257812 159.105469 Z M 405.257812 237.304688 "/>
<path fill-rule="nonzero" fill="rgb(17.647059%, 41.568627%, 30.980392%)" fill-opacity="0.74902" d="M 416.269531 237.304688 L 427.28125 237.304688 L 427.28125 152.402344 L 416.269531 152.402344 Z M 416.269531 237.304688 "/>
<path fill-rule="nonzero" fill="rgb(17.647059%, 41.568627%, 30.980392%)" fill-opacity="0.74902" d="M 427.28125 237.304688 L 438.292969 237.304688 L 438.292969 136.761719 L 427.28125 136.761719 Z M 427.28125 237.304688 "/>
<path fill-rule="nonzero" fill="rgb(17.647059%, 41.568627%, 30.980392%)" fill-opacity="0.74902" d="M 438.296875 237.304688 L 449.308594 237.304688 L 449.308594 147.933594 L 438.296875 147.933594 Z M 438.296875 237.304688 "/>
<path fill-rule="nonzero" fill="rgb(17.647059%, 41.568627%, 30.980392%)" fill-opacity="0.74902" d="M 449.308594 237.304688 L 460.320312 237.304688 L 460.320312 165.808594 L 449.308594 165.808594 Z M 449.308594 237.304688 "/>
<path fill-rule="nonzero" fill="rgb(17.647059%, 41.568627%, 30.980392%)" fill-opacity="0.74902" d="M 460.320312 237.304688 L 471.332031 237.304688 L 471.332031 145.699219 L 460.320312 145.699219 Z M 460.320312 237.304688 "/>
<path fill-rule="nonzero" fill="rgb(17.647059%, 41.568627%, 30.980392%)" fill-opacity="0.74902" d="M 471.332031 237.304688 L 482.34375 237.304688 L 482.34375 181.449219 L 471.332031 181.449219 Z M 471.332031 237.304688 "/>
<path fill-rule="nonzero" fill="rgb(17.647059%, 41.568627%, 30.980392%)" fill-opacity="0.74902" d="M 482.34375 237.304688 L 493.355469 237.304688 L 493.355469 181.449219 L 482.34375 181.449219 Z M 482.34375 237.304688 "/>
<path fill-rule="nonzero" fill="rgb(17.647059%, 41.568627%, 30.980392%)" fill-opacity="0.74902" d="M 493.355469 237.304688 L 504.367188 237.304688 L 504.367188 201.554688 L 493.355469 201.554688 Z M 493.355469 237.304688 "/>
<path fill-rule="nonzero" fill="rgb(17.647059%, 41.568627%, 30.980392%)" fill-opacity="0.74902" d="M 504.367188 237.304688 L 515.378906 237.304688 L 515.378906 206.023438 L 504.367188 206.023438 Z M 504.367188 237.304688 "/>
<path fill-rule="nonzero" fill="rgb(17.647059%, 41.568627%, 30.980392%)" fill-opacity="0.74902" d="M 515.382812 237.304688 L 526.394531 237.304688 L 526.394531 221.664062 L 515.382812 221.664062 Z M 515.382812 237.304688 "/>
<path fill-rule="nonzero" fill="rgb(17.647059%, 41.568627%, 30.980392%)" fill-opacity="0.74902" d="M 526.394531 237.304688 L 537.40625 237.304688 L 537.40625 217.195312 L 526.394531 217.195312 Z M 526.394531 237.304688 "/>
<path fill-rule="nonzero" fill="rgb(17.647059%, 41.568627%, 30.980392%)" fill-opacity="0.74902" d="M 537.40625 237.304688 L 548.417969 237.304688 L 548.417969 212.726562 L 537.40625 212.726562 Z M 537.40625 237.304688 "/>
<path fill-rule="nonzero" fill="rgb(17.647059%, 41.568627%, 30.980392%)" fill-opacity="0.74902" d="M 548.417969 237.304688 L 559.429688 237.304688 L 559.429688 228.367188 L 548.417969 228.367188 Z M 548.417969 237.304688 "/>
<path fill-rule="nonzero" fill="rgb(17.647059%, 41.568627%, 30.980392%)" fill-opacity="0.74902" d="M 559.429688 237.304688 L 570.441406 237.304688 L 570.441406 221.664062 L 559.429688 221.664062 Z M 559.429688 237.304688 "/>
<path fill-rule="nonzero" fill="rgb(17.647059%, 41.568627%, 30.980392%)" fill-opacity="0.74902" d="M 570.441406 237.304688 L 581.453125 237.304688 L 581.453125 235.070312 L 570.441406 235.070312 Z M 570.441406 237.304688 "/>
<path fill-rule="nonzero" fill="rgb(17.647059%, 41.568627%, 30.980392%)" fill-opacity="0.74902" d="M 581.453125 237.304688 L 592.464844 237.304688 L 592.464844 230.601562 L 581.453125 230.601562 Z M 581.453125 237.304688 "/>
<path fill-rule="nonzero" fill="rgb(17.647059%, 41.568627%, 30.980392%)" fill-opacity="0.74902" d="M 592.46875 237.304688 L 603.480469 237.304688 L 603.480469 230.601562 L 592.46875 230.601562 Z M 592.46875 237.304688 "/>
<path fill-rule="nonzero" fill="rgb(17.647059%, 41.568627%, 30.980392%)" fill-opacity="0.74902" d="M 603.480469 237.304688 L 614.492188 237.304688 L 614.492188 235.070312 L 603.480469 235.070312 Z M 603.480469 237.304688 "/>
<g clip-path="url(#clip-9)">
<path fill="none" stroke-width="2.347352" stroke-linecap="butt" stroke-linejoin="round" stroke="rgb(20%, 20%, 20%)" stroke-opacity="1" stroke-dasharray="9.389409 9.389409" stroke-miterlimit="10" d="M 335.09375 246.464844 L 335.09375 44.933594 "/>
</g>
<g fill="rgb(0%, 0%, 0%)" fill-opacity="1">
<use xlink:href="#glyph-0-0" x="340.359375" y="57.353516"/>
<use xlink:href="#glyph-0-1" x="346.359375" y="57.353516"/>
<use xlink:href="#glyph-0-2" x="352.359375" y="57.353516"/>
<use xlink:href="#glyph-0-3" x="359.359375" y="57.353516"/>
<use xlink:href="#glyph-0-4" x="362.359375" y="57.353516"/>
<use xlink:href="#glyph-0-3" x="368.359375" y="57.353516"/>
<use xlink:href="#glyph-0-5" x="371.359375" y="57.353516"/>
<use xlink:href="#glyph-0-6" x="377.359375" y="57.353516"/>
<use xlink:href="#glyph-0-7" x="383.359375" y="57.353516"/>
<use xlink:href="#glyph-0-8" x="386.359375" y="57.353516"/>
<use xlink:href="#glyph-0-9" x="392.359375" y="57.353516"/>
</g>
<g fill="rgb(30.196078%, 30.196078%, 30.196078%)" fill-opacity="1">
<use xlink:href="#glyph-1-0" x="25.964844" y="240.801758"/>
</g>
<g fill="rgb(30.196078%, 30.196078%, 30.196078%)" fill-opacity="1">
<use xlink:href="#glyph-1-1" x="20.964844" y="196.114258"/>
<use xlink:href="#glyph-1-0" x="25.964844" y="196.114258"/>
</g>
<g fill="rgb(30.196078%, 30.196078%, 30.196078%)" fill-opacity="1">
<use xlink:href="#glyph-1-2" x="20.964844" y="151.430664"/>
<use xlink:href="#glyph-1-0" x="25.964844" y="151.430664"/>
</g>
<g fill="rgb(30.196078%, 30.196078%, 30.196078%)" fill-opacity="1">
<use xlink:href="#glyph-1-3" x="20.964844" y="106.743164"/>
<use xlink:href="#glyph-1-0" x="25.964844" y="106.743164"/>
</g>
<g fill="rgb(30.196078%, 30.196078%, 30.196078%)" fill-opacity="1">
<use xlink:href="#glyph-1-4" x="20.964844" y="62.05957"/>
<use xlink:href="#glyph-1-0" x="25.964844" y="62.05957"/>
</g>
<g fill="rgb(30.196078%, 30.196078%, 30.196078%)" fill-opacity="1">
<use xlink:href="#glyph-1-5" x="104.230469" y="258.84082"/>
<use xlink:href="#glyph-1-1" x="107.230469" y="258.84082"/>
</g>
<g fill="rgb(30.196078%, 30.196078%, 30.196078%)" fill-opacity="1">
<use xlink:href="#glyph-1-0" x="281.195312" y="258.84082"/>
</g>
<g fill="rgb(30.196078%, 30.196078%, 30.196078%)" fill-opacity="1">
<use xlink:href="#glyph-1-1" x="456.664062" y="258.84082"/>
</g>
<g fill="rgb(30.196078%, 30.196078%, 30.196078%)" fill-opacity="1">
<use xlink:href="#glyph-1-2" x="632.132812" y="258.84082"/>
</g>
<g fill="rgb(0%, 0%, 0%)" fill-opacity="1">
<use xlink:href="#glyph-2-0" x="227.183594" y="273.580078"/>
<use xlink:href="#glyph-2-1" x="230.183594" y="273.580078"/>
<use xlink:href="#glyph-2-2" x="237.183594" y="273.580078"/>
<use xlink:href="#glyph-2-3" x="244.183594" y="273.580078"/>
<use xlink:href="#glyph-2-4" x="247.183594" y="273.580078"/>
<use xlink:href="#glyph-2-3" x="253.183594" y="273.580078"/>
<use xlink:href="#glyph-2-2" x="256.183594" y="273.580078"/>
<use xlink:href="#glyph-2-5" x="263.183594" y="273.580078"/>
<use xlink:href="#glyph-2-6" x="270.183594" y="273.580078"/>
<use xlink:href="#glyph-2-7" x="277.183594" y="273.580078"/>
<use xlink:href="#glyph-2-8" x="280.183594" y="273.580078"/>
<use xlink:href="#glyph-2-9" x="283.183594" y="273.580078"/>
<use xlink:href="#glyph-2-10" x="289.183594" y="273.580078"/>
<use xlink:href="#glyph-2-11" x="293.183594" y="273.580078"/>
<use xlink:href="#glyph-2-6" x="300.183594" y="273.580078"/>
<use xlink:href="#glyph-2-12" x="307.183594" y="273.580078"/>
<use xlink:href="#glyph-2-13" x="310.183594" y="273.580078"/>
<use xlink:href="#glyph-2-11" x="320.183594" y="273.580078"/>
<use xlink:href="#glyph-2-1" x="327.183594" y="273.580078"/>
<use xlink:href="#glyph-2-12" x="334.183594" y="273.580078"/>
<use xlink:href="#glyph-2-8" x="337.183594" y="273.580078"/>
<use xlink:href="#glyph-2-14" x="340.183594" y="273.580078"/>
<use xlink:href="#glyph-2-15" x="348.183594" y="273.580078"/>
<use xlink:href="#glyph-2-11" x="355.183594" y="273.580078"/>
<use xlink:href="#glyph-2-16" x="362.183594" y="273.580078"/>
<use xlink:href="#glyph-2-12" x="368.183594" y="273.580078"/>
<use xlink:href="#glyph-2-8" x="371.183594" y="273.580078"/>
<use xlink:href="#glyph-2-8" x="374.183594" y="273.580078"/>
<use xlink:href="#glyph-2-17" x="377.183594" y="273.580078"/>
<use xlink:href="#glyph-2-18" x="385.183594" y="273.580078"/>
<use xlink:href="#glyph-2-19" x="389.183594" y="273.580078"/>
<use xlink:href="#glyph-2-20" x="396.183594" y="273.580078"/>
<use xlink:href="#glyph-2-21" x="400.183594" y="273.580078"/>
<use xlink:href="#glyph-2-17" x="407.183594" y="273.580078"/>
<use xlink:href="#glyph-2-18" x="415.183594" y="273.580078"/>
<use xlink:href="#glyph-2-22" x="419.183594" y="273.580078"/>
<use xlink:href="#glyph-2-20" x="426.183594" y="273.580078"/>
<use xlink:href="#glyph-2-8" x="430.183594" y="273.580078"/>
<use xlink:href="#glyph-2-8" x="433.183594" y="273.580078"/>
<use xlink:href="#glyph-2-18" x="436.183594" y="273.580078"/>
<use xlink:href="#glyph-2-23" x="440.183594" y="273.580078"/>
<use xlink:href="#glyph-2-20" x="447.183594" y="273.580078"/>
</g>
<g fill="rgb(0%, 0%, 0%)" fill-opacity="1">
<use xlink:href="#glyph-3-0" x="14.724609" y="162.199219"/>
<use xlink:href="#glyph-3-1" x="14.724609" y="153.199219"/>
<use xlink:href="#glyph-3-2" x="14.724609" y="146.199219"/>
<use xlink:href="#glyph-3-3" x="14.724609" y="139.199219"/>
<use xlink:href="#glyph-3-4" x="14.724609" y="132.199219"/>
</g>
<path fill-rule="nonzero" fill="rgb(29.019608%, 56.470588%, 85.098039%)" fill-opacity="0.74902" d="M 261.59375 311.273438 L 277.328125 311.273438 L 277.328125 295.539062 L 261.59375 295.539062 Z M 261.59375 311.273438 "/>
<path fill-rule="nonzero" fill="rgb(45.490196%, 72.54902%, 62.745098%)" fill-opacity="0.74902" d="M 307.828125 311.273438 L 323.5625 311.273438 L 323.5625 295.539062 L 307.828125 295.539062 Z M 307.828125 311.273438 "/>
<path fill-rule="nonzero" fill="rgb(17.647059%, 41.568627%, 30.980392%)" fill-opacity="0.74902" d="M 376.0625 311.273438 L 391.796875 311.273438 L 391.796875 295.539062 L 376.0625 295.539062 Z M 376.0625 311.273438 "/>
<g fill="rgb(0%, 0%, 0%)" fill-opacity="1">
<use xlink:href="#glyph-1-6" x="284.078125" y="306.90332"/>
<use xlink:href="#glyph-1-7" x="289.078125" y="306.90332"/>
<use xlink:href="#glyph-1-8" x="294.078125" y="306.90332"/>
</g>
<g fill="rgb(0%, 0%, 0%)" fill-opacity="1">
<use xlink:href="#glyph-1-9" x="330.3125" y="306.90332"/>
<use xlink:href="#glyph-1-7" x="338.3125" y="306.90332"/>
<use xlink:href="#glyph-1-10" x="343.3125" y="306.90332"/>
<use xlink:href="#glyph-1-11" x="348.3125" y="306.90332"/>
<use xlink:href="#glyph-1-12" x="353.3125" y="306.90332"/>
<use xlink:href="#glyph-1-13" x="356.3125" y="306.90332"/>
<use xlink:href="#glyph-1-14" x="361.3125" y="306.90332"/>
<use xlink:href="#glyph-1-11" x="364.3125" y="306.90332"/>
</g>
<g fill="rgb(0%, 0%, 0%)" fill-opacity="1">
<use xlink:href="#glyph-1-15" x="398.546875" y="306.90332"/>
<use xlink:href="#glyph-1-16" x="405.546875" y="306.90332"/>
<use xlink:href="#glyph-1-17" x="407.546875" y="306.90332"/>
<use xlink:href="#glyph-1-18" x="412.546875" y="306.90332"/>
</g>
<g fill="rgb(0%, 0%, 0%)" fill-opacity="1">
<use xlink:href="#glyph-2-0" x="36.347656" y="35.705078"/>
<use xlink:href="#glyph-2-1" x="39.347656" y="35.705078"/>
<use xlink:href="#glyph-2-8" x="46.347656" y="35.705078"/>
<use xlink:href="#glyph-2-10" x="49.347656" y="35.705078"/>
<use xlink:href="#glyph-2-11" x="53.347656" y="35.705078"/>
<use xlink:href="#glyph-2-6" x="60.347656" y="35.705078"/>
<use xlink:href="#glyph-2-7" x="67.347656" y="35.705078"/>
<use xlink:href="#glyph-2-8" x="70.347656" y="35.705078"/>
<use xlink:href="#glyph-2-10" x="73.347656" y="35.705078"/>
<use xlink:href="#glyph-2-11" x="77.347656" y="35.705078"/>
<use xlink:href="#glyph-2-24" x="84.347656" y="35.705078"/>
<use xlink:href="#glyph-2-11" x="90.347656" y="35.705078"/>
<use xlink:href="#glyph-2-6" x="97.347656" y="35.705078"/>
<use xlink:href="#glyph-2-10" x="104.347656" y="35.705078"/>
<use xlink:href="#glyph-2-16" x="108.347656" y="35.705078"/>
<use xlink:href="#glyph-2-25" x="114.347656" y="35.705078"/>
<use xlink:href="#glyph-2-8" x="121.347656" y="35.705078"/>
<use xlink:href="#glyph-2-26" x="124.347656" y="35.705078"/>
<use xlink:href="#glyph-2-27" x="130.347656" y="35.705078"/>
<use xlink:href="#glyph-2-5" x="137.347656" y="35.705078"/>
<use xlink:href="#glyph-2-8" x="144.347656" y="35.705078"/>
<use xlink:href="#glyph-2-1" x="147.347656" y="35.705078"/>
<use xlink:href="#glyph-2-11" x="154.347656" y="35.705078"/>
<use xlink:href="#glyph-2-4" x="160.347656" y="35.705078"/>
<use xlink:href="#glyph-2-11" x="166.347656" y="35.705078"/>
<use xlink:href="#glyph-2-10" x="173.347656" y="35.705078"/>
<use xlink:href="#glyph-2-8" x="177.347656" y="35.705078"/>
<use xlink:href="#glyph-2-24" x="180.347656" y="35.705078"/>
<use xlink:href="#glyph-2-11" x="186.347656" y="35.705078"/>
<use xlink:href="#glyph-2-11" x="193.347656" y="35.705078"/>
<use xlink:href="#glyph-2-8" x="200.347656" y="35.705078"/>
<use xlink:href="#glyph-2-12" x="203.347656" y="35.705078"/>
<use xlink:href="#glyph-2-25" x="206.347656" y="35.705078"/>
<use xlink:href="#glyph-2-3" x="213.347656" y="35.705078"/>
<use xlink:href="#glyph-2-24" x="216.347656" y="35.705078"/>
<use xlink:href="#glyph-2-8" x="222.347656" y="35.705078"/>
<use xlink:href="#glyph-2-2" x="225.347656" y="35.705078"/>
<use xlink:href="#glyph-2-3" x="232.347656" y="35.705078"/>
<use xlink:href="#glyph-2-24" x="235.347656" y="35.705078"/>
<use xlink:href="#glyph-2-12" x="241.347656" y="35.705078"/>
<use xlink:href="#glyph-2-10" x="244.347656" y="35.705078"/>
<use xlink:href="#glyph-2-3" x="248.347656" y="35.705078"/>
<use xlink:href="#glyph-2-28" x="251.347656" y="35.705078"/>
<use xlink:href="#glyph-2-5" x="258.347656" y="35.705078"/>
<use xlink:href="#glyph-2-12" x="265.347656" y="35.705078"/>
<use xlink:href="#glyph-2-3" x="268.347656" y="35.705078"/>
<use xlink:href="#glyph-2-27" x="271.347656" y="35.705078"/>
<use xlink:href="#glyph-2-1" x="278.347656" y="35.705078"/>
<use xlink:href="#glyph-2-8" x="285.347656" y="35.705078"/>
<use xlink:href="#glyph-2-29" x="288.347656" y="35.705078"/>
<use xlink:href="#glyph-2-8" x="300.347656" y="35.705078"/>
<use xlink:href="#glyph-2-27" x="303.347656" y="35.705078"/>
<use xlink:href="#glyph-2-1" x="310.347656" y="35.705078"/>
<use xlink:href="#glyph-2-7" x="317.347656" y="35.705078"/>
<use xlink:href="#glyph-2-26" x="320.347656" y="35.705078"/>
<use xlink:href="#glyph-2-8" x="326.347656" y="35.705078"/>
<use xlink:href="#glyph-2-12" x="329.347656" y="35.705078"/>
<use xlink:href="#glyph-2-25" x="332.347656" y="35.705078"/>
<use xlink:href="#glyph-2-11" x="339.347656" y="35.705078"/>
<use xlink:href="#glyph-2-8" x="346.347656" y="35.705078"/>
<use xlink:href="#glyph-2-30" x="349.347656" y="35.705078"/>
<use xlink:href="#glyph-2-9" x="356.347656" y="35.705078"/>
<use xlink:href="#glyph-2-14" x="363.347656" y="35.705078"/>
<use xlink:href="#glyph-2-8" x="371.347656" y="35.705078"/>
<use xlink:href="#glyph-2-3" x="374.347656" y="35.705078"/>
<use xlink:href="#glyph-2-24" x="377.347656" y="35.705078"/>
<use xlink:href="#glyph-2-8" x="383.347656" y="35.705078"/>
<use xlink:href="#glyph-2-11" x="386.347656" y="35.705078"/>
<use xlink:href="#glyph-2-24" x="393.347656" y="35.705078"/>
<use xlink:href="#glyph-2-12" x="399.347656" y="35.705078"/>
<use xlink:href="#glyph-2-3" x="402.347656" y="35.705078"/>
<use xlink:href="#glyph-2-13" x="405.347656" y="35.705078"/>
<use xlink:href="#glyph-2-6" x="415.347656" y="35.705078"/>
<use xlink:href="#glyph-2-28" x="422.347656" y="35.705078"/>
<use xlink:href="#glyph-2-7" x="429.347656" y="35.705078"/>
<use xlink:href="#glyph-2-11" x="432.347656" y="35.705078"/>
</g>
<g fill="rgb(0%, 0%, 0%)" fill-opacity="1">
<use xlink:href="#glyph-4-0" x="36.347656" y="16.473633"/>
<use xlink:href="#glyph-4-1" x="45.347656" y="16.473633"/>
<use xlink:href="#glyph-4-2" x="53.347656" y="16.473633"/>
<use xlink:href="#glyph-4-3" x="61.347656" y="16.473633"/>
<use xlink:href="#glyph-4-2" x="65.347656" y="16.473633"/>
<use xlink:href="#glyph-4-4" x="73.347656" y="16.473633"/>
<use xlink:href="#glyph-4-5" x="80.347656" y="16.473633"/>
<use xlink:href="#glyph-4-6" x="88.347656" y="16.473633"/>
<use xlink:href="#glyph-4-7" x="93.347656" y="16.473633"/>
<use xlink:href="#glyph-4-8" x="96.347656" y="16.473633"/>
<use xlink:href="#glyph-4-9" x="104.347656" y="16.473633"/>
<use xlink:href="#glyph-4-2" x="112.347656" y="16.473633"/>
<use xlink:href="#glyph-4-7" x="120.347656" y="16.473633"/>
<use xlink:href="#glyph-4-3" x="123.347656" y="16.473633"/>
<use xlink:href="#glyph-4-2" x="127.347656" y="16.473633"/>
<use xlink:href="#glyph-4-10" x="135.347656" y="16.473633"/>
<use xlink:href="#glyph-4-2" x="143.347656" y="16.473633"/>
<use xlink:href="#glyph-4-4" x="151.347656" y="16.473633"/>
<use xlink:href="#glyph-4-11" x="158.347656" y="16.473633"/>
<use xlink:href="#glyph-4-3" x="162.347656" y="16.473633"/>
<use xlink:href="#glyph-4-12" x="166.347656" y="16.473633"/>
<use xlink:href="#glyph-4-13" x="169.347656" y="16.473633"/>
<use xlink:href="#glyph-4-3" x="176.347656" y="16.473633"/>
<use xlink:href="#glyph-4-14" x="180.347656" y="16.473633"/>
<use xlink:href="#glyph-4-12" x="190.347656" y="16.473633"/>
<use xlink:href="#glyph-4-7" x="193.347656" y="16.473633"/>
<use xlink:href="#glyph-4-15" x="196.347656" y="16.473633"/>
<use xlink:href="#glyph-4-7" x="204.347656" y="16.473633"/>
<use xlink:href="#glyph-4-16" x="207.347656" y="16.473633"/>
<use xlink:href="#glyph-4-3" x="214.347656" y="16.473633"/>
<use xlink:href="#glyph-4-15" x="218.347656" y="16.473633"/>
<use xlink:href="#glyph-4-12" x="226.347656" y="16.473633"/>
<use xlink:href="#glyph-4-10" x="229.347656" y="16.473633"/>
<use xlink:href="#glyph-4-2" x="237.347656" y="16.473633"/>
<use xlink:href="#glyph-4-17" x="245.347656" y="16.473633"/>
<use xlink:href="#glyph-4-2" x="250.347656" y="16.473633"/>
<use xlink:href="#glyph-4-18" x="258.347656" y="16.473633"/>
<use xlink:href="#glyph-4-11" x="266.347656" y="16.473633"/>
<use xlink:href="#glyph-4-3" x="270.347656" y="16.473633"/>
<use xlink:href="#glyph-4-8" x="274.347656" y="16.473633"/>
<use xlink:href="#glyph-4-4" x="282.347656" y="16.473633"/>
<use xlink:href="#glyph-4-17" x="289.347656" y="16.473633"/>
<use xlink:href="#glyph-4-5" x="294.347656" y="16.473633"/>
<use xlink:href="#glyph-4-13" x="302.347656" y="16.473633"/>
<use xlink:href="#glyph-4-13" x="309.347656" y="16.473633"/>
<use xlink:href="#glyph-4-3" x="316.347656" y="16.473633"/>
<use xlink:href="#glyph-4-12" x="320.347656" y="16.473633"/>
<use xlink:href="#glyph-4-18" x="323.347656" y="16.473633"/>
<use xlink:href="#glyph-4-15" x="331.347656" y="16.473633"/>
<use xlink:href="#glyph-4-12" x="339.347656" y="16.473633"/>
<use xlink:href="#glyph-4-19" x="342.347656" y="16.473633"/>
<use xlink:href="#glyph-4-12" x="349.347656" y="16.473633"/>
<use xlink:href="#glyph-4-15" x="352.347656" y="16.473633"/>
<use xlink:href="#glyph-4-20" x="360.347656" y="16.473633"/>
<use xlink:href="#glyph-4-8" x="368.347656" y="16.473633"/>
<use xlink:href="#glyph-4-7" x="376.347656" y="16.473633"/>
<use xlink:href="#glyph-4-13" x="379.347656" y="16.473633"/>
</g>
</svg>
