<?xml version="1.0" encoding="UTF-8"?>
<svg xmlns="http://www.w3.org/2000/svg" xmlns:xlink="http://www.w3.org/1999/xlink" width="720" height="360" viewBox="0 0 720 360">
<defs>
<g>
<g id="glyph-0-0">
<path d="M 5.890625 -6.640625 L 5.078125 -6.640625 L 5.078125 -1.21875 L 1.609375 -6.640625 L 0.6875 -6.640625 L 0.6875 0 L 1.5 0 L 1.5 -5.390625 L 4.921875 0 L 5.890625 0 Z M 5.890625 -6.640625 "/>
</g>
<g id="glyph-0-1">
<path d="M 2.484375 -4.90625 C 1.125 -4.90625 0.328125 -3.953125 0.328125 -2.34375 C 0.328125 -0.734375 1.125 0.203125 2.484375 0.203125 C 3.828125 0.203125 4.640625 -0.75 4.640625 -2.3125 C 4.640625 -3.96875 3.859375 -4.90625 2.484375 -4.90625 Z M 2.484375 -4.203125 C 3.34375 -4.203125 3.859375 -3.5 3.859375 -2.328125 C 3.859375 -1.1875 3.328125 -0.484375 2.484375 -0.484375 C 1.640625 -0.484375 1.125 -1.1875 1.125 -2.34375 C 1.125 -3.5 1.640625 -4.203125 2.484375 -4.203125 Z M 2.484375 -4.203125 "/>
</g>
<g id="glyph-0-2">
<path d="M 0.640625 -4.765625 L 0.640625 0 L 1.40625 0 L 1.40625 -3 C 1.40625 -3.6875 1.90625 -4.25 2.515625 -4.25 C 3.09375 -4.25 3.40625 -3.90625 3.40625 -3.28125 L 3.40625 0 L 4.171875 0 L 4.171875 -3 C 4.171875 -3.6875 4.671875 -4.25 5.296875 -4.25 C 5.84375 -4.25 6.171875 -3.890625 6.171875 -3.28125 L 6.171875 0 L 6.9375 0 L 6.9375 -3.578125 C 6.9375 -4.4375 6.453125 -4.90625 5.5625 -4.90625 C 4.921875 -4.90625 4.53125 -4.71875 4.09375 -4.1875 C 3.8125 -4.6875 3.421875 -4.90625 2.8125 -4.90625 C 2.171875 -4.90625 1.734375 -4.671875 1.34375 -4.09375 L 1.34375 -4.765625 Z M 0.640625 -4.765625 "/>
</g>
<g id="glyph-0-3">
<path d="M 1.359375 -4.765625 L 0.609375 -4.765625 L 0.609375 0 L 1.359375 0 Z M 1.359375 -6.640625 L 0.59375 -6.640625 L 0.59375 -5.6875 L 1.359375 -5.6875 Z M 1.359375 -6.640625 "/>
</g>
<g id="glyph-0-4">
<path d="M 0.640625 -4.765625 L 0.640625 0 L 1.40625 0 L 1.40625 -2.625 C 1.40625 -3.609375 1.90625 -4.25 2.703125 -4.25 C 3.296875 -4.25 3.6875 -3.875 3.6875 -3.3125 L 3.6875 0 L 4.4375 0 L 4.4375 -3.609375 C 4.4375 -4.40625 3.84375 -4.90625 2.921875 -4.90625 C 2.21875 -4.90625 1.765625 -4.640625 1.34375 -3.96875 L 1.34375 -4.765625 Z M 0.640625 -4.765625 "/>
</g>
<g id="glyph-0-5">
<path d="M 4.875 -0.453125 C 4.796875 -0.421875 4.75 -0.421875 4.703125 -0.421875 C 4.453125 -0.421875 4.296875 -0.5625 4.296875 -0.796875 L 4.296875 -3.609375 C 4.296875 -4.453125 3.6875 -4.90625 2.5 -4.90625 C 1.796875 -4.90625 1.25 -4.703125 0.921875 -4.359375 C 0.703125 -4.109375 0.609375 -3.828125 0.59375 -3.359375 L 1.359375 -3.359375 C 1.421875 -3.9375 1.765625 -4.203125 2.484375 -4.203125 C 3.171875 -4.203125 3.546875 -3.953125 3.546875 -3.5 L 3.546875 -3.296875 C 3.53125 -2.96875 3.375 -2.84375 2.75 -2.765625 C 1.671875 -2.625 1.515625 -2.59375 1.21875 -2.484375 C 0.671875 -2.234375 0.375 -1.828125 0.375 -1.203125 C 0.375 -0.34375 0.984375 0.203125 1.953125 0.203125 C 2.546875 0.203125 3.03125 0 3.578125 -0.484375 C 3.625 0 3.859375 0.203125 4.359375 0.203125 C 4.515625 0.203125 4.625 0.1875 4.875 0.125 Z M 3.546875 -1.5 C 3.546875 -1.25 3.46875 -1.09375 3.25 -0.890625 C 2.9375 -0.59375 2.5625 -0.453125 2.109375 -0.453125 C 1.515625 -0.453125 1.171875 -0.734375 1.171875 -1.21875 C 1.171875 -1.71875 1.5 -1.984375 2.328125 -2.09375 C 3.140625 -2.203125 3.28125 -2.234375 3.546875 -2.359375 Z M 3.546875 -1.5 "/>
</g>
<g id="glyph-0-6">
<path d="M 1.390625 -6.640625 L 0.625 -6.640625 L 0.625 0 L 1.390625 0 Z M 1.390625 -6.640625 "/>
</g>
<g id="glyph-0-7">
</g>
<g id="glyph-0-8">
<path d="M 4.34375 -6.453125 L 1 -6.453125 L 0.515625 -2.9375 L 1.25 -2.9375 C 1.625 -3.390625 1.9375 -3.546875 2.453125 -3.546875 C 3.3125 -3.546875 3.859375 -2.953125 3.859375 -2 C 3.859375 -1.0625 3.3125 -0.5 2.4375 -0.5 C 1.734375 -0.5 1.3125 -0.859375 1.125 -1.578125 L 0.3125 -1.578125 C 0.421875 -1.0625 0.515625 -0.796875 0.703125 -0.5625 C 1.078125 -0.078125 1.734375 0.203125 2.453125 0.203125 C 3.765625 0.203125 4.671875 -0.734375 4.671875 -2.109375 C 4.671875 -3.375 3.828125 -4.25 2.59375 -4.25 C 2.125 -4.25 1.765625 -4.140625 1.390625 -3.859375 L 1.65625 -5.671875 L 4.34375 -5.671875 Z M 4.34375 -6.453125 "/>
</g>
<g id="glyph-0-9">
<path d="M 1.8125 -6.234375 C 0.953125 -6.234375 0.265625 -5.53125 0.265625 -4.6875 C 0.265625 -3.828125 0.953125 -3.125 1.828125 -3.125 C 2.671875 -3.125 3.375 -3.828125 3.375 -4.65625 C 3.375 -5.546875 2.6875 -6.234375 1.8125 -6.234375 Z M 1.8125 -5.609375 C 2.328125 -5.609375 2.734375 -5.1875 2.734375 -4.671875 C 2.734375 -4.171875 2.328125 -3.765625 1.828125 -3.765625 C 1.3125 -3.765625 0.890625 -4.171875 0.890625 -4.6875 C 0.890625 -5.1875 1.296875 -5.609375 1.8125 -5.609375 Z M 5.546875 -6.453125 L 1.953125 0.1875 L 2.546875 0.1875 L 6.15625 -6.453125 Z M 6.265625 -2.9375 C 5.40625 -2.9375 4.71875 -2.234375 4.71875 -1.390625 C 4.71875 -0.515625 5.40625 0.171875 6.28125 0.171875 C 7.125 0.171875 7.828125 -0.515625 7.828125 -1.359375 C 7.828125 -2.234375 7.140625 -2.9375 6.265625 -2.9375 Z M 6.265625 -2.296875 C 6.78125 -2.296875 7.203125 -1.890625 7.203125 -1.359375 C 7.203125 -0.875 6.78125 -0.46875 6.28125 -0.46875 C 5.75 -0.46875 5.34375 -0.875 5.34375 -1.390625 C 5.34375 -1.890625 5.75 -2.296875 6.265625 -2.296875 Z M 6.265625 -2.296875 "/>
</g>
<g id="glyph-1-0">
<path d="M 2.640625 -6.9375 C 2 -6.9375 1.421875 -6.65625 1.078125 -6.171875 C 0.640625 -5.5625 0.40625 -4.640625 0.40625 -3.359375 C 0.40625 -1.015625 1.1875 0.21875 2.640625 0.21875 C 4.078125 0.21875 4.859375 -1.015625 4.859375 -3.296875 C 4.859375 -4.640625 4.65625 -5.546875 4.203125 -6.171875 C 3.84375 -6.65625 3.28125 -6.9375 2.640625 -6.9375 Z M 2.640625 -6.1875 C 3.546875 -6.1875 4 -5.25 4 -3.375 C 4 -1.40625 3.5625 -0.484375 2.625 -0.484375 C 1.734375 -0.484375 1.28125 -1.4375 1.28125 -3.34375 C 1.28125 -5.25 1.734375 -6.1875 2.640625 -6.1875 Z M 2.640625 -6.1875 "/>
</g>
<g id="glyph-1-1">
<path d="M 1.90625 -6.578125 C 1 -6.578125 0.28125 -5.828125 0.28125 -4.9375 C 0.28125 -4.03125 1 -3.296875 1.921875 -3.296875 C 2.8125 -3.296875 3.546875 -4.03125 3.546875 -4.90625 C 3.546875 -5.84375 2.828125 -6.578125 1.90625 -6.578125 Z M 1.90625 -5.90625 C 2.453125 -5.90625 2.890625 -5.46875 2.890625 -4.921875 C 2.890625 -4.390625 2.453125 -3.96875 1.921875 -3.96875 C 1.375 -3.96875 0.9375 -4.390625 0.9375 -4.9375 C 0.9375 -5.46875 1.375 -5.90625 1.90625 -5.90625 Z M 5.84375 -6.796875 L 2.046875 0.1875 L 2.6875 0.1875 L 6.46875 -6.796875 Z M 6.59375 -3.09375 C 5.703125 -3.09375 4.96875 -2.359375 4.96875 -1.453125 C 4.96875 -0.546875 5.703125 0.1875 6.609375 0.1875 C 7.5 0.1875 8.234375 -0.546875 8.234375 -1.4375 C 8.234375 -2.359375 7.515625 -3.09375 6.59375 -3.09375 Z M 6.59375 -2.421875 C 7.140625 -2.421875 7.578125 -1.984375 7.578125 -1.4375 C 7.578125 -0.921875 7.140625 -0.484375 6.609375 -0.484375 C 6.0625 -0.484375 5.625 -0.921875 5.625 -1.453125 C 5.625 -1.984375 6.0625 -2.421875 6.59375 -2.421875 Z M 6.59375 -2.421875 "/>
</g>
<g id="glyph-1-2">
<path d="M 4.859375 -0.828125 L 1.28125 -0.828125 C 1.359375 -1.40625 1.671875 -1.78125 2.5 -2.28125 L 3.46875 -2.828125 C 4.40625 -3.34375 4.90625 -4.0625 4.90625 -4.90625 C 4.90625 -5.484375 4.671875 -6.03125 4.265625 -6.40625 C 3.859375 -6.765625 3.375 -6.9375 2.71875 -6.9375 C 1.859375 -6.9375 1.21875 -6.625 0.84375 -6.03125 C 0.609375 -5.671875 0.5 -5.234375 0.484375 -4.53125 L 1.328125 -4.53125 C 1.359375 -5.015625 1.40625 -5.28125 1.53125 -5.515625 C 1.75 -5.9375 2.1875 -6.203125 2.703125 -6.203125 C 3.46875 -6.203125 4.03125 -5.640625 4.03125 -4.890625 C 4.03125 -4.34375 3.71875 -3.859375 3.125 -3.515625 L 2.234375 -3 C 0.8125 -2.171875 0.40625 -1.53125 0.328125 -0.015625 L 4.859375 -0.015625 Z M 4.859375 -0.828125 "/>
</g>
<g id="glyph-1-3">
<path d="M 4.5625 -6.796875 L 1.0625 -6.796875 L 0.546875 -3.09375 L 1.328125 -3.09375 C 1.71875 -3.5625 2.046875 -3.734375 2.578125 -3.734375 C 3.484375 -3.734375 4.0625 -3.109375 4.0625 -2.09375 C 4.0625 -1.125 3.484375 -0.53125 2.578125 -0.53125 C 1.828125 -0.53125 1.375 -0.90625 1.1875 -1.671875 L 0.328125 -1.671875 C 0.453125 -1.109375 0.546875 -0.84375 0.75 -0.59375 C 1.125 -0.078125 1.828125 0.21875 2.59375 0.21875 C 3.96875 0.21875 4.921875 -0.78125 4.921875 -2.21875 C 4.921875 -3.5625 4.03125 -4.484375 2.71875 -4.484375 C 2.25 -4.484375 1.859375 -4.359375 1.46875 -4.0625 L 1.734375 -5.96875 L 4.5625 -5.96875 Z M 4.5625 -6.796875 "/>
</g>
<g id="glyph-1-4">
<path d="M 4.984375 -6.796875 L 0.4375 -6.796875 L 0.4375 -5.96875 L 4.109375 -5.96875 C 2.5 -3.65625 1.828125 -2.234375 1.328125 0 L 2.21875 0 C 2.59375 -2.171875 3.453125 -4.046875 4.984375 -6.09375 Z M 4.984375 -6.796875 "/>
</g>
<g id="glyph-1-5">
<path d="M 2.484375 -4.9375 L 2.484375 0 L 3.328125 0 L 3.328125 -6.9375 L 2.765625 -6.9375 C 2.46875 -5.875 2.28125 -5.734375 0.984375 -5.5625 L 0.984375 -4.9375 Z M 2.484375 -4.9375 "/>
</g>
<g id="glyph-1-6">
<path d="M 2.125 -3.1875 L 2.578125 -3.1875 C 3.5 -3.1875 3.984375 -2.765625 3.984375 -1.921875 C 3.984375 -1.0625 3.46875 -0.53125 2.59375 -0.53125 C 1.65625 -0.53125 1.203125 -1 1.15625 -2.015625 L 0.3125 -2.015625 C 0.34375 -1.453125 0.4375 -1.09375 0.609375 -0.78125 C 0.953125 -0.109375 1.625 0.21875 2.546875 0.21875 C 3.953125 0.21875 4.859375 -0.625 4.859375 -1.9375 C 4.859375 -2.828125 4.515625 -3.296875 3.703125 -3.59375 C 4.34375 -3.84375 4.65625 -4.328125 4.65625 -5.03125 C 4.65625 -6.21875 3.875 -6.9375 2.578125 -6.9375 C 1.203125 -6.9375 0.484375 -6.171875 0.453125 -4.703125 L 1.296875 -4.703125 C 1.3125 -5.125 1.34375 -5.359375 1.453125 -5.578125 C 1.640625 -5.96875 2.0625 -6.203125 2.59375 -6.203125 C 3.34375 -6.203125 3.796875 -5.75 3.796875 -5 C 3.796875 -4.515625 3.609375 -4.21875 3.25 -4.046875 C 3.015625 -3.953125 2.703125 -3.921875 2.125 -3.90625 Z M 2.125 -3.1875 "/>
</g>
<g id="glyph-1-7">
<path d="M 3.140625 -1.671875 L 3.140625 0 L 3.984375 0 L 3.984375 -1.671875 L 4.984375 -1.671875 L 4.984375 -2.4375 L 3.984375 -2.4375 L 3.984375 -6.9375 L 3.359375 -6.9375 L 0.265625 -2.578125 L 0.265625 -1.671875 Z M 3.140625 -2.4375 L 1 -2.4375 L 3.140625 -5.5 Z M 3.140625 -2.4375 "/>
</g>
<g id="glyph-1-8">
<path d="M 4.78125 -5.125 C 4.609375 -6.265625 3.890625 -6.9375 2.84375 -6.9375 C 2.09375 -6.9375 1.421875 -6.578125 1.03125 -5.953125 C 0.59375 -5.265625 0.40625 -4.421875 0.40625 -3.171875 C 0.40625 -2 0.578125 -1.25 0.984375 -0.640625 C 1.359375 -0.078125 1.953125 0.21875 2.703125 0.21875 C 3.984375 0.21875 4.921875 -0.75 4.921875 -2.09375 C 4.921875 -3.375 4.0625 -4.28125 2.84375 -4.28125 C 2.171875 -4.28125 1.640625 -4.03125 1.28125 -3.515625 C 1.28125 -5.234375 1.828125 -6.1875 2.796875 -6.1875 C 3.390625 -6.1875 3.796875 -5.796875 3.9375 -5.125 Z M 2.734375 -3.53125 C 3.546875 -3.53125 4.0625 -2.953125 4.0625 -2.03125 C 4.0625 -1.15625 3.484375 -0.53125 2.703125 -0.53125 C 1.921875 -0.53125 1.328125 -1.1875 1.328125 -2.078125 C 1.328125 -2.9375 1.90625 -3.53125 2.734375 -3.53125 Z M 2.734375 -3.53125 "/>
</g>
<g id="glyph-1-9">
<path d="M 1.765625 -2.96875 L 3.96875 -2.96875 C 4.515625 -2.96875 4.9375 -3.125 5.3125 -3.46875 C 5.734375 -3.84375 5.921875 -4.296875 5.921875 -4.9375 C 5.921875 -6.25 5.140625 -7 3.765625 -7 L 0.875 -7 L 0.875 0 L 1.765625 0 Z M 1.765625 -3.75 L 1.765625 -6.203125 L 3.625 -6.203125 C 4.484375 -6.203125 4.984375 -5.75 4.984375 -4.984375 C 4.984375 -4.21875 4.484375 -3.75 3.625 -3.75 Z M 1.765625 -3.75 "/>
</g>
<g id="glyph-1-10">
<path d="M 0.65625 -5.03125 L 0.65625 0 L 1.46875 0 L 1.46875 -2.609375 C 1.484375 -3.8125 1.96875 -4.359375 3.078125 -4.328125 L 3.078125 -5.140625 C 2.9375 -5.15625 2.875 -5.171875 2.765625 -5.171875 C 2.25 -5.171875 1.859375 -4.859375 1.40625 -4.109375 L 1.40625 -5.03125 Z M 0.65625 -5.03125 "/>
</g>
<g id="glyph-1-11">
<path d="M 4.921875 -2.25 C 4.921875 -3.015625 4.859375 -3.46875 4.71875 -3.84375 C 4.390625 -4.671875 3.625 -5.171875 2.6875 -5.171875 C 1.28125 -5.171875 0.390625 -4.109375 0.390625 -2.453125 C 0.390625 -0.78125 1.25 0.21875 2.671875 0.21875 C 3.8125 0.21875 4.609375 -0.4375 4.8125 -1.53125 L 4.015625 -1.53125 C 3.796875 -0.859375 3.34375 -0.515625 2.703125 -0.515625 C 2.1875 -0.515625 1.75 -0.75 1.484375 -1.171875 C 1.296875 -1.453125 1.234375 -1.75 1.21875 -2.25 Z M 1.234375 -2.890625 C 1.3125 -3.828125 1.875 -4.4375 2.671875 -4.4375 C 3.484375 -4.4375 4.0625 -3.796875 4.0625 -2.890625 Z M 1.234375 -2.890625 "/>
</g>
<g id="glyph-1-12">
<path d="M 2.71875 -3 L 0.4375 -3 L 0.4375 -2.296875 L 2.71875 -2.296875 Z M 2.71875 -3 "/>
</g>
<g id="glyph-1-13">
<path d="M 2.4375 -5.03125 L 1.609375 -5.03125 L 1.609375 -6.40625 L 0.8125 -6.40625 L 0.8125 -5.03125 L 0.140625 -5.03125 L 0.140625 -4.375 L 0.8125 -4.375 L 0.8125 -0.578125 C 0.8125 -0.0625 1.15625 0.21875 1.78125 0.21875 C 2 0.21875 2.171875 0.203125 2.4375 0.15625 L 2.4375 -0.515625 C 2.328125 -0.484375 2.21875 -0.484375 2.046875 -0.484375 C 1.703125 -0.484375 1.609375 -0.578125 1.609375 -0.9375 L 1.609375 -4.375 L 2.4375 -4.375 Z M 2.4375 -5.03125 "/>
</g>
<g id="glyph-1-14">
<path d="M 4.203125 -3.625 C 4.1875 -4.609375 3.546875 -5.171875 2.375 -5.171875 C 1.203125 -5.171875 0.453125 -4.5625 0.453125 -3.640625 C 0.453125 -2.84375 0.859375 -2.46875 2.046875 -2.1875 L 2.796875 -2 C 3.34375 -1.875 3.5625 -1.671875 3.5625 -1.3125 C 3.5625 -0.828125 3.09375 -0.515625 2.390625 -0.515625 C 1.96875 -0.515625 1.609375 -0.640625 1.40625 -0.859375 C 1.28125 -1 1.21875 -1.140625 1.171875 -1.5 L 0.328125 -1.5 C 0.359375 -0.328125 1.015625 0.21875 2.328125 0.21875 C 3.59375 0.21875 4.40625 -0.40625 4.40625 -1.375 C 4.40625 -2.125 3.984375 -2.53125 2.984375 -2.765625 L 2.21875 -2.953125 C 1.5625 -3.109375 1.28125 -3.3125 1.28125 -3.671875 C 1.28125 -4.140625 1.703125 -4.4375 2.34375 -4.4375 C 3 -4.4375 3.34375 -4.15625 3.359375 -3.625 Z M 4.203125 -3.625 "/>
</g>
<g id="glyph-1-15">
</g>
<g id="glyph-1-16">
<path d="M 0.515625 2.09375 L 1.328125 2.09375 L 1.328125 -0.53125 C 1.75 -0.015625 2.21875 0.21875 2.875 0.21875 C 4.171875 0.21875 5.015625 -0.828125 5.015625 -2.421875 C 5.015625 -4.109375 4.1875 -5.171875 2.859375 -5.171875 C 2.171875 -5.171875 1.625 -4.859375 1.25 -4.265625 L 1.25 -5.03125 L 0.515625 -5.03125 Z M 2.71875 -4.421875 C 3.609375 -4.421875 4.1875 -3.640625 4.1875 -2.453125 C 4.1875 -1.3125 3.59375 -0.53125 2.71875 -0.53125 C 1.875 -0.53125 1.328125 -1.296875 1.328125 -2.46875 C 1.328125 -3.65625 1.875 -4.421875 2.71875 -4.421875 Z M 2.71875 -4.421875 "/>
</g>
<g id="glyph-1-17">
<path d="M 2.609375 -5.171875 C 1.1875 -5.171875 0.34375 -4.15625 0.34375 -2.46875 C 0.34375 -0.78125 1.1875 0.21875 2.625 0.21875 C 4.03125 0.21875 4.890625 -0.78125 4.890625 -2.4375 C 4.890625 -4.1875 4.0625 -5.171875 2.609375 -5.171875 Z M 2.625 -4.4375 C 3.515625 -4.4375 4.0625 -3.6875 4.0625 -2.453125 C 4.0625 -1.25 3.5 -0.515625 2.625 -0.515625 C 1.734375 -0.515625 1.1875 -1.25 1.1875 -2.46875 C 1.1875 -3.6875 1.734375 -4.4375 2.625 -4.4375 Z M 2.625 -4.4375 "/>
</g>
<g id="glyph-1-18">
<path d="M 5.3125 0 L 6.796875 -5.03125 L 5.890625 -5.03125 L 4.890625 -1.109375 L 3.90625 -5.03125 L 2.921875 -5.03125 L 1.96875 -1.109375 L 0.9375 -5.03125 L 0.0625 -5.03125 L 1.515625 0 L 2.421875 0 L 3.390625 -3.9375 L 4.40625 0 Z M 5.3125 0 "/>
</g>
<g id="glyph-1-19">
<path d="M 2.265625 -7 C 1.3125 -5.734375 0.703125 -3.984375 0.703125 -2.484375 C 0.703125 -0.96875 1.3125 0.78125 2.265625 2.03125 L 2.796875 2.03125 C 1.953125 0.65625 1.484375 -0.953125 1.484375 -2.484375 C 1.484375 -4.015625 1.953125 -5.625 2.796875 -7 Z M 2.265625 -7 "/>
</g>
<g id="glyph-1-20">
<path d="M 4.75 -7 L 3.953125 -7 L 3.953125 -4.390625 C 3.609375 -4.90625 3.078125 -5.171875 2.40625 -5.171875 C 1.109375 -5.171875 0.25 -4.125 0.25 -2.515625 C 0.25 -0.828125 1.078125 0.21875 2.4375 0.21875 C 3.125 0.21875 3.609375 -0.03125 4.03125 -0.65625 L 4.03125 0 L 4.75 0 Z M 2.546875 -4.421875 C 3.40625 -4.421875 3.953125 -3.671875 3.953125 -2.453125 C 3.953125 -1.296875 3.390625 -0.53125 2.546875 -0.53125 C 1.671875 -0.53125 1.078125 -1.3125 1.078125 -2.46875 C 1.078125 -3.640625 1.671875 -4.421875 2.546875 -4.421875 Z M 2.546875 -4.421875 "/>
</g>
<g id="glyph-1-21">
<path d="M 4.515625 -3.34375 C 4.484375 -3.828125 4.375 -4.140625 4.1875 -4.421875 C 3.84375 -4.890625 3.234375 -5.171875 2.53125 -5.171875 C 1.171875 -5.171875 0.296875 -4.09375 0.296875 -2.421875 C 0.296875 -0.8125 1.15625 0.21875 2.515625 0.21875 C 3.71875 0.21875 4.484375 -0.5 4.578125 -1.734375 L 3.765625 -1.734375 C 3.640625 -0.921875 3.21875 -0.515625 2.546875 -0.515625 C 1.65625 -0.515625 1.125 -1.234375 1.125 -2.421875 C 1.125 -3.6875 1.65625 -4.4375 2.515625 -4.4375 C 3.1875 -4.4375 3.609375 -4.03125 3.71875 -3.34375 Z M 4.515625 -3.34375 "/>
</g>
<g id="glyph-1-22">
<path d="M 2.734375 0 L 4.65625 -5.03125 L 3.765625 -5.03125 L 2.34375 -0.953125 L 1 -5.03125 L 0.09375 -5.03125 L 1.859375 0 Z M 2.734375 0 "/>
</g>
<g id="glyph-1-23">
<path d="M 1.4375 -5.03125 L 0.640625 -5.03125 L 0.640625 0 L 1.4375 0 Z M 1.4375 -7 L 0.640625 -7 L 0.640625 -5.984375 L 1.4375 -5.984375 Z M 1.4375 -7 "/>
</g>
<g id="glyph-1-24">
<path d="M 1.453125 -7 L 0.65625 -7 L 0.65625 0 L 1.453125 0 Z M 1.453125 -7 "/>
</g>
<g id="glyph-1-25">
<path d="M 5.125 -0.46875 C 5.046875 -0.453125 5.015625 -0.453125 4.953125 -0.453125 C 4.6875 -0.453125 4.53125 -0.59375 4.53125 -0.84375 L 4.53125 -3.796875 C 4.53125 -4.6875 3.875 -5.171875 2.640625 -5.171875 C 1.90625 -5.171875 1.3125 -4.953125 0.96875 -4.578125 C 0.734375 -4.328125 0.640625 -4.03125 0.625 -3.546875 L 1.421875 -3.546875 C 1.5 -4.15625 1.859375 -4.4375 2.609375 -4.4375 C 3.34375 -4.4375 3.734375 -4.15625 3.734375 -3.6875 L 3.734375 -3.46875 C 3.71875 -3.125 3.546875 -3 2.890625 -2.921875 C 1.765625 -2.765625 1.59375 -2.734375 1.28125 -2.609375 C 0.703125 -2.359375 0.40625 -1.921875 0.40625 -1.265625 C 0.40625 -0.359375 1.03125 0.21875 2.046875 0.21875 C 2.6875 0.21875 3.1875 0 3.765625 -0.515625 C 3.8125 0 4.0625 0.21875 4.578125 0.21875 C 4.765625 0.21875 4.859375 0.203125 5.125 0.140625 Z M 3.734375 -1.578125 C 3.734375 -1.3125 3.65625 -1.15625 3.421875 -0.9375 C 3.09375 -0.640625 2.703125 -0.484375 2.21875 -0.484375 C 1.609375 -0.484375 1.234375 -0.78125 1.234375 -1.28125 C 1.234375 -1.8125 1.578125 -2.078125 2.453125 -2.203125 C 3.296875 -2.328125 3.46875 -2.359375 3.734375 -2.484375 Z M 3.734375 -1.578125 "/>
</g>
<g id="glyph-1-26">
<path d="M 0.671875 -5.03125 L 0.671875 0 L 1.484375 0 L 1.484375 -2.765625 C 1.484375 -3.796875 2.015625 -4.46875 2.84375 -4.46875 C 3.46875 -4.46875 3.875 -4.09375 3.875 -3.484375 L 3.875 0 L 4.671875 0 L 4.671875 -3.796875 C 4.671875 -4.640625 4.046875 -5.171875 3.078125 -5.171875 C 2.328125 -5.171875 1.859375 -4.890625 1.40625 -4.1875 L 1.40625 -5.03125 Z M 0.671875 -5.03125 "/>
</g>
<g id="glyph-1-27">
<path d="M 0.890625 2.03125 C 1.859375 0.78125 2.453125 -0.96875 2.453125 -2.46875 C 2.453125 -3.984375 1.859375 -5.734375 0.890625 -7 L 0.359375 -7 C 1.203125 -5.625 1.671875 -4.015625 1.671875 -2.46875 C 1.671875 -0.953125 1.203125 0.671875 0.359375 2.03125 Z M 0.890625 2.03125 "/>
</g>
<g id="glyph-1-28">
<path d="M 3.734375 -7.109375 C 1.734375 -7.109375 0.359375 -5.625 0.359375 -3.4375 C 0.359375 -1.25 1.71875 0.21875 3.734375 0.21875 C 4.59375 0.21875 5.34375 -0.03125 5.90625 -0.515625 C 6.671875 -1.15625 7.125 -2.25 7.125 -3.390625 C 7.125 -5.640625 5.78125 -7.109375 3.734375 -7.109375 Z M 3.734375 -6.328125 C 5.25 -6.328125 6.21875 -5.1875 6.21875 -3.40625 C 6.21875 -1.71875 5.21875 -0.5625 3.734375 -0.5625 C 2.25 -0.5625 1.25 -1.71875 1.25 -3.4375 C 1.25 -5.171875 2.25 -6.328125 3.734375 -6.328125 Z M 3.734375 -6.328125 "/>
</g>
<g id="glyph-1-29">
<path d="M 0.859375 0 L 3.546875 0 C 5.3125 0 6.40625 -1.328125 6.40625 -3.5 C 6.40625 -5.671875 5.328125 -7 3.546875 -7 L 0.859375 -7 Z M 1.75 -0.78125 L 1.75 -6.203125 L 3.390625 -6.203125 C 4.78125 -6.203125 5.5 -5.28125 5.5 -3.484375 C 5.5 -1.71875 4.78125 -0.78125 3.390625 -0.78125 Z M 1.75 -0.78125 "/>
</g>
<g id="glyph-1-30">
<path d="M 3.390625 -6.203125 L 5.6875 -6.203125 L 5.6875 -7 L 0.203125 -7 L 0.203125 -6.203125 L 2.5 -6.203125 L 2.5 0 L 3.390625 0 Z M 3.390625 -6.203125 "/>
</g>
<g id="glyph-1-31">
<path d="M 3.71875 -5.03125 L 2.328125 -1.109375 L 1.046875 -5.03125 L 0.1875 -5.03125 L 1.890625 0.015625 L 1.578125 0.8125 C 1.453125 1.171875 1.28125 1.3125 0.9375 1.3125 C 0.8125 1.3125 0.6875 1.28125 0.515625 1.25 L 0.515625 1.96875 C 0.6875 2.046875 0.84375 2.09375 1.0625 2.09375 C 1.3125 2.09375 1.59375 2 1.796875 1.859375 C 2.046875 1.671875 2.203125 1.453125 2.34375 1.0625 L 4.578125 -5.03125 Z M 3.71875 -5.03125 "/>
</g>
<g id="glyph-1-32">
<path d="M 1.859375 -7 L 0.953125 -7 L 0.953125 0 L 1.859375 0 Z M 1.859375 -7 "/>
</g>
<g id="glyph-1-33">
<path d="M 6.34375 -4.828125 C 6.078125 -6.359375 5.1875 -7.109375 3.65625 -7.109375 C 2.71875 -7.109375 1.953125 -6.8125 1.4375 -6.234375 C 0.8125 -5.546875 0.453125 -4.546875 0.453125 -3.421875 C 0.453125 -2.265625 0.8125 -1.28125 1.46875 -0.59375 C 2.015625 -0.03125 2.703125 0.21875 3.609375 0.21875 C 5.328125 0.21875 6.28125 -0.703125 6.5 -2.546875 L 5.578125 -2.546875 C 5.5 -2.078125 5.40625 -1.75 5.25 -1.46875 C 4.96875 -0.890625 4.375 -0.5625 3.625 -0.5625 C 2.234375 -0.5625 1.359375 -1.671875 1.359375 -3.421875 C 1.359375 -5.21875 2.1875 -6.328125 3.546875 -6.328125 C 4.109375 -6.328125 4.640625 -6.15625 4.9375 -5.875 C 5.1875 -5.640625 5.328125 -5.359375 5.4375 -4.828125 Z M 6.34375 -4.828125 "/>
</g>
<g id="glyph-1-34">
<path d="M 3.875 -5.03125 L 3.875 -4.296875 C 3.46875 -4.90625 3.03125 -5.171875 2.390625 -5.171875 C 1.1875 -5.171875 0.328125 -4.03125 0.328125 -2.421875 C 0.328125 -1.578125 0.53125 -0.96875 0.96875 -0.453125 C 1.34375 -0.015625 1.828125 0.21875 2.34375 0.21875 C 2.9375 0.21875 3.375 -0.046875 3.796875 -0.6875 L 3.796875 -0.421875 C 3.796875 0.921875 3.421875 1.421875 2.421875 1.421875 C 1.75 1.421875 1.390625 1.15625 1.3125 0.578125 L 0.5 0.578125 C 0.578125 1.5 1.3125 2.09375 2.40625 2.09375 C 3.140625 2.09375 3.765625 1.859375 4.09375 1.453125 C 4.46875 0.984375 4.609375 0.359375 4.609375 -0.828125 L 4.609375 -5.03125 Z M 2.46875 -4.4375 C 3.3125 -4.4375 3.796875 -3.71875 3.796875 -2.453125 C 3.796875 -1.234375 3.3125 -0.515625 2.46875 -0.515625 C 1.65625 -0.515625 1.171875 -1.234375 1.171875 -2.46875 C 1.171875 -3.703125 1.65625 -4.4375 2.46875 -4.4375 Z M 2.46875 -4.4375 "/>
</g>
<g id="glyph-2-0">
<path d="M 7.75 -8.75 L 6.703125 -8.75 L 6.703125 -1.59375 L 2.125 -8.75 L 0.90625 -8.75 L 0.90625 0 L 1.96875 0 L 1.96875 -7.09375 L 6.484375 0 L 7.75 0 Z M 7.75 -8.75 "/>
</g>
<g id="glyph-2-1">
<path d="M 5.78125 0 L 5.78125 -6.28125 L 4.78125 -6.28125 L 4.78125 -2.71875 C 4.78125 -1.4375 4.109375 -0.59375 3.078125 -0.59375 C 2.28125 -0.59375 1.78125 -1.078125 1.78125 -1.84375 L 1.78125 -6.28125 L 0.78125 -6.28125 L 0.78125 -1.4375 C 0.78125 -0.390625 1.5625 0.28125 2.78125 0.28125 C 3.703125 0.28125 4.296875 -0.046875 4.890625 -0.875 L 4.890625 0 Z M 5.78125 0 "/>
</g>
<g id="glyph-2-2">
<path d="M 0.84375 -6.28125 L 0.84375 0 L 1.84375 0 L 1.84375 -3.953125 C 1.84375 -4.859375 2.515625 -5.59375 3.328125 -5.59375 C 4.0625 -5.59375 4.484375 -5.140625 4.484375 -4.328125 L 4.484375 0 L 5.5 0 L 5.5 -3.953125 C 5.5 -4.859375 6.15625 -5.59375 6.96875 -5.59375 C 7.703125 -5.59375 8.140625 -5.125 8.140625 -4.328125 L 8.140625 0 L 9.140625 0 L 9.140625 -4.71875 C 9.140625 -5.84375 8.5 -6.46875 7.3125 -6.46875 C 6.484375 -6.46875 5.96875 -6.21875 5.390625 -5.515625 C 5.015625 -6.1875 4.515625 -6.46875 3.703125 -6.46875 C 2.859375 -6.46875 2.296875 -6.15625 1.765625 -5.40625 L 1.765625 -6.28125 Z M 0.84375 -6.28125 "/>
</g>
<g id="glyph-2-3">
<path d="M 0.640625 -8.75 L 0.640625 0 L 1.546875 0 L 1.546875 -0.796875 C 2.03125 -0.078125 2.65625 0.28125 3.546875 0.28125 C 5.203125 0.28125 6.28125 -1.078125 6.28125 -3.171875 C 6.28125 -5.203125 5.25 -6.46875 3.59375 -6.46875 C 2.71875 -6.46875 2.109375 -6.140625 1.640625 -5.4375 L 1.640625 -8.75 Z M 3.390625 -5.53125 C 4.515625 -5.53125 5.234375 -4.5625 5.234375 -3.0625 C 5.234375 -1.625 4.484375 -0.65625 3.390625 -0.65625 C 2.328125 -0.65625 1.640625 -1.625 1.640625 -3.09375 C 1.640625 -4.578125 2.328125 -5.53125 3.390625 -5.53125 Z M 3.390625 -5.53125 "/>
</g>
<g id="glyph-2-4">
<path d="M 6.15625 -2.8125 C 6.15625 -3.765625 6.078125 -4.34375 5.90625 -4.8125 C 5.5 -5.84375 4.53125 -6.46875 3.359375 -6.46875 C 1.609375 -6.46875 0.484375 -5.140625 0.484375 -3.0625 C 0.484375 -0.984375 1.5625 0.28125 3.34375 0.28125 C 4.78125 0.28125 5.765625 -0.546875 6.03125 -1.90625 L 5.015625 -1.90625 C 4.734375 -1.078125 4.171875 -0.640625 3.375 -0.640625 C 2.734375 -0.640625 2.203125 -0.9375 1.859375 -1.46875 C 1.625 -1.828125 1.53125 -2.1875 1.53125 -2.8125 Z M 1.546875 -3.625 C 1.625 -4.78125 2.34375 -5.546875 3.34375 -5.546875 C 4.375 -5.546875 5.078125 -4.75 5.078125 -3.625 Z M 1.546875 -3.625 "/>
</g>
<g id="glyph-2-5">
<path d="M 0.828125 -6.28125 L 0.828125 0 L 1.84375 0 L 1.84375 -3.265625 C 1.84375 -4.78125 2.46875 -5.453125 3.859375 -5.40625 L 3.859375 -6.4375 C 3.6875 -6.453125 3.59375 -6.46875 3.46875 -6.46875 C 2.8125 -6.46875 2.328125 -6.078125 1.75 -5.140625 L 1.75 -6.28125 Z M 0.828125 -6.28125 "/>
</g>
<g id="glyph-2-6">
</g>
<g id="glyph-2-7">
<path d="M 3.265625 -6.46875 C 1.484375 -6.46875 0.4375 -5.203125 0.4375 -3.09375 C 0.4375 -0.96875 1.484375 0.28125 3.28125 0.28125 C 5.046875 0.28125 6.125 -0.984375 6.125 -3.046875 C 6.125 -5.234375 5.09375 -6.46875 3.265625 -6.46875 Z M 3.28125 -5.546875 C 4.40625 -5.546875 5.078125 -4.625 5.078125 -3.0625 C 5.078125 -1.578125 4.375 -0.640625 3.28125 -0.640625 C 2.15625 -0.640625 1.46875 -1.578125 1.46875 -3.09375 C 1.46875 -4.625 2.15625 -5.546875 3.28125 -5.546875 Z M 3.28125 -5.546875 "/>
</g>
<g id="glyph-2-8">
<path d="M 3.09375 -6.28125 L 2.046875 -6.28125 L 2.046875 -7.265625 C 2.046875 -7.6875 2.28125 -7.90625 2.75 -7.90625 C 2.828125 -7.90625 2.875 -7.90625 3.09375 -7.890625 L 3.09375 -8.71875 C 2.875 -8.765625 2.734375 -8.78125 2.53125 -8.78125 C 1.609375 -8.78125 1.0625 -8.25 1.0625 -7.359375 L 1.0625 -6.28125 L 0.21875 -6.28125 L 0.21875 -5.46875 L 1.0625 -5.46875 L 1.0625 0 L 2.046875 0 L 2.046875 -5.46875 L 3.09375 -5.46875 Z M 3.09375 -6.28125 "/>
</g>
<g id="glyph-2-9">
<path d="M 0.640625 2.609375 L 1.65625 2.609375 L 1.65625 -0.65625 C 2.1875 -0.015625 2.765625 0.28125 3.59375 0.28125 C 5.21875 0.28125 6.28125 -1.03125 6.28125 -3.03125 C 6.28125 -5.140625 5.25 -6.46875 3.578125 -6.46875 C 2.71875 -6.46875 2.046875 -6.078125 1.578125 -5.34375 L 1.578125 -6.28125 L 0.640625 -6.28125 Z M 3.40625 -5.53125 C 4.515625 -5.53125 5.234375 -4.5625 5.234375 -3.0625 C 5.234375 -1.625 4.5 -0.65625 3.40625 -0.65625 C 2.34375 -0.65625 1.65625 -1.625 1.65625 -3.09375 C 1.65625 -4.578125 2.34375 -5.53125 3.40625 -5.53125 Z M 3.40625 -5.53125 "/>
</g>
<g id="glyph-2-10">
<path d="M 3.40625 -3.75 L 0.546875 -3.75 L 0.546875 -2.875 L 3.40625 -2.875 Z M 3.40625 -3.75 "/>
</g>
<g id="glyph-2-11">
<path d="M 3.046875 -6.28125 L 2.015625 -6.28125 L 2.015625 -8.015625 L 1.015625 -8.015625 L 1.015625 -6.28125 L 0.171875 -6.28125 L 0.171875 -5.46875 L 1.015625 -5.46875 L 1.015625 -0.71875 C 1.015625 -0.078125 1.453125 0.28125 2.234375 0.28125 C 2.5 0.28125 2.71875 0.25 3.046875 0.1875 L 3.046875 -0.640625 C 2.90625 -0.609375 2.765625 -0.59375 2.5625 -0.59375 C 2.140625 -0.59375 2.015625 -0.71875 2.015625 -1.15625 L 2.015625 -5.46875 L 3.046875 -5.46875 Z M 3.046875 -6.28125 "/>
</g>
<g id="glyph-2-12">
<path d="M 6.421875 -0.59375 C 6.3125 -0.5625 6.265625 -0.5625 6.203125 -0.5625 C 5.859375 -0.5625 5.65625 -0.75 5.65625 -1.0625 L 5.65625 -4.75 C 5.65625 -5.875 4.84375 -6.46875 3.296875 -6.46875 C 2.375 -6.46875 1.640625 -6.203125 1.21875 -5.734375 C 0.921875 -5.40625 0.796875 -5.046875 0.78125 -4.421875 L 1.78125 -4.421875 C 1.875 -5.203125 2.328125 -5.546875 3.265625 -5.546875 C 4.171875 -5.546875 4.671875 -5.203125 4.671875 -4.609375 L 4.671875 -4.34375 C 4.65625 -3.90625 4.4375 -3.75 3.625 -3.640625 C 2.203125 -3.46875 1.984375 -3.421875 1.609375 -3.265625 C 0.875 -2.953125 0.5 -2.40625 0.5 -1.578125 C 0.5 -0.4375 1.296875 0.28125 2.5625 0.28125 C 3.359375 0.28125 4 0 4.703125 -0.640625 C 4.78125 0 5.09375 0.28125 5.734375 0.28125 C 5.953125 0.28125 6.078125 0.25 6.421875 0.171875 Z M 4.671875 -1.984375 C 4.671875 -1.640625 4.578125 -1.4375 4.265625 -1.15625 C 3.859375 -0.796875 3.375 -0.59375 2.78125 -0.59375 C 2 -0.59375 1.546875 -0.96875 1.546875 -1.609375 C 1.546875 -2.265625 1.984375 -2.609375 3.0625 -2.765625 C 4.125 -2.90625 4.328125 -2.953125 4.671875 -3.109375 Z M 4.671875 -1.984375 "/>
</g>
<g id="glyph-2-13">
<path d="M 0.84375 -6.28125 L 0.84375 0 L 1.84375 0 L 1.84375 -3.46875 C 1.84375 -4.75 2.515625 -5.59375 3.546875 -5.59375 C 4.34375 -5.59375 4.84375 -5.109375 4.84375 -4.359375 L 4.84375 0 L 5.84375 0 L 5.84375 -4.75 C 5.84375 -5.796875 5.0625 -6.46875 3.859375 -6.46875 C 2.921875 -6.46875 2.3125 -6.109375 1.765625 -5.234375 L 1.765625 -6.28125 Z M 0.84375 -6.28125 "/>
</g>
<g id="glyph-2-14">
<path d="M 1.796875 -6.28125 L 0.796875 -6.28125 L 0.796875 0 L 1.796875 0 Z M 1.796875 -8.75 L 0.796875 -8.75 L 0.796875 -7.484375 L 1.796875 -7.484375 Z M 1.796875 -8.75 "/>
</g>
<g id="glyph-2-15">
<path d="M 5.9375 -8.75 L 4.9375 -8.75 L 4.9375 -5.5 C 4.53125 -6.125 3.859375 -6.46875 3.015625 -6.46875 C 1.375 -6.46875 0.3125 -5.15625 0.3125 -3.15625 C 0.3125 -1.03125 1.34375 0.28125 3.046875 0.28125 C 3.90625 0.28125 4.515625 -0.046875 5.046875 -0.828125 L 5.046875 0 L 5.9375 0 Z M 3.1875 -5.53125 C 4.265625 -5.53125 4.9375 -4.578125 4.9375 -3.078125 C 4.9375 -1.625 4.25 -0.65625 3.1875 -0.65625 C 2.09375 -0.65625 1.359375 -1.625 1.359375 -3.09375 C 1.359375 -4.5625 2.09375 -5.53125 3.1875 -5.53125 Z M 3.1875 -5.53125 "/>
</g>
<g id="glyph-2-16">
<path d="M 5.25 -4.53125 C 5.25 -5.765625 4.421875 -6.46875 2.96875 -6.46875 C 1.515625 -6.46875 0.5625 -5.71875 0.5625 -4.546875 C 0.5625 -3.5625 1.0625 -3.09375 2.5625 -2.734375 L 3.484375 -2.515625 C 4.1875 -2.34375 4.46875 -2.09375 4.46875 -1.640625 C 4.46875 -1.046875 3.875 -0.640625 3 -0.640625 C 2.453125 -0.640625 2 -0.796875 1.75 -1.0625 C 1.59375 -1.25 1.53125 -1.421875 1.46875 -1.875 L 0.40625 -1.875 C 0.453125 -0.421875 1.265625 0.28125 2.921875 0.28125 C 4.5 0.28125 5.515625 -0.5 5.515625 -1.71875 C 5.515625 -2.65625 4.984375 -3.171875 3.734375 -3.46875 L 2.765625 -3.703125 C 1.953125 -3.890625 1.609375 -4.15625 1.609375 -4.59375 C 1.609375 -5.1875 2.125 -5.546875 2.9375 -5.546875 C 3.75 -5.546875 4.171875 -5.203125 4.203125 -4.53125 Z M 5.25 -4.53125 "/>
</g>
<g id="glyph-2-17">
<path d="M 5.65625 -4.171875 C 5.609375 -4.78125 5.46875 -5.1875 5.234375 -5.53125 C 4.796875 -6.125 4.046875 -6.46875 3.171875 -6.46875 C 1.46875 -6.46875 0.375 -5.125 0.375 -3.03125 C 0.375 -1.015625 1.453125 0.28125 3.15625 0.28125 C 4.65625 0.28125 5.609375 -0.625 5.71875 -2.15625 L 4.71875 -2.15625 C 4.546875 -1.15625 4.03125 -0.640625 3.1875 -0.640625 C 2.078125 -0.640625 1.421875 -1.546875 1.421875 -3.03125 C 1.421875 -4.609375 2.0625 -5.546875 3.15625 -5.546875 C 4 -5.546875 4.53125 -5.046875 4.640625 -4.171875 Z M 5.65625 -4.171875 "/>
</g>
<g id="glyph-2-18">
<path d="M 1.828125 -8.75 L 0.8125 -8.75 L 0.8125 0 L 1.828125 0 Z M 1.828125 -8.75 "/>
</g>
<g id="glyph-2-19">
<path d="M 1.0625 0 L 4.4375 0 C 6.640625 0 8 -1.65625 8 -4.375 C 8 -7.09375 6.65625 -8.75 4.4375 -8.75 L 1.0625 -8.75 Z M 2.1875 -0.984375 L 2.1875 -7.765625 L 4.25 -7.765625 C 5.96875 -7.765625 6.890625 -6.59375 6.890625 -4.375 C 6.890625 -2.140625 5.96875 -0.984375 4.25 -0.984375 Z M 2.1875 -0.984375 "/>
</g>
<g id="glyph-2-20">
<path d="M 0.84375 -8.75 L 0.84375 0 L 1.84375 0 L 1.84375 -3.46875 C 1.84375 -4.75 2.515625 -5.59375 3.546875 -5.59375 C 3.875 -5.59375 4.1875 -5.5 4.421875 -5.3125 C 4.71875 -5.09375 4.84375 -4.796875 4.84375 -4.359375 L 4.84375 0 L 5.828125 0 L 5.828125 -4.75 C 5.828125 -5.8125 5.078125 -6.46875 3.859375 -6.46875 C 2.96875 -6.46875 2.421875 -6.1875 1.84375 -5.421875 L 1.84375 -8.75 Z M 0.84375 -8.75 "/>
</g>
<g id="glyph-2-21">
<path d="M 4.84375 -6.28125 L 4.84375 -5.375 C 4.34375 -6.125 3.796875 -6.46875 3 -6.46875 C 1.46875 -6.46875 0.421875 -5.046875 0.421875 -3.03125 C 0.421875 -1.984375 0.671875 -1.21875 1.21875 -0.578125 C 1.6875 -0.03125 2.28125 0.28125 2.921875 0.28125 C 3.6875 0.28125 4.21875 -0.0625 4.75 -0.859375 L 4.75 -0.53125 C 4.75 1.15625 4.28125 1.78125 3.03125 1.78125 C 2.1875 1.78125 1.734375 1.4375 1.640625 0.71875 L 0.625 0.71875 C 0.71875 1.890625 1.640625 2.609375 3.015625 2.609375 C 3.9375 2.609375 4.703125 2.3125 5.109375 1.8125 C 5.59375 1.21875 5.765625 0.4375 5.765625 -1.03125 L 5.765625 -6.28125 Z M 3.09375 -5.546875 C 4.15625 -5.546875 4.75 -4.65625 4.75 -3.0625 C 4.75 -1.53125 4.140625 -0.640625 3.09375 -0.640625 C 2.0625 -0.640625 1.46875 -1.546875 1.46875 -3.09375 C 1.46875 -4.625 2.0625 -5.546875 3.09375 -5.546875 Z M 3.09375 -5.546875 "/>
</g>
<g id="glyph-2-22">
<path d="M 6.640625 0 L 8.5 -6.28125 L 7.375 -6.28125 L 6.125 -1.390625 L 4.890625 -6.28125 L 3.65625 -6.28125 L 2.453125 -1.390625 L 1.171875 -6.28125 L 0.078125 -6.28125 L 1.890625 0 L 3.03125 0 L 4.234375 -4.9375 L 5.515625 0 Z M 6.640625 0 "/>
</g>
<g id="glyph-2-23">
<path d="M 3 -9.234375 L 3 -8.59375 C 1.46875 -8.40625 0.640625 -7.5625 0.640625 -6.1875 C 0.640625 -5.4375 0.921875 -4.84375 1.46875 -4.4375 C 1.796875 -4.21875 2.140625 -4.078125 3 -3.8125 L 3 -0.546875 C 2.453125 -0.625 2 -0.859375 1.734375 -1.234375 C 1.546875 -1.515625 1.5 -1.71875 1.421875 -2.5 L 0.484375 -2.5 C 0.390625 -0.828125 1.3125 0.171875 3 0.28125 L 3 1.515625 L 3.703125 1.515625 L 3.703125 0.28125 C 4.359375 0.234375 4.796875 0.09375 5.203125 -0.140625 C 5.890625 -0.578125 6.296875 -1.390625 6.296875 -2.34375 C 6.296875 -3.1875 5.96875 -3.796875 5.28125 -4.1875 C 4.96875 -4.375 4.8125 -4.421875 3.703125 -4.765625 L 3.703125 -7.75 C 4.515625 -7.71875 5.078125 -7.109375 5.09375 -6.234375 L 6.03125 -6.234375 C 6.03125 -7.59375 5.15625 -8.484375 3.703125 -8.59375 L 3.703125 -9.234375 Z M 3 -4.859375 C 2.046875 -5.109375 1.609375 -5.578125 1.609375 -6.3125 C 1.609375 -7.109375 2.109375 -7.625 3 -7.734375 Z M 3.703125 -3.703125 C 4.9375 -3.34375 5.3125 -2.984375 5.3125 -2.203125 C 5.3125 -1.734375 5.140625 -1.3125 4.8125 -1 C 4.53125 -0.71875 4.21875 -0.609375 3.703125 -0.546875 Z M 3.703125 -3.703125 "/>
</g>
<g id="glyph-2-24">
<path d="M 3.296875 -8.671875 C 2.515625 -8.671875 1.78125 -8.3125 1.34375 -7.734375 C 0.796875 -6.953125 0.515625 -5.8125 0.515625 -4.203125 C 0.515625 -1.265625 1.46875 0.28125 3.296875 0.28125 C 5.09375 0.28125 6.078125 -1.265625 6.078125 -4.125 C 6.078125 -5.8125 5.8125 -6.9375 5.25 -7.734375 C 4.8125 -8.328125 4.109375 -8.671875 3.296875 -8.671875 Z M 3.296875 -7.734375 C 4.4375 -7.734375 5 -6.578125 5 -4.21875 C 5 -1.75 4.453125 -0.59375 3.28125 -0.59375 C 2.15625 -0.59375 1.59375 -1.796875 1.59375 -4.1875 C 1.59375 -6.578125 2.15625 -7.734375 3.296875 -7.734375 Z M 3.296875 -7.734375 "/>
</g>
<g id="glyph-2-25">
<path d="M 2.296875 -1.25 L 1.046875 -1.25 L 1.046875 0 L 2.296875 0 Z M 2.296875 -1.25 "/>
</g>
<g id="glyph-2-26">
<path d="M 3.109375 -6.1875 L 3.109375 0 L 4.15625 0 L 4.15625 -8.671875 L 3.46875 -8.671875 C 3.09375 -7.34375 2.859375 -7.15625 1.21875 -6.953125 L 1.21875 -6.1875 Z M 3.109375 -6.1875 "/>
</g>
<g id="glyph-2-27">
<path d="M 5.71875 -8.515625 L 1.3125 -8.515625 L 0.6875 -3.875 L 1.65625 -3.875 C 2.140625 -4.46875 2.5625 -4.671875 3.234375 -4.671875 C 4.375 -4.671875 5.078125 -3.890625 5.078125 -2.625 C 5.078125 -1.40625 4.375 -0.65625 3.21875 -0.65625 C 2.296875 -0.65625 1.734375 -1.125 1.46875 -2.09375 L 0.421875 -2.09375 C 0.5625 -1.390625 0.6875 -1.0625 0.9375 -0.75 C 1.421875 -0.09375 2.28125 0.28125 3.234375 0.28125 C 4.953125 0.28125 6.15625 -0.96875 6.15625 -2.765625 C 6.15625 -4.453125 5.046875 -5.609375 3.40625 -5.609375 C 2.8125 -5.609375 2.328125 -5.453125 1.84375 -5.09375 L 2.171875 -7.46875 L 5.71875 -7.46875 Z M 5.71875 -8.515625 "/>
</g>
<g id="glyph-2-28">
<path d="M 2.75 -8.75 L -0.09375 0.234375 L 0.5625 0.234375 L 3.40625 -8.75 Z M 2.75 -8.75 "/>
</g>
<g id="glyph-2-29">
<path d="M 4.65625 -6.28125 L 2.921875 -1.390625 L 1.3125 -6.28125 L 0.234375 -6.28125 L 2.359375 0.03125 L 1.984375 1.015625 C 1.8125 1.46875 1.59375 1.625 1.171875 1.625 C 1.015625 1.625 0.859375 1.609375 0.640625 1.5625 L 0.640625 2.453125 C 0.859375 2.5625 1.0625 2.609375 1.3125 2.609375 C 1.640625 2.609375 1.984375 2.515625 2.25 2.3125 C 2.5625 2.09375 2.75 1.828125 2.9375 1.3125 L 5.734375 -6.28125 Z M 4.65625 -6.28125 "/>
</g>
<g id="glyph-2-30">
<path d="M 0.953125 0 L 4.890625 0 C 5.71875 0 6.34375 -0.234375 6.796875 -0.734375 C 7.234375 -1.1875 7.46875 -1.8125 7.46875 -2.5 C 7.46875 -3.546875 7 -4.1875 5.875 -4.625 C 6.6875 -4.984375 7.09375 -5.625 7.09375 -6.53125 C 7.09375 -7.171875 6.859375 -7.734375 6.390625 -8.140625 C 5.921875 -8.5625 5.34375 -8.75 4.5 -8.75 L 0.953125 -8.75 Z M 2.0625 -4.984375 L 2.0625 -7.765625 L 4.21875 -7.765625 C 4.84375 -7.765625 5.203125 -7.6875 5.5 -7.453125 C 5.8125 -7.21875 5.96875 -6.859375 5.96875 -6.375 C 5.96875 -5.890625 5.8125 -5.53125 5.5 -5.296875 C 5.203125 -5.0625 4.84375 -4.984375 4.21875 -4.984375 Z M 2.0625 -0.984375 L 2.0625 -4 L 4.78125 -4 C 5.765625 -4 6.359375 -3.4375 6.359375 -2.484375 C 6.359375 -1.546875 5.765625 -0.984375 4.78125 -0.984375 Z M 2.0625 -0.984375 "/>
</g>
<g id="glyph-2-31">
<path d="M 12.015625 -3.75 L -0.109375 -3.75 L -0.109375 -2.875 L 12.015625 -2.875 Z M 12.015625 -3.75 "/>
</g>
<g id="glyph-2-32">
<path d="M 2.578125 -6.28125 L 1.328125 -6.28125 L 1.328125 -5.046875 L 2.578125 -5.046875 Z M 1.3125 -1.25 L 1.3125 0 L 2.046875 0 L 2.046875 0.21875 C 2.046875 1.046875 1.890625 1.28125 1.3125 1.3125 L 1.3125 1.765625 C 2.109375 1.78125 2.578125 1.21875 2.578125 0.1875 L 2.578125 -1.25 Z M 1.3125 -1.25 "/>
</g>
<g id="glyph-2-33">
<path d="M 2.65625 -4 L 3.234375 -4 C 4.375 -4 4.984375 -3.453125 4.984375 -2.40625 C 4.984375 -1.3125 4.328125 -0.65625 3.234375 -0.65625 C 2.078125 -0.65625 1.515625 -1.25 1.4375 -2.515625 L 0.390625 -2.515625 C 0.4375 -1.828125 0.546875 -1.375 0.75 -0.984375 C 1.203125 -0.140625 2.03125 0.28125 3.1875 0.28125 C 4.9375 0.28125 6.078125 -0.78125 6.078125 -2.421875 C 6.078125 -3.53125 5.65625 -4.125 4.625 -4.484375 C 5.421875 -4.8125 5.8125 -5.40625 5.8125 -6.28125 C 5.8125 -7.78125 4.84375 -8.671875 3.234375 -8.671875 C 1.515625 -8.671875 0.59375 -7.71875 0.5625 -5.875 L 1.625 -5.875 C 1.625 -6.40625 1.6875 -6.703125 1.8125 -6.96875 C 2.046875 -7.46875 2.578125 -7.75 3.234375 -7.75 C 4.171875 -7.75 4.734375 -7.1875 4.734375 -6.25 C 4.734375 -5.640625 4.53125 -5.265625 4.0625 -5.0625 C 3.765625 -4.9375 3.390625 -4.890625 2.65625 -4.890625 Z M 2.65625 -4 "/>
</g>
<g id="glyph-3-0">
<path d="M -3.765625 -2.234375 L -3.765625 -5.109375 C -3.765625 -6.109375 -3.28125 -6.546875 -2.203125 -6.546875 L -1.421875 -6.546875 C -0.890625 -6.546875 -0.359375 -6.640625 0 -6.796875 L 0 -8.140625 L -0.28125 -8.140625 C -0.5625 -7.734375 -0.875 -7.640625 -2.046875 -7.625 C -3.484375 -7.609375 -3.90625 -7.375 -4.3125 -6.4375 C -4.8125 -7.421875 -5.40625 -7.8125 -6.40625 -7.8125 C -7.921875 -7.8125 -8.75 -6.875 -8.75 -5.140625 L -8.75 -1.109375 L 0 -1.109375 L 0 -2.234375 Z M -4.75 -2.234375 L -7.765625 -2.234375 L -7.765625 -4.9375 C -7.765625 -5.5625 -7.671875 -5.921875 -7.421875 -6.1875 C -7.171875 -6.484375 -6.78125 -6.640625 -6.265625 -6.640625 C -5.21875 -6.640625 -4.75 -6.125 -4.75 -4.9375 Z M -4.75 -2.234375 "/>
</g>
<g id="glyph-3-1">
<path d="M -0.59375 -6.421875 C -0.5625 -6.3125 -0.5625 -6.265625 -0.5625 -6.203125 C -0.5625 -5.859375 -0.75 -5.65625 -1.0625 -5.65625 L -4.75 -5.65625 C -5.875 -5.65625 -6.46875 -4.84375 -6.46875 -3.296875 C -6.46875 -2.375 -6.203125 -1.640625 -5.734375 -1.21875 C -5.40625 -0.921875 -5.046875 -0.796875 -4.421875 -0.78125 L -4.421875 -1.78125 C -5.203125 -1.875 -5.546875 -2.328125 -5.546875 -3.265625 C -5.546875 -4.171875 -5.203125 -4.671875 -4.609375 -4.671875 L -4.34375 -4.671875 C -3.90625 -4.65625 -3.75 -4.4375 -3.640625 -3.625 C -3.46875 -2.203125 -3.421875 -1.984375 -3.265625 -1.609375 C -2.953125 -0.875 -2.40625 -0.5 -1.578125 -0.5 C -0.4375 -0.5 0.28125 -1.296875 0.28125 -2.5625 C 0.28125 -3.359375 0 -4 -0.640625 -4.703125 C 0 -4.78125 0.28125 -5.09375 0.28125 -5.734375 C 0.28125 -5.953125 0.25 -6.078125 0.171875 -6.421875 Z M -1.984375 -4.671875 C -1.640625 -4.671875 -1.4375 -4.578125 -1.15625 -4.265625 C -0.796875 -3.859375 -0.59375 -3.375 -0.59375 -2.78125 C -0.59375 -2 -0.96875 -1.546875 -1.609375 -1.546875 C -2.265625 -1.546875 -2.609375 -1.984375 -2.765625 -3.0625 C -2.90625 -4.125 -2.953125 -4.328125 -3.109375 -4.671875 Z M -1.984375 -4.671875 "/>
</g>
<g id="glyph-3-2">
<path d="M -6.28125 -3.046875 L -6.28125 -2.015625 L -8.015625 -2.015625 L -8.015625 -1.015625 L -6.28125 -1.015625 L -6.28125 -0.171875 L -5.46875 -0.171875 L -5.46875 -1.015625 L -0.71875 -1.015625 C -0.078125 -1.015625 0.28125 -1.453125 0.28125 -2.234375 C 0.28125 -2.5 0.25 -2.71875 0.1875 -3.046875 L -0.640625 -3.046875 C -0.609375 -2.90625 -0.59375 -2.765625 -0.59375 -2.5625 C -0.59375 -2.140625 -0.71875 -2.015625 -1.15625 -2.015625 L -5.46875 -2.015625 L -5.46875 -3.046875 Z M -6.28125 -3.046875 "/>
</g>
<g id="glyph-3-3">
<path d="M -2.8125 -6.15625 C -3.765625 -6.15625 -4.34375 -6.078125 -4.8125 -5.90625 C -5.84375 -5.5 -6.46875 -4.53125 -6.46875 -3.359375 C -6.46875 -1.609375 -5.140625 -0.484375 -3.0625 -0.484375 C -0.984375 -0.484375 0.28125 -1.5625 0.28125 -3.34375 C 0.28125 -4.78125 -0.546875 -5.765625 -1.90625 -6.03125 L -1.90625 -5.015625 C -1.078125 -4.734375 -0.640625 -4.171875 -0.640625 -3.375 C -0.640625 -2.734375 -0.9375 -2.203125 -1.46875 -1.859375 C -1.828125 -1.625 -2.1875 -1.53125 -2.8125 -1.53125 Z M -3.625 -1.546875 C -4.78125 -1.625 -5.546875 -2.34375 -5.546875 -3.34375 C -5.546875 -4.375 -4.75 -5.078125 -3.625 -5.078125 Z M -3.625 -1.546875 "/>
</g>
<g id="glyph-4-0">
<path d="M 5.09375 -9.328125 L 8.546875 -9.328125 L 8.546875 -10.5 L 0.296875 -10.5 L 0.296875 -9.328125 L 3.765625 -9.328125 L 3.765625 0 L 5.09375 0 Z M 5.09375 -9.328125 "/>
</g>
<g id="glyph-4-1">
<path d="M 5.59375 -7.546875 L 3.5 -1.671875 L 1.5625 -7.546875 L 0.28125 -7.546875 L 2.84375 0.03125 L 2.375 1.21875 C 2.171875 1.75 1.921875 1.953125 1.40625 1.953125 C 1.203125 1.953125 1.03125 1.9375 0.78125 1.875 L 0.78125 2.953125 C 1.015625 3.078125 1.265625 3.140625 1.578125 3.140625 C 1.96875 3.140625 2.390625 3.015625 2.703125 2.78125 C 3.078125 2.5 3.296875 2.1875 3.53125 1.578125 L 6.890625 -7.546875 Z M 5.59375 -7.546875 "/>
</g>
<g id="glyph-4-2">
<path d="M 0.78125 3.140625 L 1.984375 3.140625 L 1.984375 -0.796875 C 2.625 -0.015625 3.328125 0.328125 4.3125 0.328125 C 6.265625 0.328125 7.53125 -1.234375 7.53125 -3.640625 C 7.53125 -6.1875 6.296875 -7.765625 4.296875 -7.765625 C 3.265625 -7.765625 2.453125 -7.296875 1.890625 -6.40625 L 1.890625 -7.546875 L 0.78125 -7.546875 Z M 4.09375 -6.640625 C 5.421875 -6.640625 6.28125 -5.46875 6.28125 -3.671875 C 6.28125 -1.953125 5.40625 -0.796875 4.09375 -0.796875 C 2.8125 -0.796875 1.984375 -1.9375 1.984375 -3.71875 C 1.984375 -5.484375 2.8125 -6.640625 4.09375 -6.640625 Z M 4.09375 -6.640625 "/>
</g>
<g id="glyph-4-3">
<path d="M 7.390625 -3.375 C 7.390625 -4.53125 7.296875 -5.21875 7.09375 -5.78125 C 6.59375 -7.015625 5.453125 -7.765625 4.03125 -7.765625 C 1.9375 -7.765625 0.578125 -6.171875 0.578125 -3.671875 C 0.578125 -1.1875 1.875 0.328125 4 0.328125 C 5.734375 0.328125 6.921875 -0.640625 7.234375 -2.296875 L 6.015625 -2.296875 C 5.6875 -1.296875 5.015625 -0.78125 4.046875 -0.78125 C 3.28125 -0.78125 2.640625 -1.125 2.234375 -1.75 C 1.9375 -2.1875 1.84375 -2.625 1.828125 -3.375 Z M 1.859375 -4.34375 C 1.953125 -5.75 2.8125 -6.65625 4.015625 -6.65625 C 5.25 -6.65625 6.09375 -5.703125 6.09375 -4.34375 Z M 1.859375 -4.34375 "/>
</g>
<g id="glyph-4-4">
</g>
<g id="glyph-4-5">
<path d="M 2.796875 -10.5 L 1.4375 -10.5 L 1.4375 0 L 2.796875 0 Z M 2.796875 -10.5 "/>
</g>
<g id="glyph-4-6">
<path d="M 1 -7.546875 L 1 0 L 2.203125 0 L 2.203125 -3.921875 C 2.21875 -5.734375 2.96875 -6.546875 4.625 -6.5 L 4.625 -7.71875 C 4.421875 -7.75 4.3125 -7.765625 4.15625 -7.765625 C 3.390625 -7.765625 2.796875 -7.296875 2.109375 -6.1875 L 2.109375 -7.546875 Z M 1 -7.546875 "/>
</g>
<g id="glyph-4-7">
<path d="M 3.921875 -7.765625 C 1.78125 -7.765625 0.515625 -6.25 0.515625 -3.71875 C 0.515625 -1.171875 1.78125 0.328125 3.9375 0.328125 C 6.0625 0.328125 7.34375 -1.1875 7.34375 -3.65625 C 7.34375 -6.28125 6.109375 -7.765625 3.921875 -7.765625 Z M 3.9375 -6.65625 C 5.28125 -6.65625 6.09375 -5.546875 6.09375 -3.671875 C 6.09375 -1.890625 5.265625 -0.78125 3.9375 -0.78125 C 2.59375 -0.78125 1.765625 -1.890625 1.765625 -3.71875 C 1.765625 -5.546875 2.59375 -6.65625 3.9375 -6.65625 Z M 3.9375 -6.65625 "/>
</g>
<g id="glyph-4-8">
<path d="M 2.15625 -7.546875 L 0.96875 -7.546875 L 0.96875 0 L 2.15625 0 Z M 2.15625 -10.5 L 0.953125 -10.5 L 0.953125 -8.984375 L 2.15625 -8.984375 Z M 2.15625 -10.5 "/>
</g>
<g id="glyph-4-9">
<path d="M 1.015625 -7.546875 L 1.015625 0 L 2.21875 0 L 2.21875 -4.15625 C 2.21875 -5.703125 3.03125 -6.71875 4.265625 -6.71875 C 5.21875 -6.71875 5.8125 -6.140625 5.8125 -5.234375 L 5.8125 0 L 7.015625 0 L 7.015625 -5.703125 C 7.015625 -6.953125 6.078125 -7.765625 4.625 -7.765625 C 3.5 -7.765625 2.78125 -7.328125 2.125 -6.28125 L 2.125 -7.546875 Z M 1.015625 -7.546875 "/>
</g>
<g id="glyph-4-10">
<path d="M 3.703125 -7.546875 L 2.453125 -7.546875 L 2.453125 -8.734375 C 2.453125 -9.234375 2.71875 -9.5 3.28125 -9.5 C 3.390625 -9.5 3.421875 -9.5 3.703125 -9.484375 L 3.703125 -10.46875 C 3.421875 -10.53125 3.265625 -10.546875 3.03125 -10.546875 C 1.921875 -10.546875 1.25 -9.90625 1.25 -8.828125 L 1.25 -7.546875 L 0.25 -7.546875 L 0.25 -6.5625 L 1.25 -6.5625 L 1.25 0 L 2.453125 0 L 2.453125 -6.5625 L 3.703125 -6.5625 Z M 6.1875 -10.5 L 5 -10.5 L 5 0 L 6.1875 0 Z M 6.1875 -10.5 "/>
</g>
<g id="glyph-4-11">
<path d="M 7.703125 -0.703125 C 7.578125 -0.671875 7.515625 -0.671875 7.453125 -0.671875 C 7.03125 -0.671875 6.796875 -0.890625 6.796875 -1.265625 L 6.796875 -5.703125 C 6.796875 -7.046875 5.8125 -7.765625 3.96875 -7.765625 C 2.859375 -7.765625 1.96875 -7.453125 1.453125 -6.890625 C 1.109375 -6.5 0.96875 -6.0625 0.9375 -5.3125 L 2.140625 -5.3125 C 2.25 -6.234375 2.796875 -6.65625 3.921875 -6.65625 C 5.015625 -6.65625 5.609375 -6.25 5.609375 -5.53125 L 5.609375 -5.21875 C 5.59375 -4.703125 5.328125 -4.515625 4.34375 -4.375 C 2.65625 -4.15625 2.390625 -4.109375 1.9375 -3.921875 C 1.046875 -3.546875 0.609375 -2.875 0.609375 -1.90625 C 0.609375 -0.53125 1.5625 0.328125 3.078125 0.328125 C 4.03125 0.328125 4.796875 0 5.640625 -0.78125 C 5.734375 0 6.109375 0.328125 6.890625 0.328125 C 7.140625 0.328125 7.296875 0.296875 7.703125 0.203125 Z M 5.609375 -2.375 C 5.609375 -1.96875 5.484375 -1.734375 5.125 -1.390625 C 4.640625 -0.953125 4.046875 -0.71875 3.34375 -0.71875 C 2.40625 -0.71875 1.859375 -1.171875 1.859375 -1.9375 C 1.859375 -2.71875 2.375 -3.125 3.671875 -3.3125 C 4.953125 -3.484375 5.203125 -3.546875 5.609375 -3.734375 Z M 5.609375 -2.375 "/>
</g>
<g id="glyph-4-12">
<path d="M 3.65625 -7.546875 L 2.421875 -7.546875 L 2.421875 -9.625 L 1.21875 -9.625 L 1.21875 -7.546875 L 0.203125 -7.546875 L 0.203125 -6.5625 L 1.21875 -6.5625 L 1.21875 -0.859375 C 1.21875 -0.09375 1.75 0.328125 2.671875 0.328125 C 3 0.328125 3.25 0.296875 3.65625 0.234375 L 3.65625 -0.78125 C 3.484375 -0.734375 3.328125 -0.71875 3.078125 -0.71875 C 2.5625 -0.71875 2.421875 -0.859375 2.421875 -1.390625 L 2.421875 -6.5625 L 3.65625 -6.5625 Z M 3.65625 -7.546875 "/>
</g>
<g id="glyph-4-13">
<path d="M 6.9375 0 L 6.9375 -7.546875 L 5.75 -7.546875 L 5.75 -3.265625 C 5.75 -1.734375 4.9375 -0.71875 3.6875 -0.71875 C 2.734375 -0.71875 2.125 -1.296875 2.125 -2.203125 L 2.125 -7.546875 L 0.9375 -7.546875 L 0.9375 -1.734375 C 0.9375 -0.46875 1.875 0.328125 3.34375 0.328125 C 4.453125 0.328125 5.15625 -0.0625 5.859375 -1.046875 L 5.859375 0 Z M 6.9375 0 "/>
</g>
<g id="glyph-4-14">
<path d="M 7.125 -10.5 L 5.9375 -10.5 L 5.9375 -6.59375 C 5.4375 -7.359375 4.625 -7.765625 3.609375 -7.765625 C 1.65625 -7.765625 0.375 -6.1875 0.375 -3.78125 C 0.375 -1.234375 1.609375 0.328125 3.65625 0.328125 C 4.703125 0.328125 5.421875 -0.0625 6.0625 -1 L 6.0625 0 L 7.125 0 Z M 3.8125 -6.640625 C 5.109375 -6.640625 5.9375 -5.5 5.9375 -3.6875 C 5.9375 -1.9375 5.09375 -0.796875 3.828125 -0.796875 C 2.5 -0.796875 1.625 -1.953125 1.625 -3.71875 C 1.625 -5.46875 2.5 -6.640625 3.8125 -6.640625 Z M 3.8125 -6.640625 "/>
</g>
<g id="glyph-4-15">
<path d="M 2.1875 -10.5 L 0.984375 -10.5 L 0.984375 0 L 2.1875 0 Z M 2.1875 -10.5 "/>
</g>
<g id="glyph-4-16">
<path d="M 6.3125 -5.453125 C 6.296875 -6.921875 5.3125 -7.765625 3.578125 -7.765625 C 1.8125 -7.765625 0.671875 -6.859375 0.671875 -5.453125 C 0.671875 -4.28125 1.28125 -3.71875 3.0625 -3.28125 L 4.1875 -3.015625 C 5.03125 -2.8125 5.359375 -2.5 5.359375 -1.96875 C 5.359375 -1.25 4.65625 -0.78125 3.59375 -0.78125 C 2.953125 -0.78125 2.40625 -0.96875 2.109375 -1.28125 C 1.921875 -1.5 1.828125 -1.71875 1.75 -2.25 L 0.484375 -2.25 C 0.546875 -0.5 1.53125 0.328125 3.5 0.328125 C 5.40625 0.328125 6.609375 -0.609375 6.609375 -2.0625 C 6.609375 -3.1875 5.984375 -3.796875 4.484375 -4.15625 L 3.328125 -4.4375 C 2.34375 -4.671875 1.9375 -4.984375 1.9375 -5.515625 C 1.9375 -6.21875 2.546875 -6.65625 3.53125 -6.65625 C 4.5 -6.65625 5.015625 -6.234375 5.046875 -5.453125 Z M 6.3125 -5.453125 "/>
</g>
<g id="glyph-4-17">
<path d="M 4.109375 0 L 7 -7.546875 L 5.640625 -7.546875 L 3.515625 -1.421875 L 1.5 -7.546875 L 0.140625 -7.546875 L 2.796875 0 Z M 4.109375 0 "/>
</g>
<g id="glyph-4-18">
<path d="M 3.40625 -10.5 C 1.953125 -8.609375 1.046875 -6 1.046875 -3.734375 C 1.046875 -1.453125 1.953125 1.171875 3.40625 3.046875 L 4.1875 3.046875 C 2.921875 1 2.21875 -1.421875 2.21875 -3.734375 C 2.21875 -6.015625 2.921875 -8.453125 4.1875 -10.5 Z M 3.40625 -10.5 "/>
</g>
<g id="glyph-4-19">
<path d="M 1.015625 -7.546875 L 1.015625 0 L 2.21875 0 L 2.21875 -4.734375 C 2.21875 -5.828125 3.015625 -6.71875 3.984375 -6.71875 C 4.890625 -6.71875 5.390625 -6.171875 5.390625 -5.203125 L 5.390625 0 L 6.59375 0 L 6.59375 -4.734375 C 6.59375 -5.828125 7.390625 -6.71875 8.375 -6.71875 C 9.25 -6.71875 9.765625 -6.15625 9.765625 -5.203125 L 9.765625 0 L 10.984375 0 L 10.984375 -5.65625 C 10.984375 -7.015625 10.203125 -7.765625 8.78125 -7.765625 C 7.78125 -7.765625 7.171875 -7.46875 6.46875 -6.609375 C 6.015625 -7.421875 5.421875 -7.765625 4.4375 -7.765625 C 3.421875 -7.765625 2.75 -7.390625 2.125 -6.484375 L 2.125 -7.546875 Z M 1.015625 -7.546875 "/>
</g>
<g id="glyph-4-20">
<path d="M 3.75 -7.546875 L 2.5 -7.546875 L 2.5 -8.734375 C 2.5 -9.234375 2.765625 -9.5 3.328125 -9.5 C 3.421875 -9.5 3.46875 -9.5 3.75 -9.484375 L 3.75 -10.46875 C 3.46875 -10.53125 3.3125 -10.546875 3.0625 -10.546875 C 1.953125 -10.546875 1.296875 -9.90625 1.296875 -8.828125 L 1.296875 -7.546875 L 0.28125 -7.546875 L 0.28125 -6.5625 L 1.296875 -6.5625 L 1.296875 0 L 2.5 0 L 2.5 -6.5625 L 3.75 -6.5625 Z M 7.625 -7.546875 L 6.375 -7.546875 L 6.375 -8.734375 C 6.375 -9.234375 6.640625 -9.5 7.203125 -9.5 C 7.296875 -9.5 7.34375 -9.5 7.625 -9.484375 L 7.625 -10.46875 C 7.34375 -10.53125 7.1875 -10.546875 6.9375 -10.546875 C 5.828125 -10.546875 5.171875 -9.90625 5.171875 -8.828125 L 5.171875 -7.546875 L 4.15625 -7.546875 L 4.15625 -6.5625 L 5.171875 -6.5625 L 5.171875 0 L 6.375 0 L 6.375 -6.5625 L 7.625 -6.5625 Z M 7.625 -7.546875 "/>
</g>
<g id="glyph-4-21">
<path d="M 6.78125 -5.015625 C 6.734375 -5.75 6.5625 -6.21875 6.28125 -6.640625 C 5.765625 -7.34375 4.859375 -7.765625 3.796875 -7.765625 C 1.75 -7.765625 0.453125 -6.15625 0.453125 -3.640625 C 0.453125 -1.203125 1.75 0.328125 3.78125 0.328125 C 5.59375 0.328125 6.734375 -0.75 6.875 -2.59375 L 5.65625 -2.59375 C 5.453125 -1.390625 4.84375 -0.78125 3.8125 -0.78125 C 2.5 -0.78125 1.703125 -1.859375 1.703125 -3.640625 C 1.703125 -5.53125 2.484375 -6.65625 3.78125 -6.65625 C 4.796875 -6.65625 5.4375 -6.0625 5.578125 -5.015625 Z M 6.78125 -5.015625 "/>
</g>
<g id="glyph-4-22">
<path d="M 7.6875 -5.078125 L 0.71875 -5.078125 L 0.71875 -4.078125 L 7.6875 -4.078125 Z M 7.6875 -2.609375 L 0.71875 -2.609375 L 0.71875 -1.59375 L 7.6875 -1.59375 Z M 7.6875 -2.609375 "/>
</g>
<g id="glyph-4-23">
<path d="M 3.59375 -11.09375 L 3.59375 -10.3125 C 1.75 -10.078125 0.765625 -9.078125 0.765625 -7.4375 C 0.765625 -6.53125 1.109375 -5.8125 1.765625 -5.328125 C 2.15625 -5.0625 2.5625 -4.890625 3.59375 -4.578125 L 3.59375 -0.65625 C 2.953125 -0.75 2.40625 -1.03125 2.078125 -1.484375 C 1.859375 -1.8125 1.796875 -2.0625 1.71875 -3 L 0.578125 -3 C 0.46875 -1 1.5625 0.203125 3.59375 0.328125 L 3.59375 1.8125 L 4.453125 1.8125 L 4.453125 0.328125 C 5.234375 0.28125 5.765625 0.109375 6.234375 -0.171875 C 7.078125 -0.6875 7.5625 -1.671875 7.5625 -2.8125 C 7.5625 -3.828125 7.171875 -4.546875 6.34375 -5.03125 C 5.96875 -5.25 5.78125 -5.3125 4.453125 -5.71875 L 4.453125 -9.3125 C 5.421875 -9.265625 6.09375 -8.53125 6.109375 -7.484375 L 7.25 -7.484375 C 7.25 -9.125 6.1875 -10.1875 4.453125 -10.3125 L 4.453125 -11.09375 Z M 3.59375 -5.828125 C 2.46875 -6.140625 1.9375 -6.703125 1.9375 -7.578125 C 1.9375 -8.53125 2.53125 -9.140625 3.59375 -9.296875 Z M 4.453125 -4.453125 C 5.921875 -4.015625 6.375 -3.59375 6.375 -2.640625 C 6.375 -2.078125 6.171875 -1.5625 5.78125 -1.203125 C 5.4375 -0.859375 5.078125 -0.734375 4.453125 -0.65625 Z M 4.453125 -4.453125 "/>
</g>
<g id="glyph-4-24">
<path d="M 3.96875 -10.421875 C 3.015625 -10.421875 2.140625 -9.984375 1.609375 -9.28125 C 0.953125 -8.359375 0.625 -6.96875 0.625 -5.046875 C 0.625 -1.53125 1.765625 0.328125 3.96875 0.328125 C 6.125 0.328125 7.296875 -1.53125 7.296875 -4.953125 C 7.296875 -6.96875 6.984375 -8.328125 6.3125 -9.28125 C 5.78125 -10 4.921875 -10.421875 3.96875 -10.421875 Z M 3.96875 -9.296875 C 5.328125 -9.296875 6 -7.890625 6 -5.078125 C 6 -2.109375 5.34375 -0.71875 3.9375 -0.71875 C 2.59375 -0.71875 1.921875 -2.15625 1.921875 -5.03125 C 1.921875 -7.890625 2.59375 -9.296875 3.96875 -9.296875 Z M 3.96875 -9.296875 "/>
</g>
<g id="glyph-4-25">
<path d="M 1.34375 3.046875 C 2.78125 1.171875 3.6875 -1.453125 3.6875 -3.71875 C 3.6875 -6 2.78125 -8.609375 1.34375 -10.5 L 0.546875 -10.5 C 1.8125 -8.4375 2.515625 -6.015625 2.515625 -3.71875 C 2.515625 -1.421875 1.8125 1.015625 0.546875 3.046875 Z M 1.34375 3.046875 "/>
</g>
</g>
<clipPath id="clip-0">
<path clip-rule="nonzero" d="M 50.347656 268 L 714.023438 268 L 714.023438 270 L 50.347656 270 Z M 50.347656 268 "/>
</clipPath>
<clipPath id="clip-1">
<path clip-rule="nonzero" d="M 50.347656 214 L 714.023438 214 L 714.023438 217 L 50.347656 217 Z M 50.347656 214 "/>
</clipPath>
<clipPath id="clip-2">
<path clip-rule="nonzero" d="M 50.347656 161 L 714.023438 161 L 714.023438 163 L 50.347656 163 Z M 50.347656 161 "/>
</clipPath>
<clipPath id="clip-3">
<path clip-rule="nonzero" d="M 50.347656 108 L 714.023438 108 L 714.023438 110 L 50.347656 110 Z M 50.347656 108 "/>
</clipPath>
<clipPath id="clip-4">
<path clip-rule="nonzero" d="M 50.347656 55 L 714.023438 55 L 714.023438 57 L 50.347656 57 Z M 50.347656 55 "/>
</clipPath>
<clipPath id="clip-5">
<path clip-rule="nonzero" d="M 79 44.933594 L 82 44.933594 L 82 279.375 L 79 279.375 Z M 79 44.933594 "/>
</clipPath>
<clipPath id="clip-6">
<path clip-rule="nonzero" d="M 200 44.933594 L 202 44.933594 L 202 279.375 L 200 279.375 Z M 200 44.933594 "/>
</clipPath>
<clipPath id="clip-7">
<path clip-rule="nonzero" d="M 321 44.933594 L 323 44.933594 L 323 279.375 L 321 279.375 Z M 321 44.933594 "/>
</clipPath>
<clipPath id="clip-8">
<path clip-rule="nonzero" d="M 441 44.933594 L 444 44.933594 L 444 279.375 L 441 279.375 Z M 441 44.933594 "/>
</clipPath>
<clipPath id="clip-9">
<path clip-rule="nonzero" d="M 562 44.933594 L 564 44.933594 L 564 279.375 L 562 279.375 Z M 562 44.933594 "/>
</clipPath>
<clipPath id="clip-10">
<path clip-rule="nonzero" d="M 683 44.933594 L 685 44.933594 L 685 279.375 L 683 279.375 Z M 683 44.933594 "/>
</clipPath>
<clipPath id="clip-11">
<path clip-rule="nonzero" d="M 50.347656 257 L 714.023438 257 L 714.023438 260 L 50.347656 260 Z M 50.347656 257 "/>
</clipPath>
</defs>
<rect x="-72" y="-36" width="864" height="432" fill="rgb(100%, 100%, 100%)" fill-opacity="1"/>
<rect x="-72" y="-36" width="864" height="432" fill="rgb(100%, 100%, 100%)" fill-opacity="1"/>
<g clip-path="url(#clip-0)">
<path fill="none" stroke-width="1.163976" stroke-linecap="butt" stroke-linejoin="round" stroke="rgb(92.156863%, 92.156863%, 92.156863%)" stroke-opacity="1" stroke-miterlimit="10" d="M 50.347656 268.71875 L 714.023438 268.71875 "/>
</g>
<g clip-path="url(#clip-1)">
<path fill="none" stroke-width="1.163976" stroke-linecap="butt" stroke-linejoin="round" stroke="rgb(92.156863%, 92.156863%, 92.156863%)" stroke-opacity="1" stroke-miterlimit="10" d="M 50.347656 215.4375 L 714.023438 215.4375 "/>
</g>
<g clip-path="url(#clip-2)">
<path fill="none" stroke-width="1.163976" stroke-linecap="butt" stroke-linejoin="round" stroke="rgb(92.156863%, 92.156863%, 92.156863%)" stroke-opacity="1" stroke-miterlimit="10" d="M 50.347656 162.152344 L 714.023438 162.152344 "/>
</g>
<g clip-path="url(#clip-3)">
<path fill="none" stroke-width="1.163976" stroke-linecap="butt" stroke-linejoin="round" stroke="rgb(92.156863%, 92.156863%, 92.156863%)" stroke-opacity="1" stroke-miterlimit="10" d="M 50.347656 108.871094 L 714.023438 108.871094 "/>
</g>
<g clip-path="url(#clip-4)">
<path fill="none" stroke-width="1.163976" stroke-linecap="butt" stroke-linejoin="round" stroke="rgb(92.156863%, 92.156863%, 92.156863%)" stroke-opacity="1" stroke-miterlimit="10" d="M 50.347656 55.589844 L 714.023438 55.589844 "/>
</g>
<g clip-path="url(#clip-5)">
<path fill="none" stroke-width="1.163976" stroke-linecap="butt" stroke-linejoin="round" stroke="rgb(92.156863%, 92.156863%, 92.156863%)" stroke-opacity="1" stroke-miterlimit="10" d="M 80.511719 279.375 L 80.511719 44.933594 "/>
</g>
<g clip-path="url(#clip-6)">
<path fill="none" stroke-width="1.163976" stroke-linecap="butt" stroke-linejoin="round" stroke="rgb(92.156863%, 92.156863%, 92.156863%)" stroke-opacity="1" stroke-miterlimit="10" d="M 201.183594 279.375 L 201.183594 44.933594 "/>
</g>
<g clip-path="url(#clip-7)">
<path fill="none" stroke-width="1.163976" stroke-linecap="butt" stroke-linejoin="round" stroke="rgb(92.156863%, 92.156863%, 92.156863%)" stroke-opacity="1" stroke-miterlimit="10" d="M 321.851562 279.375 L 321.851562 44.933594 "/>
</g>
<g clip-path="url(#clip-8)">
<path fill="none" stroke-width="1.163976" stroke-linecap="butt" stroke-linejoin="round" stroke="rgb(92.156863%, 92.156863%, 92.156863%)" stroke-opacity="1" stroke-miterlimit="10" d="M 442.519531 279.375 L 442.519531 44.933594 "/>
</g>
<g clip-path="url(#clip-9)">
<path fill="none" stroke-width="1.163976" stroke-linecap="butt" stroke-linejoin="round" stroke="rgb(92.156863%, 92.156863%, 92.156863%)" stroke-opacity="1" stroke-miterlimit="10" d="M 563.1875 279.375 L 563.1875 44.933594 "/>
</g>
<g clip-path="url(#clip-10)">
<path fill="none" stroke-width="1.163976" stroke-linecap="butt" stroke-linejoin="round" stroke="rgb(92.156863%, 92.156863%, 92.156863%)" stroke-opacity="1" stroke-miterlimit="10" d="M 683.855469 279.375 L 683.855469 44.933594 "/>
</g>
<g clip-path="url(#clip-11)">
<path fill="none" stroke-width="1.920561" stroke-linecap="butt" stroke-linejoin="round" stroke="rgb(40%, 40%, 40%)" stroke-opacity="1" stroke-dasharray="1.920561 5.761683" stroke-miterlimit="10" d="M 50.347656 258.0625 L 714.023438 258.0625 "/>
</g>
<g fill="rgb(40%, 40%, 40%)" fill-opacity="1">
<use xlink:href="#glyph-0-0" x="98.613281" y="256.9375"/>
<use xlink:href="#glyph-0-1" x="105.613281" y="256.9375"/>
<use xlink:href="#glyph-0-2" x="110.613281" y="256.9375"/>
<use xlink:href="#glyph-0-3" x="118.613281" y="256.9375"/>
<use xlink:href="#glyph-0-4" x="120.613281" y="256.9375"/>
<use xlink:href="#glyph-0-5" x="125.613281" y="256.9375"/>
<use xlink:href="#glyph-0-6" x="130.613281" y="256.9375"/>
<use xlink:href="#glyph-0-7" x="132.613281" y="256.9375"/>
<use xlink:href="#glyph-0-8" x="135.613281" y="256.9375"/>
<use xlink:href="#glyph-0-9" x="140.613281" y="256.9375"/>
</g>
<path fill="none" stroke-width="2.560748" stroke-linecap="butt" stroke-linejoin="round" stroke="rgb(14.509804%, 38.823529%, 65.882353%)" stroke-opacity="1" stroke-miterlimit="10" d="M 80.511719 268.71875 L 201.183594 260.195312 L 321.851562 218.988281 L 442.519531 142.261719 L 563.1875 72.640625 L 683.855469 59.140625 "/>
<path fill="none" stroke-width="2.560748" stroke-linecap="butt" stroke-linejoin="round" stroke="rgb(90.196078%, 49.411765%, 13.333333%)" stroke-opacity="1" stroke-miterlimit="10" d="M 80.511719 196.964844 L 201.183594 102.476562 L 321.851562 61.984375 L 442.519531 55.589844 L 683.855469 55.589844 "/>
<path fill="none" stroke-width="2.560748" stroke-linecap="butt" stroke-linejoin="round" stroke="rgb(69.803922%, 13.333333%, 13.333333%)" stroke-opacity="1" stroke-miterlimit="10" d="M 80.511719 196.964844 L 201.183594 103.691406 L 321.851562 60.222656 L 442.519531 55.589844 L 683.855469 55.589844 "/>
<path fill-rule="nonzero" fill="rgb(14.509804%, 38.823529%, 65.882353%)" fill-opacity="1" d="M 84.632812 268.71875 C 84.632812 274.214844 76.390625 274.214844 76.390625 268.71875 C 76.390625 263.222656 84.632812 263.222656 84.632812 268.71875 "/>
<path fill-rule="nonzero" fill="rgb(90.196078%, 49.411765%, 13.333333%)" fill-opacity="1" d="M 80.511719 190.558594 L 86.0625 200.167969 L 74.964844 200.167969 Z M 80.511719 190.558594 "/>
<path fill-rule="nonzero" fill="rgb(69.803922%, 13.333333%, 13.333333%)" fill-opacity="1" d="M 76.390625 196.964844 L 80.511719 192.84375 L 84.632812 196.964844 L 80.511719 201.085938 Z M 76.390625 196.964844 "/>
<path fill-rule="nonzero" fill="rgb(14.509804%, 38.823529%, 65.882353%)" fill-opacity="1" d="M 205.300781 260.195312 C 205.300781 265.6875 197.0625 265.6875 197.0625 260.195312 C 197.0625 254.699219 205.300781 254.699219 205.300781 260.195312 "/>
<path fill-rule="nonzero" fill="rgb(90.196078%, 49.411765%, 13.333333%)" fill-opacity="1" d="M 201.183594 96.070312 L 206.730469 105.683594 L 195.632812 105.683594 Z M 201.183594 96.070312 "/>
<path fill-rule="nonzero" fill="rgb(69.803922%, 13.333333%, 13.333333%)" fill-opacity="1" d="M 197.0625 103.691406 L 201.183594 99.570312 L 205.300781 103.691406 L 201.183594 107.8125 Z M 197.0625 103.691406 "/>
<path fill-rule="nonzero" fill="rgb(14.509804%, 38.823529%, 65.882353%)" fill-opacity="1" d="M 325.972656 218.988281 C 325.972656 224.484375 317.730469 224.484375 317.730469 218.988281 C 317.730469 213.492188 325.972656 213.492188 325.972656 218.988281 "/>
<path fill-rule="nonzero" fill="rgb(90.196078%, 49.411765%, 13.333333%)" fill-opacity="1" d="M 321.851562 55.574219 L 327.398438 65.1875 L 316.300781 65.1875 Z M 321.851562 55.574219 "/>
<path fill-rule="nonzero" fill="rgb(69.803922%, 13.333333%, 13.333333%)" fill-opacity="1" d="M 317.730469 60.222656 L 321.851562 56.101562 L 325.972656 60.222656 L 321.851562 64.34375 Z M 317.730469 60.222656 "/>
<path fill-rule="nonzero" fill="rgb(14.509804%, 38.823529%, 65.882353%)" fill-opacity="1" d="M 446.640625 142.261719 C 446.640625 147.757812 438.398438 147.757812 438.398438 142.261719 C 438.398438 136.765625 446.640625 136.765625 446.640625 142.261719 "/>
<path fill-rule="nonzero" fill="rgb(90.196078%, 49.411765%, 13.333333%)" fill-opacity="1" d="M 442.519531 49.179688 L 448.070312 58.792969 L 436.96875 58.792969 Z M 442.519531 49.179688 "/>
<path fill-rule="nonzero" fill="rgb(69.803922%, 13.333333%, 13.333333%)" fill-opacity="1" d="M 438.398438 55.589844 L 442.519531 51.46875 L 446.640625 55.589844 L 442.519531 59.710938 Z M 438.398438 55.589844 "/>
<path fill-rule="nonzero" fill="rgb(14.509804%, 38.823529%, 65.882353%)" fill-opacity="1" d="M 567.308594 72.640625 C 567.308594 78.132812 559.066406 78.132812 559.066406 72.640625 C 559.066406 67.144531 567.308594 67.144531 567.308594 72.640625 "/>
<path fill-rule="nonzero" fill="rgb(90.196078%, 49.411765%, 13.333333%)" fill-opacity="1" d="M 563.1875 49.179688 L 568.738281 58.792969 L 557.636719 58.792969 Z M 563.1875 49.179688 "/>
<path fill-rule="nonzero" fill="rgb(69.803922%, 13.333333%, 13.333333%)" fill-opacity="1" d="M 559.066406 55.589844 L 563.1875 51.46875 L 567.308594 55.589844 L 563.1875 59.710938 Z M 559.066406 55.589844 "/>
<path fill-rule="nonzero" fill="rgb(14.509804%, 38.823529%, 65.882353%)" fill-opacity="1" d="M 687.976562 59.140625 C 687.976562 64.636719 679.734375 64.636719 679.734375 59.140625 C 679.734375 53.648438 687.976562 53.648438 687.976562 59.140625 "/>
<path fill-rule="nonzero" fill="rgb(90.196078%, 49.411765%, 13.333333%)" fill-opacity="1" d="M 683.855469 49.179688 L 689.40625 58.792969 L 678.304688 58.792969 Z M 683.855469 49.179688 "/>
<path fill-rule="nonzero" fill="rgb(69.803922%, 13.333333%, 13.333333%)" fill-opacity="1" d="M 679.734375 55.589844 L 683.855469 51.46875 L 687.976562 55.589844 L 683.855469 59.710938 Z M 679.734375 55.589844 "/>
<g fill="rgb(30.196078%, 30.196078%, 30.196078%)" fill-opacity="1">
<use xlink:href="#glyph-1-0" x="30.964844" y="272.21582"/>
<use xlink:href="#glyph-1-1" x="35.964844" y="272.21582"/>
</g>
<g fill="rgb(30.196078%, 30.196078%, 30.196078%)" fill-opacity="1">
<use xlink:href="#glyph-1-2" x="25.964844" y="218.93457"/>
<use xlink:href="#glyph-1-3" x="30.964844" y="218.93457"/>
<use xlink:href="#glyph-1-1" x="35.964844" y="218.93457"/>
</g>
<g fill="rgb(30.196078%, 30.196078%, 30.196078%)" fill-opacity="1">
<use xlink:href="#glyph-1-3" x="25.964844" y="165.649414"/>
<use xlink:href="#glyph-1-0" x="30.964844" y="165.649414"/>
<use xlink:href="#glyph-1-1" x="35.964844" y="165.649414"/>
</g>
<g fill="rgb(30.196078%, 30.196078%, 30.196078%)" fill-opacity="1">
<use xlink:href="#glyph-1-4" x="25.964844" y="112.368164"/>
<use xlink:href="#glyph-1-3" x="30.964844" y="112.368164"/>
<use xlink:href="#glyph-1-1" x="35.964844" y="112.368164"/>
</g>
<g fill="rgb(30.196078%, 30.196078%, 30.196078%)" fill-opacity="1">
<use xlink:href="#glyph-1-5" x="20.964844" y="59.086914"/>
<use xlink:href="#glyph-1-0" x="25.964844" y="59.086914"/>
<use xlink:href="#glyph-1-0" x="30.964844" y="59.086914"/>
<use xlink:href="#glyph-1-1" x="35.964844" y="59.086914"/>
</g>
<g fill="rgb(30.196078%, 30.196078%, 30.196078%)" fill-opacity="1">
<use xlink:href="#glyph-1-5" x="78.011719" y="291.750977"/>
</g>
<g fill="rgb(30.196078%, 30.196078%, 30.196078%)" fill-opacity="1">
<use xlink:href="#glyph-1-2" x="198.683594" y="291.750977"/>
</g>
<g fill="rgb(30.196078%, 30.196078%, 30.196078%)" fill-opacity="1">
<use xlink:href="#glyph-1-6" x="319.351562" y="291.750977"/>
</g>
<g fill="rgb(30.196078%, 30.196078%, 30.196078%)" fill-opacity="1">
<use xlink:href="#glyph-1-7" x="440.019531" y="291.750977"/>
</g>
<g fill="rgb(30.196078%, 30.196078%, 30.196078%)" fill-opacity="1">
<use xlink:href="#glyph-1-3" x="560.6875" y="291.750977"/>
</g>
<g fill="rgb(30.196078%, 30.196078%, 30.196078%)" fill-opacity="1">
<use xlink:href="#glyph-1-8" x="681.355469" y="291.750977"/>
</g>
<g fill="rgb(0%, 0%, 0%)" fill-opacity="1">
<use xlink:href="#glyph-2-0" x="267.683594" y="306.490234"/>
<use xlink:href="#glyph-2-1" x="276.683594" y="306.490234"/>
<use xlink:href="#glyph-2-2" x="283.683594" y="306.490234"/>
<use xlink:href="#glyph-2-3" x="293.683594" y="306.490234"/>
<use xlink:href="#glyph-2-4" x="300.683594" y="306.490234"/>
<use xlink:href="#glyph-2-5" x="307.683594" y="306.490234"/>
<use xlink:href="#glyph-2-6" x="311.683594" y="306.490234"/>
<use xlink:href="#glyph-2-7" x="314.683594" y="306.490234"/>
<use xlink:href="#glyph-2-8" x="321.683594" y="306.490234"/>
<use xlink:href="#glyph-2-6" x="324.683594" y="306.490234"/>
<use xlink:href="#glyph-2-9" x="327.683594" y="306.490234"/>
<use xlink:href="#glyph-2-5" x="334.683594" y="306.490234"/>
<use xlink:href="#glyph-2-4" x="338.683594" y="306.490234"/>
<use xlink:href="#glyph-2-10" x="345.683594" y="306.490234"/>
<use xlink:href="#glyph-2-11" x="349.683594" y="306.490234"/>
<use xlink:href="#glyph-2-5" x="352.683594" y="306.490234"/>
<use xlink:href="#glyph-2-4" x="356.683594" y="306.490234"/>
<use xlink:href="#glyph-2-12" x="363.683594" y="306.490234"/>
<use xlink:href="#glyph-2-11" x="370.683594" y="306.490234"/>
<use xlink:href="#glyph-2-2" x="373.683594" y="306.490234"/>
<use xlink:href="#glyph-2-4" x="383.683594" y="306.490234"/>
<use xlink:href="#glyph-2-13" x="390.683594" y="306.490234"/>
<use xlink:href="#glyph-2-11" x="397.683594" y="306.490234"/>
<use xlink:href="#glyph-2-6" x="400.683594" y="306.490234"/>
<use xlink:href="#glyph-2-9" x="403.683594" y="306.490234"/>
<use xlink:href="#glyph-2-4" x="410.683594" y="306.490234"/>
<use xlink:href="#glyph-2-5" x="417.683594" y="306.490234"/>
<use xlink:href="#glyph-2-14" x="421.683594" y="306.490234"/>
<use xlink:href="#glyph-2-7" x="424.683594" y="306.490234"/>
<use xlink:href="#glyph-2-15" x="431.683594" y="306.490234"/>
<use xlink:href="#glyph-2-16" x="438.683594" y="306.490234"/>
<use xlink:href="#glyph-2-6" x="444.683594" y="306.490234"/>
<use xlink:href="#glyph-2-17" x="447.683594" y="306.490234"/>
<use xlink:href="#glyph-2-7" x="453.683594" y="306.490234"/>
<use xlink:href="#glyph-2-18" x="460.683594" y="306.490234"/>
<use xlink:href="#glyph-2-18" x="463.683594" y="306.490234"/>
<use xlink:href="#glyph-2-4" x="466.683594" y="306.490234"/>
<use xlink:href="#glyph-2-17" x="473.683594" y="306.490234"/>
<use xlink:href="#glyph-2-11" x="479.683594" y="306.490234"/>
<use xlink:href="#glyph-2-4" x="482.683594" y="306.490234"/>
<use xlink:href="#glyph-2-15" x="489.683594" y="306.490234"/>
</g>
<g fill="rgb(0%, 0%, 0%)" fill-opacity="1">
<use xlink:href="#glyph-3-0" x="14.724609" y="175.152344"/>
<use xlink:href="#glyph-3-1" x="14.724609" y="166.152344"/>
<use xlink:href="#glyph-3-2" x="14.724609" y="159.152344"/>
<use xlink:href="#glyph-3-3" x="14.724609" y="156.152344"/>
</g>
<path fill="none" stroke-width="2.560748" stroke-linecap="butt" stroke-linejoin="round" stroke="rgb(14.509804%, 38.823529%, 65.882353%)" stroke-opacity="1" stroke-miterlimit="10" d="M 178.871094 337.859375 L 224.222656 337.859375 "/>
<path fill-rule="nonzero" fill="rgb(14.509804%, 38.823529%, 65.882353%)" fill-opacity="1" d="M 205.667969 337.859375 C 205.667969 343.355469 197.425781 343.355469 197.425781 337.859375 C 197.425781 332.367188 205.667969 332.367188 205.667969 337.859375 "/>
<path fill="none" stroke-width="2.560748" stroke-linecap="butt" stroke-linejoin="round" stroke="rgb(90.196078%, 49.411765%, 13.333333%)" stroke-opacity="1" stroke-miterlimit="10" d="M 321.519531 337.859375 L 366.871094 337.859375 "/>
<path fill-rule="nonzero" fill="rgb(90.196078%, 49.411765%, 13.333333%)" fill-opacity="1" d="M 344.195312 331.453125 L 349.746094 341.066406 L 338.644531 341.066406 Z M 344.195312 331.453125 "/>
<path fill="none" stroke-width="2.560748" stroke-linecap="butt" stroke-linejoin="round" stroke="rgb(69.803922%, 13.333333%, 13.333333%)" stroke-opacity="1" stroke-miterlimit="10" d="M 438.167969 337.859375 L 483.519531 337.859375 "/>
<path fill-rule="nonzero" fill="rgb(69.803922%, 13.333333%, 13.333333%)" fill-opacity="1" d="M 456.722656 337.859375 L 460.84375 333.738281 L 464.964844 337.859375 L 460.84375 341.980469 Z M 456.722656 337.859375 "/>
<g fill="rgb(0%, 0%, 0%)" fill-opacity="1">
<use xlink:href="#glyph-1-9" x="235.871094" y="336.172852"/>
<use xlink:href="#glyph-1-10" x="241.871094" y="336.172852"/>
<use xlink:href="#glyph-1-11" x="244.871094" y="336.172852"/>
<use xlink:href="#glyph-1-12" x="249.871094" y="336.172852"/>
<use xlink:href="#glyph-1-13" x="252.871094" y="336.172852"/>
<use xlink:href="#glyph-1-11" x="255.871094" y="336.172852"/>
<use xlink:href="#glyph-1-14" x="260.871094" y="336.172852"/>
<use xlink:href="#glyph-1-13" x="265.871094" y="336.172852"/>
<use xlink:href="#glyph-1-15" x="268.871094" y="336.172852"/>
<use xlink:href="#glyph-1-16" x="271.871094" y="336.172852"/>
<use xlink:href="#glyph-1-17" x="276.871094" y="336.172852"/>
<use xlink:href="#glyph-1-18" x="281.871094" y="336.172852"/>
<use xlink:href="#glyph-1-11" x="288.871094" y="336.172852"/>
<use xlink:href="#glyph-1-10" x="293.871094" y="336.172852"/>
</g>
<g fill="rgb(0%, 0%, 0%)" fill-opacity="1">
<use xlink:href="#glyph-1-19" x="235.871094" y="346.540039"/>
<use xlink:href="#glyph-1-20" x="238.871094" y="346.540039"/>
<use xlink:href="#glyph-1-11" x="243.871094" y="346.540039"/>
<use xlink:href="#glyph-1-13" x="248.871094" y="346.540039"/>
<use xlink:href="#glyph-1-11" x="251.871094" y="346.540039"/>
<use xlink:href="#glyph-1-21" x="256.871094" y="346.540039"/>
<use xlink:href="#glyph-1-13" x="261.871094" y="346.540039"/>
<use xlink:href="#glyph-1-14" x="264.871094" y="346.540039"/>
<use xlink:href="#glyph-1-15" x="269.871094" y="346.540039"/>
<use xlink:href="#glyph-1-22" x="272.871094" y="346.540039"/>
<use xlink:href="#glyph-1-23" x="277.871094" y="346.540039"/>
<use xlink:href="#glyph-1-17" x="279.871094" y="346.540039"/>
<use xlink:href="#glyph-1-24" x="284.871094" y="346.540039"/>
<use xlink:href="#glyph-1-25" x="286.871094" y="346.540039"/>
<use xlink:href="#glyph-1-13" x="291.871094" y="346.540039"/>
<use xlink:href="#glyph-1-23" x="294.871094" y="346.540039"/>
<use xlink:href="#glyph-1-17" x="296.871094" y="346.540039"/>
<use xlink:href="#glyph-1-26" x="301.871094" y="346.540039"/>
<use xlink:href="#glyph-1-27" x="306.871094" y="346.540039"/>
</g>
<g fill="rgb(0%, 0%, 0%)" fill-opacity="1">
<use xlink:href="#glyph-1-28" x="378.519531" y="336.172852"/>
<use xlink:href="#glyph-1-22" x="385.519531" y="336.172852"/>
<use xlink:href="#glyph-1-11" x="390.519531" y="336.172852"/>
<use xlink:href="#glyph-1-10" x="395.519531" y="336.172852"/>
<use xlink:href="#glyph-1-25" x="398.519531" y="336.172852"/>
<use xlink:href="#glyph-1-24" x="403.519531" y="336.172852"/>
<use xlink:href="#glyph-1-24" x="405.519531" y="336.172852"/>
<use xlink:href="#glyph-1-15" x="407.519531" y="336.172852"/>
<use xlink:href="#glyph-1-29" x="410.519531" y="336.172852"/>
<use xlink:href="#glyph-1-23" x="417.519531" y="336.172852"/>
<use xlink:href="#glyph-1-29" x="419.519531" y="336.172852"/>
</g>
<g fill="rgb(0%, 0%, 0%)" fill-opacity="1">
<use xlink:href="#glyph-1-30" x="378.519531" y="346.540039"/>
<use xlink:href="#glyph-1-31" x="383.519531" y="346.540039"/>
<use xlink:href="#glyph-1-16" x="388.519531" y="346.540039"/>
<use xlink:href="#glyph-1-11" x="393.519531" y="346.540039"/>
<use xlink:href="#glyph-1-15" x="398.519531" y="346.540039"/>
<use xlink:href="#glyph-1-32" x="401.519531" y="346.540039"/>
<use xlink:href="#glyph-1-15" x="404.519531" y="346.540039"/>
<use xlink:href="#glyph-1-11" x="407.519531" y="346.540039"/>
<use xlink:href="#glyph-1-10" x="412.519531" y="346.540039"/>
<use xlink:href="#glyph-1-10" x="415.519531" y="346.540039"/>
<use xlink:href="#glyph-1-17" x="418.519531" y="346.540039"/>
<use xlink:href="#glyph-1-10" x="423.519531" y="346.540039"/>
</g>
<g fill="rgb(0%, 0%, 0%)" fill-opacity="1">
<use xlink:href="#glyph-1-33" x="495.167969" y="336.172852"/>
<use xlink:href="#glyph-1-17" x="502.167969" y="336.172852"/>
<use xlink:href="#glyph-1-26" x="507.167969" y="336.172852"/>
<use xlink:href="#glyph-1-20" x="512.167969" y="336.172852"/>
<use xlink:href="#glyph-1-23" x="517.167969" y="336.172852"/>
<use xlink:href="#glyph-1-13" x="519.167969" y="336.172852"/>
<use xlink:href="#glyph-1-23" x="522.167969" y="336.172852"/>
<use xlink:href="#glyph-1-17" x="524.167969" y="336.172852"/>
<use xlink:href="#glyph-1-26" x="529.167969" y="336.172852"/>
<use xlink:href="#glyph-1-25" x="534.167969" y="336.172852"/>
<use xlink:href="#glyph-1-24" x="539.167969" y="336.172852"/>
<use xlink:href="#glyph-1-15" x="541.167969" y="336.172852"/>
<use xlink:href="#glyph-1-30" x="544.167969" y="336.172852"/>
<use xlink:href="#glyph-1-31" x="549.167969" y="336.172852"/>
<use xlink:href="#glyph-1-16" x="554.167969" y="336.172852"/>
<use xlink:href="#glyph-1-11" x="559.167969" y="336.172852"/>
<use xlink:href="#glyph-1-15" x="564.167969" y="336.172852"/>
<use xlink:href="#glyph-1-32" x="567.167969" y="336.172852"/>
</g>
<g fill="rgb(0%, 0%, 0%)" fill-opacity="1">
<use xlink:href="#glyph-1-19" x="495.167969" y="346.540039"/>
<use xlink:href="#glyph-1-34" x="498.167969" y="346.540039"/>
<use xlink:href="#glyph-1-23" x="503.167969" y="346.540039"/>
<use xlink:href="#glyph-1-22" x="505.167969" y="346.540039"/>
<use xlink:href="#glyph-1-11" x="510.167969" y="346.540039"/>
<use xlink:href="#glyph-1-26" x="515.167969" y="346.540039"/>
<use xlink:href="#glyph-1-15" x="520.167969" y="346.540039"/>
<use xlink:href="#glyph-1-16" x="523.167969" y="346.540039"/>
<use xlink:href="#glyph-1-10" x="528.167969" y="346.540039"/>
<use xlink:href="#glyph-1-11" x="531.167969" y="346.540039"/>
<use xlink:href="#glyph-1-12" x="536.167969" y="346.540039"/>
<use xlink:href="#glyph-1-13" x="539.167969" y="346.540039"/>
<use xlink:href="#glyph-1-11" x="542.167969" y="346.540039"/>
<use xlink:href="#glyph-1-14" x="547.167969" y="346.540039"/>
<use xlink:href="#glyph-1-13" x="552.167969" y="346.540039"/>
<use xlink:href="#glyph-1-15" x="555.167969" y="346.540039"/>
<use xlink:href="#glyph-1-16" x="558.167969" y="346.540039"/>
<use xlink:href="#glyph-1-25" x="563.167969" y="346.540039"/>
<use xlink:href="#glyph-1-14" x="568.167969" y="346.540039"/>
<use xlink:href="#glyph-1-14" x="573.167969" y="346.540039"/>
<use xlink:href="#glyph-1-11" x="578.167969" y="346.540039"/>
<use xlink:href="#glyph-1-14" x="583.167969" y="346.540039"/>
<use xlink:href="#glyph-1-27" x="588.167969" y="346.540039"/>
</g>
<g fill="rgb(0%, 0%, 0%)" fill-opacity="1">
<use xlink:href="#glyph-2-19" x="50.347656" y="35.705078"/>
<use xlink:href="#glyph-2-1" x="59.347656" y="35.705078"/>
<use xlink:href="#glyph-2-11" x="66.347656" y="35.705078"/>
<use xlink:href="#glyph-2-17" x="69.347656" y="35.705078"/>
<use xlink:href="#glyph-2-20" x="75.347656" y="35.705078"/>
<use xlink:href="#glyph-2-6" x="82.347656" y="35.705078"/>
<use xlink:href="#glyph-2-16" x="85.347656" y="35.705078"/>
<use xlink:href="#glyph-2-11" x="91.347656" y="35.705078"/>
<use xlink:href="#glyph-2-7" x="94.347656" y="35.705078"/>
<use xlink:href="#glyph-2-5" x="101.347656" y="35.705078"/>
<use xlink:href="#glyph-2-4" x="105.347656" y="35.705078"/>
<use xlink:href="#glyph-2-16" x="112.347656" y="35.705078"/>
<use xlink:href="#glyph-2-6" x="118.347656" y="35.705078"/>
<use xlink:href="#glyph-2-21" x="121.347656" y="35.705078"/>
<use xlink:href="#glyph-2-5" x="128.347656" y="35.705078"/>
<use xlink:href="#glyph-2-7" x="132.347656" y="35.705078"/>
<use xlink:href="#glyph-2-22" x="139.347656" y="35.705078"/>
<use xlink:href="#glyph-2-6" x="148.347656" y="35.705078"/>
<use xlink:href="#glyph-2-23" x="151.347656" y="35.705078"/>
<use xlink:href="#glyph-2-24" x="158.347656" y="35.705078"/>
<use xlink:href="#glyph-2-25" x="165.347656" y="35.705078"/>
<use xlink:href="#glyph-2-26" x="168.347656" y="35.705078"/>
<use xlink:href="#glyph-2-27" x="175.347656" y="35.705078"/>
<use xlink:href="#glyph-2-28" x="182.347656" y="35.705078"/>
<use xlink:href="#glyph-2-29" x="185.347656" y="35.705078"/>
<use xlink:href="#glyph-2-5" x="191.347656" y="35.705078"/>
<use xlink:href="#glyph-2-6" x="195.347656" y="35.705078"/>
<use xlink:href="#glyph-2-8" x="198.347656" y="35.705078"/>
<use xlink:href="#glyph-2-12" x="201.347656" y="35.705078"/>
<use xlink:href="#glyph-2-16" x="208.347656" y="35.705078"/>
<use xlink:href="#glyph-2-11" x="214.347656" y="35.705078"/>
<use xlink:href="#glyph-2-4" x="217.347656" y="35.705078"/>
<use xlink:href="#glyph-2-5" x="224.347656" y="35.705078"/>
<use xlink:href="#glyph-2-6" x="228.347656" y="35.705078"/>
<use xlink:href="#glyph-2-11" x="231.347656" y="35.705078"/>
<use xlink:href="#glyph-2-20" x="234.347656" y="35.705078"/>
<use xlink:href="#glyph-2-12" x="241.347656" y="35.705078"/>
<use xlink:href="#glyph-2-13" x="248.347656" y="35.705078"/>
<use xlink:href="#glyph-2-6" x="255.347656" y="35.705078"/>
<use xlink:href="#glyph-2-30" x="258.347656" y="35.705078"/>
<use xlink:href="#glyph-2-4" x="266.347656" y="35.705078"/>
<use xlink:href="#glyph-2-18" x="273.347656" y="35.705078"/>
<use xlink:href="#glyph-2-21" x="276.347656" y="35.705078"/>
<use xlink:href="#glyph-2-14" x="283.347656" y="35.705078"/>
<use xlink:href="#glyph-2-12" x="286.347656" y="35.705078"/>
<use xlink:href="#glyph-2-13" x="293.347656" y="35.705078"/>
<use xlink:href="#glyph-2-6" x="300.347656" y="35.705078"/>
<use xlink:href="#glyph-2-31" x="303.347656" y="35.705078"/>
<use xlink:href="#glyph-2-6" x="315.347656" y="35.705078"/>
<use xlink:href="#glyph-2-4" x="318.347656" y="35.705078"/>
<use xlink:href="#glyph-2-13" x="325.347656" y="35.705078"/>
<use xlink:href="#glyph-2-11" x="332.347656" y="35.705078"/>
<use xlink:href="#glyph-2-14" x="335.347656" y="35.705078"/>
<use xlink:href="#glyph-2-5" x="338.347656" y="35.705078"/>
<use xlink:href="#glyph-2-4" x="342.347656" y="35.705078"/>
<use xlink:href="#glyph-2-18" x="349.347656" y="35.705078"/>
<use xlink:href="#glyph-2-29" x="352.347656" y="35.705078"/>
<use xlink:href="#glyph-2-6" x="358.347656" y="35.705078"/>
<use xlink:href="#glyph-2-16" x="361.347656" y="35.705078"/>
<use xlink:href="#glyph-2-9" x="367.347656" y="35.705078"/>
<use xlink:href="#glyph-2-1" x="374.347656" y="35.705078"/>
<use xlink:href="#glyph-2-5" x="381.347656" y="35.705078"/>
<use xlink:href="#glyph-2-14" x="385.347656" y="35.705078"/>
<use xlink:href="#glyph-2-7" x="388.347656" y="35.705078"/>
<use xlink:href="#glyph-2-1" x="395.347656" y="35.705078"/>
<use xlink:href="#glyph-2-16" x="402.347656" y="35.705078"/>
<use xlink:href="#glyph-2-32" x="408.347656" y="35.705078"/>
<use xlink:href="#glyph-2-6" x="411.347656" y="35.705078"/>
<use xlink:href="#glyph-2-33" x="414.347656" y="35.705078"/>
<use xlink:href="#glyph-2-24" x="421.347656" y="35.705078"/>
<use xlink:href="#glyph-2-24" x="428.347656" y="35.705078"/>
<use xlink:href="#glyph-2-6" x="435.347656" y="35.705078"/>
<use xlink:href="#glyph-2-16" x="438.347656" y="35.705078"/>
<use xlink:href="#glyph-2-14" x="444.347656" y="35.705078"/>
<use xlink:href="#glyph-2-2" x="447.347656" y="35.705078"/>
<use xlink:href="#glyph-2-16" x="457.347656" y="35.705078"/>
<use xlink:href="#glyph-2-6" x="463.347656" y="35.705078"/>
<use xlink:href="#glyph-2-9" x="466.347656" y="35.705078"/>
<use xlink:href="#glyph-2-4" x="473.347656" y="35.705078"/>
<use xlink:href="#glyph-2-5" x="480.347656" y="35.705078"/>
<use xlink:href="#glyph-2-6" x="484.347656" y="35.705078"/>
<use xlink:href="#glyph-2-17" x="487.347656" y="35.705078"/>
<use xlink:href="#glyph-2-7" x="493.347656" y="35.705078"/>
<use xlink:href="#glyph-2-13" x="500.347656" y="35.705078"/>
<use xlink:href="#glyph-2-15" x="507.347656" y="35.705078"/>
<use xlink:href="#glyph-2-14" x="514.347656" y="35.705078"/>
<use xlink:href="#glyph-2-11" x="517.347656" y="35.705078"/>
<use xlink:href="#glyph-2-14" x="520.347656" y="35.705078"/>
<use xlink:href="#glyph-2-7" x="523.347656" y="35.705078"/>
<use xlink:href="#glyph-2-13" x="530.347656" y="35.705078"/>
</g>
<g fill="rgb(0%, 0%, 0%)" fill-opacity="1">
<use xlink:href="#glyph-4-0" x="50.347656" y="16.473633"/>
<use xlink:href="#glyph-4-1" x="57.347656" y="16.473633"/>
<use xlink:href="#glyph-4-2" x="64.347656" y="16.473633"/>
<use xlink:href="#glyph-4-3" x="72.347656" y="16.473633"/>
<use xlink:href="#glyph-4-4" x="80.347656" y="16.473633"/>
<use xlink:href="#glyph-4-5" x="84.347656" y="16.473633"/>
<use xlink:href="#glyph-4-4" x="88.347656" y="16.473633"/>
<use xlink:href="#glyph-4-3" x="92.347656" y="16.473633"/>
<use xlink:href="#glyph-4-6" x="100.347656" y="16.473633"/>
<use xlink:href="#glyph-4-6" x="105.347656" y="16.473633"/>
<use xlink:href="#glyph-4-7" x="110.347656" y="16.473633"/>
<use xlink:href="#glyph-4-6" x="118.347656" y="16.473633"/>
<use xlink:href="#glyph-4-4" x="123.347656" y="16.473633"/>
<use xlink:href="#glyph-4-8" x="127.347656" y="16.473633"/>
<use xlink:href="#glyph-4-9" x="130.347656" y="16.473633"/>
<use xlink:href="#glyph-4-10" x="138.347656" y="16.473633"/>
<use xlink:href="#glyph-4-11" x="145.347656" y="16.473633"/>
<use xlink:href="#glyph-4-12" x="153.347656" y="16.473633"/>
<use xlink:href="#glyph-4-8" x="157.347656" y="16.473633"/>
<use xlink:href="#glyph-4-7" x="160.347656" y="16.473633"/>
<use xlink:href="#glyph-4-9" x="168.347656" y="16.473633"/>
<use xlink:href="#glyph-4-4" x="176.347656" y="16.473633"/>
<use xlink:href="#glyph-4-13" x="180.347656" y="16.473633"/>
<use xlink:href="#glyph-4-9" x="188.347656" y="16.473633"/>
<use xlink:href="#glyph-4-14" x="196.347656" y="16.473633"/>
<use xlink:href="#glyph-4-3" x="204.347656" y="16.473633"/>
<use xlink:href="#glyph-4-6" x="212.347656" y="16.473633"/>
<use xlink:href="#glyph-4-4" x="217.347656" y="16.473633"/>
<use xlink:href="#glyph-4-2" x="221.347656" y="16.473633"/>
<use xlink:href="#glyph-4-11" x="229.347656" y="16.473633"/>
<use xlink:href="#glyph-4-6" x="237.347656" y="16.473633"/>
<use xlink:href="#glyph-4-11" x="242.347656" y="16.473633"/>
<use xlink:href="#glyph-4-15" x="250.347656" y="16.473633"/>
<use xlink:href="#glyph-4-15" x="253.347656" y="16.473633"/>
<use xlink:href="#glyph-4-3" x="256.347656" y="16.473633"/>
<use xlink:href="#glyph-4-15" x="264.347656" y="16.473633"/>
<use xlink:href="#glyph-4-4" x="267.347656" y="16.473633"/>
<use xlink:href="#glyph-4-12" x="271.347656" y="16.473633"/>
<use xlink:href="#glyph-4-6" x="275.347656" y="16.473633"/>
<use xlink:href="#glyph-4-3" x="280.347656" y="16.473633"/>
<use xlink:href="#glyph-4-9" x="288.347656" y="16.473633"/>
<use xlink:href="#glyph-4-14" x="296.347656" y="16.473633"/>
<use xlink:href="#glyph-4-16" x="304.347656" y="16.473633"/>
<use xlink:href="#glyph-4-4" x="311.347656" y="16.473633"/>
<use xlink:href="#glyph-4-17" x="315.347656" y="16.473633"/>
<use xlink:href="#glyph-4-8" x="322.347656" y="16.473633"/>
<use xlink:href="#glyph-4-7" x="325.347656" y="16.473633"/>
<use xlink:href="#glyph-4-15" x="333.347656" y="16.473633"/>
<use xlink:href="#glyph-4-11" x="336.347656" y="16.473633"/>
<use xlink:href="#glyph-4-12" x="344.347656" y="16.473633"/>
<use xlink:href="#glyph-4-8" x="348.347656" y="16.473633"/>
<use xlink:href="#glyph-4-7" x="351.347656" y="16.473633"/>
<use xlink:href="#glyph-4-9" x="359.347656" y="16.473633"/>
<use xlink:href="#glyph-4-4" x="367.347656" y="16.473633"/>
<use xlink:href="#glyph-4-18" x="371.347656" y="16.473633"/>
<use xlink:href="#glyph-4-12" x="376.347656" y="16.473633"/>
<use xlink:href="#glyph-4-6" x="380.347656" y="16.473633"/>
<use xlink:href="#glyph-4-13" x="385.347656" y="16.473633"/>
<use xlink:href="#glyph-4-3" x="393.347656" y="16.473633"/>
<use xlink:href="#glyph-4-4" x="401.347656" y="16.473633"/>
<use xlink:href="#glyph-4-12" x="405.347656" y="16.473633"/>
<use xlink:href="#glyph-4-6" x="409.347656" y="16.473633"/>
<use xlink:href="#glyph-4-3" x="414.347656" y="16.473633"/>
<use xlink:href="#glyph-4-11" x="422.347656" y="16.473633"/>
<use xlink:href="#glyph-4-12" x="430.347656" y="16.473633"/>
<use xlink:href="#glyph-4-19" x="434.347656" y="16.473633"/>
<use xlink:href="#glyph-4-3" x="446.347656" y="16.473633"/>
<use xlink:href="#glyph-4-9" x="454.347656" y="16.473633"/>
<use xlink:href="#glyph-4-12" x="462.347656" y="16.473633"/>
<use xlink:href="#glyph-4-4" x="466.347656" y="16.473633"/>
<use xlink:href="#glyph-4-3" x="470.347656" y="16.473633"/>
<use xlink:href="#glyph-4-20" x="478.347656" y="16.473633"/>
<use xlink:href="#glyph-4-3" x="486.347656" y="16.473633"/>
<use xlink:href="#glyph-4-21" x="494.347656" y="16.473633"/>
<use xlink:href="#glyph-4-12" x="501.347656" y="16.473633"/>
<use xlink:href="#glyph-4-4" x="505.347656" y="16.473633"/>
<use xlink:href="#glyph-4-22" x="509.347656" y="16.473633"/>
<use xlink:href="#glyph-4-4" x="517.347656" y="16.473633"/>
<use xlink:href="#glyph-4-23" x="521.347656" y="16.473633"/>
<use xlink:href="#glyph-4-24" x="529.347656" y="16.473633"/>
<use xlink:href="#glyph-4-25" x="537.347656" y="16.473633"/>
</g>
</svg>
