<?xml version="1.0" encoding="UTF-8"?>
<svg xmlns="http://www.w3.org/2000/svg" xmlns:xlink="http://www.w3.org/1999/xlink" width="576pt" height="360pt" viewBox="0 0 576 360">
<defs>
<g>
<g id="glyph-0-0">
<path d="M 2.84375 0 L 2.84375 -1.507812 L 0.113281 -1.507812 L 0.113281 -2.21875 L 2.988281 -6.300781 L 3.617188 -6.300781 L 3.617188 -2.21875 L 4.46875 -2.21875 L 4.46875 -1.507812 L 3.617188 -1.507812 L 3.617188 0 L 2.84375 0 M 2.84375 -2.21875 L 2.84375 -5.058594 L 0.871094 -2.21875 Z M 2.84375 -2.21875 "/>
</g>
<g id="glyph-0-1">
<path d="M 0.800781 0 L 0.800781 -0.882812 L 1.679688 -0.882812 L 1.679688 0 Z M 0.800781 0 "/>
</g>
<g id="glyph-0-2">
<path d="M 0.367188 -1.648438 L 1.175781 -1.71875 C 1.238281 -1.324219 1.378906 -1.027344 1.597656 -0.828125 C 1.816406 -0.628906 2.078125 -0.527344 2.390625 -0.527344 C 2.761719 -0.527344 3.078125 -0.667969 3.335938 -0.949219 C 3.59375 -1.230469 3.722656 -1.601562 3.722656 -2.066406 C 3.722656 -2.507812 3.597656 -2.855469 3.347656 -3.109375 C 3.101562 -3.367188 2.777344 -3.492188 2.375 -3.492188 C 2.125 -3.492188 1.902344 -3.4375 1.703125 -3.324219 C 1.5 -3.210938 1.34375 -3.0625 1.230469 -2.882812 L 0.503906 -2.976562 L 1.113281 -6.214844 L 4.246094 -6.214844 L 4.246094 -5.472656 L 1.730469 -5.472656 L 1.390625 -3.78125 C 1.769531 -4.042969 2.167969 -4.175781 2.582031 -4.175781 C 3.132812 -4.175781 3.597656 -3.984375 3.976562 -3.605469 C 4.351562 -3.222656 4.542969 -2.734375 4.542969 -2.136719 C 4.542969 -1.566406 4.375 -1.074219 4.042969 -0.65625 C 3.640625 -0.148438 3.089844 0.109375 2.390625 0.109375 C 1.816406 0.109375 1.347656 -0.0546875 0.984375 -0.375 C 0.625 -0.695312 0.417969 -1.121094 0.367188 -1.648438 Z M 0.367188 -1.648438 "/>
</g>
<g id="glyph-0-3">
<path d="M 0.367188 -3.105469 C 0.367188 -3.851562 0.441406 -4.449219 0.59375 -4.90625 C 0.75 -5.359375 0.976562 -5.710938 1.277344 -5.957031 C 1.582031 -6.203125 1.960938 -6.324219 2.417969 -6.324219 C 2.757812 -6.324219 3.054688 -6.257812 3.308594 -6.121094 C 3.5625 -5.984375 3.773438 -5.789062 3.941406 -5.53125 C 4.105469 -5.277344 4.238281 -4.964844 4.332031 -4.59375 C 4.425781 -4.226562 4.472656 -3.730469 4.472656 -3.105469 C 4.472656 -2.367188 4.398438 -1.769531 4.246094 -1.316406 C 4.09375 -0.863281 3.867188 -0.511719 3.5625 -0.265625 C 3.261719 -0.015625 2.878906 0.109375 2.417969 0.109375 C 1.8125 0.109375 1.335938 -0.109375 0.988281 -0.546875 C 0.574219 -1.070312 0.367188 -1.921875 0.367188 -3.105469 M 1.160156 -3.105469 C 1.160156 -2.074219 1.28125 -1.382812 1.523438 -1.042969 C 1.765625 -0.699219 2.0625 -0.527344 2.417969 -0.527344 C 2.773438 -0.527344 3.074219 -0.699219 3.316406 -1.042969 C 3.558594 -1.386719 3.679688 -2.074219 3.679688 -3.105469 C 3.679688 -4.144531 3.558594 -4.832031 3.316406 -5.171875 C 3.074219 -5.515625 2.773438 -5.683594 2.410156 -5.683594 C 2.054688 -5.683594 1.773438 -5.535156 1.558594 -5.234375 C 1.292969 -4.851562 1.160156 -4.140625 1.160156 -3.105469 Z M 1.160156 -3.105469 "/>
</g>
<g id="glyph-0-4">
<path d="M 4.378906 -4.757812 L 3.609375 -4.695312 C 3.539062 -5 3.441406 -5.21875 3.316406 -5.359375 C 3.109375 -5.578125 2.851562 -5.6875 2.542969 -5.6875 C 2.296875 -5.6875 2.082031 -5.621094 1.894531 -5.484375 C 1.652344 -5.304688 1.460938 -5.046875 1.320312 -4.703125 C 1.179688 -4.363281 1.105469 -3.878906 1.101562 -3.25 C 1.285156 -3.53125 1.515625 -3.742188 1.785156 -3.878906 C 2.050781 -4.015625 2.335938 -4.085938 2.628906 -4.085938 C 3.144531 -4.085938 3.585938 -3.898438 3.945312 -3.515625 C 4.308594 -3.136719 4.492188 -2.648438 4.492188 -2.046875 C 4.492188 -1.648438 4.40625 -1.28125 4.234375 -0.941406 C 4.0625 -0.605469 3.828125 -0.34375 3.53125 -0.164062 C 3.234375 0.015625 2.894531 0.109375 2.519531 0.109375 C 1.875 0.109375 1.347656 -0.128906 0.941406 -0.605469 C 0.535156 -1.078125 0.332031 -1.859375 0.332031 -2.949219 C 0.332031 -4.164062 0.554688 -5.050781 1.003906 -5.601562 C 1.398438 -6.085938 1.925781 -6.324219 2.589844 -6.324219 C 3.085938 -6.324219 3.492188 -6.1875 3.808594 -5.910156 C 4.125 -5.628906 4.316406 -5.246094 4.378906 -4.757812 M 1.21875 -2.039062 C 1.21875 -1.773438 1.277344 -1.519531 1.390625 -1.277344 C 1.503906 -1.03125 1.660156 -0.847656 1.863281 -0.71875 C 2.066406 -0.59375 2.28125 -0.527344 2.503906 -0.527344 C 2.832031 -0.527344 3.113281 -0.660156 3.347656 -0.925781 C 3.582031 -1.1875 3.699219 -1.546875 3.699219 -2 C 3.699219 -2.433594 3.582031 -2.777344 3.351562 -3.027344 C 3.121094 -3.277344 2.828125 -3.402344 2.476562 -3.402344 C 2.125 -3.402344 1.828125 -3.277344 1.585938 -3.027344 C 1.34375 -2.777344 1.21875 -2.449219 1.21875 -2.039062 Z M 1.21875 -2.039062 "/>
</g>
<g id="glyph-0-5">
<path d="M 4.429688 -0.742188 L 4.429688 0 L 0.265625 0 C 0.261719 -0.1875 0.289062 -0.367188 0.355469 -0.539062 C 0.460938 -0.820312 0.632812 -1.101562 0.867188 -1.375 C 1.097656 -1.648438 1.4375 -1.96875 1.878906 -2.328125 C 2.5625 -2.890625 3.023438 -3.335938 3.265625 -3.664062 C 3.507812 -3.992188 3.625 -4.300781 3.625 -4.59375 C 3.625 -4.898438 3.515625 -5.160156 3.296875 -5.367188 C 3.078125 -5.578125 2.792969 -5.683594 2.441406 -5.683594 C 2.066406 -5.683594 1.769531 -5.574219 1.546875 -5.351562 C 1.324219 -5.125 1.210938 -4.816406 1.207031 -4.421875 L 0.414062 -4.503906 C 0.46875 -5.097656 0.671875 -5.546875 1.027344 -5.859375 C 1.382812 -6.167969 1.859375 -6.324219 2.457031 -6.324219 C 3.0625 -6.324219 3.539062 -6.15625 3.894531 -5.824219 C 4.246094 -5.488281 4.421875 -5.070312 4.421875 -4.578125 C 4.421875 -4.324219 4.371094 -4.078125 4.265625 -3.832031 C 4.164062 -3.589844 3.992188 -3.332031 3.753906 -3.0625 C 3.515625 -2.792969 3.117188 -2.425781 2.5625 -1.957031 C 2.097656 -1.566406 1.800781 -1.300781 1.667969 -1.164062 C 1.535156 -1.023438 1.425781 -0.882812 1.339844 -0.742188 Z M 4.429688 -0.742188 "/>
</g>
<g id="glyph-0-6">
<path d="M 3.277344 0 L 2.503906 0 L 2.503906 -4.929688 C 2.320312 -4.75 2.074219 -4.574219 1.773438 -4.394531 C 1.46875 -4.21875 1.199219 -4.085938 0.957031 -3.996094 L 0.957031 -4.742188 C 1.390625 -4.945312 1.769531 -5.195312 2.09375 -5.484375 C 2.417969 -5.773438 2.644531 -6.054688 2.78125 -6.324219 L 3.277344 -6.324219 Z M 3.277344 0 "/>
</g>
<g id="glyph-0-7">
<path d="M 1.554688 -3.417969 C 1.234375 -3.535156 0.996094 -3.699219 0.84375 -3.917969 C 0.6875 -4.136719 0.609375 -4.398438 0.609375 -4.699219 C 0.609375 -5.160156 0.773438 -5.542969 1.105469 -5.855469 C 1.433594 -6.167969 1.871094 -6.324219 2.417969 -6.324219 C 2.96875 -6.324219 3.410156 -6.164062 3.746094 -5.847656 C 4.082031 -5.527344 4.25 -5.136719 4.25 -4.679688 C 4.25 -4.386719 4.171875 -4.132812 4.019531 -3.917969 C 3.867188 -3.699219 3.632812 -3.535156 3.320312 -3.417969 C 3.707031 -3.289062 4.003906 -3.085938 4.203125 -2.804688 C 4.40625 -2.523438 4.507812 -2.191406 4.507812 -1.800781 C 4.507812 -1.261719 4.316406 -0.808594 3.9375 -0.441406 C 3.554688 -0.0742188 3.054688 0.109375 2.433594 0.109375 C 1.808594 0.109375 1.308594 -0.078125 0.929688 -0.445312 C 0.546875 -0.8125 0.355469 -1.273438 0.355469 -1.820312 C 0.355469 -2.230469 0.460938 -2.574219 0.667969 -2.851562 C 0.875 -3.128906 1.171875 -3.316406 1.554688 -3.417969 M 1.402344 -4.726562 C 1.402344 -4.429688 1.496094 -4.183594 1.6875 -3.996094 C 1.878906 -3.808594 2.128906 -3.710938 2.4375 -3.710938 C 2.734375 -3.710938 2.976562 -3.804688 3.167969 -3.992188 C 3.359375 -4.179688 3.453125 -4.410156 3.453125 -4.683594 C 3.453125 -4.96875 3.355469 -5.207031 3.160156 -5.398438 C 2.964844 -5.59375 2.71875 -5.6875 2.429688 -5.6875 C 2.132812 -5.6875 1.886719 -5.59375 1.691406 -5.40625 C 1.5 -5.214844 1.402344 -4.988281 1.402344 -4.726562 M 1.152344 -1.816406 C 1.152344 -1.597656 1.203125 -1.382812 1.308594 -1.175781 C 1.414062 -0.972656 1.570312 -0.8125 1.773438 -0.699219 C 1.980469 -0.585938 2.203125 -0.527344 2.441406 -0.527344 C 2.808594 -0.527344 3.117188 -0.648438 3.355469 -0.886719 C 3.597656 -1.121094 3.71875 -1.425781 3.71875 -1.792969 C 3.71875 -2.164062 3.59375 -2.472656 3.34375 -2.714844 C 3.097656 -2.960938 2.789062 -3.082031 2.414062 -3.082031 C 2.050781 -3.082031 1.75 -2.960938 1.511719 -2.71875 C 1.269531 -2.480469 1.152344 -2.179688 1.152344 -1.816406 Z M 1.152344 -1.816406 "/>
</g>
<g id="glyph-0-8">
<path d="M 0.269531 -1.363281 L 1.035156 -1.484375 C 1.078125 -1.175781 1.199219 -0.941406 1.394531 -0.777344 C 1.589844 -0.613281 1.863281 -0.53125 2.21875 -0.53125 C 2.574219 -0.53125 2.835938 -0.605469 3.007812 -0.75 C 3.179688 -0.894531 3.265625 -1.0625 3.265625 -1.257812 C 3.265625 -1.433594 3.191406 -1.570312 3.039062 -1.671875 C 2.933594 -1.742188 2.667969 -1.828125 2.246094 -1.933594 C 1.679688 -2.078125 1.285156 -2.199219 1.066406 -2.304688 C 0.847656 -2.410156 0.683594 -2.554688 0.570312 -2.738281 C 0.457031 -2.925781 0.398438 -3.128906 0.398438 -3.351562 C 0.398438 -3.554688 0.445312 -3.742188 0.539062 -3.917969 C 0.632812 -4.089844 0.757812 -4.234375 0.917969 -4.347656 C 1.039062 -4.4375 1.203125 -4.511719 1.410156 -4.574219 C 1.621094 -4.636719 1.84375 -4.667969 2.078125 -4.667969 C 2.4375 -4.667969 2.753906 -4.613281 3.023438 -4.511719 C 3.292969 -4.410156 3.492188 -4.269531 3.621094 -4.09375 C 3.75 -3.917969 3.839844 -3.679688 3.890625 -3.386719 L 3.132812 -3.28125 C 3.097656 -3.519531 3 -3.699219 2.832031 -3.832031 C 2.667969 -3.964844 2.4375 -4.03125 2.136719 -4.03125 C 1.78125 -4.03125 1.527344 -3.972656 1.375 -3.855469 C 1.222656 -3.738281 1.148438 -3.597656 1.148438 -3.441406 C 1.148438 -3.339844 1.179688 -3.25 1.242188 -3.171875 C 1.304688 -3.089844 1.402344 -3.019531 1.539062 -2.964844 C 1.617188 -2.9375 1.84375 -2.871094 2.222656 -2.765625 C 2.769531 -2.621094 3.148438 -2.5 3.367188 -2.410156 C 3.582031 -2.316406 3.753906 -2.179688 3.875 -2.003906 C 4 -1.824219 4.058594 -1.605469 4.0625 -1.339844 C 4.058594 -1.082031 3.984375 -0.839844 3.835938 -0.613281 C 3.683594 -0.382812 3.46875 -0.207031 3.183594 -0.0820312 C 2.902344 0.0390625 2.578125 0.101562 2.222656 0.101562 C 1.628906 0.101562 1.175781 -0.0195312 0.867188 -0.265625 C 0.554688 -0.511719 0.355469 -0.878906 0.269531 -1.363281 Z M 0.269531 -1.363281 "/>
</g>
<g id="glyph-0-9">
<path d="M 0.546875 1.757812 L 0.460938 1.03125 C 0.628906 1.078125 0.777344 1.101562 0.902344 1.101562 C 1.074219 1.101562 1.210938 1.070312 1.316406 1.015625 C 1.417969 0.957031 1.503906 0.875 1.570312 0.773438 C 1.617188 0.695312 1.695312 0.503906 1.804688 0.199219 C 1.820312 0.15625 1.84375 0.0898438 1.875 0.0078125 L 0.140625 -4.5625 L 0.976562 -4.5625 L 1.925781 -1.921875 C 2.046875 -1.585938 2.160156 -1.234375 2.257812 -0.863281 C 2.34375 -1.21875 2.449219 -1.566406 2.574219 -1.902344 L 3.550781 -4.5625 L 4.324219 -4.5625 L 2.585938 0.078125 C 2.402344 0.578125 2.257812 0.925781 2.152344 1.113281 C 2.015625 1.367188 1.859375 1.554688 1.679688 1.671875 C 1.503906 1.792969 1.289062 1.851562 1.042969 1.851562 C 0.894531 1.851562 0.730469 1.820312 0.546875 1.757812 Z M 0.546875 1.757812 "/>
</g>
<g id="glyph-0-10">
<path d="M 0.578125 0 L 0.578125 -4.5625 L 1.277344 -4.5625 L 1.277344 -3.914062 C 1.609375 -4.414062 2.09375 -4.667969 2.726562 -4.667969 C 3.003906 -4.667969 3.257812 -4.617188 3.488281 -4.519531 C 3.71875 -4.417969 3.890625 -4.289062 4.003906 -4.128906 C 4.121094 -3.96875 4.199219 -3.777344 4.246094 -3.558594 C 4.273438 -3.414062 4.289062 -3.164062 4.289062 -2.804688 L 4.289062 0 L 3.515625 0 L 3.515625 -2.777344 C 3.515625 -3.089844 3.484375 -3.328125 3.425781 -3.484375 C 3.363281 -3.640625 3.257812 -3.761719 3.105469 -3.855469 C 2.953125 -3.949219 2.773438 -3.996094 2.566406 -3.996094 C 2.234375 -3.996094 1.953125 -3.890625 1.710938 -3.683594 C 1.472656 -3.472656 1.351562 -3.078125 1.351562 -2.492188 L 1.351562 0 Z M 0.578125 0 "/>
</g>
<g id="glyph-0-11">
<path d="M 2.269531 -0.691406 L 2.378906 -0.0078125 C 2.164062 0.0390625 1.96875 0.0585938 1.796875 0.0585938 C 1.515625 0.0585938 1.296875 0.015625 1.144531 -0.0742188 C 0.988281 -0.160156 0.878906 -0.277344 0.816406 -0.421875 C 0.753906 -0.566406 0.722656 -0.871094 0.722656 -1.335938 L 0.722656 -3.960938 L 0.15625 -3.960938 L 0.15625 -4.5625 L 0.722656 -4.5625 L 0.722656 -5.695312 L 1.492188 -6.15625 L 1.492188 -4.5625 L 2.269531 -4.5625 L 2.269531 -3.960938 L 1.492188 -3.960938 L 1.492188 -1.292969 C 1.492188 -1.074219 1.503906 -0.929688 1.53125 -0.867188 C 1.558594 -0.804688 1.601562 -0.753906 1.664062 -0.71875 C 1.726562 -0.679688 1.816406 -0.660156 1.929688 -0.660156 C 2.015625 -0.660156 2.128906 -0.671875 2.269531 -0.691406 Z M 2.269531 -0.691406 "/>
</g>
<g id="glyph-0-12">
<path d="M 0.578125 0 L 0.578125 -6.300781 L 1.351562 -6.300781 L 1.351562 -4.039062 C 1.714844 -4.457031 2.167969 -4.667969 2.71875 -4.667969 C 3.058594 -4.667969 3.351562 -4.601562 3.601562 -4.464844 C 3.851562 -4.332031 4.027344 -4.148438 4.136719 -3.914062 C 4.242188 -3.679688 4.296875 -3.339844 4.296875 -2.890625 L 4.296875 0 L 3.523438 0 L 3.523438 -2.890625 C 3.523438 -3.277344 3.441406 -3.558594 3.273438 -3.734375 C 3.105469 -3.914062 2.867188 -4 2.5625 -4 C 2.332031 -4 2.117188 -3.941406 1.914062 -3.820312 C 1.710938 -3.703125 1.570312 -3.542969 1.484375 -3.339844 C 1.398438 -3.136719 1.351562 -2.855469 1.351562 -2.496094 L 1.351562 0 Z M 0.578125 0 "/>
</g>
<g id="glyph-0-13">
<path d="M 3.703125 -1.46875 L 4.503906 -1.371094 C 4.378906 -0.902344 4.144531 -0.542969 3.804688 -0.285156 C 3.460938 -0.0273438 3.027344 0.101562 2.496094 0.101562 C 1.828125 0.101562 1.300781 -0.101562 0.910156 -0.511719 C 0.519531 -0.925781 0.320312 -1.5 0.320312 -2.242188 C 0.320312 -3.011719 0.519531 -3.605469 0.914062 -4.03125 C 1.3125 -4.453125 1.824219 -4.667969 2.453125 -4.667969 C 3.0625 -4.667969 3.5625 -4.457031 3.949219 -4.042969 C 4.335938 -3.628906 4.527344 -3.042969 4.527344 -2.289062 C 4.527344 -2.246094 4.527344 -2.175781 4.523438 -2.085938 L 1.121094 -2.085938 C 1.148438 -1.582031 1.292969 -1.199219 1.546875 -0.933594 C 1.800781 -0.664062 2.121094 -0.53125 2.5 -0.53125 C 2.785156 -0.53125 3.027344 -0.605469 3.226562 -0.757812 C 3.425781 -0.90625 3.585938 -1.144531 3.703125 -1.46875 M 1.164062 -2.71875 L 3.710938 -2.71875 C 3.679688 -3.105469 3.582031 -3.390625 3.421875 -3.582031 C 3.175781 -3.882812 2.855469 -4.03125 2.460938 -4.03125 C 2.105469 -4.03125 1.808594 -3.910156 1.566406 -3.675781 C 1.324219 -3.4375 1.191406 -3.117188 1.164062 -2.71875 Z M 1.164062 -2.71875 "/>
</g>
<g id="glyph-0-14">
<path d="M 0.585938 -5.410156 L 0.585938 -6.300781 L 1.359375 -6.300781 L 1.359375 -5.410156 L 0.585938 -5.410156 M 0.585938 0 L 0.585938 -4.5625 L 1.359375 -4.5625 L 1.359375 0 Z M 0.585938 0 "/>
</g>
<g id="glyph-0-15">
<path d="M 3.558594 -1.671875 L 4.320312 -1.574219 C 4.234375 -1.046875 4.023438 -0.636719 3.679688 -0.339844 C 3.339844 -0.046875 2.917969 0.101562 2.417969 0.101562 C 1.792969 0.101562 1.292969 -0.101562 0.914062 -0.507812 C 0.535156 -0.917969 0.34375 -1.503906 0.34375 -2.265625 C 0.34375 -2.757812 0.425781 -3.1875 0.589844 -3.558594 C 0.753906 -3.925781 1 -4.203125 1.335938 -4.390625 C 1.667969 -4.574219 2.03125 -4.667969 2.421875 -4.667969 C 2.917969 -4.667969 3.324219 -4.542969 3.640625 -4.289062 C 3.953125 -4.039062 4.15625 -3.683594 4.246094 -3.222656 L 3.492188 -3.105469 C 3.421875 -3.414062 3.296875 -3.644531 3.113281 -3.796875 C 2.929688 -3.953125 2.710938 -4.03125 2.453125 -4.03125 C 2.0625 -4.03125 1.746094 -3.890625 1.503906 -3.613281 C 1.261719 -3.332031 1.140625 -2.890625 1.140625 -2.285156 C 1.140625 -1.671875 1.257812 -1.226562 1.492188 -0.949219 C 1.726562 -0.671875 2.03125 -0.53125 2.410156 -0.53125 C 2.714844 -0.53125 2.96875 -0.625 3.171875 -0.8125 C 3.375 -1 3.503906 -1.285156 3.558594 -1.671875 Z M 3.558594 -1.671875 "/>
</g>
<g id="glyph-0-16">
</g>
<g id="glyph-0-17">
<path d="M 0.292969 -2.28125 C 0.292969 -3.125 0.527344 -3.753906 0.996094 -4.160156 C 1.390625 -4.496094 1.867188 -4.667969 2.433594 -4.667969 C 3.058594 -4.667969 3.570312 -4.460938 3.96875 -4.050781 C 4.367188 -3.640625 4.566406 -3.070312 4.566406 -2.347656 C 4.566406 -1.757812 4.480469 -1.296875 4.304688 -0.960938 C 4.128906 -0.625 3.871094 -0.363281 3.535156 -0.175781 C 3.199219 0.0117188 2.832031 0.101562 2.433594 0.101562 C 1.792969 0.101562 1.277344 -0.101562 0.882812 -0.511719 C 0.488281 -0.921875 0.292969 -1.511719 0.292969 -2.28125 M 1.085938 -2.28125 C 1.085938 -1.699219 1.214844 -1.257812 1.46875 -0.96875 C 1.722656 -0.679688 2.046875 -0.53125 2.433594 -0.53125 C 2.816406 -0.53125 3.136719 -0.679688 3.390625 -0.972656 C 3.644531 -1.261719 3.773438 -1.707031 3.773438 -2.308594 C 3.773438 -2.871094 3.644531 -3.300781 3.386719 -3.589844 C 3.132812 -3.878906 2.8125 -4.027344 2.433594 -4.027344 C 2.046875 -4.027344 1.722656 -3.882812 1.46875 -3.59375 C 1.214844 -3.304688 1.085938 -2.867188 1.085938 -2.28125 Z M 1.085938 -2.28125 "/>
</g>
<g id="glyph-0-18">
<path d="M 0.570312 0 L 0.570312 -4.5625 L 1.265625 -4.5625 L 1.265625 -3.871094 C 1.445312 -4.195312 1.609375 -4.410156 1.757812 -4.511719 C 1.910156 -4.613281 2.074219 -4.667969 2.257812 -4.667969 C 2.515625 -4.667969 2.78125 -4.582031 3.050781 -4.417969 L 2.785156 -3.699219 C 2.59375 -3.8125 2.40625 -3.867188 2.21875 -3.867188 C 2.046875 -3.867188 1.894531 -3.816406 1.761719 -3.714844 C 1.628906 -3.613281 1.53125 -3.472656 1.472656 -3.292969 C 1.386719 -3.015625 1.34375 -2.714844 1.34375 -2.390625 L 1.34375 0 Z M 0.570312 0 "/>
</g>
<g id="glyph-0-19">
<path d="M 0.5625 0 L 0.5625 -6.300781 L 1.335938 -6.300781 L 1.335938 0 Z M 0.5625 0 "/>
</g>
<g id="glyph-0-20">
<path d="M 3.558594 -0.5625 C 3.269531 -0.320312 2.996094 -0.148438 2.730469 -0.046875 C 2.464844 0.0546875 2.179688 0.101562 1.878906 0.101562 C 1.375 0.101562 0.992188 -0.0195312 0.722656 -0.265625 C 0.453125 -0.507812 0.316406 -0.820312 0.316406 -1.203125 C 0.316406 -1.425781 0.367188 -1.628906 0.46875 -1.816406 C 0.570312 -2 0.707031 -2.148438 0.871094 -2.261719 C 1.035156 -2.371094 1.21875 -2.457031 1.425781 -2.515625 C 1.578125 -2.554688 1.808594 -2.59375 2.113281 -2.628906 C 2.738281 -2.703125 3.199219 -2.792969 3.492188 -2.894531 C 3.496094 -3.003906 3.496094 -3.070312 3.496094 -3.097656 C 3.496094 -3.414062 3.425781 -3.636719 3.277344 -3.765625 C 3.082031 -3.9375 2.789062 -4.027344 2.398438 -4.027344 C 2.035156 -4.027344 1.765625 -3.960938 1.59375 -3.835938 C 1.417969 -3.707031 1.289062 -3.480469 1.207031 -3.160156 L 0.453125 -3.261719 C 0.519531 -3.585938 0.632812 -3.847656 0.789062 -4.046875 C 0.949219 -4.246094 1.175781 -4.398438 1.472656 -4.503906 C 1.773438 -4.613281 2.117188 -4.667969 2.507812 -4.667969 C 2.898438 -4.667969 3.214844 -4.621094 3.460938 -4.527344 C 3.703125 -4.4375 3.882812 -4.320312 3.996094 -4.183594 C 4.109375 -4.042969 4.191406 -3.867188 4.238281 -3.65625 C 4.261719 -3.523438 4.273438 -3.289062 4.273438 -2.945312 L 4.273438 -1.914062 C 4.273438 -1.191406 4.292969 -0.738281 4.324219 -0.546875 C 4.359375 -0.355469 4.421875 -0.175781 4.519531 0 L 3.710938 0 C 3.632812 -0.160156 3.582031 -0.347656 3.558594 -0.5625 M 3.492188 -2.289062 C 3.210938 -2.175781 2.792969 -2.078125 2.230469 -2 C 1.910156 -1.953125 1.6875 -1.902344 1.554688 -1.84375 C 1.421875 -1.785156 1.320312 -1.703125 1.25 -1.59375 C 1.179688 -1.480469 1.144531 -1.359375 1.144531 -1.226562 C 1.144531 -1.019531 1.222656 -0.847656 1.378906 -0.710938 C 1.535156 -0.570312 1.761719 -0.503906 2.0625 -0.503906 C 2.359375 -0.503906 2.625 -0.566406 2.859375 -0.699219 C 3.089844 -0.828125 3.261719 -1.007812 3.367188 -1.234375 C 3.453125 -1.40625 3.492188 -1.664062 3.492188 -2.007812 Z M 3.492188 -2.289062 "/>
</g>
<g id="glyph-0-21">
<path d="M 3.539062 0 L 3.539062 -0.574219 C 3.25 -0.125 2.824219 0.101562 2.265625 0.101562 C 1.902344 0.101562 1.566406 0.00390625 1.261719 -0.199219 C 0.957031 -0.398438 0.71875 -0.679688 0.550781 -1.039062 C 0.382812 -1.398438 0.300781 -1.808594 0.300781 -2.277344 C 0.300781 -2.734375 0.375 -3.144531 0.527344 -3.515625 C 0.679688 -3.886719 0.90625 -4.171875 1.210938 -4.371094 C 1.515625 -4.566406 1.855469 -4.667969 2.230469 -4.667969 C 2.503906 -4.667969 2.75 -4.609375 2.964844 -4.492188 C 3.179688 -4.375 3.355469 -4.226562 3.488281 -4.039062 L 3.488281 -6.300781 L 4.257812 -6.300781 L 4.257812 0 L 3.539062 0 M 1.09375 -2.277344 C 1.09375 -1.691406 1.21875 -1.257812 1.464844 -0.96875 C 1.710938 -0.675781 2.003906 -0.53125 2.335938 -0.53125 C 2.675781 -0.53125 2.960938 -0.671875 3.199219 -0.949219 C 3.433594 -1.222656 3.554688 -1.644531 3.554688 -2.210938 C 3.554688 -2.835938 3.433594 -3.296875 3.191406 -3.589844 C 2.953125 -3.878906 2.65625 -4.027344 2.304688 -4.027344 C 1.960938 -4.027344 1.671875 -3.886719 1.441406 -3.605469 C 1.210938 -3.324219 1.09375 -2.882812 1.09375 -2.277344 Z M 1.09375 -2.277344 "/>
</g>
</g>
<clipPath id="clip-0">
<path clip-rule="nonzero" d="M 37.574219 44.675781 L 570.523438 44.675781 L 570.523438 324.507812 L 37.574219 324.507812 Z M 37.574219 44.675781 "/>
</clipPath>
<clipPath id="clip-1">
<path clip-rule="nonzero" d="M 37.574219 278 L 570.523438 278 L 570.523438 280 L 37.574219 280 Z M 37.574219 278 "/>
</clipPath>
<clipPath id="clip-2">
<path clip-rule="nonzero" d="M 37.574219 224 L 570.523438 224 L 570.523438 225 L 37.574219 225 Z M 37.574219 224 "/>
</clipPath>
<clipPath id="clip-3">
<path clip-rule="nonzero" d="M 37.574219 169 L 570.523438 169 L 570.523438 170 L 37.574219 170 Z M 37.574219 169 "/>
</clipPath>
<clipPath id="clip-4">
<path clip-rule="nonzero" d="M 37.574219 114 L 570.523438 114 L 570.523438 115 L 37.574219 115 Z M 37.574219 114 "/>
</clipPath>
<clipPath id="clip-5">
<path clip-rule="nonzero" d="M 37.574219 59 L 570.523438 59 L 570.523438 61 L 37.574219 61 Z M 37.574219 59 "/>
</clipPath>
<clipPath id="clip-6">
<path clip-rule="nonzero" d="M 142 44.675781 L 143 44.675781 L 143 324.507812 L 142 324.507812 Z M 142 44.675781 "/>
</clipPath>
<clipPath id="clip-7">
<path clip-rule="nonzero" d="M 303 44.675781 L 305 44.675781 L 305 324.507812 L 303 324.507812 Z M 303 44.675781 "/>
</clipPath>
<clipPath id="clip-8">
<path clip-rule="nonzero" d="M 465 44.675781 L 466 44.675781 L 466 324.507812 L 465 324.507812 Z M 465 44.675781 "/>
</clipPath>
<clipPath id="clip-9">
<path clip-rule="nonzero" d="M 37.574219 306 L 570.523438 306 L 570.523438 307 L 37.574219 307 Z M 37.574219 306 "/>
</clipPath>
<clipPath id="clip-10">
<path clip-rule="nonzero" d="M 37.574219 251 L 570.523438 251 L 570.523438 252 L 37.574219 252 Z M 37.574219 251 "/>
</clipPath>
<clipPath id="clip-11">
<path clip-rule="nonzero" d="M 37.574219 196 L 570.523438 196 L 570.523438 198 L 37.574219 198 Z M 37.574219 196 "/>
</clipPath>
<clipPath id="clip-12">
<path clip-rule="nonzero" d="M 37.574219 141 L 570.523438 141 L 570.523438 143 L 37.574219 143 Z M 37.574219 141 "/>
</clipPath>
<clipPath id="clip-13">
<path clip-rule="nonzero" d="M 37.574219 87 L 570.523438 87 L 570.523438 88 L 37.574219 88 Z M 37.574219 87 "/>
</clipPath>
<clipPath id="clip-14">
<path clip-rule="nonzero" d="M 61 44.675781 L 63 44.675781 L 63 324.507812 L 61 324.507812 Z M 61 44.675781 "/>
</clipPath>
<clipPath id="clip-15">
<path clip-rule="nonzero" d="M 223 44.675781 L 224 44.675781 L 224 324.507812 L 223 324.507812 Z M 223 44.675781 "/>
</clipPath>
<clipPath id="clip-16">
<path clip-rule="nonzero" d="M 384 44.675781 L 386 44.675781 L 386 324.507812 L 384 324.507812 Z M 384 44.675781 "/>
</clipPath>
<clipPath id="clip-17">
<path clip-rule="nonzero" d="M 546 44.675781 L 547 44.675781 L 547 324.507812 L 546 324.507812 Z M 546 44.675781 "/>
</clipPath>
<clipPath id="clip-18">
<path clip-rule="nonzero" d="M 303 44.675781 L 305 44.675781 L 305 324.507812 L 303 324.507812 Z M 303 44.675781 "/>
</clipPath>
<clipPath id="clip-19">
<path clip-rule="nonzero" d="M 37.574219 44.675781 L 570.523438 44.675781 L 570.523438 324.507812 L 37.574219 324.507812 Z M 37.574219 44.675781 "/>
</clipPath>
</defs>
<rect x="-57.6" y="-36" width="691.2" height="432" fill="rgb(100%, 100%, 100%)" fill-opacity="1"/>
<rect x="-57.6" y="-36" width="691.2" height="432" fill="rgb(100%, 100%, 100%)" fill-opacity="1"/>
<path fill="none" stroke-width="1.066978" stroke-linecap="round" stroke-linejoin="round" stroke="rgb(100%, 100%, 100%)" stroke-opacity="1" stroke-miterlimit="10" d="M 0 360 L 576 360 L 576 0 L 0 0 Z M 0 360 "/>
<g clip-path="url(#clip-0)">
<path fill-rule="nonzero" fill="rgb(100%, 100%, 100%)" fill-opacity="1" d="M 37.574219 324.507812 L 570.523438 324.507812 L 570.523438 44.675781 L 37.574219 44.675781 Z M 37.574219 324.507812 "/>
</g>
<g clip-path="url(#clip-1)">
<path fill="none" stroke-width="0.266745" stroke-linecap="butt" stroke-linejoin="round" stroke="rgb(87.058824%, 87.058824%, 87.058824%)" stroke-opacity="1" stroke-miterlimit="10" d="M 37.574219 279.007812 L 570.519531 279.007812 "/>
</g>
<g clip-path="url(#clip-2)">
<path fill="none" stroke-width="0.266745" stroke-linecap="butt" stroke-linejoin="round" stroke="rgb(87.058824%, 87.058824%, 87.058824%)" stroke-opacity="1" stroke-miterlimit="10" d="M 37.574219 224.277344 L 570.519531 224.277344 "/>
</g>
<g clip-path="url(#clip-3)">
<path fill="none" stroke-width="0.266745" stroke-linecap="butt" stroke-linejoin="round" stroke="rgb(87.058824%, 87.058824%, 87.058824%)" stroke-opacity="1" stroke-miterlimit="10" d="M 37.574219 169.546875 L 570.519531 169.546875 "/>
</g>
<g clip-path="url(#clip-4)">
<path fill="none" stroke-width="0.266745" stroke-linecap="butt" stroke-linejoin="round" stroke="rgb(87.058824%, 87.058824%, 87.058824%)" stroke-opacity="1" stroke-miterlimit="10" d="M 37.574219 114.8125 L 570.519531 114.8125 "/>
</g>
<g clip-path="url(#clip-5)">
<path fill="none" stroke-width="0.266745" stroke-linecap="butt" stroke-linejoin="round" stroke="rgb(87.058824%, 87.058824%, 87.058824%)" stroke-opacity="1" stroke-miterlimit="10" d="M 37.574219 60.082031 L 570.519531 60.082031 "/>
</g>
<g clip-path="url(#clip-6)">
<path fill="none" stroke-width="0.266745" stroke-linecap="butt" stroke-linejoin="round" stroke="rgb(87.058824%, 87.058824%, 87.058824%)" stroke-opacity="1" stroke-miterlimit="10" d="M 142.546875 324.507812 L 142.546875 44.675781 "/>
</g>
<g clip-path="url(#clip-7)">
<path fill="none" stroke-width="0.266745" stroke-linecap="butt" stroke-linejoin="round" stroke="rgb(87.058824%, 87.058824%, 87.058824%)" stroke-opacity="1" stroke-miterlimit="10" d="M 304.046875 324.507812 L 304.046875 44.675781 "/>
</g>
<g clip-path="url(#clip-8)">
<path fill="none" stroke-width="0.266745" stroke-linecap="butt" stroke-linejoin="round" stroke="rgb(87.058824%, 87.058824%, 87.058824%)" stroke-opacity="1" stroke-miterlimit="10" d="M 465.546875 324.507812 L 465.546875 44.675781 "/>
</g>
<g clip-path="url(#clip-9)">
<path fill="none" stroke-width="0.533489" stroke-linecap="butt" stroke-linejoin="round" stroke="rgb(87.058824%, 87.058824%, 87.058824%)" stroke-opacity="1" stroke-miterlimit="10" d="M 37.574219 306.375 L 570.519531 306.375 "/>
</g>
<g clip-path="url(#clip-10)">
<path fill="none" stroke-width="0.533489" stroke-linecap="butt" stroke-linejoin="round" stroke="rgb(87.058824%, 87.058824%, 87.058824%)" stroke-opacity="1" stroke-miterlimit="10" d="M 37.574219 251.644531 L 570.519531 251.644531 "/>
</g>
<g clip-path="url(#clip-11)">
<path fill="none" stroke-width="0.533489" stroke-linecap="butt" stroke-linejoin="round" stroke="rgb(87.058824%, 87.058824%, 87.058824%)" stroke-opacity="1" stroke-miterlimit="10" d="M 37.574219 196.910156 L 570.519531 196.910156 "/>
</g>
<g clip-path="url(#clip-12)">
<path fill="none" stroke-width="0.533489" stroke-linecap="butt" stroke-linejoin="round" stroke="rgb(87.058824%, 87.058824%, 87.058824%)" stroke-opacity="1" stroke-miterlimit="10" d="M 37.574219 142.179688 L 570.519531 142.179688 "/>
</g>
<g clip-path="url(#clip-13)">
<path fill="none" stroke-width="0.533489" stroke-linecap="butt" stroke-linejoin="round" stroke="rgb(87.058824%, 87.058824%, 87.058824%)" stroke-opacity="1" stroke-miterlimit="10" d="M 37.574219 87.449219 L 570.519531 87.449219 "/>
</g>
<g clip-path="url(#clip-14)">
<path fill="none" stroke-width="0.533489" stroke-linecap="butt" stroke-linejoin="round" stroke="rgb(87.058824%, 87.058824%, 87.058824%)" stroke-opacity="1" stroke-miterlimit="10" d="M 61.796875 324.507812 L 61.796875 44.675781 "/>
</g>
<g clip-path="url(#clip-15)">
<path fill="none" stroke-width="0.533489" stroke-linecap="butt" stroke-linejoin="round" stroke="rgb(87.058824%, 87.058824%, 87.058824%)" stroke-opacity="1" stroke-miterlimit="10" d="M 223.296875 324.507812 L 223.296875 44.675781 "/>
</g>
<g clip-path="url(#clip-16)">
<path fill="none" stroke-width="0.533489" stroke-linecap="butt" stroke-linejoin="round" stroke="rgb(87.058824%, 87.058824%, 87.058824%)" stroke-opacity="1" stroke-miterlimit="10" d="M 384.796875 324.507812 L 384.796875 44.675781 "/>
</g>
<g clip-path="url(#clip-17)">
<path fill="none" stroke-width="0.533489" stroke-linecap="butt" stroke-linejoin="round" stroke="rgb(87.058824%, 87.058824%, 87.058824%)" stroke-opacity="1" stroke-miterlimit="10" d="M 546.296875 324.507812 L 546.296875 44.675781 "/>
</g>
<path fill="none" stroke-width="1.066978" stroke-linecap="butt" stroke-linejoin="round" stroke="rgb(97.254902%, 46.27451%, 42.745098%)" stroke-opacity="0.376471" stroke-miterlimit="10" d="M 61.796875 248.191406 L 142.546875 239.164062 L 223.296875 235.992188 L 304.046875 208.417969 L 384.796875 191.9375 L 465.546875 184.125 L 546.296875 189.210938 "/>
<path fill="none" stroke-width="1.066978" stroke-linecap="butt" stroke-linejoin="round" stroke="rgb(0%, 74.901961%, 76.862745%)" stroke-opacity="0.376471" stroke-miterlimit="10" d="M 61.796875 192.433594 L 142.546875 191.527344 L 223.296875 182.910156 L 304.046875 151.585938 L 384.796875 70.792969 L 465.546875 71.1875 L 546.296875 57.398438 "/>
<path fill="none" stroke-width="0.708661" stroke-linecap="round" stroke-linejoin="round" stroke="rgb(0%, 74.901961%, 76.862745%)" stroke-opacity="1" stroke-miterlimit="10" d="M 466.96875 66.460938 C 466.96875 68.355469 464.125 68.355469 464.125 66.460938 C 464.125 64.5625 466.96875 64.5625 466.96875 66.460938 "/>
<path fill="none" stroke-width="0.708661" stroke-linecap="round" stroke-linejoin="round" stroke="rgb(97.254902%, 46.27451%, 42.745098%)" stroke-opacity="1" stroke-miterlimit="10" d="M 466.96875 134.144531 C 466.96875 136.039062 464.125 136.039062 464.125 134.144531 C 464.125 132.25 466.96875 132.25 466.96875 134.144531 "/>
<path fill-rule="nonzero" fill="rgb(0%, 74.901961%, 76.862745%)" fill-opacity="1" stroke-width="0.708661" stroke-linecap="round" stroke-linejoin="round" stroke="rgb(0%, 74.901961%, 76.862745%)" stroke-opacity="1" stroke-miterlimit="10" d="M 193.617188 175.808594 C 193.617188 177.703125 190.773438 177.703125 190.773438 175.808594 C 190.773438 173.910156 193.617188 173.910156 193.617188 175.808594 "/>
<path fill-rule="nonzero" fill="rgb(97.254902%, 46.27451%, 42.745098%)" fill-opacity="1" stroke-width="0.708661" stroke-linecap="round" stroke-linejoin="round" stroke="rgb(97.254902%, 46.27451%, 42.745098%)" stroke-opacity="1" stroke-miterlimit="10" d="M 193.617188 230.085938 C 193.617188 231.980469 190.773438 231.980469 190.773438 230.085938 C 190.773438 228.191406 193.617188 228.191406 193.617188 230.085938 "/>
<path fill-rule="nonzero" fill="rgb(97.254902%, 46.27451%, 42.745098%)" fill-opacity="1" stroke-width="0.708661" stroke-linecap="round" stroke-linejoin="round" stroke="rgb(97.254902%, 46.27451%, 42.745098%)" stroke-opacity="1" stroke-miterlimit="10" d="M 466.96875 188.421875 C 466.96875 190.320312 464.125 190.320312 464.125 188.421875 C 464.125 186.527344 466.96875 186.527344 466.96875 188.421875 "/>
<path fill-rule="nonzero" fill="rgb(0%, 74.901961%, 76.862745%)" fill-opacity="1" stroke-width="0.708661" stroke-linecap="round" stroke-linejoin="round" stroke="rgb(0%, 74.901961%, 76.862745%)" stroke-opacity="1" stroke-miterlimit="10" d="M 466.96875 66.460938 C 466.96875 68.355469 464.125 68.355469 464.125 66.460938 C 464.125 64.5625 466.96875 64.5625 466.96875 66.460938 "/>
<path fill="none" stroke-width="1.066978" stroke-linecap="butt" stroke-linejoin="round" stroke="rgb(97.254902%, 46.27451%, 42.745098%)" stroke-opacity="1" stroke-miterlimit="10" d="M 192.195312 230.085938 L 465.546875 188.421875 "/>
<path fill="none" stroke-width="1.066978" stroke-linecap="butt" stroke-linejoin="round" stroke="rgb(0%, 74.901961%, 76.862745%)" stroke-opacity="1" stroke-miterlimit="10" d="M 192.195312 175.808594 L 465.546875 66.460938 "/>
<path fill="none" stroke-width="1.066978" stroke-linecap="butt" stroke-linejoin="round" stroke="rgb(0%, 0%, 0%)" stroke-opacity="0.47451" stroke-dasharray="4.267913 4.267913" stroke-miterlimit="10" d="M 192.195312 175.808594 L 465.546875 134.144531 "/>
<path fill="none" stroke-width="1.066978" stroke-linecap="butt" stroke-linejoin="round" stroke="rgb(0%, 0%, 0%)" stroke-opacity="0.341176" stroke-dasharray="4.267913 4.267913" stroke-miterlimit="10" d="M 192.195312 230.085938 L 192.195312 175.808594 "/>
<path fill="none" stroke-width="1.066978" stroke-linecap="butt" stroke-linejoin="round" stroke="rgb(0%, 0%, 0%)" stroke-opacity="0.341176" stroke-dasharray="4.267913 4.267913" stroke-miterlimit="10" d="M 465.546875 188.421875 L 465.546875 134.144531 "/>
<g clip-path="url(#clip-18)">
<path fill="none" stroke-width="1.066978" stroke-linecap="butt" stroke-linejoin="round" stroke="rgb(0%, 0%, 0%)" stroke-opacity="0.101961" stroke-miterlimit="10" d="M 304.046875 324.507812 L 304.046875 44.675781 "/>
</g>
<path fill-rule="nonzero" fill="rgb(97.254902%, 46.27451%, 42.745098%)" fill-opacity="0.341176" d="M 61.796875 261.09375 L 142.546875 281.769531 L 223.296875 280.03125 L 304.046875 248.191406 L 304.046875 311.789062 L 61.796875 311.789062 Z M 61.796875 261.09375 "/>
<path fill="none" stroke-width="1.066978" stroke-linecap="butt" stroke-linejoin="round" stroke="rgb(0%, 0%, 0%)" stroke-opacity="1" stroke-miterlimit="10" d="M 61.796875 261.09375 L 142.546875 281.769531 L 223.296875 280.03125 L 304.046875 248.191406 "/>
<path fill="none" stroke-width="1.066978" stroke-linecap="butt" stroke-linejoin="round" stroke="rgb(0%, 0%, 0%)" stroke-opacity="1" stroke-miterlimit="10" d="M 304.046875 311.789062 L 61.796875 311.789062 "/>
<path fill="none" stroke-width="1.066978" stroke-linecap="butt" stroke-linejoin="round" stroke="rgb(0%, 0%, 0%)" stroke-opacity="1" stroke-miterlimit="10" d="M 465.546875 134.144531 L 465.652344 133.945312 L 466.21875 132.867188 L 467.222656 130.964844 L 468.316406 128.894531 L 469.289062 127 L 470.125 125.261719 L 470.855469 123.578125 L 470.886719 123.503906 L 471.546875 121.804688 L 472.121094 120.15625 L 472.601562 118.632812 L 473.035156 117.1875 L 473.472656 115.65625 L 473.898438 113.96875 L 474.285156 112.1875 L 474.300781 112.125 L 474.617188 110.328125 L 474.863281 108.605469 L 475.042969 107.015625 L 475.191406 105.511719 L 475.320312 103.925781 L 475.414062 102.1875 L 475.453125 100.367188 L 475.453125 100.300781 L 475.417969 98.476562 L 475.328125 96.738281 L 475.195312 95.144531 L 475.046875 93.640625 L 474.871094 92.058594 L 474.628906 90.335938 L 474.300781 88.476562 L 473.914062 86.695312 L 473.488281 85.007812 L 473.050781 83.46875 L 472.617188 82.023438 L 472.136719 80.503906 L 471.566406 78.859375 L 470.910156 77.160156 L 470.886719 77.101562 L 470.15625 75.414062 L 469.328125 73.679688 L 468.363281 71.792969 L 467.269531 69.726562 L 466.257812 67.804688 L 465.664062 66.683594 L 465.546875 66.460938 "/>
<path fill="none" stroke-width="1.066978" stroke-linecap="butt" stroke-linejoin="round" stroke="rgb(0%, 0%, 0%)" stroke-opacity="1" stroke-miterlimit="10" d="M 470.34375 69.476562 L 465.546875 66.460938 L 465.332031 72.125 "/>
<path fill="none" stroke-width="1.066978" stroke-linecap="butt" stroke-linejoin="round" stroke="rgb(0%, 0%, 0%)" stroke-opacity="0.101961" stroke-miterlimit="10" d="M 465.546875 99.984375 L 465.679688 99.726562 L 466.277344 98.597656 L 467.035156 97.164062 L 467.667969 95.890625 L 468.191406 94.710938 L 468.640625 93.53125 L 469 92.4375 L 469.304688 91.421875 L 469.605469 90.308594 L 469.882812 89.078125 L 470.09375 87.832031 L 470.234375 86.6875 L 470.339844 85.632812 L 470.421875 84.484375 L 470.453125 83.222656 L 470.421875 81.960938 L 470.339844 80.808594 L 470.234375 79.753906 L 470.09375 78.609375 L 469.882812 77.363281 L 469.605469 76.132812 L 469.304688 75.019531 L 469 74.007812 L 468.640625 72.910156 L 468.191406 71.730469 L 467.667969 70.550781 L 467.035156 69.28125 L 466.277344 67.84375 L 465.679688 66.714844 L 465.546875 66.460938 "/>
<path fill="none" stroke-width="1.066978" stroke-linecap="butt" stroke-linejoin="round" stroke="rgb(0%, 0%, 0%)" stroke-opacity="0.101961" stroke-miterlimit="10" d="M 470.34375 69.476562 L 465.546875 66.460938 L 465.332031 72.125 "/>
<path fill="none" stroke-width="1.066978" stroke-linecap="butt" stroke-linejoin="round" stroke="rgb(0%, 0%, 0%)" stroke-opacity="0.101961" stroke-miterlimit="10" d="M 465.546875 168.304688 L 465.636719 168.136719 L 466.148438 167.164062 L 467.179688 165.210938 L 468.507812 162.695312 L 469.832031 160.179688 L 471.03125 157.851562 L 472.085938 155.691406 L 473.023438 153.617188 L 473.582031 152.292969 L 474.398438 150.207031 L 475.136719 148.15625 L 475.777344 146.210938 L 476.335938 144.394531 L 476.867188 142.621094 L 477.402344 140.746094 L 477.933594 138.710938 L 478.429688 136.558594 L 478.71875 135.171875 L 479.117188 132.964844 L 479.445312 130.8125 L 479.699219 128.78125 L 479.894531 126.890625 L 480.074219 125.046875 L 480.238281 123.105469 L 480.363281 121.007812 L 480.4375 118.796875 L 480.449219 117.382812 L 480.417969 115.140625 L 480.324219 112.964844 L 480.179688 110.921875 L 480.007812 109.027344 L 479.828125 107.1875 L 479.613281 105.246094 L 479.332031 103.164062 L 478.976562 100.984375 L 478.71875 99.589844 L 478.25 97.398438 L 477.738281 95.28125 L 477.203125 93.304688 L 476.671875 91.480469 L 476.136719 89.707031 L 475.550781 87.847656 L 474.875 85.859375 L 474.105469 83.785156 L 473.582031 82.472656 L 472.695312 80.402344 L 471.722656 78.308594 L 470.617188 76.097656 L 469.367188 73.699219 L 468.015625 71.136719 L 466.757812 68.757812 L 465.902344 67.132812 L 465.570312 66.507812 L 465.546875 66.460938 "/>
<path fill="none" stroke-width="1.066978" stroke-linecap="butt" stroke-linejoin="round" stroke="rgb(0%, 0%, 0%)" stroke-opacity="0.101961" stroke-miterlimit="10" d="M 470.34375 69.476562 L 465.546875 66.460938 L 465.332031 72.125 "/>
<g clip-path="url(#clip-19)">
<path fill="none" stroke-width="1.066978" stroke-linecap="round" stroke-linejoin="round" stroke="rgb(70.196078%, 70.196078%, 70.196078%)" stroke-opacity="1" stroke-miterlimit="10" d="M 37.574219 324.507812 L 570.523438 324.507812 L 570.523438 44.675781 L 37.574219 44.675781 Z M 37.574219 324.507812 "/>
</g>
<g fill="rgb(30.196078%, 30.196078%, 30.196078%)" fill-opacity="1">
<use xlink:href="#glyph-0-0" x="20.40625" y="310.023438"/>
<use xlink:href="#glyph-0-1" x="25.300391" y="310.023438"/>
<use xlink:href="#glyph-0-2" x="27.745312" y="310.023438"/>
</g>
<g fill="rgb(30.196078%, 30.196078%, 30.196078%)" fill-opacity="1">
<use xlink:href="#glyph-0-2" x="20.40625" y="255.292969"/>
<use xlink:href="#glyph-0-1" x="25.300391" y="255.292969"/>
<use xlink:href="#glyph-0-3" x="27.745312" y="255.292969"/>
</g>
<g fill="rgb(30.196078%, 30.196078%, 30.196078%)" fill-opacity="1">
<use xlink:href="#glyph-0-2" x="20.40625" y="200.5625"/>
<use xlink:href="#glyph-0-1" x="25.300391" y="200.5625"/>
<use xlink:href="#glyph-0-2" x="27.745312" y="200.5625"/>
</g>
<g fill="rgb(30.196078%, 30.196078%, 30.196078%)" fill-opacity="1">
<use xlink:href="#glyph-0-4" x="20.40625" y="145.828125"/>
<use xlink:href="#glyph-0-1" x="25.300391" y="145.828125"/>
<use xlink:href="#glyph-0-3" x="27.745312" y="145.828125"/>
</g>
<g fill="rgb(30.196078%, 30.196078%, 30.196078%)" fill-opacity="1">
<use xlink:href="#glyph-0-4" x="20.40625" y="91.097656"/>
<use xlink:href="#glyph-0-1" x="25.300391" y="91.097656"/>
<use xlink:href="#glyph-0-2" x="27.745312" y="91.097656"/>
</g>
<path fill="none" stroke-width="0.533489" stroke-linecap="butt" stroke-linejoin="round" stroke="rgb(70.196078%, 70.196078%, 70.196078%)" stroke-opacity="1" stroke-miterlimit="10" d="M 34.832031 306.375 L 37.574219 306.375 "/>
<path fill="none" stroke-width="0.533489" stroke-linecap="butt" stroke-linejoin="round" stroke="rgb(70.196078%, 70.196078%, 70.196078%)" stroke-opacity="1" stroke-miterlimit="10" d="M 34.832031 251.644531 L 37.574219 251.644531 "/>
<path fill="none" stroke-width="0.533489" stroke-linecap="butt" stroke-linejoin="round" stroke="rgb(70.196078%, 70.196078%, 70.196078%)" stroke-opacity="1" stroke-miterlimit="10" d="M 34.832031 196.910156 L 37.574219 196.910156 "/>
<path fill="none" stroke-width="0.533489" stroke-linecap="butt" stroke-linejoin="round" stroke="rgb(70.196078%, 70.196078%, 70.196078%)" stroke-opacity="1" stroke-miterlimit="10" d="M 34.832031 142.179688 L 37.574219 142.179688 "/>
<path fill="none" stroke-width="0.533489" stroke-linecap="butt" stroke-linejoin="round" stroke="rgb(70.196078%, 70.196078%, 70.196078%)" stroke-opacity="1" stroke-miterlimit="10" d="M 34.832031 87.449219 L 37.574219 87.449219 "/>
<path fill="none" stroke-width="0.533489" stroke-linecap="butt" stroke-linejoin="round" stroke="rgb(70.196078%, 70.196078%, 70.196078%)" stroke-opacity="1" stroke-miterlimit="10" d="M 61.796875 327.25 L 61.796875 324.507812 "/>
<path fill="none" stroke-width="0.533489" stroke-linecap="butt" stroke-linejoin="round" stroke="rgb(70.196078%, 70.196078%, 70.196078%)" stroke-opacity="1" stroke-miterlimit="10" d="M 223.296875 327.25 L 223.296875 324.507812 "/>
<path fill="none" stroke-width="0.533489" stroke-linecap="butt" stroke-linejoin="round" stroke="rgb(70.196078%, 70.196078%, 70.196078%)" stroke-opacity="1" stroke-miterlimit="10" d="M 384.796875 327.25 L 384.796875 324.507812 "/>
<path fill="none" stroke-width="0.533489" stroke-linecap="butt" stroke-linejoin="round" stroke="rgb(70.196078%, 70.196078%, 70.196078%)" stroke-opacity="1" stroke-miterlimit="10" d="M 546.296875 327.25 L 546.296875 324.507812 "/>
<g fill="rgb(30.196078%, 30.196078%, 30.196078%)" fill-opacity="1">
<use xlink:href="#glyph-0-5" x="52.007812" y="336.738281"/>
<use xlink:href="#glyph-0-3" x="56.901953" y="336.738281"/>
<use xlink:href="#glyph-0-6" x="61.796094" y="336.738281"/>
<use xlink:href="#glyph-0-7" x="66.690234" y="336.738281"/>
</g>
<g fill="rgb(30.196078%, 30.196078%, 30.196078%)" fill-opacity="1">
<use xlink:href="#glyph-0-5" x="213.507812" y="336.738281"/>
<use xlink:href="#glyph-0-3" x="218.401953" y="336.738281"/>
<use xlink:href="#glyph-0-5" x="223.296094" y="336.738281"/>
<use xlink:href="#glyph-0-3" x="228.190234" y="336.738281"/>
</g>
<g fill="rgb(30.196078%, 30.196078%, 30.196078%)" fill-opacity="1">
<use xlink:href="#glyph-0-5" x="375.007812" y="336.738281"/>
<use xlink:href="#glyph-0-3" x="379.901953" y="336.738281"/>
<use xlink:href="#glyph-0-5" x="384.796094" y="336.738281"/>
<use xlink:href="#glyph-0-5" x="389.690234" y="336.738281"/>
</g>
<g fill="rgb(30.196078%, 30.196078%, 30.196078%)" fill-opacity="1">
<use xlink:href="#glyph-0-5" x="536.507812" y="336.738281"/>
<use xlink:href="#glyph-0-3" x="541.401953" y="336.738281"/>
<use xlink:href="#glyph-0-5" x="546.296094" y="336.738281"/>
<use xlink:href="#glyph-0-0" x="551.190234" y="336.738281"/>
</g>
<path fill-rule="nonzero" fill="rgb(100%, 100%, 100%)" fill-opacity="1" d="M 224.835938 33.71875 L 383.253906 33.71875 L 383.253906 5.480469 L 224.835938 5.480469 Z M 224.835938 33.71875 "/>
<path fill-rule="nonzero" fill="rgb(100%, 100%, 100%)" fill-opacity="1" d="M 235.796875 28.238281 L 253.078125 28.238281 L 253.078125 10.957031 L 235.796875 10.957031 Z M 235.796875 28.238281 "/>
<path fill="none" stroke-width="1.066978" stroke-linecap="butt" stroke-linejoin="round" stroke="rgb(97.254902%, 46.27451%, 42.745098%)" stroke-opacity="1" stroke-miterlimit="10" d="M 237.523438 19.597656 L 251.347656 19.597656 "/>
<path fill="none" stroke-width="0.708661" stroke-linecap="round" stroke-linejoin="round" stroke="rgb(97.254902%, 46.27451%, 42.745098%)" stroke-opacity="1" stroke-miterlimit="10" d="M 245.859375 19.597656 C 245.859375 21.492188 243.015625 21.492188 243.015625 19.597656 C 243.015625 17.703125 245.859375 17.703125 245.859375 19.597656 "/>
<path fill-rule="nonzero" fill="rgb(97.254902%, 46.27451%, 42.745098%)" fill-opacity="1" stroke-width="0.708661" stroke-linecap="round" stroke-linejoin="round" stroke="rgb(97.254902%, 46.27451%, 42.745098%)" stroke-opacity="1" stroke-miterlimit="10" d="M 245.859375 19.597656 C 245.859375 21.492188 243.015625 21.492188 243.015625 19.597656 C 243.015625 17.703125 245.859375 17.703125 245.859375 19.597656 "/>
<path fill="none" stroke-width="1.066978" stroke-linecap="butt" stroke-linejoin="round" stroke="rgb(97.254902%, 46.27451%, 42.745098%)" stroke-opacity="1" stroke-miterlimit="10" d="M 237.523438 19.597656 L 251.347656 19.597656 "/>
<path fill-rule="nonzero" fill="rgb(100%, 100%, 100%)" fill-opacity="1" d="M 327.621094 28.238281 L 344.902344 28.238281 L 344.902344 10.957031 L 327.621094 10.957031 Z M 327.621094 28.238281 "/>
<path fill="none" stroke-width="1.066978" stroke-linecap="butt" stroke-linejoin="round" stroke="rgb(0%, 74.901961%, 76.862745%)" stroke-opacity="1" stroke-miterlimit="10" d="M 329.347656 19.597656 L 343.171875 19.597656 "/>
<path fill="none" stroke-width="0.708661" stroke-linecap="round" stroke-linejoin="round" stroke="rgb(0%, 74.901961%, 76.862745%)" stroke-opacity="1" stroke-miterlimit="10" d="M 337.679688 19.597656 C 337.679688 21.492188 334.839844 21.492188 334.839844 19.597656 C 334.839844 17.703125 337.679688 17.703125 337.679688 19.597656 "/>
<path fill-rule="nonzero" fill="rgb(0%, 74.901961%, 76.862745%)" fill-opacity="1" stroke-width="0.708661" stroke-linecap="round" stroke-linejoin="round" stroke="rgb(0%, 74.901961%, 76.862745%)" stroke-opacity="1" stroke-miterlimit="10" d="M 337.679688 19.597656 C 337.679688 21.492188 334.839844 21.492188 334.839844 19.597656 C 334.839844 17.703125 337.679688 17.703125 337.679688 19.597656 "/>
<path fill="none" stroke-width="1.066978" stroke-linecap="butt" stroke-linejoin="round" stroke="rgb(0%, 74.901961%, 76.862745%)" stroke-opacity="1" stroke-miterlimit="10" d="M 329.347656 19.597656 L 343.171875 19.597656 "/>
<g fill="rgb(0%, 0%, 0%)" fill-opacity="1">
<use xlink:href="#glyph-0-8" x="258.554688" y="23.25"/>
<use xlink:href="#glyph-0-9" x="262.954687" y="23.25"/>
<use xlink:href="#glyph-0-10" x="267.354687" y="23.25"/>
<use xlink:href="#glyph-0-11" x="272.248828" y="23.25"/>
<use xlink:href="#glyph-0-12" x="274.69375" y="23.25"/>
<use xlink:href="#glyph-0-13" x="279.587891" y="23.25"/>
<use xlink:href="#glyph-0-11" x="284.482031" y="23.25"/>
<use xlink:href="#glyph-0-14" x="286.926953" y="23.25"/>
<use xlink:href="#glyph-0-15" x="288.882031" y="23.25"/>
<use xlink:href="#glyph-0-16" x="293.282031" y="23.25"/>
<use xlink:href="#glyph-0-15" x="295.726953" y="23.25"/>
<use xlink:href="#glyph-0-17" x="300.126953" y="23.25"/>
<use xlink:href="#glyph-0-10" x="305.021094" y="23.25"/>
<use xlink:href="#glyph-0-11" x="309.915234" y="23.25"/>
<use xlink:href="#glyph-0-18" x="312.360156" y="23.25"/>
<use xlink:href="#glyph-0-17" x="315.290625" y="23.25"/>
<use xlink:href="#glyph-0-19" x="320.184766" y="23.25"/>
</g>
<g fill="rgb(0%, 0%, 0%)" fill-opacity="1">
<use xlink:href="#glyph-0-11" x="350.378906" y="23.25"/>
<use xlink:href="#glyph-0-18" x="352.823828" y="23.25"/>
<use xlink:href="#glyph-0-13" x="355.754297" y="23.25"/>
<use xlink:href="#glyph-0-20" x="360.648437" y="23.25"/>
<use xlink:href="#glyph-0-11" x="365.542578" y="23.25"/>
<use xlink:href="#glyph-0-13" x="367.9875" y="23.25"/>
<use xlink:href="#glyph-0-21" x="372.881641" y="23.25"/>
</g>
</svg>
