<?xml version="1.0" encoding="UTF-8"?>
<svg xmlns="http://www.w3.org/2000/svg" xmlns:xlink="http://www.w3.org/1999/xlink" width="720" height="396" viewBox="0 0 720 396">
<defs>
<g>
<g id="glyph-0-0">
<path d="M 5.15625 2.265625 L 5.15625 -5.453125 L 4.375 -5.453125 L 4.375 -4.71875 C 3.96875 -5.296875 3.359375 -5.609375 2.640625 -5.609375 C 1.203125 -5.609375 0.265625 -4.4375 0.265625 -2.625 C 0.265625 -0.859375 1.15625 0.234375 2.609375 0.234375 C 3.359375 0.234375 3.875 -0.03125 4.28125 -0.625 L 4.28125 2.265625 Z M 2.765625 -4.796875 C 3.6875 -4.796875 4.28125 -3.96875 4.28125 -2.65625 C 4.28125 -1.40625 3.6875 -0.578125 2.765625 -0.578125 C 1.8125 -0.578125 1.171875 -1.421875 1.171875 -2.6875 C 1.171875 -3.953125 1.8125 -4.796875 2.765625 -4.796875 Z M 2.765625 -4.796875 "/>
</g>
<g id="glyph-0-1">
<path d="M 5.015625 0 L 5.015625 -5.453125 L 4.15625 -5.453125 L 4.15625 -2.359375 C 4.15625 -1.25 3.5625 -0.515625 2.65625 -0.515625 C 1.984375 -0.515625 1.546875 -0.9375 1.546875 -1.59375 L 1.546875 -5.453125 L 0.671875 -5.453125 L 0.671875 -1.25 C 0.671875 -0.34375 1.359375 0.234375 2.421875 0.234375 C 3.21875 0.234375 3.71875 -0.046875 4.234375 -0.765625 L 4.234375 0 Z M 5.015625 0 "/>
</g>
<g id="glyph-0-2">
<path d="M 5.5625 -0.515625 C 5.46875 -0.484375 5.4375 -0.484375 5.375 -0.484375 C 5.078125 -0.484375 4.90625 -0.640625 4.90625 -0.921875 L 4.90625 -4.125 C 4.90625 -5.09375 4.203125 -5.609375 2.859375 -5.609375 C 2.0625 -5.609375 1.421875 -5.375 1.046875 -4.96875 C 0.796875 -4.6875 0.703125 -4.375 0.671875 -3.84375 L 1.546875 -3.84375 C 1.625 -4.5 2.015625 -4.8125 2.828125 -4.8125 C 3.625 -4.8125 4.046875 -4.515625 4.046875 -4 L 4.046875 -3.765625 C 4.03125 -3.390625 3.84375 -3.25 3.140625 -3.15625 C 1.921875 -3 1.734375 -2.96875 1.390625 -2.828125 C 0.765625 -2.5625 0.4375 -2.078125 0.4375 -1.375 C 0.4375 -0.390625 1.125 0.234375 2.234375 0.234375 C 2.90625 0.234375 3.46875 0 4.078125 -0.5625 C 4.140625 0 4.40625 0.234375 4.96875 0.234375 C 5.15625 0.234375 5.28125 0.21875 5.5625 0.140625 Z M 4.046875 -1.71875 C 4.046875 -1.421875 3.96875 -1.25 3.703125 -1.015625 C 3.34375 -0.6875 2.921875 -0.515625 2.421875 -0.515625 C 1.734375 -0.515625 1.34375 -0.84375 1.34375 -1.390625 C 1.34375 -1.96875 1.71875 -2.265625 2.65625 -2.390625 C 3.578125 -2.515625 3.75 -2.5625 4.046875 -2.6875 Z M 4.046875 -1.71875 "/>
</g>
<g id="glyph-0-3">
<path d="M 1.578125 -7.59375 L 0.703125 -7.59375 L 0.703125 0 L 1.578125 0 Z M 1.578125 -7.59375 "/>
</g>
<g id="glyph-0-4">
<path d="M 1.5625 -5.453125 L 0.703125 -5.453125 L 0.703125 0 L 1.5625 0 Z M 1.5625 -7.59375 L 0.6875 -7.59375 L 0.6875 -6.5 L 1.5625 -6.5 Z M 1.5625 -7.59375 "/>
</g>
<g id="glyph-0-5">
<path d="M 2.640625 -5.453125 L 1.75 -5.453125 L 1.75 -6.953125 L 0.890625 -6.953125 L 0.890625 -5.453125 L 0.140625 -5.453125 L 0.140625 -4.75 L 0.890625 -4.75 L 0.890625 -0.625 C 0.890625 -0.0625 1.265625 0.234375 1.9375 0.234375 C 2.171875 0.234375 2.359375 0.21875 2.640625 0.171875 L 2.640625 -0.5625 C 2.515625 -0.53125 2.40625 -0.515625 2.234375 -0.515625 C 1.859375 -0.515625 1.75 -0.625 1.75 -1.015625 L 1.75 -4.75 L 2.640625 -4.75 Z M 2.640625 -5.453125 "/>
</g>
<g id="glyph-0-6">
<path d="M 4.03125 -5.453125 L 2.53125 -1.203125 L 1.140625 -5.453125 L 0.203125 -5.453125 L 2.046875 0.015625 L 1.71875 0.890625 C 1.578125 1.265625 1.390625 1.421875 1.015625 1.421875 C 0.875 1.421875 0.75 1.390625 0.5625 1.359375 L 0.5625 2.140625 C 0.734375 2.234375 0.921875 2.265625 1.140625 2.265625 C 1.421875 2.265625 1.734375 2.171875 1.953125 2.015625 C 2.234375 1.8125 2.390625 1.578125 2.546875 1.140625 L 4.96875 -5.453125 Z M 4.03125 -5.453125 "/>
</g>
<g id="glyph-0-7">
<path d="M 6.015625 1.3125 L -0.234375 1.3125 L -0.234375 1.828125 L 6.015625 1.828125 Z M 6.015625 1.3125 "/>
</g>
<g id="glyph-0-8">
<path d="M 4.5625 -3.9375 C 4.546875 -5 3.84375 -5.609375 2.578125 -5.609375 C 1.3125 -5.609375 0.484375 -4.953125 0.484375 -3.9375 C 0.484375 -3.09375 0.921875 -2.6875 2.21875 -2.375 L 3.03125 -2.171875 C 3.625 -2.03125 3.875 -1.8125 3.875 -1.421875 C 3.875 -0.90625 3.359375 -0.5625 2.609375 -0.5625 C 2.140625 -0.5625 1.734375 -0.703125 1.515625 -0.921875 C 1.390625 -1.078125 1.328125 -1.234375 1.265625 -1.625 L 0.359375 -1.625 C 0.390625 -0.359375 1.109375 0.234375 2.53125 0.234375 C 3.90625 0.234375 4.78125 -0.4375 4.78125 -1.484375 C 4.78125 -2.296875 4.3125 -2.75 3.234375 -3 L 2.40625 -3.203125 C 1.703125 -3.375 1.390625 -3.59375 1.390625 -3.984375 C 1.390625 -4.5 1.84375 -4.8125 2.546875 -4.8125 C 3.25 -4.8125 3.625 -4.5 3.640625 -3.9375 Z M 4.5625 -3.9375 "/>
</g>
<g id="glyph-0-9">
<path d="M 5.34375 -2.4375 C 5.34375 -3.265625 5.28125 -3.765625 5.125 -4.171875 C 4.765625 -5.0625 3.9375 -5.609375 2.90625 -5.609375 C 1.390625 -5.609375 0.421875 -4.453125 0.421875 -2.65625 C 0.421875 -0.859375 1.359375 0.234375 2.890625 0.234375 C 4.140625 0.234375 5 -0.46875 5.21875 -1.65625 L 4.34375 -1.65625 C 4.109375 -0.9375 3.625 -0.5625 2.921875 -0.5625 C 2.375 -0.5625 1.90625 -0.8125 1.609375 -1.265625 C 1.40625 -1.578125 1.328125 -1.890625 1.328125 -2.4375 Z M 1.34375 -3.140625 C 1.421875 -4.15625 2.03125 -4.8125 2.90625 -4.8125 C 3.78125 -4.8125 4.40625 -4.125 4.40625 -3.140625 Z M 1.34375 -3.140625 "/>
</g>
<g id="glyph-0-10">
<path d="M 0.5625 2.265625 L 1.4375 2.265625 L 1.4375 -0.578125 C 1.890625 -0.015625 2.40625 0.234375 3.109375 0.234375 C 4.53125 0.234375 5.4375 -0.890625 5.4375 -2.625 C 5.4375 -4.46875 4.546875 -5.609375 3.09375 -5.609375 C 2.359375 -5.609375 1.765625 -5.28125 1.359375 -4.625 L 1.359375 -5.453125 L 0.5625 -5.453125 Z M 2.953125 -4.796875 C 3.90625 -4.796875 4.53125 -3.953125 4.53125 -2.65625 C 4.53125 -1.421875 3.90625 -0.578125 2.953125 -0.578125 C 2.03125 -0.578125 1.4375 -1.40625 1.4375 -2.6875 C 1.4375 -3.96875 2.03125 -4.796875 2.953125 -4.796875 Z M 2.953125 -4.796875 "/>
</g>
<g id="glyph-0-11">
<path d="M 0.71875 -5.453125 L 0.71875 0 L 1.59375 0 L 1.59375 -2.828125 C 1.609375 -4.140625 2.140625 -4.71875 3.34375 -4.6875 L 3.34375 -5.578125 C 3.1875 -5.59375 3.109375 -5.609375 3 -5.609375 C 2.453125 -5.609375 2.015625 -5.28125 1.515625 -4.46875 L 1.515625 -5.453125 Z M 0.71875 -5.453125 "/>
</g>
<g id="glyph-0-12">
<path d="M 4.90625 -3.625 C 4.859375 -4.15625 4.75 -4.5 4.53125 -4.796875 C 4.15625 -5.3125 3.5 -5.609375 2.75 -5.609375 C 1.265625 -5.609375 0.328125 -4.4375 0.328125 -2.625 C 0.328125 -0.875 1.265625 0.234375 2.734375 0.234375 C 4.03125 0.234375 4.859375 -0.546875 4.96875 -1.875 L 4.09375 -1.875 C 3.9375 -1 3.5 -0.5625 2.75 -0.5625 C 1.796875 -0.5625 1.234375 -1.34375 1.234375 -2.625 C 1.234375 -4 1.796875 -4.8125 2.734375 -4.8125 C 3.46875 -4.8125 3.921875 -4.375 4.03125 -3.625 Z M 4.90625 -3.625 "/>
</g>
<g id="glyph-0-13">
<path d="M 2.828125 -5.609375 C 1.296875 -5.609375 0.375 -4.515625 0.375 -2.6875 C 0.375 -0.84375 1.296875 0.234375 2.84375 0.234375 C 4.375 0.234375 5.3125 -0.859375 5.3125 -2.640625 C 5.3125 -4.53125 4.40625 -5.609375 2.828125 -5.609375 Z M 2.84375 -4.8125 C 3.8125 -4.8125 4.40625 -4 4.40625 -2.65625 C 4.40625 -1.359375 3.796875 -0.5625 2.84375 -0.5625 C 1.875 -0.5625 1.28125 -1.359375 1.28125 -2.6875 C 1.28125 -4 1.875 -4.8125 2.84375 -4.8125 Z M 2.84375 -4.8125 "/>
</g>
<g id="glyph-0-14">
<path d="M 0.734375 -7.59375 L 0.734375 0 L 1.59375 0 L 1.59375 -3 C 1.59375 -4.125 2.171875 -4.84375 3.0625 -4.84375 C 3.359375 -4.84375 3.625 -4.765625 3.84375 -4.609375 C 4.09375 -4.421875 4.1875 -4.15625 4.1875 -3.78125 L 4.1875 0 L 5.0625 0 L 5.0625 -4.125 C 5.0625 -5.03125 4.40625 -5.609375 3.34375 -5.609375 C 2.578125 -5.609375 2.109375 -5.375 1.59375 -4.703125 L 1.59375 -7.59375 Z M 0.734375 -7.59375 "/>
</g>
<g id="glyph-0-15">
<path d="M 5.15625 -7.59375 L 4.28125 -7.59375 L 4.28125 -4.765625 C 3.921875 -5.3125 3.34375 -5.609375 2.609375 -5.609375 C 1.203125 -5.609375 0.265625 -4.46875 0.265625 -2.734375 C 0.265625 -0.890625 1.171875 0.234375 2.640625 0.234375 C 3.390625 0.234375 3.90625 -0.046875 4.375 -0.71875 L 4.375 0 L 5.15625 0 Z M 2.75 -4.796875 C 3.6875 -4.796875 4.28125 -3.96875 4.28125 -2.65625 C 4.28125 -1.40625 3.6875 -0.578125 2.765625 -0.578125 C 1.8125 -0.578125 1.171875 -1.421875 1.171875 -2.6875 C 1.171875 -3.953125 1.8125 -4.796875 2.75 -4.796875 Z M 2.75 -4.796875 "/>
</g>
<g id="glyph-0-16">
<path d="M 0.734375 -5.453125 L 0.734375 0 L 1.609375 0 L 1.609375 -3 C 1.609375 -4.125 2.1875 -4.84375 3.078125 -4.84375 C 3.765625 -4.84375 4.203125 -4.4375 4.203125 -3.78125 L 4.203125 0 L 5.0625 0 L 5.0625 -4.125 C 5.0625 -5.03125 4.390625 -5.609375 3.34375 -5.609375 C 2.53125 -5.609375 2.015625 -5.296875 1.53125 -4.53125 L 1.53125 -5.453125 Z M 0.734375 -5.453125 "/>
</g>
<g id="glyph-0-17">
<path d="M 0.5625 -7.59375 L 0.5625 0 L 1.34375 0 L 1.34375 -0.703125 C 1.765625 -0.0625 2.3125 0.234375 3.0625 0.234375 C 4.5 0.234375 5.4375 -0.9375 5.4375 -2.75 C 5.4375 -4.515625 4.5625 -5.609375 3.109375 -5.609375 C 2.359375 -5.609375 1.828125 -5.328125 1.421875 -4.71875 L 1.421875 -7.59375 Z M 2.9375 -4.796875 C 3.90625 -4.796875 4.53125 -3.953125 4.53125 -2.65625 C 4.53125 -1.421875 3.890625 -0.578125 2.9375 -0.578125 C 2.015625 -0.578125 1.421875 -1.40625 1.421875 -2.6875 C 1.421875 -3.96875 2.015625 -4.796875 2.9375 -4.796875 Z M 2.9375 -4.796875 "/>
</g>
<g id="glyph-0-18">
<path d="M 2.96875 0 L 5.0625 -5.453125 L 4.078125 -5.453125 L 2.546875 -1.03125 L 1.078125 -5.453125 L 0.109375 -5.453125 L 2.015625 0 Z M 2.96875 0 "/>
</g>
<g id="glyph-0-19">
<path d="M 0.734375 -5.453125 L 0.734375 0 L 1.609375 0 L 1.609375 -3.421875 C 1.609375 -4.21875 2.171875 -4.84375 2.875 -4.84375 C 3.53125 -4.84375 3.890625 -4.453125 3.890625 -3.75 L 3.890625 0 L 4.765625 0 L 4.765625 -3.421875 C 4.765625 -4.21875 5.34375 -4.84375 6.046875 -4.84375 C 6.6875 -4.84375 7.0625 -4.4375 7.0625 -3.75 L 7.0625 0 L 7.921875 0 L 7.921875 -4.09375 C 7.921875 -5.0625 7.375 -5.609375 6.34375 -5.609375 C 5.625 -5.609375 5.1875 -5.390625 4.671875 -4.78125 C 4.34375 -5.359375 3.90625 -5.609375 3.203125 -5.609375 C 2.484375 -5.609375 1.984375 -5.34375 1.53125 -4.6875 L 1.53125 -5.453125 Z M 0.734375 -5.453125 "/>
</g>
<g id="glyph-0-20">
<path d="M 2.703125 -5.453125 L 1.796875 -5.453125 L 1.796875 -6.3125 C 1.796875 -6.671875 2 -6.859375 2.40625 -6.859375 C 2.484375 -6.859375 2.515625 -6.859375 2.703125 -6.84375 L 2.703125 -7.5625 C 2.515625 -7.609375 2.390625 -7.625 2.21875 -7.625 C 1.421875 -7.625 0.9375 -7.15625 0.9375 -6.375 L 0.9375 -5.453125 L 0.203125 -5.453125 L 0.203125 -4.75 L 0.9375 -4.75 L 0.9375 0 L 1.796875 0 L 1.796875 -4.75 L 2.703125 -4.75 Z M 5.5 -5.453125 L 4.59375 -5.453125 L 4.59375 -6.3125 C 4.59375 -6.671875 4.796875 -6.859375 5.203125 -6.859375 C 5.28125 -6.859375 5.3125 -6.859375 5.5 -6.84375 L 5.5 -7.5625 C 5.3125 -7.609375 5.1875 -7.625 5.015625 -7.625 C 4.21875 -7.625 3.734375 -7.15625 3.734375 -6.375 L 3.734375 -5.453125 L 3 -5.453125 L 3 -4.75 L 3.734375 -4.75 L 3.734375 0 L 4.59375 0 L 4.59375 -4.75 L 5.5 -4.75 Z M 5.5 -5.453125 "/>
</g>
<g id="glyph-0-21">
<path d="M 4.203125 -5.453125 L 4.203125 -4.65625 C 3.765625 -5.3125 3.28125 -5.609375 2.609375 -5.609375 C 1.28125 -5.609375 0.359375 -4.375 0.359375 -2.625 C 0.359375 -1.71875 0.578125 -1.046875 1.046875 -0.5 C 1.453125 -0.015625 1.984375 0.234375 2.546875 0.234375 C 3.1875 0.234375 3.65625 -0.046875 4.125 -0.734375 L 4.125 -0.453125 C 4.125 1 3.71875 1.546875 2.625 1.546875 C 1.890625 1.546875 1.515625 1.25 1.421875 0.625 L 0.546875 0.625 C 0.625 1.640625 1.421875 2.265625 2.609375 2.265625 C 3.40625 2.265625 4.078125 2.015625 4.4375 1.578125 C 4.84375 1.0625 5 0.390625 5 -0.890625 L 5 -5.453125 Z M 2.6875 -4.8125 C 3.59375 -4.8125 4.125 -4.03125 4.125 -2.65625 C 4.125 -1.328125 3.59375 -0.5625 2.6875 -0.5625 C 1.796875 -0.5625 1.265625 -1.34375 1.265625 -2.6875 C 1.265625 -4.015625 1.796875 -4.8125 2.6875 -4.8125 Z M 2.6875 -4.8125 "/>
</g>
<g id="glyph-0-22">
<path d="M 2.953125 -3.25 L 0.484375 -3.25 L 0.484375 -2.5 L 2.953125 -2.5 Z M 2.953125 -3.25 "/>
</g>
<g id="glyph-0-23">
<path d="M 5.265625 -0.90625 L 1.390625 -0.90625 C 1.484375 -1.53125 1.8125 -1.921875 2.71875 -2.484375 L 3.75 -3.0625 C 4.78125 -3.625 5.3125 -4.40625 5.3125 -5.328125 C 5.3125 -5.953125 5.0625 -6.53125 4.625 -6.9375 C 4.1875 -7.34375 3.65625 -7.53125 2.953125 -7.53125 C 2.015625 -7.53125 1.328125 -7.1875 0.921875 -6.546875 C 0.65625 -6.15625 0.546875 -5.6875 0.515625 -4.921875 L 1.4375 -4.921875 C 1.46875 -5.4375 1.53125 -5.734375 1.65625 -5.984375 C 1.890625 -6.4375 2.375 -6.71875 2.921875 -6.71875 C 3.75 -6.71875 4.375 -6.125 4.375 -5.3125 C 4.375 -4.703125 4.03125 -4.1875 3.375 -3.8125 L 2.421875 -3.25 C 0.890625 -2.359375 0.4375 -1.65625 0.359375 -0.015625 L 5.265625 -0.015625 Z M 5.265625 -0.90625 "/>
</g>
<g id="glyph-0-24">
<path d="M 1.984375 -1.078125 L 0.90625 -1.078125 L 0.90625 0 L 1.984375 0 Z M 1.984375 -1.078125 "/>
</g>
<g id="glyph-0-25">
<path d="M 4.953125 -7.375 L 1.140625 -7.375 L 0.59375 -3.359375 L 1.4375 -3.359375 C 1.859375 -3.875 2.21875 -4.046875 2.796875 -4.046875 C 3.78125 -4.046875 4.40625 -3.375 4.40625 -2.28125 C 4.40625 -1.21875 3.78125 -0.578125 2.78125 -0.578125 C 1.984375 -0.578125 1.5 -0.984375 1.28125 -1.8125 L 0.359375 -1.8125 C 0.484375 -1.203125 0.59375 -0.921875 0.8125 -0.640625 C 1.234375 -0.078125 1.984375 0.234375 2.8125 0.234375 C 4.296875 0.234375 5.34375 -0.84375 5.34375 -2.40625 C 5.34375 -3.859375 4.375 -4.859375 2.953125 -4.859375 C 2.4375 -4.859375 2.015625 -4.71875 1.59375 -4.40625 L 1.890625 -6.46875 L 4.953125 -6.46875 Z M 4.953125 -7.375 "/>
</g>
<g id="glyph-0-26">
<path d="M 2.859375 -7.53125 C 2.171875 -7.53125 1.546875 -7.21875 1.171875 -6.703125 C 0.6875 -6.03125 0.453125 -5.03125 0.453125 -3.640625 C 0.453125 -1.109375 1.28125 0.234375 2.859375 0.234375 C 4.421875 0.234375 5.28125 -1.109375 5.28125 -3.578125 C 5.28125 -5.03125 5.046875 -6.015625 4.5625 -6.703125 C 4.171875 -7.21875 3.5625 -7.53125 2.859375 -7.53125 Z M 2.859375 -6.71875 C 3.84375 -6.71875 4.34375 -5.703125 4.34375 -3.65625 C 4.34375 -1.515625 3.859375 -0.515625 2.84375 -0.515625 C 1.875 -0.515625 1.390625 -1.5625 1.390625 -3.625 C 1.390625 -5.703125 1.875 -6.71875 2.859375 -6.71875 Z M 2.859375 -6.71875 "/>
</g>
<g id="glyph-0-27">
<path d="M 5.40625 -7.375 L 0.484375 -7.375 L 0.484375 -6.46875 L 4.46875 -6.46875 C 2.703125 -3.96875 1.984375 -2.421875 1.4375 0 L 2.421875 0 C 2.8125 -2.359375 3.75 -4.390625 5.40625 -6.609375 Z M 5.40625 -7.375 "/>
</g>
<g id="glyph-0-28">
<path d="M 1.921875 -3.21875 L 4.296875 -3.21875 C 4.890625 -3.21875 5.359375 -3.390625 5.765625 -3.75 C 6.21875 -4.171875 6.421875 -4.65625 6.421875 -5.359375 C 6.421875 -6.78125 5.578125 -7.59375 4.078125 -7.59375 L 0.953125 -7.59375 L 0.953125 0 L 1.921875 0 Z M 1.921875 -4.0625 L 1.921875 -6.734375 L 3.9375 -6.734375 C 4.859375 -6.734375 5.40625 -6.234375 5.40625 -5.40625 C 5.40625 -4.5625 4.859375 -4.0625 3.9375 -4.0625 Z M 1.921875 -4.0625 "/>
</g>
<g id="glyph-0-29">
</g>
<g id="glyph-0-30">
<path d="M 3.03125 -2.8125 L 4.875 -5.453125 L 3.890625 -5.453125 L 2.578125 -3.46875 L 1.265625 -5.453125 L 0.28125 -5.453125 L 2.109375 -2.78125 L 0.171875 0 L 1.171875 0 L 2.546875 -2.09375 L 3.90625 0 L 4.921875 0 Z M 3.03125 -2.8125 "/>
</g>
<g id="glyph-0-31">
<path d="M 7.75 0 L 9.671875 -7.59375 L 8.578125 -7.59375 L 7.1875 -1.421875 L 5.46875 -7.59375 L 4.421875 -7.59375 L 2.734375 -1.421875 L 1.3125 -7.59375 L 0.234375 -7.59375 L 2.171875 0 L 3.234375 0 L 4.9375 -6.234375 L 6.6875 0 Z M 7.75 0 "/>
</g>
<g id="glyph-0-32">
<path d="M 3.6875 -6.734375 L 6.171875 -6.734375 L 6.171875 -7.59375 L 0.21875 -7.59375 L 0.21875 -6.734375 L 2.71875 -6.734375 L 2.71875 0 L 3.6875 0 Z M 3.6875 -6.734375 "/>
</g>
<g id="glyph-0-33">
<path d="M 0.734375 -5.453125 L 0.734375 0.796875 C 0.734375 1.328125 0.5625 1.515625 0.015625 1.515625 C -0.046875 1.515625 -0.078125 1.515625 -0.1875 1.5 L -0.1875 2.234375 C -0.078125 2.265625 -0.03125 2.265625 0.109375 2.265625 C 1.078125 2.265625 1.59375 1.890625 1.59375 1.140625 L 1.59375 -5.453125 Z M 1.59375 -7.59375 L 0.734375 -7.59375 L 0.734375 -6.5 L 1.59375 -6.5 Z M 1.59375 -7.59375 "/>
</g>
<g id="glyph-0-34">
<path d="M 2.625 -5.453125 L 1.71875 -5.453125 L 1.71875 -6.3125 C 1.71875 -6.671875 1.921875 -6.859375 2.328125 -6.859375 C 2.390625 -6.859375 2.421875 -6.859375 2.625 -6.84375 L 2.625 -7.5625 C 2.421875 -7.609375 2.3125 -7.625 2.140625 -7.625 C 1.328125 -7.625 0.859375 -7.15625 0.859375 -6.375 L 0.859375 -5.453125 L 0.125 -5.453125 L 0.125 -4.75 L 0.859375 -4.75 L 0.859375 0 L 1.71875 0 L 1.71875 -4.75 L 2.625 -4.75 Z M 4.53125 -5.453125 L 3.671875 -5.453125 L 3.671875 0 L 4.53125 0 Z M 4.53125 -7.59375 L 3.671875 -7.59375 L 3.671875 -6.5 L 4.53125 -6.5 Z M 4.53125 -7.59375 "/>
</g>
<g id="glyph-1-0">
<path d="M 2.25 -9.484375 L 1.046875 -9.484375 L 1.046875 0 L 6.921875 0 L 6.921875 -1.0625 L 2.25 -1.0625 Z M 2.25 -9.484375 "/>
</g>
<g id="glyph-1-1">
<path d="M 3.53125 -7 C 1.609375 -7 0.46875 -5.640625 0.46875 -3.359375 C 0.46875 -1.046875 1.609375 0.296875 3.546875 0.296875 C 5.46875 0.296875 6.625 -1.0625 6.625 -3.296875 C 6.625 -5.671875 5.515625 -7 3.53125 -7 Z M 3.546875 -6 C 4.765625 -6 5.5 -5 5.5 -3.3125 C 5.5 -1.703125 4.75 -0.703125 3.546875 -0.703125 C 2.34375 -0.703125 1.59375 -1.703125 1.59375 -3.359375 C 1.59375 -5 2.34375 -6 3.546875 -6 Z M 3.546875 -6 "/>
</g>
<g id="glyph-1-2">
<path d="M 5.25 -6.8125 L 5.25 -5.828125 C 4.703125 -6.640625 4.109375 -7 3.25 -7 C 1.59375 -7 0.453125 -5.46875 0.453125 -3.28125 C 0.453125 -2.140625 0.734375 -1.3125 1.3125 -0.625 C 1.8125 -0.03125 2.46875 0.296875 3.171875 0.296875 C 3.984375 0.296875 4.578125 -0.0625 5.140625 -0.921875 L 5.140625 -0.578125 C 5.140625 1.25 4.640625 1.921875 3.28125 1.921875 C 2.359375 1.921875 1.890625 1.5625 1.78125 0.78125 L 0.671875 0.78125 C 0.78125 2.046875 1.78125 2.828125 3.265625 2.828125 C 4.265625 2.828125 5.09375 2.515625 5.53125 1.96875 C 6.0625 1.328125 6.25 0.484375 6.25 -1.125 L 6.25 -6.8125 Z M 3.359375 -6 C 4.5 -6 5.140625 -5.046875 5.140625 -3.3125 C 5.140625 -1.65625 4.484375 -0.703125 3.359375 -0.703125 C 2.234375 -0.703125 1.59375 -1.671875 1.59375 -3.359375 C 1.59375 -5.015625 2.234375 -6 3.359375 -6 Z M 3.359375 -6 "/>
</g>
<g id="glyph-1-3">
<path d="M 3.6875 -4.0625 L 0.59375 -4.0625 L 0.59375 -3.125 L 3.6875 -3.125 Z M 3.6875 -4.0625 "/>
</g>
<g id="glyph-1-4">
<path d="M 6.4375 -9.484375 L 5.359375 -9.484375 L 5.359375 -5.953125 C 4.90625 -6.640625 4.171875 -7 3.265625 -7 C 1.5 -7 0.34375 -5.59375 0.34375 -3.421875 C 0.34375 -1.125 1.453125 0.296875 3.296875 0.296875 C 4.234375 0.296875 4.890625 -0.046875 5.46875 -0.890625 L 5.46875 0 L 6.4375 0 Z M 3.4375 -6 C 4.609375 -6 5.359375 -4.96875 5.359375 -3.328125 C 5.359375 -1.75 4.609375 -0.71875 3.453125 -0.71875 C 2.265625 -0.71875 1.46875 -1.765625 1.46875 -3.359375 C 1.46875 -4.9375 2.265625 -6 3.4375 -6 Z M 3.4375 -6 "/>
</g>
<g id="glyph-1-5">
<path d="M 5.6875 -4.90625 C 5.6875 -6.25 4.796875 -7 3.21875 -7 C 1.640625 -7 0.609375 -6.1875 0.609375 -4.921875 C 0.609375 -3.859375 1.15625 -3.359375 2.765625 -2.96875 L 3.78125 -2.71875 C 4.53125 -2.53125 4.84375 -2.265625 4.84375 -1.78125 C 4.84375 -1.125 4.203125 -0.703125 3.25 -0.703125 C 2.671875 -0.703125 2.171875 -0.875 1.890625 -1.15625 C 1.734375 -1.359375 1.65625 -1.546875 1.59375 -2.03125 L 0.4375 -2.03125 C 0.5 -0.453125 1.375 0.296875 3.15625 0.296875 C 4.875 0.296875 5.96875 -0.546875 5.96875 -1.859375 C 5.96875 -2.875 5.390625 -3.4375 4.046875 -3.75 L 3 -4 C 2.125 -4.21875 1.734375 -4.5 1.734375 -4.984375 C 1.734375 -5.609375 2.296875 -6 3.1875 -6 C 4.0625 -6 4.53125 -5.625 4.546875 -4.90625 Z M 5.6875 -4.90625 "/>
</g>
<g id="glyph-1-6">
</g>
<g id="glyph-1-7">
<path d="M 0.890625 -6.8125 L 0.890625 0 L 1.984375 0 L 1.984375 -3.53125 C 2 -5.171875 2.671875 -5.90625 4.171875 -5.859375 L 4.171875 -6.96875 C 3.984375 -7 3.890625 -7 3.75 -7 C 3.0625 -7 2.515625 -6.59375 1.890625 -5.578125 L 1.890625 -6.8125 Z M 0.890625 -6.8125 "/>
</g>
<g id="glyph-1-8">
<path d="M 6.953125 -0.640625 C 6.84375 -0.609375 6.78125 -0.609375 6.71875 -0.609375 C 6.34375 -0.609375 6.140625 -0.8125 6.140625 -1.140625 L 6.140625 -5.140625 C 6.140625 -6.359375 5.25 -7 3.578125 -7 C 2.578125 -7 1.78125 -6.71875 1.3125 -6.21875 C 1 -5.859375 0.875 -5.46875 0.84375 -4.796875 L 1.9375 -4.796875 C 2.03125 -5.625 2.515625 -6 3.53125 -6 C 4.53125 -6 5.0625 -5.640625 5.0625 -4.984375 L 5.0625 -4.703125 C 5.046875 -4.234375 4.8125 -4.0625 3.921875 -3.953125 C 2.390625 -3.75 2.15625 -3.703125 1.734375 -3.53125 C 0.953125 -3.203125 0.546875 -2.59375 0.546875 -1.71875 C 0.546875 -0.484375 1.40625 0.296875 2.78125 0.296875 C 3.640625 0.296875 4.328125 0 5.09375 -0.703125 C 5.171875 0 5.515625 0.296875 6.21875 0.296875 C 6.453125 0.296875 6.59375 0.265625 6.953125 0.1875 Z M 5.0625 -2.140625 C 5.0625 -1.78125 4.953125 -1.5625 4.625 -1.265625 C 4.1875 -0.859375 3.65625 -0.65625 3.015625 -0.65625 C 2.171875 -0.65625 1.671875 -1.046875 1.671875 -1.734375 C 1.671875 -2.453125 2.140625 -2.828125 3.3125 -2.984375 C 4.46875 -3.140625 4.6875 -3.203125 5.0625 -3.359375 Z M 5.0625 -2.140625 "/>
</g>
<g id="glyph-1-9">
<path d="M 3.296875 -6.8125 L 2.1875 -6.8125 L 2.1875 -8.6875 L 1.109375 -8.6875 L 1.109375 -6.8125 L 0.1875 -6.8125 L 0.1875 -5.921875 L 1.109375 -5.921875 L 1.109375 -0.78125 C 1.109375 -0.078125 1.578125 0.296875 2.421875 0.296875 C 2.703125 0.296875 2.9375 0.265625 3.296875 0.203125 L 3.296875 -0.703125 C 3.140625 -0.65625 3 -0.65625 2.78125 -0.65625 C 2.3125 -0.65625 2.1875 -0.78125 2.1875 -1.265625 L 2.1875 -5.921875 L 3.296875 -5.921875 Z M 3.296875 -6.8125 "/>
</g>
<g id="glyph-1-10">
<path d="M 1.953125 -6.8125 L 0.875 -6.8125 L 0.875 0 L 1.953125 0 Z M 1.953125 -9.484375 L 0.859375 -9.484375 L 0.859375 -8.109375 L 1.953125 -8.109375 Z M 1.953125 -9.484375 "/>
</g>
<g id="glyph-1-11">
<path d="M 3.0625 -9.484375 C 1.765625 -7.78125 0.953125 -5.40625 0.953125 -3.359375 C 0.953125 -1.3125 1.765625 1.046875 3.0625 2.75 L 3.78125 2.75 C 2.640625 0.890625 2 -1.28125 2 -3.359375 C 2 -5.4375 2.640625 -7.625 3.78125 -9.484375 Z M 3.0625 -9.484375 "/>
</g>
<g id="glyph-1-12">
<path d="M 2.375 -4.3125 L 7.546875 -4.3125 L 7.546875 -5.375 L 2.375 -5.375 L 2.375 -8.40625 L 7.734375 -8.40625 L 7.734375 -9.484375 L 1.171875 -9.484375 L 1.171875 0 L 7.96875 0 L 7.96875 -1.0625 L 2.375 -1.0625 Z M 2.375 -4.3125 "/>
</g>
<g id="glyph-1-13">
<path d="M 6.125 -4.53125 C 6.078125 -5.1875 5.921875 -5.609375 5.671875 -6 C 5.203125 -6.625 4.375 -7 3.4375 -7 C 1.59375 -7 0.40625 -5.546875 0.40625 -3.28125 C 0.40625 -1.09375 1.578125 0.296875 3.421875 0.296875 C 5.046875 0.296875 6.078125 -0.671875 6.203125 -2.34375 L 5.109375 -2.34375 C 4.921875 -1.25 4.375 -0.703125 3.4375 -0.703125 C 2.25 -0.703125 1.53125 -1.671875 1.53125 -3.28125 C 1.53125 -4.984375 2.234375 -6 3.421875 -6 C 4.328125 -6 4.90625 -5.46875 5.03125 -4.53125 Z M 6.125 -4.53125 "/>
</g>
<g id="glyph-1-14">
<path d="M 1.96875 -9.484375 L 0.890625 -9.484375 L 0.890625 0 L 1.96875 0 Z M 1.96875 -9.484375 "/>
</g>
<g id="glyph-1-15">
<path d="M 0.703125 -9.484375 L 0.703125 0 L 1.671875 0 L 1.671875 -0.875 C 2.203125 -0.078125 2.890625 0.296875 3.828125 0.296875 C 5.625 0.296875 6.796875 -1.171875 6.796875 -3.4375 C 6.796875 -5.640625 5.6875 -7 3.890625 -7 C 2.953125 -7 2.28125 -6.65625 1.78125 -5.890625 L 1.78125 -9.484375 Z M 3.671875 -6 C 4.890625 -6 5.671875 -4.9375 5.671875 -3.3125 C 5.671875 -1.765625 4.859375 -0.71875 3.671875 -0.71875 C 2.515625 -0.71875 1.78125 -1.75 1.78125 -3.359375 C 1.78125 -4.953125 2.515625 -6 3.671875 -6 Z M 3.671875 -6 "/>
</g>
<g id="glyph-1-16">
<path d="M 6.671875 -3.046875 C 6.671875 -4.078125 6.59375 -4.703125 6.390625 -5.21875 C 5.953125 -6.328125 4.90625 -7 3.640625 -7 C 1.734375 -7 0.515625 -5.5625 0.515625 -3.3125 C 0.515625 -1.0625 1.6875 0.296875 3.609375 0.296875 C 5.171875 0.296875 6.25 -0.578125 6.53125 -2.0625 L 5.4375 -2.0625 C 5.140625 -1.171875 4.53125 -0.703125 3.65625 -0.703125 C 2.96875 -0.703125 2.375 -1.015625 2.015625 -1.59375 C 1.75 -1.96875 1.65625 -2.359375 1.65625 -3.046875 Z M 1.671875 -3.921875 C 1.765625 -5.1875 2.53125 -6 3.625 -6 C 4.734375 -6 5.5 -5.140625 5.5 -3.921875 Z M 1.671875 -3.921875 "/>
</g>
<g id="glyph-1-17">
<path d="M 3.703125 0 L 6.3125 -6.8125 L 5.09375 -6.8125 L 3.171875 -1.28125 L 1.359375 -6.8125 L 0.125 -6.8125 L 2.515625 0 Z M 3.703125 0 "/>
</g>
<g id="glyph-1-18">
<path d="M 2.484375 -1.359375 L 1.125 -1.359375 L 1.125 0 L 2.484375 0 Z M 2.484375 -1.359375 "/>
</g>
<g id="glyph-1-19">
<path d="M 8.609375 -6.53125 C 8.234375 -8.625 7.03125 -9.640625 4.953125 -9.640625 C 3.671875 -9.640625 2.65625 -9.234375 1.953125 -8.453125 C 1.09375 -7.515625 0.625 -6.15625 0.625 -4.625 C 0.625 -3.0625 1.109375 -1.734375 1.984375 -0.8125 C 2.734375 -0.046875 3.671875 0.296875 4.90625 0.296875 C 7.21875 0.296875 8.515625 -0.953125 8.796875 -3.453125 L 7.546875 -3.453125 C 7.453125 -2.8125 7.3125 -2.359375 7.125 -1.984375 C 6.734375 -1.203125 5.921875 -0.765625 4.90625 -0.765625 C 3.03125 -0.765625 1.828125 -2.28125 1.828125 -4.640625 C 1.828125 -7.078125 2.96875 -8.5625 4.8125 -8.5625 C 5.578125 -8.5625 6.296875 -8.34375 6.6875 -7.96875 C 7.03125 -7.640625 7.234375 -7.25 7.375 -6.53125 Z M 8.609375 -6.53125 "/>
</g>
<g id="glyph-1-20">
<path d="M 0.90625 -6.8125 L 0.90625 0 L 2 0 L 2 -3.75 C 2 -5.140625 2.734375 -6.0625 3.84375 -6.0625 C 4.703125 -6.0625 5.25 -5.53125 5.25 -4.71875 L 5.25 0 L 6.328125 0 L 6.328125 -5.140625 C 6.328125 -6.28125 5.484375 -7 4.171875 -7 C 3.15625 -7 2.515625 -6.609375 1.90625 -5.671875 L 1.90625 -6.8125 Z M 0.90625 -6.8125 "/>
</g>
<g id="glyph-1-21">
<path d="M 1.203125 2.75 C 2.515625 1.046875 3.328125 -1.3125 3.328125 -3.359375 C 3.328125 -5.40625 2.515625 -7.78125 1.203125 -9.484375 L 0.5 -9.484375 C 1.640625 -7.625 2.28125 -5.4375 2.28125 -3.359375 C 2.28125 -1.28125 1.640625 0.90625 0.5 2.75 Z M 1.203125 2.75 "/>
</g>
<g id="glyph-1-22">
<path d="M 2.390625 -4.015625 L 5.375 -4.015625 C 6.109375 -4.015625 6.6875 -4.234375 7.203125 -4.6875 C 7.78125 -5.21875 8.015625 -5.828125 8.015625 -6.6875 C 8.015625 -8.46875 6.96875 -9.484375 5.09375 -9.484375 L 1.1875 -9.484375 L 1.1875 0 L 2.390625 0 Z M 2.390625 -5.078125 L 2.390625 -8.40625 L 4.90625 -8.40625 C 6.078125 -8.40625 6.765625 -7.78125 6.765625 -6.75 C 6.765625 -5.703125 6.078125 -5.078125 4.90625 -5.078125 Z M 2.390625 -5.078125 "/>
</g>
<g id="glyph-1-23">
<path d="M 6.9375 -4.59375 L 0.65625 -4.59375 L 0.65625 -3.671875 L 6.9375 -3.671875 Z M 6.9375 -2.359375 L 0.65625 -2.359375 L 0.65625 -1.4375 L 6.9375 -1.4375 Z M 6.9375 -2.359375 "/>
</g>
<g id="glyph-1-24">
<path d="M 0.703125 2.828125 L 1.796875 2.828125 L 1.796875 -0.71875 C 2.359375 -0.015625 3 0.296875 3.890625 0.296875 C 5.65625 0.296875 6.796875 -1.125 6.796875 -3.28125 C 6.796875 -5.578125 5.6875 -7 3.875 -7 C 2.953125 -7 2.203125 -6.59375 1.703125 -5.78125 L 1.703125 -6.8125 L 0.703125 -6.8125 Z M 3.6875 -6 C 4.890625 -6 5.671875 -4.9375 5.671875 -3.3125 C 5.671875 -1.765625 4.875 -0.71875 3.6875 -0.71875 C 2.53125 -0.71875 1.796875 -1.75 1.796875 -3.359375 C 1.796875 -4.953125 2.53125 -6 3.6875 -6 Z M 3.6875 -6 "/>
</g>
<g id="glyph-1-25">
<path d="M 0.90625 -6.8125 L 0.90625 0 L 2 0 L 2 -4.28125 C 2 -5.265625 2.71875 -6.0625 3.59375 -6.0625 C 4.40625 -6.0625 4.859375 -5.5625 4.859375 -4.6875 L 4.859375 0 L 5.953125 0 L 5.953125 -4.28125 C 5.953125 -5.265625 6.671875 -6.0625 7.546875 -6.0625 C 8.34375 -6.0625 8.8125 -5.546875 8.8125 -4.6875 L 8.8125 0 L 9.90625 0 L 9.90625 -5.109375 C 9.90625 -6.328125 9.203125 -7 7.9375 -7 C 7.015625 -7 6.46875 -6.734375 5.84375 -5.96875 C 5.4375 -6.6875 4.890625 -7 4 -7 C 3.09375 -7 2.484375 -6.671875 1.90625 -5.84375 L 1.90625 -6.8125 Z M 0.90625 -6.8125 "/>
</g>
<g id="glyph-2-0">
<path d="M 8.59375 -5.171875 L 8.59375 0 L 10.046875 0 L 10.046875 -11.375 L 8.59375 -11.375 L 8.59375 -6.453125 L 2.75 -6.453125 L 2.75 -11.375 L 1.296875 -11.375 L 1.296875 0 L 2.75 0 L 2.75 -5.171875 Z M 8.59375 -5.171875 "/>
</g>
<g id="glyph-2-1">
<path d="M 4.234375 -8.40625 C 1.9375 -8.40625 0.5625 -6.765625 0.5625 -4.015625 C 0.5625 -1.265625 1.9375 0.359375 4.25 0.359375 C 6.5625 0.359375 7.953125 -1.28125 7.953125 -3.953125 C 7.953125 -6.796875 6.609375 -8.40625 4.234375 -8.40625 Z M 4.25 -7.203125 C 5.71875 -7.203125 6.59375 -6 6.59375 -3.96875 C 6.59375 -2.046875 5.6875 -0.84375 4.25 -0.84375 C 2.8125 -0.84375 1.921875 -2.046875 1.921875 -4.015625 C 1.921875 -6 2.8125 -7.203125 4.25 -7.203125 Z M 4.25 -7.203125 "/>
</g>
<g id="glyph-2-2">
<path d="M 8.640625 0 L 11.046875 -8.171875 L 9.578125 -8.171875 L 7.953125 -1.8125 L 6.34375 -8.171875 L 4.75 -8.171875 L 3.203125 -1.8125 L 1.53125 -8.171875 L 0.09375 -8.171875 L 2.46875 0 L 3.921875 0 L 5.5 -6.40625 L 7.15625 0 Z M 8.640625 0 "/>
</g>
<g id="glyph-2-3">
</g>
<g id="glyph-2-4">
<path d="M 3.953125 -8.171875 L 2.625 -8.171875 L 2.625 -10.421875 L 1.328125 -10.421875 L 1.328125 -8.171875 L 0.21875 -8.171875 L 0.21875 -7.109375 L 1.328125 -7.109375 L 1.328125 -0.9375 C 1.328125 -0.09375 1.890625 0.359375 2.90625 0.359375 C 3.25 0.359375 3.53125 0.328125 3.953125 0.25 L 3.953125 -0.84375 C 3.78125 -0.796875 3.609375 -0.78125 3.34375 -0.78125 C 2.78125 -0.78125 2.625 -0.9375 2.625 -1.515625 L 2.625 -7.109375 L 3.953125 -7.109375 Z M 3.953125 -8.171875 "/>
</g>
<g id="glyph-2-5">
<path d="M 1.09375 -11.375 L 1.09375 0 L 2.390625 0 L 2.390625 -4.5 C 2.390625 -6.171875 3.265625 -7.265625 4.59375 -7.265625 C 5.03125 -7.265625 5.4375 -7.140625 5.75 -6.90625 C 6.125 -6.625 6.28125 -6.234375 6.28125 -5.65625 L 6.28125 0 L 7.578125 0 L 7.578125 -6.171875 C 7.578125 -7.546875 6.59375 -8.40625 5 -8.40625 C 3.859375 -8.40625 3.15625 -8.046875 2.390625 -7.046875 L 2.390625 -11.375 Z M 1.09375 -11.375 "/>
</g>
<g id="glyph-2-6">
<path d="M 8 -3.65625 C 8 -4.890625 7.90625 -5.640625 7.671875 -6.25 C 7.140625 -7.59375 5.890625 -8.40625 4.359375 -8.40625 C 2.09375 -8.40625 0.625 -6.671875 0.625 -3.96875 C 0.625 -1.28125 2.03125 0.359375 4.328125 0.359375 C 6.203125 0.359375 7.5 -0.703125 7.828125 -2.484375 L 6.515625 -2.484375 C 6.15625 -1.40625 5.421875 -0.84375 4.375 -0.84375 C 3.5625 -0.84375 2.859375 -1.21875 2.421875 -1.90625 C 2.109375 -2.375 2 -2.84375 1.984375 -3.65625 Z M 2.015625 -4.703125 C 2.125 -6.21875 3.046875 -7.203125 4.34375 -7.203125 C 5.671875 -7.203125 6.59375 -6.171875 6.59375 -4.703125 Z M 2.015625 -4.703125 "/>
</g>
<g id="glyph-2-7">
<path d="M 2.859375 -5.171875 L 9.046875 -5.171875 L 9.046875 -6.453125 L 2.859375 -6.453125 L 2.859375 -10.09375 L 9.28125 -10.09375 L 9.28125 -11.375 L 1.40625 -11.375 L 1.40625 0 L 9.5625 0 L 9.5625 -1.28125 L 2.859375 -1.28125 Z M 2.859375 -5.171875 "/>
</g>
<g id="glyph-2-8">
<path d="M 7.34375 -5.421875 C 7.28125 -6.21875 7.109375 -6.734375 6.796875 -7.1875 C 6.234375 -7.953125 5.25 -8.40625 4.109375 -8.40625 C 1.90625 -8.40625 0.484375 -6.65625 0.484375 -3.9375 C 0.484375 -1.3125 1.890625 0.359375 4.09375 0.359375 C 6.046875 0.359375 7.28125 -0.8125 7.4375 -2.8125 L 6.125 -2.8125 C 5.90625 -1.5 5.234375 -0.84375 4.125 -0.84375 C 2.703125 -0.84375 1.84375 -2.015625 1.84375 -3.9375 C 1.84375 -5.984375 2.6875 -7.203125 4.09375 -7.203125 C 5.1875 -7.203125 5.875 -6.5625 6.03125 -5.421875 Z M 7.34375 -5.421875 "/>
</g>
<g id="glyph-2-9">
<path d="M 4.421875 -4.859375 L 0.71875 -4.859375 L 0.71875 -3.75 L 4.421875 -3.75 Z M 4.421875 -4.859375 "/>
</g>
<g id="glyph-2-10">
<path d="M 2.703125 -11.375 L 1.25 -11.375 L 1.25 0 L 8.3125 0 L 8.3125 -1.28125 L 2.703125 -1.28125 Z M 2.703125 -11.375 "/>
</g>
<g id="glyph-2-11">
<path d="M 8.34375 -0.765625 C 8.203125 -0.734375 8.140625 -0.734375 8.0625 -0.734375 C 7.609375 -0.734375 7.359375 -0.96875 7.359375 -1.375 L 7.359375 -6.171875 C 7.359375 -7.625 6.296875 -8.40625 4.28125 -8.40625 C 3.09375 -8.40625 2.140625 -8.0625 1.578125 -7.453125 C 1.203125 -7.03125 1.046875 -6.5625 1.015625 -5.75 L 2.328125 -5.75 C 2.4375 -6.75 3.03125 -7.203125 4.234375 -7.203125 C 5.421875 -7.203125 6.0625 -6.765625 6.0625 -5.984375 L 6.0625 -5.640625 C 6.046875 -5.078125 5.765625 -4.875 4.703125 -4.734375 C 2.875 -4.5 2.59375 -4.4375 2.09375 -4.234375 C 1.140625 -3.84375 0.65625 -3.125 0.65625 -2.0625 C 0.65625 -0.578125 1.6875 0.359375 3.34375 0.359375 C 4.359375 0.359375 5.1875 0 6.109375 -0.84375 C 6.203125 0 6.609375 0.359375 7.453125 0.359375 C 7.734375 0.359375 7.90625 0.328125 8.34375 0.21875 Z M 6.0625 -2.578125 C 6.0625 -2.140625 5.9375 -1.875 5.546875 -1.515625 C 5.015625 -1.03125 4.375 -0.78125 3.625 -0.78125 C 2.609375 -0.78125 2.015625 -1.265625 2.015625 -2.09375 C 2.015625 -2.953125 2.578125 -3.390625 3.96875 -3.59375 C 5.359375 -3.78125 5.625 -3.84375 6.0625 -4.03125 Z M 6.0625 -2.578125 "/>
</g>
<g id="glyph-2-12">
<path d="M 0.84375 -11.375 L 0.84375 0 L 2.015625 0 L 2.015625 -1.046875 C 2.640625 -0.09375 3.46875 0.359375 4.59375 0.359375 C 6.75 0.359375 8.15625 -1.40625 8.15625 -4.109375 C 8.15625 -6.765625 6.828125 -8.40625 4.65625 -8.40625 C 3.546875 -8.40625 2.75 -7.984375 2.140625 -7.0625 L 2.140625 -11.375 Z M 4.40625 -7.1875 C 5.859375 -7.1875 6.796875 -5.921875 6.796875 -3.96875 C 6.796875 -2.125 5.828125 -0.859375 4.40625 -0.859375 C 3.03125 -0.859375 2.140625 -2.109375 2.140625 -4.015625 C 2.140625 -5.9375 3.03125 -7.1875 4.40625 -7.1875 Z M 4.40625 -7.1875 "/>
</g>
<g id="glyph-2-13">
<path d="M 2.375 -11.375 L 1.0625 -11.375 L 1.0625 0 L 2.375 0 Z M 2.375 -11.375 "/>
</g>
<g id="glyph-2-14">
<path d="M 9.296875 -8.03125 C 9.296875 -8.8125 9.25 -9.03125 9 -9.5625 C 8.375 -10.875 7.046875 -11.5625 5.125 -11.5625 C 2.640625 -11.5625 1.09375 -10.28125 1.09375 -8.21875 C 1.09375 -6.828125 1.828125 -5.953125 3.328125 -5.5625 L 6.140625 -4.8125 C 7.59375 -4.4375 8.234375 -3.875 8.234375 -2.984375 C 8.234375 -2.375 7.90625 -1.75 7.421875 -1.40625 C 6.96875 -1.078125 6.25 -0.921875 5.328125 -0.921875 C 4.078125 -0.921875 3.265625 -1.21875 2.71875 -1.875 C 2.296875 -2.375 2.109375 -2.921875 2.125 -3.625 L 0.75 -3.625 C 0.765625 -2.578125 0.96875 -1.890625 1.421875 -1.265625 C 2.203125 -0.1875 3.515625 0.359375 5.234375 0.359375 C 6.59375 0.359375 7.703125 0.046875 8.4375 -0.515625 C 9.203125 -1.125 9.6875 -2.140625 9.6875 -3.125 C 9.6875 -4.515625 8.8125 -5.546875 7.265625 -5.96875 L 4.40625 -6.734375 C 3.046875 -7.109375 2.546875 -7.546875 2.546875 -8.421875 C 2.546875 -9.578125 3.5625 -10.34375 5.078125 -10.34375 C 6.890625 -10.34375 7.90625 -9.53125 7.921875 -8.03125 Z M 9.296875 -8.03125 "/>
</g>
<g id="glyph-2-15">
<path d="M 2.34375 -8.171875 L 1.046875 -8.171875 L 1.046875 0 L 2.34375 0 Z M 2.34375 -11.375 L 1.03125 -11.375 L 1.03125 -9.734375 L 2.34375 -9.734375 Z M 2.34375 -11.375 "/>
</g>
<g id="glyph-2-16">
<path d="M 4.015625 -8.171875 L 2.671875 -8.171875 L 2.671875 -9.453125 C 2.671875 -10 2.96875 -10.28125 3.578125 -10.28125 C 3.6875 -10.28125 3.734375 -10.28125 4.015625 -10.265625 L 4.015625 -11.34375 C 3.734375 -11.40625 3.5625 -11.421875 3.296875 -11.421875 C 2.09375 -11.421875 1.375 -10.734375 1.375 -9.5625 L 1.375 -8.171875 L 0.28125 -8.171875 L 0.28125 -7.109375 L 1.375 -7.109375 L 1.375 0 L 2.671875 0 L 2.671875 -7.109375 L 4.015625 -7.109375 Z M 4.015625 -8.171875 "/>
</g>
<g id="glyph-2-17">
<path d="M 6.828125 -5.890625 C 6.8125 -7.5 5.75 -8.40625 3.875 -8.40625 C 1.96875 -8.40625 0.734375 -7.421875 0.734375 -5.90625 C 0.734375 -4.625 1.390625 -4.015625 3.328125 -3.5625 L 4.53125 -3.265625 C 5.4375 -3.046875 5.796875 -2.71875 5.796875 -2.140625 C 5.796875 -1.359375 5.03125 -0.84375 3.90625 -0.84375 C 3.203125 -0.84375 2.609375 -1.046875 2.28125 -1.390625 C 2.078125 -1.625 1.984375 -1.859375 1.90625 -2.4375 L 0.53125 -2.4375 C 0.59375 -0.546875 1.65625 0.359375 3.796875 0.359375 C 5.84375 0.359375 7.15625 -0.65625 7.15625 -2.234375 C 7.15625 -3.453125 6.46875 -4.109375 4.84375 -4.5 L 3.609375 -4.796875 C 2.546875 -5.046875 2.09375 -5.390625 2.09375 -5.96875 C 2.09375 -6.734375 2.765625 -7.203125 3.828125 -7.203125 C 4.859375 -7.203125 5.421875 -6.75 5.453125 -5.890625 Z M 6.828125 -5.890625 "/>
</g>
<g id="glyph-2-18">
<path d="M 10.328125 -7.84375 C 9.875 -10.34375 8.4375 -11.5625 5.9375 -11.5625 C 4.40625 -11.5625 3.1875 -11.078125 2.34375 -10.140625 C 1.3125 -9.015625 0.75 -7.390625 0.75 -5.546875 C 0.75 -3.6875 1.328125 -2.078125 2.390625 -0.96875 C 3.28125 -0.0625 4.390625 0.359375 5.875 0.359375 C 8.65625 0.359375 10.21875 -1.140625 10.5625 -4.140625 L 9.0625 -4.140625 C 8.9375 -3.375 8.78125 -2.84375 8.546875 -2.390625 C 8.078125 -1.453125 7.109375 -0.921875 5.890625 -0.921875 C 3.640625 -0.921875 2.203125 -2.734375 2.203125 -5.5625 C 2.203125 -8.484375 3.5625 -10.28125 5.765625 -10.28125 C 6.6875 -10.28125 7.546875 -10.015625 8.015625 -9.5625 C 8.4375 -9.171875 8.671875 -8.703125 8.84375 -7.84375 Z M 10.328125 -7.84375 "/>
</g>
<g id="glyph-2-19">
<path d="M 1.09375 -8.171875 L 1.09375 0 L 2.40625 0 L 2.40625 -4.5 C 2.40625 -6.171875 3.28125 -7.265625 4.609375 -7.265625 C 5.640625 -7.265625 6.296875 -6.640625 6.296875 -5.65625 L 6.296875 0 L 7.59375 0 L 7.59375 -6.171875 C 7.59375 -7.53125 6.578125 -8.40625 5 -8.40625 C 3.796875 -8.40625 3.015625 -7.9375 2.296875 -6.796875 L 2.296875 -8.171875 Z M 1.09375 -8.171875 "/>
</g>
<g id="glyph-2-20">
<path d="M 0.84375 3.40625 L 2.15625 3.40625 L 2.15625 -0.859375 C 2.84375 -0.015625 3.609375 0.359375 4.65625 0.359375 C 6.78125 0.359375 8.15625 -1.34375 8.15625 -3.9375 C 8.15625 -6.6875 6.8125 -8.40625 4.640625 -8.40625 C 3.546875 -8.40625 2.65625 -7.90625 2.046875 -6.9375 L 2.046875 -8.171875 L 0.84375 -8.171875 Z M 4.421875 -7.1875 C 5.859375 -7.1875 6.796875 -5.921875 6.796875 -3.96875 C 6.796875 -2.125 5.84375 -0.859375 4.421875 -0.859375 C 3.046875 -0.859375 2.15625 -2.109375 2.15625 -4.015625 C 2.15625 -5.9375 3.046875 -7.1875 4.421875 -7.1875 Z M 4.421875 -7.1875 "/>
</g>
<g id="glyph-2-21">
<path d="M 2.875 -4.8125 L 6.4375 -4.8125 C 7.328125 -4.8125 8.03125 -5.078125 8.640625 -5.625 C 9.328125 -6.25 9.625 -6.984375 9.625 -8.03125 C 9.625 -10.171875 8.359375 -11.375 6.109375 -11.375 L 1.421875 -11.375 L 1.421875 0 L 2.875 0 Z M 2.875 -6.09375 L 2.875 -10.09375 L 5.890625 -10.09375 C 7.28125 -10.09375 8.109375 -9.34375 8.109375 -8.09375 C 8.109375 -6.84375 7.28125 -6.09375 5.890625 -6.09375 Z M 2.875 -6.09375 "/>
</g>
<g id="glyph-2-22">
<path d="M 2.90625 -4.890625 L 6.640625 -4.890625 C 7.9375 -4.890625 8.515625 -4.265625 8.515625 -2.875 L 8.5 -1.859375 C 8.5 -1.15625 8.625 -0.46875 8.828125 0 L 10.59375 0 L 10.59375 -0.359375 C 10.046875 -0.734375 9.9375 -1.140625 9.90625 -2.65625 C 9.890625 -4.515625 9.59375 -5.078125 8.359375 -5.609375 C 9.640625 -6.25 10.15625 -7.015625 10.15625 -8.328125 C 10.15625 -10.296875 8.9375 -11.375 6.6875 -11.375 L 1.453125 -11.375 L 1.453125 0 L 2.90625 0 Z M 2.90625 -6.171875 L 2.90625 -10.09375 L 6.40625 -10.09375 C 7.21875 -10.09375 7.6875 -9.96875 8.046875 -9.65625 C 8.4375 -9.328125 8.640625 -8.8125 8.640625 -8.140625 C 8.640625 -6.78125 7.953125 -6.171875 6.40625 -6.171875 Z M 2.90625 -6.171875 "/>
</g>
<g id="glyph-2-23">
<path d="M 2.859375 -5.171875 L 8.28125 -5.171875 L 8.28125 -6.453125 L 2.859375 -6.453125 L 2.859375 -10.09375 L 9.03125 -10.09375 L 9.03125 -11.375 L 1.40625 -11.375 L 1.40625 0 L 2.859375 0 Z M 2.859375 -5.171875 "/>
</g>
<g id="glyph-2-24">
<path d="M 1.078125 -8.171875 L 1.078125 0 L 2.390625 0 L 2.390625 -4.234375 C 2.40625 -6.203125 3.21875 -7.078125 5 -7.03125 L 5 -8.359375 C 4.78125 -8.390625 4.65625 -8.40625 4.5 -8.40625 C 3.671875 -8.40625 3.03125 -7.90625 2.28125 -6.6875 L 2.28125 -8.171875 Z M 1.078125 -8.171875 "/>
</g>
</g>
<clipPath id="clip-0">
<path clip-rule="nonzero" d="M 102 91.609375 L 104 91.609375 L 104 356.457031 L 102 356.457031 Z M 102 91.609375 "/>
</clipPath>
<clipPath id="clip-1">
<path clip-rule="nonzero" d="M 250 91.609375 L 252 91.609375 L 252 356.457031 L 250 356.457031 Z M 250 91.609375 "/>
</clipPath>
<clipPath id="clip-2">
<path clip-rule="nonzero" d="M 398 91.609375 L 400 91.609375 L 400 356.457031 L 398 356.457031 Z M 398 91.609375 "/>
</clipPath>
<clipPath id="clip-3">
<path clip-rule="nonzero" d="M 546 91.609375 L 548 91.609375 L 548 356.457031 L 546 356.457031 Z M 546 91.609375 "/>
</clipPath>
<clipPath id="clip-4">
<path clip-rule="nonzero" d="M 694 91.609375 L 696 91.609375 L 696 356.457031 L 694 356.457031 Z M 694 91.609375 "/>
</clipPath>
<clipPath id="clip-5">
<path clip-rule="nonzero" d="M 250 91.609375 L 252 91.609375 L 252 356.457031 L 250 356.457031 Z M 250 91.609375 "/>
</clipPath>
</defs>
<rect x="-72" y="-39.6" width="864" height="475.2" fill="rgb(100%, 100%, 100%)" fill-opacity="1"/>
<rect x="-72" y="-39.6" width="864" height="475.2" fill="rgb(100%, 100%, 100%)" fill-opacity="1"/>
<g clip-path="url(#clip-0)">
<path fill="none" stroke-width="1.260974" stroke-linecap="butt" stroke-linejoin="round" stroke="rgb(92.156863%, 92.156863%, 92.156863%)" stroke-opacity="1" stroke-miterlimit="10" d="M 102.945312 356.457031 L 102.945312 91.609375 "/>
</g>
<g clip-path="url(#clip-1)">
<path fill="none" stroke-width="1.260974" stroke-linecap="butt" stroke-linejoin="round" stroke="rgb(92.156863%, 92.156863%, 92.156863%)" stroke-opacity="1" stroke-miterlimit="10" d="M 251.007812 356.457031 L 251.007812 91.609375 "/>
</g>
<g clip-path="url(#clip-2)">
<path fill="none" stroke-width="1.260974" stroke-linecap="butt" stroke-linejoin="round" stroke="rgb(92.156863%, 92.156863%, 92.156863%)" stroke-opacity="1" stroke-miterlimit="10" d="M 399.066406 356.457031 L 399.066406 91.609375 "/>
</g>
<g clip-path="url(#clip-3)">
<path fill="none" stroke-width="1.260974" stroke-linecap="butt" stroke-linejoin="round" stroke="rgb(92.156863%, 92.156863%, 92.156863%)" stroke-opacity="1" stroke-miterlimit="10" d="M 547.125 356.457031 L 547.125 91.609375 "/>
</g>
<g clip-path="url(#clip-4)">
<path fill="none" stroke-width="1.260974" stroke-linecap="butt" stroke-linejoin="round" stroke="rgb(92.156863%, 92.156863%, 92.156863%)" stroke-opacity="1" stroke-miterlimit="10" d="M 695.1875 356.457031 L 695.1875 91.609375 "/>
</g>
<path fill-rule="nonzero" fill="rgb(29.019608%, 56.470588%, 85.098039%)" fill-opacity="0.85098" d="M 251.007812 115.628906 L 684.878906 115.628906 L 684.878906 107.839844 L 251.007812 107.839844 Z M 251.007812 115.628906 "/>
<path fill-rule="nonzero" fill="rgb(29.019608%, 56.470588%, 85.098039%)" fill-opacity="0.85098" d="M 111.949219 349.316406 L 251.003906 349.316406 L 251.003906 341.527344 L 111.949219 341.527344 Z M 111.949219 349.316406 "/>
<path fill-rule="nonzero" fill="rgb(29.019608%, 56.470588%, 85.098039%)" fill-opacity="0.85098" d="M 219.964844 323.351562 L 251.003906 323.351562 L 251.003906 315.5625 L 219.964844 315.5625 Z M 219.964844 323.351562 "/>
<path fill-rule="nonzero" fill="rgb(29.019608%, 56.470588%, 85.098039%)" fill-opacity="0.85098" d="M 251.007812 245.457031 L 418.671875 245.457031 L 418.671875 237.667969 L 251.007812 237.667969 Z M 251.007812 245.457031 "/>
<path fill-rule="nonzero" fill="rgb(29.019608%, 56.470588%, 85.098039%)" fill-opacity="0.85098" d="M 251.007812 167.558594 L 454.734375 167.558594 L 454.734375 159.769531 L 251.007812 159.769531 Z M 251.007812 167.558594 "/>
<path fill-rule="nonzero" fill="rgb(29.019608%, 56.470588%, 85.098039%)" fill-opacity="0.85098" d="M 251.007812 141.59375 L 470.703125 141.59375 L 470.703125 133.804688 L 251.007812 133.804688 Z M 251.007812 141.59375 "/>
<path fill-rule="nonzero" fill="rgb(29.019608%, 56.470588%, 85.098039%)" fill-opacity="0.85098" d="M 251.007812 193.523438 L 448.589844 193.523438 L 448.589844 185.734375 L 251.007812 185.734375 Z M 251.007812 193.523438 "/>
<path fill-rule="nonzero" fill="rgb(29.019608%, 56.470588%, 85.098039%)" fill-opacity="0.85098" d="M 251.007812 219.488281 L 427.203125 219.488281 L 427.203125 211.699219 L 251.007812 211.699219 Z M 251.007812 219.488281 "/>
<path fill-rule="nonzero" fill="rgb(17.647059%, 41.568627%, 30.980392%)" fill-opacity="0.85098" d="M 251.007812 106.539062 L 519.410156 106.539062 L 519.410156 98.75 L 251.007812 98.75 Z M 251.007812 106.539062 "/>
<path fill-rule="nonzero" fill="rgb(17.647059%, 41.568627%, 30.980392%)" fill-opacity="0.85098" d="M 181.453125 340.230469 L 251.003906 340.230469 L 251.003906 332.441406 L 181.453125 332.441406 Z M 181.453125 340.230469 "/>
<path fill-rule="nonzero" fill="rgb(17.647059%, 41.568627%, 30.980392%)" fill-opacity="0.85098" d="M 251.007812 314.265625 L 287.878906 314.265625 L 287.878906 306.476562 L 251.007812 306.476562 Z M 251.007812 314.265625 "/>
<path fill-rule="nonzero" fill="rgb(17.647059%, 41.568627%, 30.980392%)" fill-opacity="0.85098" d="M 251.007812 236.367188 L 481.105469 236.367188 L 481.105469 228.578125 L 251.007812 228.578125 Z M 251.007812 236.367188 "/>
<path fill-rule="nonzero" fill="rgb(17.647059%, 41.568627%, 30.980392%)" fill-opacity="0.85098" d="M 251.007812 158.472656 L 434.929688 158.472656 L 434.929688 150.683594 L 251.007812 150.683594 Z M 251.007812 158.472656 "/>
<path fill-rule="nonzero" fill="rgb(17.647059%, 41.568627%, 30.980392%)" fill-opacity="0.85098" d="M 251.007812 210.402344 L 460.527344 210.402344 L 460.527344 202.613281 L 251.007812 202.613281 Z M 251.007812 210.402344 "/>
<path fill-rule="nonzero" fill="rgb(17.647059%, 41.568627%, 30.980392%)" fill-opacity="0.85098" d="M 199.359375 288.296875 L 251.007812 288.296875 L 251.007812 280.507812 L 199.359375 280.507812 Z M 199.359375 288.296875 "/>
<path fill-rule="nonzero" fill="rgb(17.647059%, 41.568627%, 30.980392%)" fill-opacity="0.85098" d="M 240.277344 262.332031 L 251.007812 262.332031 L 251.007812 254.542969 L 240.277344 254.542969 Z M 240.277344 262.332031 "/>
<g clip-path="url(#clip-5)">
<path fill="none" stroke-width="1.707165" stroke-linecap="butt" stroke-linejoin="round" stroke="rgb(30.196078%, 30.196078%, 30.196078%)" stroke-opacity="1" stroke-miterlimit="10" d="M 251.007812 356.457031 L 251.007812 91.609375 "/>
</g>
<g fill="rgb(30.196078%, 30.196078%, 30.196078%)" fill-opacity="1">
<use xlink:href="#glyph-0-0" x="18.476562" y="344.459961"/>
<use xlink:href="#glyph-0-1" x="24.476562" y="344.459961"/>
<use xlink:href="#glyph-0-2" x="30.476562" y="344.459961"/>
<use xlink:href="#glyph-0-3" x="36.476562" y="344.459961"/>
<use xlink:href="#glyph-0-4" x="38.476562" y="344.459961"/>
<use xlink:href="#glyph-0-5" x="40.476562" y="344.459961"/>
<use xlink:href="#glyph-0-6" x="43.476562" y="344.459961"/>
<use xlink:href="#glyph-0-7" x="48.476562" y="344.459961"/>
<use xlink:href="#glyph-0-5" x="54.476562" y="344.459961"/>
<use xlink:href="#glyph-0-2" x="57.476562" y="344.459961"/>
<use xlink:href="#glyph-0-8" x="63.476562" y="344.459961"/>
<use xlink:href="#glyph-0-5" x="68.476562" y="344.459961"/>
<use xlink:href="#glyph-0-9" x="71.476562" y="344.459961"/>
</g>
<g fill="rgb(30.196078%, 30.196078%, 30.196078%)" fill-opacity="1">
<use xlink:href="#glyph-0-10" x="30.476562" y="318.495117"/>
<use xlink:href="#glyph-0-11" x="36.476562" y="318.495117"/>
<use xlink:href="#glyph-0-4" x="39.476562" y="318.495117"/>
<use xlink:href="#glyph-0-12" x="41.476562" y="318.495117"/>
<use xlink:href="#glyph-0-9" x="46.476562" y="318.495117"/>
<use xlink:href="#glyph-0-7" x="52.476562" y="318.495117"/>
<use xlink:href="#glyph-0-12" x="58.476562" y="318.495117"/>
<use xlink:href="#glyph-0-13" x="63.476562" y="318.495117"/>
<use xlink:href="#glyph-0-8" x="69.476562" y="318.495117"/>
<use xlink:href="#glyph-0-5" x="74.476562" y="318.495117"/>
</g>
<g fill="rgb(30.196078%, 30.196078%, 30.196078%)" fill-opacity="1">
<use xlink:href="#glyph-0-14" x="40.476562" y="292.530273"/>
<use xlink:href="#glyph-0-9" x="46.476562" y="292.530273"/>
<use xlink:href="#glyph-0-15" x="52.476562" y="292.530273"/>
<use xlink:href="#glyph-0-13" x="58.476562" y="292.530273"/>
<use xlink:href="#glyph-0-16" x="64.476562" y="292.530273"/>
<use xlink:href="#glyph-0-4" x="70.476562" y="292.530273"/>
<use xlink:href="#glyph-0-12" x="72.476562" y="292.530273"/>
</g>
<g fill="rgb(30.196078%, 30.196078%, 30.196078%)" fill-opacity="1">
<use xlink:href="#glyph-0-14" x="16.476562" y="266.561523"/>
<use xlink:href="#glyph-0-2" x="22.476562" y="266.561523"/>
<use xlink:href="#glyph-0-17" x="28.476562" y="266.561523"/>
<use xlink:href="#glyph-0-4" x="34.476562" y="266.561523"/>
<use xlink:href="#glyph-0-5" x="36.476562" y="266.561523"/>
<use xlink:href="#glyph-0-7" x="39.476562" y="266.561523"/>
<use xlink:href="#glyph-0-11" x="45.476562" y="266.561523"/>
<use xlink:href="#glyph-0-13" x="48.476562" y="266.561523"/>
<use xlink:href="#glyph-0-1" x="54.476562" y="266.561523"/>
<use xlink:href="#glyph-0-5" x="60.476562" y="266.561523"/>
<use xlink:href="#glyph-0-4" x="63.476562" y="266.561523"/>
<use xlink:href="#glyph-0-16" x="65.476562" y="266.561523"/>
<use xlink:href="#glyph-0-9" x="71.476562" y="266.561523"/>
</g>
<g fill="rgb(30.196078%, 30.196078%, 30.196078%)" fill-opacity="1">
<use xlink:href="#glyph-0-8" x="15.476562" y="240.59668"/>
<use xlink:href="#glyph-0-13" x="20.476562" y="240.59668"/>
<use xlink:href="#glyph-0-12" x="26.476562" y="240.59668"/>
<use xlink:href="#glyph-0-4" x="31.476562" y="240.59668"/>
<use xlink:href="#glyph-0-2" x="33.476562" y="240.59668"/>
<use xlink:href="#glyph-0-3" x="39.476562" y="240.59668"/>
<use xlink:href="#glyph-0-7" x="41.476562" y="240.59668"/>
<use xlink:href="#glyph-0-18" x="47.476562" y="240.59668"/>
<use xlink:href="#glyph-0-2" x="52.476562" y="240.59668"/>
<use xlink:href="#glyph-0-3" x="58.476562" y="240.59668"/>
<use xlink:href="#glyph-0-1" x="60.476562" y="240.59668"/>
<use xlink:href="#glyph-0-9" x="66.476562" y="240.59668"/>
<use xlink:href="#glyph-0-8" x="72.476562" y="240.59668"/>
</g>
<g fill="rgb(30.196078%, 30.196078%, 30.196078%)" fill-opacity="1">
<use xlink:href="#glyph-0-15" x="6.476562" y="214.631836"/>
<use xlink:href="#glyph-0-9" x="12.476562" y="214.631836"/>
<use xlink:href="#glyph-0-19" x="18.476562" y="214.631836"/>
<use xlink:href="#glyph-0-2" x="27.476562" y="214.631836"/>
<use xlink:href="#glyph-0-16" x="33.476562" y="214.631836"/>
<use xlink:href="#glyph-0-15" x="39.476562" y="214.631836"/>
<use xlink:href="#glyph-0-7" x="45.476562" y="214.631836"/>
<use xlink:href="#glyph-0-9" x="51.476562" y="214.631836"/>
<use xlink:href="#glyph-0-20" x="57.476562" y="214.631836"/>
<use xlink:href="#glyph-0-9" x="63.476562" y="214.631836"/>
<use xlink:href="#glyph-0-12" x="69.476562" y="214.631836"/>
<use xlink:href="#glyph-0-5" x="74.476562" y="214.631836"/>
</g>
<g fill="rgb(30.196078%, 30.196078%, 30.196078%)" fill-opacity="1">
<use xlink:href="#glyph-0-21" x="26.476562" y="188.666992"/>
<use xlink:href="#glyph-0-1" x="32.476562" y="188.666992"/>
<use xlink:href="#glyph-0-4" x="38.476562" y="188.666992"/>
<use xlink:href="#glyph-0-3" x="40.476562" y="188.666992"/>
<use xlink:href="#glyph-0-5" x="42.476562" y="188.666992"/>
<use xlink:href="#glyph-0-7" x="45.476562" y="188.666992"/>
<use xlink:href="#glyph-0-13" x="51.476562" y="188.666992"/>
<use xlink:href="#glyph-0-20" x="57.476562" y="188.666992"/>
<use xlink:href="#glyph-0-8" x="63.476562" y="188.666992"/>
<use xlink:href="#glyph-0-9" x="68.476562" y="188.666992"/>
<use xlink:href="#glyph-0-5" x="74.476562" y="188.666992"/>
</g>
<g fill="rgb(30.196078%, 30.196078%, 30.196078%)" fill-opacity="1">
<use xlink:href="#glyph-0-14" x="10.476562" y="162.702148"/>
<use xlink:href="#glyph-0-9" x="16.476562" y="162.702148"/>
<use xlink:href="#glyph-0-2" x="22.476562" y="162.702148"/>
<use xlink:href="#glyph-0-3" x="28.476562" y="162.702148"/>
<use xlink:href="#glyph-0-5" x="30.476562" y="162.702148"/>
<use xlink:href="#glyph-0-14" x="33.476562" y="162.702148"/>
<use xlink:href="#glyph-0-7" x="39.476562" y="162.702148"/>
<use xlink:href="#glyph-0-16" x="45.476562" y="162.702148"/>
<use xlink:href="#glyph-0-2" x="51.476562" y="162.702148"/>
<use xlink:href="#glyph-0-5" x="57.476562" y="162.702148"/>
<use xlink:href="#glyph-0-1" x="60.476562" y="162.702148"/>
<use xlink:href="#glyph-0-11" x="66.476562" y="162.702148"/>
<use xlink:href="#glyph-0-2" x="69.476562" y="162.702148"/>
<use xlink:href="#glyph-0-3" x="75.476562" y="162.702148"/>
</g>
<g fill="rgb(30.196078%, 30.196078%, 30.196078%)" fill-opacity="1">
<use xlink:href="#glyph-0-5" x="33.476562" y="136.737305"/>
<use xlink:href="#glyph-0-11" x="36.476562" y="136.737305"/>
<use xlink:href="#glyph-0-1" x="39.476562" y="136.737305"/>
<use xlink:href="#glyph-0-8" x="45.476562" y="136.737305"/>
<use xlink:href="#glyph-0-5" x="50.476562" y="136.737305"/>
<use xlink:href="#glyph-0-7" x="53.476562" y="136.737305"/>
<use xlink:href="#glyph-0-12" x="59.476562" y="136.737305"/>
<use xlink:href="#glyph-0-9" x="64.476562" y="136.737305"/>
<use xlink:href="#glyph-0-11" x="70.476562" y="136.737305"/>
<use xlink:href="#glyph-0-5" x="74.476562" y="136.737305"/>
</g>
<g fill="rgb(30.196078%, 30.196078%, 30.196078%)" fill-opacity="1">
<use xlink:href="#glyph-0-8" x="18.476562" y="110.768555"/>
<use xlink:href="#glyph-0-1" x="23.476562" y="110.768555"/>
<use xlink:href="#glyph-0-8" x="29.476562" y="110.768555"/>
<use xlink:href="#glyph-0-5" x="34.476562" y="110.768555"/>
<use xlink:href="#glyph-0-2" x="37.476562" y="110.768555"/>
<use xlink:href="#glyph-0-4" x="43.476562" y="110.768555"/>
<use xlink:href="#glyph-0-16" x="45.476562" y="110.768555"/>
<use xlink:href="#glyph-0-2" x="51.476562" y="110.768555"/>
<use xlink:href="#glyph-0-17" x="57.476562" y="110.768555"/>
<use xlink:href="#glyph-0-4" x="63.476562" y="110.768555"/>
<use xlink:href="#glyph-0-3" x="65.476562" y="110.768555"/>
<use xlink:href="#glyph-0-4" x="67.476562" y="110.768555"/>
<use xlink:href="#glyph-0-5" x="69.476562" y="110.768555"/>
<use xlink:href="#glyph-0-6" x="72.476562" y="110.768555"/>
</g>
<g fill="rgb(30.196078%, 30.196078%, 30.196078%)" fill-opacity="1">
<use xlink:href="#glyph-0-22" x="93.945312" y="369.866211"/>
<use xlink:href="#glyph-0-23" x="96.945312" y="369.866211"/>
<use xlink:href="#glyph-0-24" x="102.945312" y="369.866211"/>
<use xlink:href="#glyph-0-25" x="105.945312" y="369.866211"/>
</g>
<g fill="rgb(30.196078%, 30.196078%, 30.196078%)" fill-opacity="1">
<use xlink:href="#glyph-0-26" x="243.507812" y="369.866211"/>
<use xlink:href="#glyph-0-24" x="249.507812" y="369.866211"/>
<use xlink:href="#glyph-0-26" x="252.507812" y="369.866211"/>
</g>
<g fill="rgb(30.196078%, 30.196078%, 30.196078%)" fill-opacity="1">
<use xlink:href="#glyph-0-23" x="391.566406" y="369.866211"/>
<use xlink:href="#glyph-0-24" x="397.566406" y="369.866211"/>
<use xlink:href="#glyph-0-25" x="400.566406" y="369.866211"/>
</g>
<g fill="rgb(30.196078%, 30.196078%, 30.196078%)" fill-opacity="1">
<use xlink:href="#glyph-0-25" x="539.625" y="369.866211"/>
<use xlink:href="#glyph-0-24" x="545.625" y="369.866211"/>
<use xlink:href="#glyph-0-26" x="548.625" y="369.866211"/>
</g>
<g fill="rgb(30.196078%, 30.196078%, 30.196078%)" fill-opacity="1">
<use xlink:href="#glyph-0-27" x="687.6875" y="369.866211"/>
<use xlink:href="#glyph-0-24" x="693.6875" y="369.866211"/>
<use xlink:href="#glyph-0-25" x="696.6875" y="369.866211"/>
</g>
<g fill="rgb(0%, 0%, 0%)" fill-opacity="1">
<use xlink:href="#glyph-1-0" x="292.414062" y="386"/>
<use xlink:href="#glyph-1-1" x="299.414062" y="386"/>
<use xlink:href="#glyph-1-2" x="306.414062" y="386"/>
<use xlink:href="#glyph-1-3" x="313.414062" y="386"/>
<use xlink:href="#glyph-1-1" x="317.414062" y="386"/>
<use xlink:href="#glyph-1-4" x="324.414062" y="386"/>
<use xlink:href="#glyph-1-4" x="331.414062" y="386"/>
<use xlink:href="#glyph-1-5" x="338.414062" y="386"/>
<use xlink:href="#glyph-1-6" x="345.414062" y="386"/>
<use xlink:href="#glyph-1-7" x="349.414062" y="386"/>
<use xlink:href="#glyph-1-8" x="353.414062" y="386"/>
<use xlink:href="#glyph-1-9" x="360.414062" y="386"/>
<use xlink:href="#glyph-1-10" x="364.414062" y="386"/>
<use xlink:href="#glyph-1-1" x="367.414062" y="386"/>
<use xlink:href="#glyph-1-6" x="374.414062" y="386"/>
<use xlink:href="#glyph-1-11" x="378.414062" y="386"/>
<use xlink:href="#glyph-1-12" x="382.414062" y="386"/>
<use xlink:href="#glyph-1-13" x="390.414062" y="386"/>
<use xlink:href="#glyph-1-1" x="397.414062" y="386"/>
<use xlink:href="#glyph-1-3" x="404.414062" y="386"/>
<use xlink:href="#glyph-1-14" x="408.414062" y="386"/>
<use xlink:href="#glyph-1-8" x="411.414062" y="386"/>
<use xlink:href="#glyph-1-15" x="418.414062" y="386"/>
<use xlink:href="#glyph-1-16" x="425.414062" y="386"/>
<use xlink:href="#glyph-1-14" x="432.414062" y="386"/>
<use xlink:href="#glyph-1-6" x="435.414062" y="386"/>
<use xlink:href="#glyph-1-17" x="439.414062" y="386"/>
<use xlink:href="#glyph-1-5" x="445.414062" y="386"/>
<use xlink:href="#glyph-1-18" x="451.414062" y="386"/>
<use xlink:href="#glyph-1-6" x="455.414062" y="386"/>
<use xlink:href="#glyph-1-19" x="459.414062" y="386"/>
<use xlink:href="#glyph-1-1" x="468.414062" y="386"/>
<use xlink:href="#glyph-1-20" x="475.414062" y="386"/>
<use xlink:href="#glyph-1-9" x="482.414062" y="386"/>
<use xlink:href="#glyph-1-7" x="486.414062" y="386"/>
<use xlink:href="#glyph-1-1" x="490.414062" y="386"/>
<use xlink:href="#glyph-1-14" x="497.414062" y="386"/>
<use xlink:href="#glyph-1-21" x="500.414062" y="386"/>
</g>
<path fill-rule="nonzero" fill="rgb(29.019608%, 56.470588%, 85.098039%)" fill-opacity="0.85098" d="M 270.757812 71.34375 L 286.363281 71.34375 L 286.363281 55.738281 L 270.757812 55.738281 Z M 270.757812 71.34375 "/>
<path fill-rule="nonzero" fill="rgb(17.647059%, 41.568627%, 30.980392%)" fill-opacity="0.85098" d="M 407.988281 71.34375 L 423.59375 71.34375 L 423.59375 55.738281 L 407.988281 55.738281 Z M 407.988281 71.34375 "/>
<g fill="rgb(0%, 0%, 0%)" fill-opacity="1">
<use xlink:href="#glyph-0-28" x="293.675781" y="67.124023"/>
<use xlink:href="#glyph-0-11" x="300.675781" y="67.124023"/>
<use xlink:href="#glyph-0-13" x="303.675781" y="67.124023"/>
<use xlink:href="#glyph-0-15" x="309.675781" y="67.124023"/>
<use xlink:href="#glyph-0-1" x="315.675781" y="67.124023"/>
<use xlink:href="#glyph-0-12" x="321.675781" y="67.124023"/>
<use xlink:href="#glyph-0-5" x="326.675781" y="67.124023"/>
<use xlink:href="#glyph-0-29" x="329.675781" y="67.124023"/>
<use xlink:href="#glyph-0-10" x="332.675781" y="67.124023"/>
<use xlink:href="#glyph-0-9" x="338.675781" y="67.124023"/>
<use xlink:href="#glyph-0-11" x="344.675781" y="67.124023"/>
<use xlink:href="#glyph-0-12" x="347.675781" y="67.124023"/>
<use xlink:href="#glyph-0-9" x="352.675781" y="67.124023"/>
<use xlink:href="#glyph-0-10" x="358.675781" y="67.124023"/>
<use xlink:href="#glyph-0-5" x="364.675781" y="67.124023"/>
<use xlink:href="#glyph-0-4" x="367.675781" y="67.124023"/>
<use xlink:href="#glyph-0-13" x="369.675781" y="67.124023"/>
<use xlink:href="#glyph-0-16" x="375.675781" y="67.124023"/>
<use xlink:href="#glyph-0-29" x="381.675781" y="67.124023"/>
<use xlink:href="#glyph-0-5" x="384.675781" y="67.124023"/>
<use xlink:href="#glyph-0-9" x="387.675781" y="67.124023"/>
<use xlink:href="#glyph-0-30" x="392.675781" y="67.124023"/>
<use xlink:href="#glyph-0-5" x="397.675781" y="67.124023"/>
</g>
<g fill="rgb(0%, 0%, 0%)" fill-opacity="1">
<use xlink:href="#glyph-0-31" x="430.90625" y="67.124023"/>
<use xlink:href="#glyph-0-32" x="440.90625" y="67.124023"/>
<use xlink:href="#glyph-0-28" x="446.90625" y="67.124023"/>
<use xlink:href="#glyph-0-29" x="453.90625" y="67.124023"/>
<use xlink:href="#glyph-0-33" x="456.90625" y="67.124023"/>
<use xlink:href="#glyph-0-1" x="458.90625" y="67.124023"/>
<use xlink:href="#glyph-0-8" x="464.90625" y="67.124023"/>
<use xlink:href="#glyph-0-5" x="469.90625" y="67.124023"/>
<use xlink:href="#glyph-0-4" x="472.90625" y="67.124023"/>
<use xlink:href="#glyph-0-34" x="474.90625" y="67.124023"/>
<use xlink:href="#glyph-0-12" x="479.90625" y="67.124023"/>
<use xlink:href="#glyph-0-2" x="484.90625" y="67.124023"/>
<use xlink:href="#glyph-0-5" x="490.90625" y="67.124023"/>
<use xlink:href="#glyph-0-4" x="493.90625" y="67.124023"/>
<use xlink:href="#glyph-0-13" x="495.90625" y="67.124023"/>
<use xlink:href="#glyph-0-16" x="501.90625" y="67.124023"/>
<use xlink:href="#glyph-0-29" x="507.90625" y="67.124023"/>
<use xlink:href="#glyph-0-5" x="510.90625" y="67.124023"/>
<use xlink:href="#glyph-0-9" x="513.90625" y="67.124023"/>
<use xlink:href="#glyph-0-30" x="518.90625" y="67.124023"/>
<use xlink:href="#glyph-0-5" x="523.90625" y="67.124023"/>
</g>
<g fill="rgb(0%, 0%, 0%)" fill-opacity="1">
<use xlink:href="#glyph-1-22" x="83.304688" y="38.429688"/>
<use xlink:href="#glyph-1-1" x="91.304688" y="38.429688"/>
<use xlink:href="#glyph-1-5" x="98.304688" y="38.429688"/>
<use xlink:href="#glyph-1-10" x="105.304688" y="38.429688"/>
<use xlink:href="#glyph-1-9" x="108.304688" y="38.429688"/>
<use xlink:href="#glyph-1-10" x="112.304688" y="38.429688"/>
<use xlink:href="#glyph-1-17" x="115.304688" y="38.429688"/>
<use xlink:href="#glyph-1-16" x="121.304688" y="38.429688"/>
<use xlink:href="#glyph-1-6" x="128.304688" y="38.429688"/>
<use xlink:href="#glyph-1-23" x="132.304688" y="38.429688"/>
<use xlink:href="#glyph-1-6" x="140.304688" y="38.429688"/>
<use xlink:href="#glyph-1-13" x="144.304688" y="38.429688"/>
<use xlink:href="#glyph-1-1" x="151.304688" y="38.429688"/>
<use xlink:href="#glyph-1-20" x="158.304688" y="38.429688"/>
<use xlink:href="#glyph-1-13" x="165.304688" y="38.429688"/>
<use xlink:href="#glyph-1-16" x="172.304688" y="38.429688"/>
<use xlink:href="#glyph-1-24" x="179.304688" y="38.429688"/>
<use xlink:href="#glyph-1-9" x="186.304688" y="38.429688"/>
<use xlink:href="#glyph-1-6" x="190.304688" y="38.429688"/>
<use xlink:href="#glyph-1-25" x="194.304688" y="38.429688"/>
<use xlink:href="#glyph-1-16" x="205.304688" y="38.429688"/>
<use xlink:href="#glyph-1-20" x="212.304688" y="38.429688"/>
<use xlink:href="#glyph-1-9" x="219.304688" y="38.429688"/>
<use xlink:href="#glyph-1-10" x="223.304688" y="38.429688"/>
<use xlink:href="#glyph-1-1" x="226.304688" y="38.429688"/>
<use xlink:href="#glyph-1-20" x="233.304688" y="38.429688"/>
<use xlink:href="#glyph-1-16" x="240.304688" y="38.429688"/>
<use xlink:href="#glyph-1-4" x="247.304688" y="38.429688"/>
<use xlink:href="#glyph-1-6" x="254.304688" y="38.429688"/>
<use xlink:href="#glyph-1-25" x="258.304688" y="38.429688"/>
<use xlink:href="#glyph-1-1" x="269.304688" y="38.429688"/>
<use xlink:href="#glyph-1-7" x="276.304688" y="38.429688"/>
<use xlink:href="#glyph-1-16" x="280.304688" y="38.429688"/>
<use xlink:href="#glyph-1-6" x="287.304688" y="38.429688"/>
<use xlink:href="#glyph-1-10" x="291.304688" y="38.429688"/>
<use xlink:href="#glyph-1-20" x="294.304688" y="38.429688"/>
<use xlink:href="#glyph-1-6" x="301.304688" y="38.429688"/>
<use xlink:href="#glyph-1-16" x="305.304688" y="38.429688"/>
<use xlink:href="#glyph-1-13" x="312.304688" y="38.429688"/>
<use xlink:href="#glyph-1-1" x="319.304688" y="38.429688"/>
<use xlink:href="#glyph-1-3" x="326.304688" y="38.429688"/>
<use xlink:href="#glyph-1-14" x="330.304688" y="38.429688"/>
<use xlink:href="#glyph-1-8" x="333.304688" y="38.429688"/>
<use xlink:href="#glyph-1-15" x="340.304688" y="38.429688"/>
<use xlink:href="#glyph-1-16" x="347.304688" y="38.429688"/>
<use xlink:href="#glyph-1-14" x="354.304688" y="38.429688"/>
<use xlink:href="#glyph-1-6" x="357.304688" y="38.429688"/>
<use xlink:href="#glyph-1-13" x="361.304688" y="38.429688"/>
<use xlink:href="#glyph-1-1" x="368.304688" y="38.429688"/>
<use xlink:href="#glyph-1-20" x="375.304688" y="38.429688"/>
<use xlink:href="#glyph-1-4" x="382.304688" y="38.429688"/>
<use xlink:href="#glyph-1-10" x="389.304688" y="38.429688"/>
<use xlink:href="#glyph-1-9" x="392.304688" y="38.429688"/>
<use xlink:href="#glyph-1-10" x="396.304688" y="38.429688"/>
<use xlink:href="#glyph-1-1" x="399.304688" y="38.429688"/>
<use xlink:href="#glyph-1-20" x="406.304688" y="38.429688"/>
</g>
<g fill="rgb(0%, 0%, 0%)" fill-opacity="1">
<use xlink:href="#glyph-2-0" x="83.304688" y="17.847656"/>
<use xlink:href="#glyph-2-1" x="94.304688" y="17.847656"/>
<use xlink:href="#glyph-2-2" x="102.304688" y="17.847656"/>
<use xlink:href="#glyph-2-3" x="113.304688" y="17.847656"/>
<use xlink:href="#glyph-2-4" x="117.304688" y="17.847656"/>
<use xlink:href="#glyph-2-5" x="121.304688" y="17.847656"/>
<use xlink:href="#glyph-2-6" x="130.304688" y="17.847656"/>
<use xlink:href="#glyph-2-3" x="139.304688" y="17.847656"/>
<use xlink:href="#glyph-2-7" x="143.304688" y="17.847656"/>
<use xlink:href="#glyph-2-8" x="153.304688" y="17.847656"/>
<use xlink:href="#glyph-2-1" x="161.304688" y="17.847656"/>
<use xlink:href="#glyph-2-9" x="170.304688" y="17.847656"/>
<use xlink:href="#glyph-2-10" x="175.304688" y="17.847656"/>
<use xlink:href="#glyph-2-11" x="184.304688" y="17.847656"/>
<use xlink:href="#glyph-2-12" x="193.304688" y="17.847656"/>
<use xlink:href="#glyph-2-6" x="202.304688" y="17.847656"/>
<use xlink:href="#glyph-2-13" x="211.304688" y="17.847656"/>
<use xlink:href="#glyph-2-3" x="214.304688" y="17.847656"/>
<use xlink:href="#glyph-2-14" x="218.304688" y="17.847656"/>
<use xlink:href="#glyph-2-5" x="228.304688" y="17.847656"/>
<use xlink:href="#glyph-2-15" x="237.304688" y="17.847656"/>
<use xlink:href="#glyph-2-16" x="240.304688" y="17.847656"/>
<use xlink:href="#glyph-2-4" x="245.304688" y="17.847656"/>
<use xlink:href="#glyph-2-17" x="249.304688" y="17.847656"/>
<use xlink:href="#glyph-2-3" x="257.304688" y="17.847656"/>
<use xlink:href="#glyph-2-4" x="261.304688" y="17.847656"/>
<use xlink:href="#glyph-2-5" x="265.304688" y="17.847656"/>
<use xlink:href="#glyph-2-6" x="274.304688" y="17.847656"/>
<use xlink:href="#glyph-2-3" x="283.304688" y="17.847656"/>
<use xlink:href="#glyph-2-18" x="287.304688" y="17.847656"/>
<use xlink:href="#glyph-2-1" x="298.304688" y="17.847656"/>
<use xlink:href="#glyph-2-19" x="307.304688" y="17.847656"/>
<use xlink:href="#glyph-2-8" x="316.304688" y="17.847656"/>
<use xlink:href="#glyph-2-6" x="324.304688" y="17.847656"/>
<use xlink:href="#glyph-2-20" x="333.304688" y="17.847656"/>
<use xlink:href="#glyph-2-4" x="342.304688" y="17.847656"/>
<use xlink:href="#glyph-2-17" x="346.304688" y="17.847656"/>
<use xlink:href="#glyph-2-3" x="354.304688" y="17.847656"/>
<use xlink:href="#glyph-2-21" x="358.304688" y="17.847656"/>
<use xlink:href="#glyph-2-6" x="368.304688" y="17.847656"/>
<use xlink:href="#glyph-2-1" x="377.304688" y="17.847656"/>
<use xlink:href="#glyph-2-20" x="386.304688" y="17.847656"/>
<use xlink:href="#glyph-2-13" x="395.304688" y="17.847656"/>
<use xlink:href="#glyph-2-6" x="398.304688" y="17.847656"/>
<use xlink:href="#glyph-2-3" x="407.304688" y="17.847656"/>
<use xlink:href="#glyph-2-22" x="411.304688" y="17.847656"/>
<use xlink:href="#glyph-2-6" x="422.304688" y="17.847656"/>
<use xlink:href="#glyph-2-11" x="431.304688" y="17.847656"/>
<use xlink:href="#glyph-2-8" x="440.304688" y="17.847656"/>
<use xlink:href="#glyph-2-5" x="448.304688" y="17.847656"/>
<use xlink:href="#glyph-2-3" x="457.304688" y="17.847656"/>
<use xlink:href="#glyph-2-23" x="461.304688" y="17.847656"/>
<use xlink:href="#glyph-2-1" x="470.304688" y="17.847656"/>
<use xlink:href="#glyph-2-24" x="479.304688" y="17.847656"/>
</g>
</svg>
