<?xml version="1.0" encoding="UTF-8"?>
<svg xmlns="http://www.w3.org/2000/svg" xmlns:xlink="http://www.w3.org/1999/xlink" width="648" height="324" viewBox="0 0 648 324">
<defs>
<g>
<g id="glyph-0-0">
<path d="M 6.546875 -4.625 C 6.5 -5.234375 6.375 -5.609375 6.078125 -6 C 5.53125 -6.71875 4.671875 -7.109375 3.625 -7.109375 C 1.65625 -7.109375 0.421875 -5.703125 0.421875 -3.4375 C 0.421875 -1.1875 1.640625 0.21875 3.59375 0.21875 C 5.328125 0.21875 6.484375 -0.78125 6.578125 -2.390625 L 5.171875 -2.390625 C 5.078125 -1.5 4.515625 -0.984375 3.625 -0.984375 C 2.515625 -0.984375 1.859375 -1.890625 1.859375 -3.421875 C 1.859375 -4.953125 2.546875 -5.875 3.671875 -5.875 C 4.515625 -5.875 4.984375 -5.484375 5.171875 -4.625 Z M 6.546875 -4.625 "/>
</g>
<g id="glyph-0-1">
<path d="M 1.984375 -7 L 0.640625 -7 L 0.640625 0 L 1.984375 0 Z M 1.984375 -7 "/>
</g>
<g id="glyph-0-2">
<path d="M 5.03125 -2.171875 C 5.03125 -2.28125 5.03125 -2.328125 5.03125 -2.390625 C 5.03125 -2.921875 4.953125 -3.390625 4.828125 -3.765625 C 4.484375 -4.703125 3.65625 -5.265625 2.609375 -5.265625 C 1.125 -5.265625 0.21875 -4.1875 0.21875 -2.453125 C 0.21875 -0.796875 1.109375 0.21875 2.578125 0.21875 C 3.734375 0.21875 4.6875 -0.4375 4.984375 -1.453125 L 3.65625 -1.453125 C 3.484375 -1.046875 3.125 -0.8125 2.625 -0.8125 C 2.25 -0.8125 1.9375 -0.96875 1.75 -1.25 C 1.625 -1.453125 1.578125 -1.671875 1.546875 -2.171875 Z M 1.578125 -3.0625 C 1.65625 -3.859375 2 -4.234375 2.59375 -4.234375 C 3.203125 -4.234375 3.5625 -3.828125 3.640625 -3.0625 Z M 1.578125 -3.0625 "/>
</g>
<g id="glyph-0-3">
<path d="M 5.03125 -0.15625 C 4.796875 -0.390625 4.71875 -0.53125 4.71875 -0.796875 L 4.71875 -3.671875 C 4.71875 -4.734375 4 -5.265625 2.59375 -5.265625 C 1.203125 -5.265625 0.46875 -4.671875 0.390625 -3.46875 L 1.671875 -3.46875 C 1.75 -4.015625 1.96875 -4.1875 2.625 -4.1875 C 3.140625 -4.1875 3.40625 -4.015625 3.40625 -3.671875 C 3.40625 -3.484375 3.3125 -3.34375 3.171875 -3.265625 C 3 -3.171875 3 -3.171875 2.328125 -3.0625 L 1.796875 -2.96875 C 0.765625 -2.796875 0.265625 -2.265625 0.265625 -1.328125 C 0.265625 -0.40625 0.890625 0.21875 1.84375 0.21875 C 2.421875 0.21875 2.9375 -0.015625 3.421875 -0.515625 C 3.421875 -0.25 3.4375 -0.15625 3.5625 0 L 5.03125 0 Z M 3.40625 -2.078125 C 3.40625 -1.3125 3.015625 -0.859375 2.34375 -0.859375 C 1.890625 -0.859375 1.609375 -1.109375 1.609375 -1.484375 C 1.609375 -1.890625 1.828125 -2.078125 2.375 -2.203125 L 2.84375 -2.28125 C 3.1875 -2.34375 3.25 -2.375 3.40625 -2.453125 Z M 3.40625 -2.078125 "/>
</g>
<g id="glyph-0-4">
<path d="M 0.609375 -5.1875 L 0.609375 0 L 1.953125 0 L 1.953125 -3.109375 C 1.953125 -3.71875 2.375 -4.125 3.03125 -4.125 C 3.609375 -4.125 3.890625 -3.8125 3.890625 -3.1875 L 3.890625 0 L 5.234375 0 L 5.234375 -3.46875 C 5.234375 -4.625 4.609375 -5.265625 3.5 -5.265625 C 2.796875 -5.265625 2.328125 -5.015625 1.953125 -4.4375 L 1.953125 -5.1875 Z M 0.609375 -5.1875 "/>
</g>
<g id="glyph-0-5">
</g>
<g id="glyph-0-6">
<path d="M 1.953125 -7 C 0.84375 -5.328125 0.390625 -4.015625 0.390625 -2.546875 C 0.390625 -1.0625 0.84375 0.25 1.953125 1.921875 L 2.90625 1.921875 C 1.875 -0.0625 1.5625 -1.125 1.5625 -2.546875 C 1.5625 -3.953125 1.890625 -5.03125 2.90625 -7 Z M 1.953125 -7 "/>
</g>
<g id="glyph-0-7">
<path d="M 2.890625 -5.265625 C 1.3125 -5.265625 0.328125 -4.21875 0.328125 -2.515625 C 0.328125 -0.8125 1.3125 0.21875 2.890625 0.21875 C 4.484375 0.21875 5.453125 -0.8125 5.453125 -2.484375 C 5.453125 -4.234375 4.515625 -5.265625 2.890625 -5.265625 Z M 2.890625 -4.1875 C 3.640625 -4.1875 4.109375 -3.515625 4.109375 -2.5 C 4.109375 -1.53125 3.609375 -0.859375 2.890625 -0.859375 C 2.171875 -0.859375 1.671875 -1.53125 1.671875 -2.515625 C 1.671875 -3.515625 2.171875 -4.1875 2.890625 -4.1875 Z M 2.890625 -4.1875 "/>
</g>
<g id="glyph-0-8">
<path d="M 5.1875 0 L 5.1875 -5.1875 L 3.84375 -5.1875 L 3.84375 -1.9375 C 3.84375 -1.328125 3.421875 -0.921875 2.765625 -0.921875 C 2.1875 -0.921875 1.90625 -1.234375 1.90625 -1.859375 L 1.90625 -5.1875 L 0.5625 -5.1875 L 0.5625 -1.578125 C 0.5625 -0.421875 1.1875 0.21875 2.296875 0.21875 C 3 0.21875 3.46875 -0.03125 3.84375 -0.609375 L 3.84375 0 Z M 5.1875 0 "/>
</g>
<g id="glyph-0-9">
<path d="M 2.890625 -5.078125 L 2.140625 -5.078125 L 2.140625 -6.46875 L 0.796875 -6.46875 L 0.796875 -5.078125 L 0.140625 -5.078125 L 0.140625 -4.1875 L 0.796875 -4.1875 L 0.796875 -1 C 0.796875 -0.1875 1.234375 0.21875 2.109375 0.21875 C 2.421875 0.21875 2.640625 0.1875 2.890625 0.109375 L 2.890625 -0.828125 C 2.75 -0.8125 2.6875 -0.796875 2.578125 -0.796875 C 2.21875 -0.796875 2.140625 -0.90625 2.140625 -1.359375 L 2.140625 -4.1875 L 2.890625 -4.1875 Z M 2.890625 -5.078125 "/>
</g>
<g id="glyph-0-10">
<path d="M 1.984375 -5.1875 L 0.640625 -5.1875 L 0.640625 0 L 1.984375 0 Z M 1.984375 -7 L 0.640625 -7 L 0.640625 -5.796875 L 1.984375 -5.796875 Z M 1.984375 -7 "/>
</g>
<g id="glyph-0-11">
<path d="M 0.609375 -5.1875 L 0.609375 0 L 1.953125 0 L 1.953125 -2.75 C 1.953125 -3.546875 2.34375 -3.9375 3.125 -3.9375 C 3.265625 -3.9375 3.375 -3.921875 3.546875 -3.890625 L 3.546875 -5.25 C 3.46875 -5.265625 3.4375 -5.265625 3.390625 -5.265625 C 2.765625 -5.265625 2.25 -4.859375 1.953125 -4.15625 L 1.953125 -5.1875 Z M 0.609375 -5.1875 "/>
</g>
<g id="glyph-0-12">
<path d="M 4.84375 -3.515625 C 4.828125 -4.609375 3.984375 -5.265625 2.59375 -5.265625 C 1.28125 -5.265625 0.453125 -4.609375 0.453125 -3.546875 C 0.453125 -3.1875 0.5625 -2.890625 0.75 -2.703125 C 0.9375 -2.515625 1.09375 -2.421875 1.59375 -2.265625 L 3.1875 -1.765625 C 3.53125 -1.65625 3.640625 -1.546875 3.640625 -1.34375 C 3.640625 -1.03125 3.265625 -0.828125 2.640625 -0.828125 C 2.296875 -0.828125 2.03125 -0.890625 1.859375 -1.015625 C 1.703125 -1.125 1.65625 -1.234375 1.59375 -1.5 L 0.28125 -1.5 C 0.3125 -0.359375 1.15625 0.21875 2.71875 0.21875 C 3.4375 0.21875 3.984375 0.0625 4.375 -0.234375 C 4.765625 -0.546875 4.984375 -1.03125 4.984375 -1.53125 C 4.984375 -2.203125 4.65625 -2.640625 3.96875 -2.84375 L 2.28125 -3.328125 C 1.90625 -3.4375 1.796875 -3.515625 1.796875 -3.734375 C 1.796875 -4.015625 2.109375 -4.21875 2.578125 -4.21875 C 3.21875 -4.21875 3.546875 -3.984375 3.546875 -3.515625 Z M 4.84375 -3.515625 "/>
</g>
<g id="glyph-0-13">
<path d="M 1.171875 1.921875 C 2.28125 0.25 2.734375 -1.0625 2.734375 -2.53125 C 2.734375 -4.015625 2.28125 -5.328125 1.171875 -7 L 0.21875 -7 C 1.234375 -5.015625 1.546875 -3.953125 1.546875 -2.53125 C 1.546875 -1.125 1.234375 -0.03125 0.21875 1.921875 Z M 1.171875 1.921875 "/>
</g>
<g id="glyph-0-14">
<path d="M 2.28125 -4.6875 L 2.28125 0 L 3.625 0 L 3.625 -6.796875 L 2.734375 -6.796875 C 2.515625 -6 1.828125 -5.578125 0.65625 -5.578125 L 0.65625 -4.6875 Z M 2.28125 -4.6875 "/>
</g>
<g id="glyph-0-15">
<path d="M 2.625 -6.953125 C 1.890625 -6.953125 1.265625 -6.640625 0.859375 -6.078125 C 0.453125 -5.546875 0.28125 -4.6875 0.28125 -3.359375 C 0.28125 -2.15625 0.4375 -1.3125 0.765625 -0.78125 C 1.15625 -0.140625 1.828125 0.21875 2.625 0.21875 C 3.359375 0.21875 3.96875 -0.078125 4.390625 -0.640625 C 4.765625 -1.171875 4.953125 -2.046875 4.953125 -3.3125 C 4.953125 -4.5625 4.8125 -5.40625 4.484375 -5.9375 C 4.078125 -6.59375 3.421875 -6.953125 2.625 -6.953125 Z M 2.625 -5.859375 C 2.96875 -5.859375 3.25 -5.671875 3.40625 -5.3125 C 3.546875 -5.03125 3.609375 -4.28125 3.609375 -3.34375 C 3.609375 -2.578125 3.546875 -1.828125 3.4375 -1.546875 C 3.296875 -1.15625 3 -0.9375 2.625 -0.9375 C 2.265625 -0.9375 2 -1.109375 1.828125 -1.453125 C 1.703125 -1.75 1.625 -2.453125 1.625 -3.375 C 1.625 -4.171875 1.6875 -4.9375 1.796875 -5.21875 C 1.9375 -5.625 2.234375 -5.859375 2.625 -5.859375 Z M 2.625 -5.859375 "/>
</g>
<g id="glyph-0-16">
<path d="M 1.96875 -6.71875 C 1 -6.71875 0.21875 -5.9375 0.21875 -4.984375 C 0.21875 -4.015625 1 -3.234375 1.96875 -3.234375 C 2.9375 -3.234375 3.734375 -4.015625 3.734375 -4.953125 C 3.734375 -5.953125 2.96875 -6.71875 1.96875 -6.71875 Z M 1.96875 -5.78125 C 2.4375 -5.78125 2.796875 -5.421875 2.796875 -4.96875 C 2.796875 -4.53125 2.421875 -4.171875 1.96875 -4.171875 C 1.53125 -4.171875 1.15625 -4.53125 1.15625 -4.984375 C 1.15625 -5.421875 1.53125 -5.78125 1.96875 -5.78125 Z M 5.8125 -6.796875 L 2.015625 0.1875 L 2.75 0.1875 L 6.546875 -6.796875 Z M 6.515625 -3.375 C 5.53125 -3.375 4.75 -2.59375 4.75 -1.625 C 4.75 -0.65625 5.53125 0.125 6.515625 0.125 C 7.484375 0.125 8.28125 -0.65625 8.28125 -1.609375 C 8.28125 -2.59375 7.5 -3.375 6.515625 -3.375 Z M 6.515625 -2.421875 C 6.96875 -2.421875 7.328125 -2.078125 7.328125 -1.609375 C 7.328125 -1.1875 6.953125 -0.8125 6.515625 -0.8125 C 6.0625 -0.8125 5.703125 -1.1875 5.703125 -1.625 C 5.703125 -2.0625 6.0625 -2.421875 6.515625 -2.421875 Z M 6.515625 -2.421875 "/>
</g>
<g id="glyph-0-17">
<path d="M 2.078125 -5.453125 L 3.328125 0 L 4.765625 0 L 6 -5.453125 L 6 0 L 7.4375 0 L 7.4375 -7 L 5.28125 -7 L 4.046875 -1.421875 L 2.78125 -7 L 0.640625 -7 L 0.640625 0 L 2.078125 0 Z M 2.078125 -5.453125 "/>
</g>
<g id="glyph-0-18">
<path d="M 2 -6.84375 L 0.015625 0.140625 L 0.65625 0.140625 L 2.640625 -6.84375 Z M 2 -6.84375 "/>
</g>
<g id="glyph-0-19">
<path d="M 4.6875 -6.796875 L 1.0625 -6.796875 L 0.453125 -3.015625 L 1.65625 -3.015625 C 1.796875 -3.34375 2.109375 -3.53125 2.515625 -3.53125 C 3.203125 -3.53125 3.609375 -3.046875 3.609375 -2.21875 C 3.609375 -1.421875 3.203125 -0.9375 2.515625 -0.9375 C 1.9375 -0.9375 1.609375 -1.234375 1.578125 -1.78125 L 0.265625 -1.78125 C 0.28125 -0.578125 1.1875 0.21875 2.5 0.21875 C 3.96875 0.21875 4.953125 -0.78125 4.953125 -2.25 C 4.953125 -3.640625 4.09375 -4.59375 2.84375 -4.59375 C 2.390625 -4.59375 2.046875 -4.484375 1.65625 -4.1875 L 1.875 -5.609375 L 4.6875 -5.609375 Z M 4.6875 -6.796875 "/>
</g>
<g id="glyph-0-20">
<path d="M 4.015625 -2.59375 L 6.234375 -7 L 4.625 -7 L 3.296875 -3.90625 L 1.859375 -7 L 0.265625 -7 L 2.578125 -2.59375 L 2.578125 0 L 4.015625 0 Z M 4.015625 -2.59375 "/>
</g>
<g id="glyph-1-0">
<path d="M 2.640625 -6.9375 C 2 -6.9375 1.421875 -6.65625 1.078125 -6.171875 C 0.640625 -5.5625 0.40625 -4.640625 0.40625 -3.359375 C 0.40625 -1.015625 1.1875 0.21875 2.640625 0.21875 C 4.078125 0.21875 4.859375 -1.015625 4.859375 -3.296875 C 4.859375 -4.640625 4.65625 -5.546875 4.203125 -6.171875 C 3.84375 -6.65625 3.28125 -6.9375 2.640625 -6.9375 Z M 2.640625 -6.1875 C 3.546875 -6.1875 4 -5.25 4 -3.375 C 4 -1.40625 3.5625 -0.484375 2.625 -0.484375 C 1.734375 -0.484375 1.28125 -1.4375 1.28125 -3.34375 C 1.28125 -5.25 1.734375 -6.1875 2.640625 -6.1875 Z M 2.640625 -6.1875 "/>
</g>
<g id="glyph-1-1">
<path d="M 1.828125 -1 L 0.828125 -1 L 0.828125 0 L 1.828125 0 Z M 1.828125 -1 "/>
</g>
<g id="glyph-1-2">
<path d="M 4.5625 -6.796875 L 1.0625 -6.796875 L 0.546875 -3.09375 L 1.328125 -3.09375 C 1.71875 -3.5625 2.046875 -3.734375 2.578125 -3.734375 C 3.484375 -3.734375 4.0625 -3.109375 4.0625 -2.09375 C 4.0625 -1.125 3.484375 -0.53125 2.578125 -0.53125 C 1.828125 -0.53125 1.375 -0.90625 1.1875 -1.671875 L 0.328125 -1.671875 C 0.453125 -1.109375 0.546875 -0.84375 0.75 -0.59375 C 1.125 -0.078125 1.828125 0.21875 2.59375 0.21875 C 3.96875 0.21875 4.921875 -0.78125 4.921875 -2.21875 C 4.921875 -3.5625 4.03125 -4.484375 2.71875 -4.484375 C 2.25 -4.484375 1.859375 -4.359375 1.46875 -4.0625 L 1.734375 -5.96875 L 4.5625 -5.96875 Z M 4.5625 -6.796875 "/>
</g>
<g id="glyph-1-3">
<path d="M 2.484375 -4.9375 L 2.484375 0 L 3.328125 0 L 3.328125 -6.9375 L 2.765625 -6.9375 C 2.46875 -5.875 2.28125 -5.734375 0.984375 -5.5625 L 0.984375 -4.9375 Z M 2.484375 -4.9375 "/>
</g>
<g id="glyph-1-4">
<path d="M 4.859375 -0.828125 L 1.28125 -0.828125 C 1.359375 -1.40625 1.671875 -1.78125 2.5 -2.28125 L 3.46875 -2.828125 C 4.40625 -3.34375 4.90625 -4.0625 4.90625 -4.90625 C 4.90625 -5.484375 4.671875 -6.03125 4.265625 -6.40625 C 3.859375 -6.765625 3.375 -6.9375 2.71875 -6.9375 C 1.859375 -6.9375 1.21875 -6.625 0.84375 -6.03125 C 0.609375 -5.671875 0.5 -5.234375 0.484375 -4.53125 L 1.328125 -4.53125 C 1.359375 -5.015625 1.40625 -5.28125 1.53125 -5.515625 C 1.75 -5.9375 2.1875 -6.203125 2.703125 -6.203125 C 3.46875 -6.203125 4.03125 -5.640625 4.03125 -4.890625 C 4.03125 -4.34375 3.71875 -3.859375 3.125 -3.515625 L 2.234375 -3 C 0.8125 -2.171875 0.40625 -1.53125 0.328125 -0.015625 L 4.859375 -0.015625 Z M 4.859375 -0.828125 "/>
</g>
<g id="glyph-1-5">
<path d="M 3.734375 -7.109375 C 1.734375 -7.109375 0.359375 -5.625 0.359375 -3.4375 C 0.359375 -1.25 1.71875 0.21875 3.734375 0.21875 C 4.59375 0.21875 5.34375 -0.03125 5.90625 -0.515625 C 6.671875 -1.15625 7.125 -2.25 7.125 -3.390625 C 7.125 -5.640625 5.78125 -7.109375 3.734375 -7.109375 Z M 3.734375 -6.328125 C 5.25 -6.328125 6.21875 -5.1875 6.21875 -3.40625 C 6.21875 -1.71875 5.21875 -0.5625 3.734375 -0.5625 C 2.25 -0.5625 1.25 -1.71875 1.25 -3.4375 C 1.25 -5.171875 2.25 -6.328125 3.734375 -6.328125 Z M 3.734375 -6.328125 "/>
</g>
<g id="glyph-1-6">
<path d="M 1.65625 -7 L 0.765625 -7 L 0.765625 0 L 5.109375 0 L 5.109375 -0.78125 L 1.65625 -0.78125 Z M 1.65625 -7 "/>
</g>
<g id="glyph-1-7">
<path d="M 5.71875 -4.9375 C 5.71875 -5.421875 5.6875 -5.5625 5.53125 -5.875 C 5.15625 -6.6875 4.34375 -7.109375 3.15625 -7.109375 C 1.625 -7.109375 0.671875 -6.328125 0.671875 -5.0625 C 0.671875 -4.203125 1.125 -3.671875 2.046875 -3.421875 L 3.78125 -2.96875 C 4.671875 -2.734375 5.0625 -2.375 5.0625 -1.828125 C 5.0625 -1.453125 4.859375 -1.078125 4.5625 -0.859375 C 4.28125 -0.65625 3.84375 -0.5625 3.28125 -0.5625 C 2.515625 -0.5625 2 -0.75 1.671875 -1.15625 C 1.40625 -1.453125 1.296875 -1.796875 1.3125 -2.21875 L 0.453125 -2.21875 C 0.46875 -1.578125 0.59375 -1.15625 0.875 -0.78125 C 1.359375 -0.109375 2.15625 0.21875 3.21875 0.21875 C 4.0625 0.21875 4.734375 0.03125 5.1875 -0.3125 C 5.65625 -0.6875 5.953125 -1.3125 5.953125 -1.921875 C 5.953125 -2.78125 5.421875 -3.421875 4.46875 -3.671875 L 2.71875 -4.140625 C 1.875 -4.375 1.5625 -4.640625 1.5625 -5.1875 C 1.5625 -5.890625 2.1875 -6.359375 3.125 -6.359375 C 4.234375 -6.359375 4.859375 -5.859375 4.875 -4.9375 Z M 5.71875 -4.9375 "/>
</g>
<g id="glyph-1-8">
</g>
<g id="glyph-1-9">
<path d="M 0.515625 -7 L 0.515625 0 L 1.234375 0 L 1.234375 -0.640625 C 1.625 -0.0625 2.125 0.21875 2.828125 0.21875 C 4.15625 0.21875 5.015625 -0.859375 5.015625 -2.53125 C 5.015625 -4.15625 4.203125 -5.171875 2.875 -5.171875 C 2.171875 -5.171875 1.6875 -4.90625 1.3125 -4.34375 L 1.3125 -7 Z M 2.71875 -4.421875 C 3.609375 -4.421875 4.1875 -3.640625 4.1875 -2.453125 C 4.1875 -1.3125 3.59375 -0.53125 2.71875 -0.53125 C 1.859375 -0.53125 1.3125 -1.296875 1.3125 -2.46875 C 1.3125 -3.65625 1.859375 -4.421875 2.71875 -4.421875 Z M 2.71875 -4.421875 "/>
</g>
<g id="glyph-1-10">
<path d="M 2.609375 -5.171875 C 1.1875 -5.171875 0.34375 -4.15625 0.34375 -2.46875 C 0.34375 -0.78125 1.1875 0.21875 2.625 0.21875 C 4.03125 0.21875 4.890625 -0.78125 4.890625 -2.4375 C 4.890625 -4.1875 4.0625 -5.171875 2.609375 -5.171875 Z M 2.625 -4.4375 C 3.515625 -4.4375 4.0625 -3.6875 4.0625 -2.453125 C 4.0625 -1.25 3.5 -0.515625 2.625 -0.515625 C 1.734375 -0.515625 1.1875 -1.25 1.1875 -2.46875 C 1.1875 -3.6875 1.734375 -4.4375 2.625 -4.4375 Z M 2.625 -4.4375 "/>
</g>
<g id="glyph-1-11">
<path d="M 2.4375 -5.03125 L 1.609375 -5.03125 L 1.609375 -6.40625 L 0.8125 -6.40625 L 0.8125 -5.03125 L 0.140625 -5.03125 L 0.140625 -4.375 L 0.8125 -4.375 L 0.8125 -0.578125 C 0.8125 -0.0625 1.15625 0.21875 1.78125 0.21875 C 2 0.21875 2.171875 0.203125 2.4375 0.15625 L 2.4375 -0.515625 C 2.328125 -0.484375 2.21875 -0.484375 2.046875 -0.484375 C 1.703125 -0.484375 1.609375 -0.578125 1.609375 -0.9375 L 1.609375 -4.375 L 2.4375 -4.375 Z M 2.4375 -5.03125 "/>
</g>
<g id="glyph-1-12">
<path d="M 4.203125 -3.625 C 4.1875 -4.609375 3.546875 -5.171875 2.375 -5.171875 C 1.203125 -5.171875 0.453125 -4.5625 0.453125 -3.640625 C 0.453125 -2.84375 0.859375 -2.46875 2.046875 -2.1875 L 2.796875 -2 C 3.34375 -1.875 3.5625 -1.671875 3.5625 -1.3125 C 3.5625 -0.828125 3.09375 -0.515625 2.390625 -0.515625 C 1.96875 -0.515625 1.609375 -0.640625 1.40625 -0.859375 C 1.28125 -1 1.21875 -1.140625 1.171875 -1.5 L 0.328125 -1.5 C 0.359375 -0.328125 1.015625 0.21875 2.328125 0.21875 C 3.59375 0.21875 4.40625 -0.40625 4.40625 -1.375 C 4.40625 -2.125 3.984375 -2.53125 2.984375 -2.765625 L 2.21875 -2.953125 C 1.5625 -3.109375 1.28125 -3.3125 1.28125 -3.671875 C 1.28125 -4.140625 1.703125 -4.4375 2.34375 -4.4375 C 3 -4.4375 3.34375 -4.15625 3.359375 -3.625 Z M 4.203125 -3.625 "/>
</g>
<g id="glyph-1-13">
<path d="M 0.65625 -5.03125 L 0.65625 0 L 1.46875 0 L 1.46875 -2.609375 C 1.484375 -3.8125 1.96875 -4.359375 3.078125 -4.328125 L 3.078125 -5.140625 C 2.9375 -5.15625 2.875 -5.171875 2.765625 -5.171875 C 2.25 -5.171875 1.859375 -4.859375 1.40625 -4.109375 L 1.40625 -5.03125 Z M 0.65625 -5.03125 "/>
</g>
<g id="glyph-1-14">
<path d="M 5.125 -0.46875 C 5.046875 -0.453125 5.015625 -0.453125 4.953125 -0.453125 C 4.6875 -0.453125 4.53125 -0.59375 4.53125 -0.84375 L 4.53125 -3.796875 C 4.53125 -4.6875 3.875 -5.171875 2.640625 -5.171875 C 1.90625 -5.171875 1.3125 -4.953125 0.96875 -4.578125 C 0.734375 -4.328125 0.640625 -4.03125 0.625 -3.546875 L 1.421875 -3.546875 C 1.5 -4.15625 1.859375 -4.4375 2.609375 -4.4375 C 3.34375 -4.4375 3.734375 -4.15625 3.734375 -3.6875 L 3.734375 -3.46875 C 3.71875 -3.125 3.546875 -3 2.890625 -2.921875 C 1.765625 -2.765625 1.59375 -2.734375 1.28125 -2.609375 C 0.703125 -2.359375 0.40625 -1.921875 0.40625 -1.265625 C 0.40625 -0.359375 1.03125 0.21875 2.046875 0.21875 C 2.6875 0.21875 3.1875 0 3.765625 -0.515625 C 3.8125 0 4.0625 0.21875 4.578125 0.21875 C 4.765625 0.21875 4.859375 0.203125 5.125 0.140625 Z M 3.734375 -1.578125 C 3.734375 -1.3125 3.65625 -1.15625 3.421875 -0.9375 C 3.09375 -0.640625 2.703125 -0.484375 2.21875 -0.484375 C 1.609375 -0.484375 1.234375 -0.78125 1.234375 -1.28125 C 1.234375 -1.8125 1.578125 -2.078125 2.453125 -2.203125 C 3.296875 -2.328125 3.46875 -2.359375 3.734375 -2.484375 Z M 3.734375 -1.578125 "/>
</g>
<g id="glyph-1-15">
<path d="M 0.515625 2.09375 L 1.328125 2.09375 L 1.328125 -0.53125 C 1.75 -0.015625 2.21875 0.21875 2.875 0.21875 C 4.171875 0.21875 5.015625 -0.828125 5.015625 -2.421875 C 5.015625 -4.109375 4.1875 -5.171875 2.859375 -5.171875 C 2.171875 -5.171875 1.625 -4.859375 1.25 -4.265625 L 1.25 -5.03125 L 0.515625 -5.03125 Z M 2.71875 -4.421875 C 3.609375 -4.421875 4.1875 -3.640625 4.1875 -2.453125 C 4.1875 -1.3125 3.59375 -0.53125 2.71875 -0.53125 C 1.875 -0.53125 1.328125 -1.296875 1.328125 -2.46875 C 1.328125 -3.65625 1.875 -4.421875 2.71875 -4.421875 Z M 2.71875 -4.421875 "/>
</g>
<g id="glyph-1-16">
<path d="M 1.78125 -3.015625 L 4.09375 -3.015625 C 4.890625 -3.015625 5.234375 -2.625 5.234375 -1.765625 L 5.234375 -1.140625 C 5.234375 -0.703125 5.3125 -0.28125 5.4375 0 L 6.515625 0 L 6.515625 -0.21875 C 6.171875 -0.453125 6.109375 -0.703125 6.09375 -1.625 C 6.078125 -2.78125 5.90625 -3.125 5.140625 -3.453125 C 5.921875 -3.84375 6.25 -4.3125 6.25 -5.125 C 6.25 -6.328125 5.5 -7 4.109375 -7 L 0.890625 -7 L 0.890625 0 L 1.78125 0 Z M 1.78125 -3.796875 L 1.78125 -6.203125 L 3.9375 -6.203125 C 4.4375 -6.203125 4.734375 -6.125 4.953125 -5.9375 C 5.1875 -5.734375 5.3125 -5.421875 5.3125 -5.015625 C 5.3125 -4.171875 4.890625 -3.796875 3.9375 -3.796875 Z M 1.78125 -3.796875 "/>
</g>
<g id="glyph-1-17">
<path d="M 4.625 0 L 4.625 -5.03125 L 3.828125 -5.03125 L 3.828125 -2.171875 C 3.828125 -1.15625 3.296875 -0.484375 2.453125 -0.484375 C 1.828125 -0.484375 1.421875 -0.859375 1.421875 -1.46875 L 1.421875 -5.03125 L 0.625 -5.03125 L 0.625 -1.15625 C 0.625 -0.3125 1.25 0.21875 2.21875 0.21875 C 2.96875 0.21875 3.4375 -0.03125 3.90625 -0.703125 L 3.90625 0 Z M 4.625 0 "/>
</g>
<g id="glyph-1-18">
<path d="M 4.484375 0 L 6.453125 -5.859375 L 6.453125 0 L 7.296875 0 L 7.296875 -7 L 6.0625 -7 L 4.03125 -0.90625 L 1.953125 -7 L 0.71875 -7 L 0.71875 0 L 1.5625 0 L 1.5625 -5.859375 L 3.546875 0 Z M 4.484375 0 "/>
</g>
<g id="glyph-1-19">
<path d="M 2.71875 -3 L 0.4375 -3 L 0.4375 -2.296875 L 2.71875 -2.296875 Z M 2.71875 -3 "/>
</g>
<g id="glyph-1-20">
<path d="M 4.921875 -2.25 C 4.921875 -3.015625 4.859375 -3.46875 4.71875 -3.84375 C 4.390625 -4.671875 3.625 -5.171875 2.6875 -5.171875 C 1.28125 -5.171875 0.390625 -4.109375 0.390625 -2.453125 C 0.390625 -0.78125 1.25 0.21875 2.671875 0.21875 C 3.8125 0.21875 4.609375 -0.4375 4.8125 -1.53125 L 4.015625 -1.53125 C 3.796875 -0.859375 3.34375 -0.515625 2.703125 -0.515625 C 2.1875 -0.515625 1.75 -0.75 1.484375 -1.171875 C 1.296875 -1.453125 1.234375 -1.75 1.21875 -2.25 Z M 1.234375 -2.890625 C 1.3125 -3.828125 1.875 -4.4375 2.671875 -4.4375 C 3.484375 -4.4375 4.0625 -3.796875 4.0625 -2.890625 Z M 1.234375 -2.890625 "/>
</g>
<g id="glyph-1-21">
<path d="M 1.4375 -5.03125 L 0.640625 -5.03125 L 0.640625 0 L 1.4375 0 Z M 1.4375 -7 L 0.640625 -7 L 0.640625 -5.984375 L 1.4375 -5.984375 Z M 1.4375 -7 "/>
</g>
<g id="glyph-1-22">
<path d="M 0.671875 -5.03125 L 0.671875 0 L 1.484375 0 L 1.484375 -3.15625 C 1.484375 -3.890625 2 -4.46875 2.65625 -4.46875 C 3.25 -4.46875 3.59375 -4.109375 3.59375 -3.46875 L 3.59375 0 L 4.390625 0 L 4.390625 -3.15625 C 4.390625 -3.890625 4.921875 -4.46875 5.578125 -4.46875 C 6.15625 -4.46875 6.5 -4.09375 6.5 -3.46875 L 6.5 0 L 7.3125 0 L 7.3125 -3.765625 C 7.3125 -4.671875 6.796875 -5.171875 5.859375 -5.171875 C 5.1875 -5.171875 4.78125 -4.96875 4.3125 -4.40625 C 4.015625 -4.9375 3.609375 -5.171875 2.953125 -5.171875 C 2.28125 -5.171875 1.828125 -4.921875 1.40625 -4.3125 L 1.40625 -5.03125 Z M 0.671875 -5.03125 "/>
</g>
<g id="glyph-1-23">
<path d="M 0.671875 -5.03125 L 0.671875 0 L 1.484375 0 L 1.484375 -2.765625 C 1.484375 -3.796875 2.015625 -4.46875 2.84375 -4.46875 C 3.46875 -4.46875 3.875 -4.09375 3.875 -3.484375 L 3.875 0 L 4.671875 0 L 4.671875 -3.796875 C 4.671875 -4.640625 4.046875 -5.171875 3.078125 -5.171875 C 2.328125 -5.171875 1.859375 -4.890625 1.40625 -4.1875 L 1.40625 -5.03125 Z M 0.671875 -5.03125 "/>
</g>
<g id="glyph-2-0">
<path d="M 2.203125 -3.984375 L 6.953125 -3.984375 L 6.953125 -4.96875 L 2.203125 -4.96875 L 2.203125 -7.765625 L 7.140625 -7.765625 L 7.140625 -8.75 L 1.078125 -8.75 L 1.078125 0 L 7.359375 0 L 7.359375 -0.984375 L 2.203125 -0.984375 Z M 2.203125 -3.984375 "/>
</g>
<g id="glyph-2-1">
<path d="M 5.25 -4.53125 C 5.25 -5.765625 4.421875 -6.46875 2.96875 -6.46875 C 1.515625 -6.46875 0.5625 -5.71875 0.5625 -4.546875 C 0.5625 -3.5625 1.0625 -3.09375 2.5625 -2.734375 L 3.484375 -2.515625 C 4.1875 -2.34375 4.46875 -2.09375 4.46875 -1.640625 C 4.46875 -1.046875 3.875 -0.640625 3 -0.640625 C 2.453125 -0.640625 2 -0.796875 1.75 -1.0625 C 1.59375 -1.25 1.53125 -1.421875 1.46875 -1.875 L 0.40625 -1.875 C 0.453125 -0.421875 1.265625 0.28125 2.921875 0.28125 C 4.5 0.28125 5.515625 -0.5 5.515625 -1.71875 C 5.515625 -2.65625 4.984375 -3.171875 3.734375 -3.46875 L 2.765625 -3.703125 C 1.953125 -3.890625 1.609375 -4.15625 1.609375 -4.59375 C 1.609375 -5.1875 2.125 -5.546875 2.9375 -5.546875 C 3.75 -5.546875 4.171875 -5.203125 4.203125 -4.53125 Z M 5.25 -4.53125 "/>
</g>
<g id="glyph-2-2">
<path d="M 3.046875 -6.28125 L 2.015625 -6.28125 L 2.015625 -8.015625 L 1.015625 -8.015625 L 1.015625 -6.28125 L 0.171875 -6.28125 L 0.171875 -5.46875 L 1.015625 -5.46875 L 1.015625 -0.71875 C 1.015625 -0.078125 1.453125 0.28125 2.234375 0.28125 C 2.5 0.28125 2.71875 0.25 3.046875 0.1875 L 3.046875 -0.640625 C 2.90625 -0.609375 2.765625 -0.59375 2.5625 -0.59375 C 2.140625 -0.59375 2.015625 -0.71875 2.015625 -1.15625 L 2.015625 -5.46875 L 3.046875 -5.46875 Z M 3.046875 -6.28125 "/>
</g>
<g id="glyph-2-3">
<path d="M 1.796875 -6.28125 L 0.796875 -6.28125 L 0.796875 0 L 1.796875 0 Z M 1.796875 -8.75 L 0.796875 -8.75 L 0.796875 -7.484375 L 1.796875 -7.484375 Z M 1.796875 -8.75 "/>
</g>
<g id="glyph-2-4">
<path d="M 0.84375 -6.28125 L 0.84375 0 L 1.84375 0 L 1.84375 -3.953125 C 1.84375 -4.859375 2.515625 -5.59375 3.328125 -5.59375 C 4.0625 -5.59375 4.484375 -5.140625 4.484375 -4.328125 L 4.484375 0 L 5.5 0 L 5.5 -3.953125 C 5.5 -4.859375 6.15625 -5.59375 6.96875 -5.59375 C 7.703125 -5.59375 8.140625 -5.125 8.140625 -4.328125 L 8.140625 0 L 9.140625 0 L 9.140625 -4.71875 C 9.140625 -5.84375 8.5 -6.46875 7.3125 -6.46875 C 6.484375 -6.46875 5.96875 -6.21875 5.390625 -5.515625 C 5.015625 -6.1875 4.515625 -6.46875 3.703125 -6.46875 C 2.859375 -6.46875 2.296875 -6.15625 1.765625 -5.40625 L 1.765625 -6.28125 Z M 0.84375 -6.28125 "/>
</g>
<g id="glyph-2-5">
<path d="M 6.421875 -0.59375 C 6.3125 -0.5625 6.265625 -0.5625 6.203125 -0.5625 C 5.859375 -0.5625 5.65625 -0.75 5.65625 -1.0625 L 5.65625 -4.75 C 5.65625 -5.875 4.84375 -6.46875 3.296875 -6.46875 C 2.375 -6.46875 1.640625 -6.203125 1.21875 -5.734375 C 0.921875 -5.40625 0.796875 -5.046875 0.78125 -4.421875 L 1.78125 -4.421875 C 1.875 -5.203125 2.328125 -5.546875 3.265625 -5.546875 C 4.171875 -5.546875 4.671875 -5.203125 4.671875 -4.609375 L 4.671875 -4.34375 C 4.65625 -3.90625 4.4375 -3.75 3.625 -3.640625 C 2.203125 -3.46875 1.984375 -3.421875 1.609375 -3.265625 C 0.875 -2.953125 0.5 -2.40625 0.5 -1.578125 C 0.5 -0.4375 1.296875 0.28125 2.5625 0.28125 C 3.359375 0.28125 4 0 4.703125 -0.640625 C 4.78125 0 5.09375 0.28125 5.734375 0.28125 C 5.953125 0.28125 6.078125 0.25 6.421875 0.171875 Z M 4.671875 -1.984375 C 4.671875 -1.640625 4.578125 -1.4375 4.265625 -1.15625 C 3.859375 -0.796875 3.375 -0.59375 2.78125 -0.59375 C 2 -0.59375 1.546875 -0.96875 1.546875 -1.609375 C 1.546875 -2.265625 1.984375 -2.609375 3.0625 -2.765625 C 4.125 -2.90625 4.328125 -2.953125 4.671875 -3.109375 Z M 4.671875 -1.984375 "/>
</g>
<g id="glyph-2-6">
<path d="M 6.15625 -2.8125 C 6.15625 -3.765625 6.078125 -4.34375 5.90625 -4.8125 C 5.5 -5.84375 4.53125 -6.46875 3.359375 -6.46875 C 1.609375 -6.46875 0.484375 -5.140625 0.484375 -3.0625 C 0.484375 -0.984375 1.5625 0.28125 3.34375 0.28125 C 4.78125 0.28125 5.765625 -0.546875 6.03125 -1.90625 L 5.015625 -1.90625 C 4.734375 -1.078125 4.171875 -0.640625 3.375 -0.640625 C 2.734375 -0.640625 2.203125 -0.9375 1.859375 -1.46875 C 1.625 -1.828125 1.53125 -2.1875 1.53125 -2.8125 Z M 1.546875 -3.625 C 1.625 -4.78125 2.34375 -5.546875 3.34375 -5.546875 C 4.375 -5.546875 5.078125 -4.75 5.078125 -3.625 Z M 1.546875 -3.625 "/>
</g>
<g id="glyph-2-7">
<path d="M 5.9375 -8.75 L 4.9375 -8.75 L 4.9375 -5.5 C 4.53125 -6.125 3.859375 -6.46875 3.015625 -6.46875 C 1.375 -6.46875 0.3125 -5.15625 0.3125 -3.15625 C 0.3125 -1.03125 1.34375 0.28125 3.046875 0.28125 C 3.90625 0.28125 4.515625 -0.046875 5.046875 -0.828125 L 5.046875 0 L 5.9375 0 Z M 3.1875 -5.53125 C 4.265625 -5.53125 4.9375 -4.578125 4.9375 -3.078125 C 4.9375 -1.625 4.25 -0.65625 3.1875 -0.65625 C 2.09375 -0.65625 1.359375 -1.625 1.359375 -3.09375 C 1.359375 -4.5625 2.09375 -5.53125 3.1875 -5.53125 Z M 3.1875 -5.53125 "/>
</g>
<g id="glyph-2-8">
</g>
<g id="glyph-2-9">
<path d="M 5.6875 -2.625 L 6.59375 0 L 7.84375 0 L 4.765625 -8.75 L 3.328125 -8.75 L 0.203125 0 L 1.390625 0 L 2.3125 -2.625 Z M 5.375 -3.5625 L 2.59375 -3.5625 L 4.03125 -7.546875 Z M 5.375 -3.5625 "/>
</g>
<g id="glyph-2-10">
<path d="M 7.9375 -6.03125 C 7.59375 -7.953125 6.484375 -8.890625 4.578125 -8.890625 C 3.390625 -8.890625 2.453125 -8.515625 1.796875 -7.796875 C 1.015625 -6.9375 0.578125 -5.6875 0.578125 -4.265625 C 0.578125 -2.828125 1.015625 -1.59375 1.84375 -0.75 C 2.515625 -0.046875 3.390625 0.28125 4.53125 0.28125 C 6.65625 0.28125 7.859375 -0.875 8.125 -3.1875 L 6.96875 -3.1875 C 6.875 -2.59375 6.75 -2.1875 6.578125 -1.84375 C 6.21875 -1.109375 5.46875 -0.703125 4.53125 -0.703125 C 2.796875 -0.703125 1.6875 -2.09375 1.6875 -4.28125 C 1.6875 -6.53125 2.734375 -7.90625 4.4375 -7.90625 C 5.140625 -7.90625 5.8125 -7.703125 6.171875 -7.359375 C 6.484375 -7.0625 6.671875 -6.703125 6.796875 -6.03125 Z M 7.9375 -6.03125 "/>
</g>
<g id="glyph-2-11">
<path d="M 5.609375 0 L 8.078125 -7.328125 L 8.078125 0 L 9.125 0 L 9.125 -8.75 L 7.578125 -8.75 L 5.046875 -1.125 L 2.453125 -8.75 L 0.90625 -8.75 L 0.90625 0 L 1.953125 0 L 1.953125 -7.328125 L 4.4375 0 Z M 5.609375 0 "/>
</g>
<g id="glyph-2-12">
<path d="M 2.828125 -8.75 C 1.625 -7.171875 0.875 -4.984375 0.875 -3.109375 C 0.875 -1.21875 1.625 0.96875 2.828125 2.546875 L 3.484375 2.546875 C 2.4375 0.828125 1.84375 -1.1875 1.84375 -3.109375 C 1.84375 -5.015625 2.4375 -7.046875 3.484375 -8.75 Z M 2.828125 -8.75 "/>
</g>
<g id="glyph-2-13">
<path d="M 0.84375 -6.28125 L 0.84375 0 L 1.84375 0 L 1.84375 -3.46875 C 1.84375 -4.75 2.515625 -5.59375 3.546875 -5.59375 C 4.34375 -5.59375 4.84375 -5.109375 4.84375 -4.359375 L 4.84375 0 L 5.84375 0 L 5.84375 -4.75 C 5.84375 -5.796875 5.0625 -6.46875 3.859375 -6.46875 C 2.921875 -6.46875 2.3125 -6.109375 1.765625 -5.234375 L 1.765625 -6.28125 Z M 0.84375 -6.28125 "/>
</g>
<g id="glyph-2-14">
<path d="M 0.828125 -6.28125 L 0.828125 0 L 1.84375 0 L 1.84375 -3.265625 C 1.84375 -4.78125 2.46875 -5.453125 3.859375 -5.40625 L 3.859375 -6.4375 C 3.6875 -6.453125 3.59375 -6.46875 3.46875 -6.46875 C 2.8125 -6.46875 2.328125 -6.078125 1.75 -5.140625 L 1.75 -6.28125 Z M 0.828125 -6.28125 "/>
</g>
<g id="glyph-2-15">
<path d="M 5.65625 -4.171875 C 5.609375 -4.78125 5.46875 -5.1875 5.234375 -5.53125 C 4.796875 -6.125 4.046875 -6.46875 3.171875 -6.46875 C 1.46875 -6.46875 0.375 -5.125 0.375 -3.03125 C 0.375 -1.015625 1.453125 0.28125 3.15625 0.28125 C 4.65625 0.28125 5.609375 -0.625 5.71875 -2.15625 L 4.71875 -2.15625 C 4.546875 -1.15625 4.03125 -0.640625 3.1875 -0.640625 C 2.078125 -0.640625 1.421875 -1.546875 1.421875 -3.03125 C 1.421875 -4.609375 2.0625 -5.546875 3.15625 -5.546875 C 4 -5.546875 4.53125 -5.046875 4.640625 -4.171875 Z M 5.65625 -4.171875 "/>
</g>
<g id="glyph-2-16">
<path d="M 3.125 -6.28125 L 2.078125 -6.28125 L 2.078125 -7.265625 C 2.078125 -7.6875 2.296875 -7.90625 2.765625 -7.90625 C 2.859375 -7.90625 2.890625 -7.90625 3.125 -7.890625 L 3.125 -8.71875 C 2.890625 -8.765625 2.765625 -8.78125 2.5625 -8.78125 C 1.625 -8.78125 1.078125 -8.25 1.078125 -7.359375 L 1.078125 -6.28125 L 0.234375 -6.28125 L 0.234375 -5.46875 L 1.078125 -5.46875 L 1.078125 0 L 2.078125 0 L 2.078125 -5.46875 L 3.125 -5.46875 Z M 6.34375 -6.28125 L 5.296875 -6.28125 L 5.296875 -7.265625 C 5.296875 -7.6875 5.53125 -7.90625 6 -7.90625 C 6.078125 -7.90625 6.125 -7.90625 6.34375 -7.890625 L 6.34375 -8.71875 C 6.125 -8.765625 5.984375 -8.78125 5.78125 -8.78125 C 4.859375 -8.78125 4.3125 -8.25 4.3125 -7.359375 L 4.3125 -6.28125 L 3.46875 -6.28125 L 3.46875 -5.46875 L 4.3125 -5.46875 L 4.3125 0 L 5.296875 0 L 5.296875 -5.46875 L 6.34375 -5.46875 Z M 6.34375 -6.28125 "/>
</g>
<g id="glyph-2-17">
<path d="M 1.109375 2.546875 C 2.3125 0.96875 3.078125 -1.21875 3.078125 -3.09375 C 3.078125 -4.984375 2.3125 -7.171875 1.109375 -8.75 L 0.453125 -8.75 C 1.515625 -7.03125 2.09375 -5.015625 2.09375 -3.09375 C 2.09375 -1.1875 1.515625 0.84375 0.453125 2.546875 Z M 1.109375 2.546875 "/>
</g>
<g id="glyph-2-18">
<path d="M 1.0625 0 L 4.4375 0 C 6.640625 0 8 -1.65625 8 -4.375 C 8 -7.09375 6.65625 -8.75 4.4375 -8.75 L 1.0625 -8.75 Z M 2.1875 -0.984375 L 2.1875 -7.765625 L 4.25 -7.765625 C 5.96875 -7.765625 6.890625 -6.59375 6.890625 -4.375 C 6.890625 -2.140625 5.96875 -0.984375 4.25 -0.984375 Z M 2.1875 -0.984375 "/>
</g>
<g id="glyph-2-19">
<path d="M 0.84375 -8.75 L 0.84375 0 L 1.84375 0 L 1.84375 -3.46875 C 1.84375 -4.75 2.515625 -5.59375 3.546875 -5.59375 C 3.875 -5.59375 4.1875 -5.5 4.421875 -5.3125 C 4.71875 -5.09375 4.84375 -4.796875 4.84375 -4.359375 L 4.84375 0 L 5.828125 0 L 5.828125 -4.75 C 5.828125 -5.8125 5.078125 -6.46875 3.859375 -6.46875 C 2.96875 -6.46875 2.421875 -6.1875 1.84375 -5.421875 L 1.84375 -8.75 Z M 0.84375 -8.75 "/>
</g>
<g id="glyph-2-20">
<path d="M 1.828125 -8.75 L 0.8125 -8.75 L 0.8125 0 L 1.828125 0 Z M 1.828125 -8.75 "/>
</g>
<g id="glyph-2-21">
<path d="M 6.40625 -4.234375 L 0.59375 -4.234375 L 0.59375 -3.390625 L 6.40625 -3.390625 Z M 6.40625 -2.171875 L 0.59375 -2.171875 L 0.59375 -1.328125 L 6.40625 -1.328125 Z M 6.40625 -2.171875 "/>
</g>
<g id="glyph-2-22">
<path d="M 5.78125 0 L 5.78125 -6.28125 L 4.78125 -6.28125 L 4.78125 -2.71875 C 4.78125 -1.4375 4.109375 -0.59375 3.078125 -0.59375 C 2.28125 -0.59375 1.78125 -1.078125 1.78125 -1.84375 L 1.78125 -6.28125 L 0.78125 -6.28125 L 0.78125 -1.4375 C 0.78125 -0.390625 1.5625 0.28125 2.78125 0.28125 C 3.703125 0.28125 4.296875 -0.046875 4.890625 -0.875 L 4.890625 0 Z M 5.78125 0 "/>
</g>
<g id="glyph-2-23">
<path d="M 3.296875 -8.671875 C 2.515625 -8.671875 1.78125 -8.3125 1.34375 -7.734375 C 0.796875 -6.953125 0.515625 -5.8125 0.515625 -4.203125 C 0.515625 -1.265625 1.46875 0.28125 3.296875 0.28125 C 5.09375 0.28125 6.078125 -1.265625 6.078125 -4.125 C 6.078125 -5.8125 5.8125 -6.9375 5.25 -7.734375 C 4.8125 -8.328125 4.109375 -8.671875 3.296875 -8.671875 Z M 3.296875 -7.734375 C 4.4375 -7.734375 5 -6.578125 5 -4.21875 C 5 -1.75 4.453125 -0.59375 3.28125 -0.59375 C 2.15625 -0.59375 1.59375 -1.796875 1.59375 -4.1875 C 1.59375 -6.578125 2.15625 -7.734375 3.296875 -7.734375 Z M 3.296875 -7.734375 "/>
</g>
<g id="glyph-2-24">
<path d="M 2.296875 -1.25 L 1.046875 -1.25 L 1.046875 0 L 2.296875 0 Z M 2.296875 -1.25 "/>
</g>
<g id="glyph-2-25">
<path d="M 6.078125 -1.046875 L 1.59375 -1.046875 C 1.703125 -1.765625 2.09375 -2.21875 3.125 -2.859375 L 4.328125 -3.53125 C 5.515625 -4.1875 6.125 -5.078125 6.125 -6.140625 C 6.125 -6.859375 5.84375 -7.53125 5.34375 -8 C 4.84375 -8.453125 4.21875 -8.671875 3.40625 -8.671875 C 2.328125 -8.671875 1.53125 -8.296875 1.0625 -7.546875 C 0.75 -7.09375 0.625 -6.546875 0.59375 -5.671875 L 1.65625 -5.671875 C 1.6875 -6.265625 1.765625 -6.609375 1.90625 -6.90625 C 2.1875 -7.421875 2.734375 -7.75 3.375 -7.75 C 4.328125 -7.75 5.046875 -7.0625 5.046875 -6.125 C 5.046875 -5.421875 4.65625 -4.828125 3.90625 -4.390625 L 2.796875 -3.75 C 1.015625 -2.71875 0.5 -1.90625 0.40625 -0.015625 L 6.078125 -0.015625 Z M 6.078125 -1.046875 "/>
</g>
<g id="glyph-2-26">
<path d="M 2.5625 -3.96875 L 1.3125 -3.96875 L 1.3125 -2.71875 L 2.5625 -2.71875 Z M 2.5625 -3.96875 "/>
</g>
<g id="glyph-2-27">
<path d="M 3.265625 -6.46875 C 1.484375 -6.46875 0.4375 -5.203125 0.4375 -3.09375 C 0.4375 -0.96875 1.484375 0.28125 3.28125 0.28125 C 5.046875 0.28125 6.125 -0.984375 6.125 -3.046875 C 6.125 -5.234375 5.09375 -6.46875 3.265625 -6.46875 Z M 3.28125 -5.546875 C 4.40625 -5.546875 5.078125 -4.625 5.078125 -3.0625 C 5.078125 -1.578125 4.375 -0.640625 3.28125 -0.640625 C 2.15625 -0.640625 1.46875 -1.578125 1.46875 -3.09375 C 1.46875 -4.625 2.15625 -5.546875 3.28125 -5.546875 Z M 3.28125 -5.546875 "/>
</g>
<g id="glyph-2-28">
<path d="M 0.640625 -8.75 L 0.640625 0 L 1.546875 0 L 1.546875 -0.796875 C 2.03125 -0.078125 2.65625 0.28125 3.546875 0.28125 C 5.203125 0.28125 6.28125 -1.078125 6.28125 -3.171875 C 6.28125 -5.203125 5.25 -6.46875 3.59375 -6.46875 C 2.71875 -6.46875 2.109375 -6.140625 1.640625 -5.4375 L 1.640625 -8.75 Z M 3.390625 -5.53125 C 4.515625 -5.53125 5.234375 -4.5625 5.234375 -3.0625 C 5.234375 -1.625 4.484375 -0.65625 3.390625 -0.65625 C 2.328125 -0.65625 1.640625 -1.625 1.640625 -3.09375 C 1.640625 -4.578125 2.328125 -5.53125 3.390625 -5.53125 Z M 3.390625 -5.53125 "/>
</g>
<g id="glyph-2-29">
<path d="M 0.640625 -1.984375 C 0.84375 -0.5625 1.75 0.28125 3.046875 0.28125 C 4 0.28125 4.84375 -0.1875 5.34375 -0.953125 C 5.875 -1.8125 6.109375 -2.875 6.109375 -4.4375 C 6.109375 -5.90625 5.890625 -6.828125 5.390625 -7.59375 C 4.921875 -8.296875 4.171875 -8.671875 3.234375 -8.671875 C 1.625 -8.671875 0.453125 -7.46875 0.453125 -5.78125 C 0.453125 -4.1875 1.53125 -3.0625 3.078125 -3.0625 C 3.875 -3.0625 4.46875 -3.34375 5.015625 -4.015625 C 5 -1.84375 4.328125 -0.65625 3.125 -0.65625 C 2.375 -0.65625 1.859375 -1.140625 1.6875 -1.984375 Z M 3.234375 -7.75 C 4.21875 -7.75 4.953125 -6.921875 4.953125 -5.8125 C 4.953125 -4.734375 4.234375 -4 3.1875 -4 C 2.171875 -4 1.53125 -4.71875 1.53125 -5.875 C 1.53125 -6.953125 2.25 -7.75 3.234375 -7.75 Z M 3.234375 -7.75 "/>
</g>
<g id="glyph-2-30">
<path d="M 5.71875 -8.515625 L 1.3125 -8.515625 L 0.6875 -3.875 L 1.65625 -3.875 C 2.140625 -4.46875 2.5625 -4.671875 3.234375 -4.671875 C 4.375 -4.671875 5.078125 -3.890625 5.078125 -2.625 C 5.078125 -1.40625 4.375 -0.65625 3.21875 -0.65625 C 2.296875 -0.65625 1.734375 -1.125 1.46875 -2.09375 L 0.421875 -2.09375 C 0.5625 -1.390625 0.6875 -1.0625 0.9375 -0.75 C 1.421875 -0.09375 2.28125 0.28125 3.234375 0.28125 C 4.953125 0.28125 6.15625 -0.96875 6.15625 -2.765625 C 6.15625 -4.453125 5.046875 -5.609375 3.40625 -5.609375 C 2.8125 -5.609375 2.328125 -5.453125 1.84375 -5.09375 L 2.171875 -7.46875 L 5.71875 -7.46875 Z M 5.71875 -8.515625 "/>
</g>
<g id="glyph-2-31">
<path d="M 2.390625 -8.21875 C 1.265625 -8.21875 0.34375 -7.296875 0.34375 -6.171875 C 0.34375 -5.046875 1.265625 -4.109375 2.40625 -4.109375 C 3.515625 -4.109375 4.4375 -5.046875 4.4375 -6.140625 C 4.4375 -7.3125 3.546875 -8.21875 2.390625 -8.21875 Z M 2.390625 -7.375 C 3.078125 -7.375 3.609375 -6.84375 3.609375 -6.15625 C 3.609375 -5.5 3.0625 -4.953125 2.40625 -4.953125 C 1.734375 -4.953125 1.171875 -5.5 1.171875 -6.171875 C 1.171875 -6.84375 1.71875 -7.375 2.390625 -7.375 Z M 7.3125 -8.515625 L 2.5625 0.234375 L 3.359375 0.234375 L 8.09375 -8.515625 Z M 8.25 -3.859375 C 7.125 -3.859375 6.21875 -2.953125 6.21875 -1.828125 C 6.21875 -0.6875 7.125 0.234375 8.265625 0.234375 C 9.390625 0.234375 10.3125 -0.6875 10.3125 -1.796875 C 10.3125 -2.953125 9.40625 -3.859375 8.25 -3.859375 Z M 8.25 -3.03125 C 8.9375 -3.03125 9.484375 -2.484375 9.484375 -1.796875 C 9.484375 -1.15625 8.921875 -0.609375 8.265625 -0.609375 C 7.578125 -0.609375 7.046875 -1.15625 7.046875 -1.828125 C 7.046875 -2.484375 7.578125 -3.03125 8.25 -3.03125 Z M 8.25 -3.03125 "/>
</g>
<g id="glyph-2-32">
<path d="M 0.640625 2.609375 L 1.65625 2.609375 L 1.65625 -0.65625 C 2.1875 -0.015625 2.765625 0.28125 3.59375 0.28125 C 5.21875 0.28125 6.28125 -1.03125 6.28125 -3.03125 C 6.28125 -5.140625 5.25 -6.46875 3.578125 -6.46875 C 2.71875 -6.46875 2.046875 -6.078125 1.578125 -5.34375 L 1.578125 -6.28125 L 0.640625 -6.28125 Z M 3.40625 -5.53125 C 4.515625 -5.53125 5.234375 -4.5625 5.234375 -3.0625 C 5.234375 -1.625 4.5 -0.65625 3.40625 -0.65625 C 2.34375 -0.65625 1.65625 -1.625 1.65625 -3.09375 C 1.65625 -4.578125 2.34375 -5.53125 3.40625 -5.53125 Z M 3.40625 -5.53125 "/>
</g>
<g id="glyph-2-33">
<path d="M 2.328125 -8.75 L 1.203125 -8.75 L 1.203125 0 L 2.328125 0 Z M 2.328125 -8.75 "/>
</g>
<g id="glyph-3-0">
<path d="M 2.671875 -4.53125 L 6.140625 -4.53125 C 7.328125 -4.53125 7.859375 -3.953125 7.859375 -2.65625 L 7.84375 -1.71875 C 7.84375 -1.0625 7.96875 -0.4375 8.15625 0 L 9.78125 0 L 9.78125 -0.328125 C 9.28125 -0.671875 9.171875 -1.046875 9.140625 -2.453125 C 9.140625 -4.171875 8.859375 -4.703125 7.71875 -5.1875 C 8.90625 -5.78125 9.375 -6.484375 9.375 -7.6875 C 9.375 -9.515625 8.25 -10.5 6.1875 -10.5 L 1.34375 -10.5 L 1.34375 0 L 2.671875 0 Z M 2.671875 -5.703125 L 2.671875 -9.328125 L 5.921875 -9.328125 C 6.671875 -9.328125 7.109375 -9.203125 7.4375 -8.921875 C 7.796875 -8.609375 7.984375 -8.140625 7.984375 -7.515625 C 7.984375 -6.265625 7.34375 -5.703125 5.921875 -5.703125 Z M 2.671875 -5.703125 "/>
</g>
<g id="glyph-3-1">
<path d="M 3.921875 -7.765625 C 1.78125 -7.765625 0.515625 -6.25 0.515625 -3.71875 C 0.515625 -1.171875 1.78125 0.328125 3.9375 0.328125 C 6.0625 0.328125 7.34375 -1.1875 7.34375 -3.65625 C 7.34375 -6.28125 6.109375 -7.765625 3.921875 -7.765625 Z M 3.9375 -6.65625 C 5.28125 -6.65625 6.09375 -5.546875 6.09375 -3.671875 C 6.09375 -1.890625 5.265625 -0.78125 3.9375 -0.78125 C 2.59375 -0.78125 1.765625 -1.890625 1.765625 -3.71875 C 1.765625 -5.546875 2.59375 -6.65625 3.9375 -6.65625 Z M 3.9375 -6.65625 "/>
</g>
<g id="glyph-3-2">
<path d="M 0.78125 -10.5 L 0.78125 0 L 1.859375 0 L 1.859375 -0.96875 C 2.4375 -0.09375 3.203125 0.328125 4.25 0.328125 C 6.234375 0.328125 7.53125 -1.296875 7.53125 -3.796875 C 7.53125 -6.25 6.3125 -7.765625 4.3125 -7.765625 C 3.265625 -7.765625 2.53125 -7.375 1.96875 -6.53125 L 1.96875 -10.5 Z M 4.078125 -6.640625 C 5.421875 -6.640625 6.28125 -5.46875 6.28125 -3.671875 C 6.28125 -1.953125 5.390625 -0.796875 4.078125 -0.796875 C 2.796875 -0.796875 1.96875 -1.9375 1.96875 -3.71875 C 1.96875 -5.484375 2.796875 -6.640625 4.078125 -6.640625 Z M 4.078125 -6.640625 "/>
</g>
<g id="glyph-3-3">
<path d="M 6.9375 0 L 6.9375 -7.546875 L 5.75 -7.546875 L 5.75 -3.265625 C 5.75 -1.734375 4.9375 -0.71875 3.6875 -0.71875 C 2.734375 -0.71875 2.125 -1.296875 2.125 -2.203125 L 2.125 -7.546875 L 0.9375 -7.546875 L 0.9375 -1.734375 C 0.9375 -0.46875 1.875 0.328125 3.34375 0.328125 C 4.453125 0.328125 5.15625 -0.0625 5.859375 -1.046875 L 5.859375 0 Z M 6.9375 0 "/>
</g>
<g id="glyph-3-4">
<path d="M 6.3125 -5.453125 C 6.296875 -6.921875 5.3125 -7.765625 3.578125 -7.765625 C 1.8125 -7.765625 0.671875 -6.859375 0.671875 -5.453125 C 0.671875 -4.28125 1.28125 -3.71875 3.0625 -3.28125 L 4.1875 -3.015625 C 5.03125 -2.8125 5.359375 -2.5 5.359375 -1.96875 C 5.359375 -1.25 4.65625 -0.78125 3.59375 -0.78125 C 2.953125 -0.78125 2.40625 -0.96875 2.109375 -1.28125 C 1.921875 -1.5 1.828125 -1.71875 1.75 -2.25 L 0.484375 -2.25 C 0.546875 -0.5 1.53125 0.328125 3.5 0.328125 C 5.40625 0.328125 6.609375 -0.609375 6.609375 -2.0625 C 6.609375 -3.1875 5.984375 -3.796875 4.484375 -4.15625 L 3.328125 -4.4375 C 2.34375 -4.671875 1.9375 -4.984375 1.9375 -5.515625 C 1.9375 -6.21875 2.546875 -6.65625 3.53125 -6.65625 C 4.5 -6.65625 5.015625 -6.234375 5.046875 -5.453125 Z M 6.3125 -5.453125 "/>
</g>
<g id="glyph-3-5">
<path d="M 3.65625 -7.546875 L 2.421875 -7.546875 L 2.421875 -9.625 L 1.21875 -9.625 L 1.21875 -7.546875 L 0.203125 -7.546875 L 0.203125 -6.5625 L 1.21875 -6.5625 L 1.21875 -0.859375 C 1.21875 -0.09375 1.75 0.328125 2.671875 0.328125 C 3 0.328125 3.25 0.296875 3.65625 0.234375 L 3.65625 -0.78125 C 3.484375 -0.734375 3.328125 -0.71875 3.078125 -0.71875 C 2.5625 -0.71875 2.421875 -0.859375 2.421875 -1.390625 L 2.421875 -6.5625 L 3.65625 -6.5625 Z M 3.65625 -7.546875 "/>
</g>
<g id="glyph-3-6">
</g>
<g id="glyph-3-7">
<path d="M 6.734375 0 L 9.703125 -8.796875 L 9.703125 0 L 10.96875 0 L 10.96875 -10.5 L 9.109375 -10.5 L 6.046875 -1.359375 L 2.9375 -10.5 L 1.078125 -10.5 L 1.078125 0 L 2.34375 0 L 2.34375 -8.796875 L 5.328125 0 Z M 6.734375 0 "/>
</g>
<g id="glyph-3-8">
<path d="M 4.09375 -4.5 L 0.65625 -4.5 L 0.65625 -3.453125 L 4.09375 -3.453125 Z M 4.09375 -4.5 "/>
</g>
<g id="glyph-3-9">
<path d="M 2.640625 -4.78125 L 8.359375 -4.78125 L 8.359375 -5.96875 L 2.640625 -5.96875 L 2.640625 -9.328125 L 8.578125 -9.328125 L 8.578125 -10.5 L 1.296875 -10.5 L 1.296875 0 L 8.828125 0 L 8.828125 -1.1875 L 2.640625 -1.1875 Z M 2.640625 -4.78125 "/>
</g>
<g id="glyph-3-10">
<path d="M 2.15625 -7.546875 L 0.96875 -7.546875 L 0.96875 0 L 2.15625 0 Z M 2.15625 -10.5 L 0.953125 -10.5 L 0.953125 -8.984375 L 2.15625 -8.984375 Z M 2.15625 -10.5 "/>
</g>
<g id="glyph-3-11">
<path d="M 1.015625 -7.546875 L 1.015625 0 L 2.21875 0 L 2.21875 -4.734375 C 2.21875 -5.828125 3.015625 -6.71875 3.984375 -6.71875 C 4.890625 -6.71875 5.390625 -6.171875 5.390625 -5.203125 L 5.390625 0 L 6.59375 0 L 6.59375 -4.734375 C 6.59375 -5.828125 7.390625 -6.71875 8.375 -6.71875 C 9.25 -6.71875 9.765625 -6.15625 9.765625 -5.203125 L 9.765625 0 L 10.984375 0 L 10.984375 -5.65625 C 10.984375 -7.015625 10.203125 -7.765625 8.78125 -7.765625 C 7.78125 -7.765625 7.171875 -7.46875 6.46875 -6.609375 C 6.015625 -7.421875 5.421875 -7.765625 4.4375 -7.765625 C 3.421875 -7.765625 2.75 -7.390625 2.125 -6.484375 L 2.125 -7.546875 Z M 1.015625 -7.546875 "/>
</g>
<g id="glyph-3-12">
<path d="M 7.703125 -0.703125 C 7.578125 -0.671875 7.515625 -0.671875 7.453125 -0.671875 C 7.03125 -0.671875 6.796875 -0.890625 6.796875 -1.265625 L 6.796875 -5.703125 C 6.796875 -7.046875 5.8125 -7.765625 3.96875 -7.765625 C 2.859375 -7.765625 1.96875 -7.453125 1.453125 -6.890625 C 1.109375 -6.5 0.96875 -6.0625 0.9375 -5.3125 L 2.140625 -5.3125 C 2.25 -6.234375 2.796875 -6.65625 3.921875 -6.65625 C 5.015625 -6.65625 5.609375 -6.25 5.609375 -5.53125 L 5.609375 -5.21875 C 5.59375 -4.703125 5.328125 -4.515625 4.34375 -4.375 C 2.65625 -4.15625 2.390625 -4.109375 1.9375 -3.921875 C 1.046875 -3.546875 0.609375 -2.875 0.609375 -1.90625 C 0.609375 -0.53125 1.5625 0.328125 3.078125 0.328125 C 4.03125 0.328125 4.796875 0 5.640625 -0.78125 C 5.734375 0 6.109375 0.328125 6.890625 0.328125 C 7.140625 0.328125 7.296875 0.296875 7.703125 0.203125 Z M 5.609375 -2.375 C 5.609375 -1.96875 5.484375 -1.734375 5.125 -1.390625 C 4.640625 -0.953125 4.046875 -0.71875 3.34375 -0.71875 C 2.40625 -0.71875 1.859375 -1.171875 1.859375 -1.9375 C 1.859375 -2.71875 2.375 -3.125 3.671875 -3.3125 C 4.953125 -3.484375 5.203125 -3.546875 5.609375 -3.734375 Z M 5.609375 -2.375 "/>
</g>
<g id="glyph-3-13">
<path d="M 1.015625 -7.546875 L 1.015625 0 L 2.21875 0 L 2.21875 -4.15625 C 2.21875 -5.703125 3.03125 -6.71875 4.265625 -6.71875 C 5.21875 -6.71875 5.8125 -6.140625 5.8125 -5.234375 L 5.8125 0 L 7.015625 0 L 7.015625 -5.703125 C 7.015625 -6.953125 6.078125 -7.765625 4.625 -7.765625 C 3.5 -7.765625 2.78125 -7.328125 2.125 -6.28125 L 2.125 -7.546875 Z M 1.015625 -7.546875 "/>
</g>
<g id="glyph-3-14">
<path d="M 4.109375 0 L 7 -7.546875 L 5.640625 -7.546875 L 3.515625 -1.421875 L 1.5 -7.546875 L 0.140625 -7.546875 L 2.796875 0 Z M 4.109375 0 "/>
</g>
<g id="glyph-3-15">
<path d="M 2.75 -1.5 L 1.25 -1.5 L 1.25 0 L 2.75 0 Z M 2.75 -1.5 "/>
</g>
<g id="glyph-3-16">
<path d="M 5.609375 -10.671875 C 2.59375 -10.671875 0.546875 -8.453125 0.546875 -5.171875 C 0.546875 -1.875 2.578125 0.328125 5.625 0.328125 C 6.90625 0.328125 8.03125 -0.0625 8.875 -0.78125 C 10.015625 -1.75 10.6875 -3.375 10.6875 -5.078125 C 10.6875 -8.46875 8.6875 -10.671875 5.609375 -10.671875 Z M 5.609375 -9.5 C 7.875 -9.5 9.34375 -7.78125 9.34375 -5.109375 C 9.34375 -2.578125 7.84375 -0.84375 5.625 -0.84375 C 3.375 -0.84375 1.890625 -2.578125 1.890625 -5.171875 C 1.890625 -7.765625 3.375 -9.5 5.609375 -9.5 Z M 5.609375 -9.5 "/>
</g>
<g id="glyph-3-17">
<path d="M 2.5 -10.5 L 1.15625 -10.5 L 1.15625 0 L 7.671875 0 L 7.671875 -1.1875 L 2.5 -1.1875 Z M 2.5 -10.5 "/>
</g>
<g id="glyph-3-18">
<path d="M 8.59375 -7.421875 C 8.59375 -8.140625 8.546875 -8.34375 8.3125 -8.828125 C 7.734375 -10.046875 6.515625 -10.671875 4.734375 -10.671875 C 2.4375 -10.671875 1.015625 -9.5 1.015625 -7.59375 C 1.015625 -6.3125 1.6875 -5.5 3.0625 -5.140625 L 5.671875 -4.453125 C 7.015625 -4.109375 7.609375 -3.578125 7.609375 -2.75 C 7.609375 -2.1875 7.296875 -1.609375 6.859375 -1.296875 C 6.4375 -1 5.78125 -0.84375 4.921875 -0.84375 C 3.78125 -0.84375 3.015625 -1.125 2.5 -1.734375 C 2.125 -2.1875 1.9375 -2.6875 1.953125 -3.34375 L 0.6875 -3.34375 C 0.703125 -2.375 0.890625 -1.75 1.3125 -1.171875 C 2.03125 -0.171875 3.234375 0.328125 4.84375 0.328125 C 6.09375 0.328125 7.109375 0.046875 7.796875 -0.46875 C 8.5 -1.03125 8.953125 -1.96875 8.953125 -2.875 C 8.953125 -4.171875 8.140625 -5.125 6.71875 -5.515625 L 4.078125 -6.21875 C 2.8125 -6.5625 2.34375 -6.96875 2.34375 -7.78125 C 2.34375 -8.84375 3.28125 -9.546875 4.703125 -9.546875 C 6.375 -9.546875 7.296875 -8.796875 7.3125 -7.421875 Z M 8.59375 -7.421875 "/>
</g>
<g id="glyph-3-19">
<path d="M 1.140625 0 L 5.875 0 C 6.875 0 7.609375 -0.28125 8.171875 -0.875 C 8.6875 -1.421875 8.96875 -2.171875 8.96875 -3 C 8.96875 -4.265625 8.40625 -5.03125 7.0625 -5.546875 C 8.03125 -6 8.515625 -6.75 8.515625 -7.84375 C 8.515625 -8.609375 8.21875 -9.28125 7.671875 -9.765625 C 7.109375 -10.265625 6.40625 -10.5 5.40625 -10.5 L 1.140625 -10.5 Z M 2.484375 -5.984375 L 2.484375 -9.328125 L 5.078125 -9.328125 C 5.8125 -9.328125 6.234375 -9.21875 6.59375 -8.953125 C 6.96875 -8.65625 7.171875 -8.21875 7.171875 -7.65625 C 7.171875 -7.078125 6.96875 -6.640625 6.59375 -6.359375 C 6.234375 -6.078125 5.8125 -5.984375 5.078125 -5.984375 Z M 2.484375 -1.1875 L 2.484375 -4.796875 L 5.75 -4.796875 C 6.921875 -4.796875 7.640625 -4.125 7.640625 -2.984375 C 7.640625 -1.859375 6.921875 -1.1875 5.75 -1.1875 Z M 2.484375 -1.1875 "/>
</g>
<g id="glyph-3-20">
<path d="M 1 -7.546875 L 1 0 L 2.203125 0 L 2.203125 -3.921875 C 2.21875 -5.734375 2.96875 -6.546875 4.625 -6.5 L 4.625 -7.71875 C 4.421875 -7.75 4.3125 -7.765625 4.15625 -7.765625 C 3.390625 -7.765625 2.796875 -7.296875 2.109375 -6.1875 L 2.109375 -7.546875 Z M 1 -7.546875 "/>
</g>
<g id="glyph-3-21">
<path d="M 0.78125 3.140625 L 1.984375 3.140625 L 1.984375 -0.796875 C 2.625 -0.015625 3.328125 0.328125 4.3125 0.328125 C 6.265625 0.328125 7.53125 -1.234375 7.53125 -3.640625 C 7.53125 -6.1875 6.296875 -7.765625 4.296875 -7.765625 C 3.265625 -7.765625 2.453125 -7.296875 1.890625 -6.40625 L 1.890625 -7.546875 L 0.78125 -7.546875 Z M 4.09375 -6.640625 C 5.421875 -6.640625 6.28125 -5.46875 6.28125 -3.671875 C 6.28125 -1.953125 5.40625 -0.796875 4.09375 -0.796875 C 2.8125 -0.796875 1.984375 -1.9375 1.984375 -3.71875 C 1.984375 -5.484375 2.8125 -6.640625 4.09375 -6.640625 Z M 4.09375 -6.640625 "/>
</g>
<g id="glyph-3-22">
<path d="M 3.078125 -1.5 L 1.578125 -1.5 L 1.578125 0 L 3.078125 0 Z M 3.078125 -7.546875 L 1.578125 -7.546875 L 1.578125 -6.046875 L 3.078125 -6.046875 Z M 3.078125 -7.546875 "/>
</g>
<g id="glyph-3-23">
<path d="M 2.1875 -10.5 L 0.984375 -10.5 L 0.984375 0 L 2.1875 0 Z M 2.1875 -10.5 "/>
</g>
<g id="glyph-3-24">
<path d="M 7.390625 -3.375 C 7.390625 -4.53125 7.296875 -5.21875 7.09375 -5.78125 C 6.59375 -7.015625 5.453125 -7.765625 4.03125 -7.765625 C 1.9375 -7.765625 0.578125 -6.171875 0.578125 -3.671875 C 0.578125 -1.1875 1.875 0.328125 4 0.328125 C 5.734375 0.328125 6.921875 -0.640625 7.234375 -2.296875 L 6.015625 -2.296875 C 5.6875 -1.296875 5.015625 -0.78125 4.046875 -0.78125 C 3.28125 -0.78125 2.640625 -1.125 2.234375 -1.75 C 1.9375 -2.1875 1.84375 -2.625 1.828125 -3.375 Z M 1.859375 -4.34375 C 1.953125 -5.75 2.8125 -6.65625 4.015625 -6.65625 C 5.25 -6.65625 6.09375 -5.703125 6.09375 -4.34375 Z M 1.859375 -4.34375 "/>
</g>
<g id="glyph-3-25">
<path d="M 5.59375 -7.546875 L 3.5 -1.671875 L 1.5625 -7.546875 L 0.28125 -7.546875 L 2.84375 0.03125 L 2.375 1.21875 C 2.171875 1.75 1.921875 1.953125 1.40625 1.953125 C 1.203125 1.953125 1.03125 1.9375 0.78125 1.875 L 0.78125 2.953125 C 1.015625 3.078125 1.265625 3.140625 1.578125 3.140625 C 1.96875 3.140625 2.390625 3.015625 2.703125 2.78125 C 3.078125 2.5 3.296875 2.1875 3.53125 1.578125 L 6.890625 -7.546875 Z M 5.59375 -7.546875 "/>
</g>
</g>
<clipPath id="clip-0">
<path clip-rule="nonzero" d="M 106.355469 226 L 371.199219 226 L 371.199219 228 L 106.355469 228 Z M 106.355469 226 "/>
</clipPath>
<clipPath id="clip-1">
<path clip-rule="nonzero" d="M 106.355469 124 L 371.199219 124 L 371.199219 126 L 106.355469 126 Z M 106.355469 124 "/>
</clipPath>
<clipPath id="clip-2">
<path clip-rule="nonzero" d="M 156 64.496094 L 158 64.496094 L 158 287.652344 L 156 287.652344 Z M 156 64.496094 "/>
</clipPath>
<clipPath id="clip-3">
<path clip-rule="nonzero" d="M 209 64.496094 L 211 64.496094 L 211 287.652344 L 209 287.652344 Z M 209 64.496094 "/>
</clipPath>
<clipPath id="clip-4">
<path clip-rule="nonzero" d="M 262 64.496094 L 264 64.496094 L 264 287.652344 L 262 287.652344 Z M 262 64.496094 "/>
</clipPath>
<clipPath id="clip-5">
<path clip-rule="nonzero" d="M 315 64.496094 L 317 64.496094 L 317 287.652344 L 315 287.652344 Z M 315 64.496094 "/>
</clipPath>
<clipPath id="clip-6">
<path clip-rule="nonzero" d="M 367 64.496094 L 370 64.496094 L 370 287.652344 L 367 287.652344 Z M 367 64.496094 "/>
</clipPath>
<clipPath id="clip-7">
<path clip-rule="nonzero" d="M 314 64.496094 L 317 64.496094 L 317 287.652344 L 314 287.652344 Z M 314 64.496094 "/>
</clipPath>
<clipPath id="clip-8">
<path clip-rule="nonzero" d="M 377.179688 226 L 642.023438 226 L 642.023438 228 L 377.179688 228 Z M 377.179688 226 "/>
</clipPath>
<clipPath id="clip-9">
<path clip-rule="nonzero" d="M 377.179688 124 L 642.023438 124 L 642.023438 126 L 377.179688 126 Z M 377.179688 124 "/>
</clipPath>
<clipPath id="clip-10">
<path clip-rule="nonzero" d="M 427 64.496094 L 429 64.496094 L 429 287.652344 L 427 287.652344 Z M 427 64.496094 "/>
</clipPath>
<clipPath id="clip-11">
<path clip-rule="nonzero" d="M 480 64.496094 L 482 64.496094 L 482 287.652344 L 480 287.652344 Z M 480 64.496094 "/>
</clipPath>
<clipPath id="clip-12">
<path clip-rule="nonzero" d="M 533 64.496094 L 535 64.496094 L 535 287.652344 L 533 287.652344 Z M 533 64.496094 "/>
</clipPath>
<clipPath id="clip-13">
<path clip-rule="nonzero" d="M 585 64.496094 L 588 64.496094 L 588 287.652344 L 585 287.652344 Z M 585 64.496094 "/>
</clipPath>
<clipPath id="clip-14">
<path clip-rule="nonzero" d="M 638 64.496094 L 640 64.496094 L 640 287.652344 L 638 287.652344 Z M 638 64.496094 "/>
</clipPath>
<clipPath id="clip-15">
<path clip-rule="nonzero" d="M 585 64.496094 L 588 64.496094 L 588 287.652344 L 585 287.652344 Z M 585 64.496094 "/>
</clipPath>
</defs>
<rect x="-64.8" y="-32.4" width="777.6" height="388.8" fill="rgb(100%, 100%, 100%)" fill-opacity="1"/>
<rect x="-64.8" y="-32.4" width="777.6" height="388.8" fill="rgb(100%, 100%, 100%)" fill-opacity="1"/>
<g clip-path="url(#clip-0)">
<path fill="none" stroke-width="1.163976" stroke-linecap="butt" stroke-linejoin="round" stroke="rgb(92.156863%, 92.156863%, 92.156863%)" stroke-opacity="1" stroke-miterlimit="10" d="M 106.355469 226.792969 L 371.199219 226.792969 "/>
</g>
<g clip-path="url(#clip-1)">
<path fill="none" stroke-width="1.163976" stroke-linecap="butt" stroke-linejoin="round" stroke="rgb(92.156863%, 92.156863%, 92.156863%)" stroke-opacity="1" stroke-miterlimit="10" d="M 106.355469 125.359375 L 371.199219 125.359375 "/>
</g>
<g clip-path="url(#clip-2)">
<path fill="none" stroke-width="1.163976" stroke-linecap="butt" stroke-linejoin="round" stroke="rgb(92.156863%, 92.156863%, 92.156863%)" stroke-opacity="1" stroke-miterlimit="10" d="M 157.324219 287.652344 L 157.324219 64.496094 "/>
</g>
<g clip-path="url(#clip-3)">
<path fill="none" stroke-width="1.163976" stroke-linecap="butt" stroke-linejoin="round" stroke="rgb(92.156863%, 92.156863%, 92.156863%)" stroke-opacity="1" stroke-miterlimit="10" d="M 210.113281 287.652344 L 210.113281 64.496094 "/>
</g>
<g clip-path="url(#clip-4)">
<path fill="none" stroke-width="1.163976" stroke-linecap="butt" stroke-linejoin="round" stroke="rgb(92.156863%, 92.156863%, 92.156863%)" stroke-opacity="1" stroke-miterlimit="10" d="M 262.90625 287.652344 L 262.90625 64.496094 "/>
</g>
<g clip-path="url(#clip-5)">
<path fill="none" stroke-width="1.163976" stroke-linecap="butt" stroke-linejoin="round" stroke="rgb(92.156863%, 92.156863%, 92.156863%)" stroke-opacity="1" stroke-miterlimit="10" d="M 315.699219 287.652344 L 315.699219 64.496094 "/>
</g>
<g clip-path="url(#clip-6)">
<path fill="none" stroke-width="1.163976" stroke-linecap="butt" stroke-linejoin="round" stroke="rgb(92.156863%, 92.156863%, 92.156863%)" stroke-opacity="1" stroke-miterlimit="10" d="M 368.488281 287.652344 L 368.488281 64.496094 "/>
</g>
<g clip-path="url(#clip-7)">
<path fill="none" stroke-width="1.707165" stroke-linecap="butt" stroke-linejoin="round" stroke="rgb(40%, 40%, 40%)" stroke-opacity="1" stroke-dasharray="6.828661 6.828661" stroke-miterlimit="10" d="M 315.699219 287.652344 L 315.699219 64.496094 "/>
</g>
<path fill-rule="nonzero" fill="rgb(29.019608%, 56.470588%, 85.098039%)" fill-opacity="1" stroke-width="0.773085" stroke-linecap="round" stroke-linejoin="round" stroke="rgb(29.019608%, 56.470588%, 85.098039%)" stroke-opacity="1" stroke-miterlimit="10" d="M 338.476562 226.792969 C 338.476562 232.289062 330.234375 232.289062 330.234375 226.792969 C 330.234375 221.296875 338.476562 221.296875 338.476562 226.792969 "/>
<path fill-rule="nonzero" fill="rgb(84.313725%, 18.823529%, 12.156863%)" fill-opacity="1" stroke-width="0.773085" stroke-linecap="round" stroke-linejoin="round" stroke="rgb(84.313725%, 18.823529%, 12.156863%)" stroke-opacity="1" stroke-miterlimit="10" d="M 363.285156 125.359375 C 363.285156 130.851562 355.042969 130.851562 355.042969 125.359375 C 355.042969 119.863281 363.285156 119.863281 363.285156 125.359375 "/>
<g clip-path="url(#clip-8)">
<path fill="none" stroke-width="1.163976" stroke-linecap="butt" stroke-linejoin="round" stroke="rgb(92.156863%, 92.156863%, 92.156863%)" stroke-opacity="1" stroke-miterlimit="10" d="M 377.179688 226.792969 L 642.023438 226.792969 "/>
</g>
<g clip-path="url(#clip-9)">
<path fill="none" stroke-width="1.163976" stroke-linecap="butt" stroke-linejoin="round" stroke="rgb(92.156863%, 92.156863%, 92.156863%)" stroke-opacity="1" stroke-miterlimit="10" d="M 377.179688 125.359375 L 642.023438 125.359375 "/>
</g>
<g clip-path="url(#clip-10)">
<path fill="none" stroke-width="1.163976" stroke-linecap="butt" stroke-linejoin="round" stroke="rgb(92.156863%, 92.156863%, 92.156863%)" stroke-opacity="1" stroke-miterlimit="10" d="M 428.144531 287.652344 L 428.144531 64.496094 "/>
</g>
<g clip-path="url(#clip-11)">
<path fill="none" stroke-width="1.163976" stroke-linecap="butt" stroke-linejoin="round" stroke="rgb(92.156863%, 92.156863%, 92.156863%)" stroke-opacity="1" stroke-miterlimit="10" d="M 480.9375 287.652344 L 480.9375 64.496094 "/>
</g>
<g clip-path="url(#clip-12)">
<path fill="none" stroke-width="1.163976" stroke-linecap="butt" stroke-linejoin="round" stroke="rgb(92.156863%, 92.156863%, 92.156863%)" stroke-opacity="1" stroke-miterlimit="10" d="M 533.726562 287.652344 L 533.726562 64.496094 "/>
</g>
<g clip-path="url(#clip-13)">
<path fill="none" stroke-width="1.163976" stroke-linecap="butt" stroke-linejoin="round" stroke="rgb(92.156863%, 92.156863%, 92.156863%)" stroke-opacity="1" stroke-miterlimit="10" d="M 586.519531 287.652344 L 586.519531 64.496094 "/>
</g>
<g clip-path="url(#clip-14)">
<path fill="none" stroke-width="1.163976" stroke-linecap="butt" stroke-linejoin="round" stroke="rgb(92.156863%, 92.156863%, 92.156863%)" stroke-opacity="1" stroke-miterlimit="10" d="M 639.3125 287.652344 L 639.3125 64.496094 "/>
</g>
<g clip-path="url(#clip-15)">
<path fill="none" stroke-width="1.707165" stroke-linecap="butt" stroke-linejoin="round" stroke="rgb(40%, 40%, 40%)" stroke-opacity="1" stroke-dasharray="6.828661 6.828661" stroke-miterlimit="10" d="M 586.519531 287.652344 L 586.519531 64.496094 "/>
</g>
<path fill-rule="nonzero" fill="rgb(29.019608%, 56.470588%, 85.098039%)" fill-opacity="1" stroke-width="0.773085" stroke-linecap="round" stroke-linejoin="round" stroke="rgb(29.019608%, 56.470588%, 85.098039%)" stroke-opacity="1" stroke-miterlimit="10" d="M 426.191406 226.792969 C 426.191406 232.289062 417.949219 232.289062 417.949219 226.792969 C 417.949219 221.296875 426.191406 221.296875 426.191406 226.792969 "/>
<path fill-rule="nonzero" fill="rgb(84.313725%, 18.823529%, 12.156863%)" fill-opacity="1" stroke-width="0.773085" stroke-linecap="round" stroke-linejoin="round" stroke="rgb(84.313725%, 18.823529%, 12.156863%)" stroke-opacity="1" stroke-miterlimit="10" d="M 393.339844 125.359375 C 393.339844 130.851562 385.097656 130.851562 385.097656 125.359375 C 385.097656 119.863281 393.339844 119.863281 393.339844 125.359375 "/>
<g fill="rgb(10.196078%, 10.196078%, 10.196078%)" fill-opacity="1">
<use xlink:href="#glyph-0-0" x="196.277344" y="58.211914"/>
<use xlink:href="#glyph-0-1" x="203.277344" y="58.211914"/>
<use xlink:href="#glyph-0-2" x="206.277344" y="58.211914"/>
<use xlink:href="#glyph-0-3" x="211.277344" y="58.211914"/>
<use xlink:href="#glyph-0-4" x="216.277344" y="58.211914"/>
<use xlink:href="#glyph-0-5" x="222.277344" y="58.211914"/>
<use xlink:href="#glyph-0-6" x="225.277344" y="58.211914"/>
<use xlink:href="#glyph-0-4" x="228.277344" y="58.211914"/>
<use xlink:href="#glyph-0-7" x="234.277344" y="58.211914"/>
<use xlink:href="#glyph-0-5" x="240.277344" y="58.211914"/>
<use xlink:href="#glyph-0-7" x="243.277344" y="58.211914"/>
<use xlink:href="#glyph-0-8" x="249.277344" y="58.211914"/>
<use xlink:href="#glyph-0-9" x="255.277344" y="58.211914"/>
<use xlink:href="#glyph-0-1" x="258.277344" y="58.211914"/>
<use xlink:href="#glyph-0-10" x="261.277344" y="58.211914"/>
<use xlink:href="#glyph-0-2" x="264.277344" y="58.211914"/>
<use xlink:href="#glyph-0-11" x="269.277344" y="58.211914"/>
<use xlink:href="#glyph-0-12" x="273.277344" y="58.211914"/>
<use xlink:href="#glyph-0-13" x="278.277344" y="58.211914"/>
</g>
<g fill="rgb(10.196078%, 10.196078%, 10.196078%)" fill-opacity="1">
<use xlink:href="#glyph-0-14" x="447.601562" y="58.211914"/>
<use xlink:href="#glyph-0-15" x="452.601562" y="58.211914"/>
<use xlink:href="#glyph-0-16" x="457.601562" y="58.211914"/>
<use xlink:href="#glyph-0-5" x="466.601562" y="58.211914"/>
<use xlink:href="#glyph-0-7" x="469.601562" y="58.211914"/>
<use xlink:href="#glyph-0-8" x="475.601562" y="58.211914"/>
<use xlink:href="#glyph-0-9" x="481.601562" y="58.211914"/>
<use xlink:href="#glyph-0-1" x="484.601562" y="58.211914"/>
<use xlink:href="#glyph-0-10" x="487.601562" y="58.211914"/>
<use xlink:href="#glyph-0-2" x="490.601562" y="58.211914"/>
<use xlink:href="#glyph-0-11" x="495.601562" y="58.211914"/>
<use xlink:href="#glyph-0-12" x="499.601562" y="58.211914"/>
<use xlink:href="#glyph-0-5" x="504.601562" y="58.211914"/>
<use xlink:href="#glyph-0-10" x="507.601562" y="58.211914"/>
<use xlink:href="#glyph-0-4" x="510.601562" y="58.211914"/>
<use xlink:href="#glyph-0-5" x="516.601562" y="58.211914"/>
<use xlink:href="#glyph-0-17" x="519.601562" y="58.211914"/>
<use xlink:href="#glyph-0-5" x="527.601562" y="58.211914"/>
<use xlink:href="#glyph-0-18" x="530.601562" y="58.211914"/>
<use xlink:href="#glyph-0-5" x="533.601562" y="58.211914"/>
<use xlink:href="#glyph-0-19" x="536.601562" y="58.211914"/>
<use xlink:href="#glyph-0-16" x="541.601562" y="58.211914"/>
<use xlink:href="#glyph-0-5" x="550.601562" y="58.211914"/>
<use xlink:href="#glyph-0-10" x="553.601562" y="58.211914"/>
<use xlink:href="#glyph-0-4" x="556.601562" y="58.211914"/>
<use xlink:href="#glyph-0-5" x="562.601562" y="58.211914"/>
<use xlink:href="#glyph-0-20" x="565.601562" y="58.211914"/>
</g>
<g fill="rgb(30.196078%, 30.196078%, 30.196078%)" fill-opacity="1">
<use xlink:href="#glyph-1-0" x="148.324219" y="300.032227"/>
<use xlink:href="#glyph-1-1" x="153.324219" y="300.032227"/>
<use xlink:href="#glyph-1-0" x="156.324219" y="300.032227"/>
<use xlink:href="#glyph-1-2" x="161.324219" y="300.032227"/>
</g>
<g fill="rgb(30.196078%, 30.196078%, 30.196078%)" fill-opacity="1">
<use xlink:href="#glyph-1-0" x="201.113281" y="300.032227"/>
<use xlink:href="#glyph-1-1" x="206.113281" y="300.032227"/>
<use xlink:href="#glyph-1-3" x="209.113281" y="300.032227"/>
<use xlink:href="#glyph-1-0" x="214.113281" y="300.032227"/>
</g>
<g fill="rgb(30.196078%, 30.196078%, 30.196078%)" fill-opacity="1">
<use xlink:href="#glyph-1-0" x="253.90625" y="300.032227"/>
<use xlink:href="#glyph-1-1" x="258.90625" y="300.032227"/>
<use xlink:href="#glyph-1-3" x="261.90625" y="300.032227"/>
<use xlink:href="#glyph-1-2" x="266.90625" y="300.032227"/>
</g>
<g fill="rgb(30.196078%, 30.196078%, 30.196078%)" fill-opacity="1">
<use xlink:href="#glyph-1-0" x="306.699219" y="300.032227"/>
<use xlink:href="#glyph-1-1" x="311.699219" y="300.032227"/>
<use xlink:href="#glyph-1-4" x="314.699219" y="300.032227"/>
<use xlink:href="#glyph-1-0" x="319.699219" y="300.032227"/>
</g>
<g fill="rgb(30.196078%, 30.196078%, 30.196078%)" fill-opacity="1">
<use xlink:href="#glyph-1-0" x="359.488281" y="300.032227"/>
<use xlink:href="#glyph-1-1" x="364.488281" y="300.032227"/>
<use xlink:href="#glyph-1-4" x="367.488281" y="300.032227"/>
<use xlink:href="#glyph-1-2" x="372.488281" y="300.032227"/>
</g>
<g fill="rgb(30.196078%, 30.196078%, 30.196078%)" fill-opacity="1">
<use xlink:href="#glyph-1-0" x="419.144531" y="300.032227"/>
<use xlink:href="#glyph-1-1" x="424.144531" y="300.032227"/>
<use xlink:href="#glyph-1-0" x="427.144531" y="300.032227"/>
<use xlink:href="#glyph-1-2" x="432.144531" y="300.032227"/>
</g>
<g fill="rgb(30.196078%, 30.196078%, 30.196078%)" fill-opacity="1">
<use xlink:href="#glyph-1-0" x="471.9375" y="300.032227"/>
<use xlink:href="#glyph-1-1" x="476.9375" y="300.032227"/>
<use xlink:href="#glyph-1-3" x="479.9375" y="300.032227"/>
<use xlink:href="#glyph-1-0" x="484.9375" y="300.032227"/>
</g>
<g fill="rgb(30.196078%, 30.196078%, 30.196078%)" fill-opacity="1">
<use xlink:href="#glyph-1-0" x="524.726562" y="300.032227"/>
<use xlink:href="#glyph-1-1" x="529.726562" y="300.032227"/>
<use xlink:href="#glyph-1-3" x="532.726562" y="300.032227"/>
<use xlink:href="#glyph-1-2" x="537.726562" y="300.032227"/>
</g>
<g fill="rgb(30.196078%, 30.196078%, 30.196078%)" fill-opacity="1">
<use xlink:href="#glyph-1-0" x="577.519531" y="300.032227"/>
<use xlink:href="#glyph-1-1" x="582.519531" y="300.032227"/>
<use xlink:href="#glyph-1-4" x="585.519531" y="300.032227"/>
<use xlink:href="#glyph-1-0" x="590.519531" y="300.032227"/>
</g>
<g fill="rgb(30.196078%, 30.196078%, 30.196078%)" fill-opacity="1">
<use xlink:href="#glyph-1-0" x="630.3125" y="300.032227"/>
<use xlink:href="#glyph-1-1" x="635.3125" y="300.032227"/>
<use xlink:href="#glyph-1-4" x="638.3125" y="300.032227"/>
<use xlink:href="#glyph-1-2" x="643.3125" y="300.032227"/>
</g>
<g fill="rgb(30.196078%, 30.196078%, 30.196078%)" fill-opacity="1">
<use xlink:href="#glyph-1-5" x="40.976562" y="230.290039"/>
<use xlink:href="#glyph-1-6" x="47.976562" y="230.290039"/>
<use xlink:href="#glyph-1-7" x="52.976562" y="230.290039"/>
<use xlink:href="#glyph-1-8" x="58.976562" y="230.290039"/>
<use xlink:href="#glyph-1-9" x="61.976562" y="230.290039"/>
<use xlink:href="#glyph-1-10" x="66.976562" y="230.290039"/>
<use xlink:href="#glyph-1-10" x="71.976562" y="230.290039"/>
<use xlink:href="#glyph-1-11" x="76.976562" y="230.290039"/>
<use xlink:href="#glyph-1-12" x="79.976562" y="230.290039"/>
<use xlink:href="#glyph-1-11" x="84.976562" y="230.290039"/>
<use xlink:href="#glyph-1-13" x="87.976562" y="230.290039"/>
<use xlink:href="#glyph-1-14" x="90.976562" y="230.290039"/>
<use xlink:href="#glyph-1-15" x="95.976562" y="230.290039"/>
</g>
<g fill="rgb(30.196078%, 30.196078%, 30.196078%)" fill-opacity="1">
<use xlink:href="#glyph-1-16" x="5.976562" y="128.856445"/>
<use xlink:href="#glyph-1-10" x="12.976562" y="128.856445"/>
<use xlink:href="#glyph-1-9" x="17.976562" y="128.856445"/>
<use xlink:href="#glyph-1-17" x="22.976562" y="128.856445"/>
<use xlink:href="#glyph-1-12" x="27.976562" y="128.856445"/>
<use xlink:href="#glyph-1-11" x="32.976562" y="128.856445"/>
<use xlink:href="#glyph-1-8" x="35.976562" y="128.856445"/>
<use xlink:href="#glyph-1-18" x="38.976562" y="128.856445"/>
<use xlink:href="#glyph-1-18" x="46.976562" y="128.856445"/>
<use xlink:href="#glyph-1-19" x="54.976562" y="128.856445"/>
<use xlink:href="#glyph-1-20" x="57.976562" y="128.856445"/>
<use xlink:href="#glyph-1-12" x="62.976562" y="128.856445"/>
<use xlink:href="#glyph-1-11" x="67.976562" y="128.856445"/>
<use xlink:href="#glyph-1-21" x="70.976562" y="128.856445"/>
<use xlink:href="#glyph-1-22" x="72.976562" y="128.856445"/>
<use xlink:href="#glyph-1-14" x="80.976562" y="128.856445"/>
<use xlink:href="#glyph-1-11" x="85.976562" y="128.856445"/>
<use xlink:href="#glyph-1-21" x="88.976562" y="128.856445"/>
<use xlink:href="#glyph-1-10" x="90.976562" y="128.856445"/>
<use xlink:href="#glyph-1-23" x="95.976562" y="128.856445"/>
</g>
<g fill="rgb(0%, 0%, 0%)" fill-opacity="1">
<use xlink:href="#glyph-2-0" x="286.191406" y="314.771484"/>
<use xlink:href="#glyph-2-1" x="294.191406" y="314.771484"/>
<use xlink:href="#glyph-2-2" x="300.191406" y="314.771484"/>
<use xlink:href="#glyph-2-3" x="303.191406" y="314.771484"/>
<use xlink:href="#glyph-2-4" x="306.191406" y="314.771484"/>
<use xlink:href="#glyph-2-5" x="316.191406" y="314.771484"/>
<use xlink:href="#glyph-2-2" x="323.191406" y="314.771484"/>
<use xlink:href="#glyph-2-6" x="326.191406" y="314.771484"/>
<use xlink:href="#glyph-2-7" x="333.191406" y="314.771484"/>
<use xlink:href="#glyph-2-8" x="340.191406" y="314.771484"/>
<use xlink:href="#glyph-2-9" x="343.191406" y="314.771484"/>
<use xlink:href="#glyph-2-10" x="351.191406" y="314.771484"/>
<use xlink:href="#glyph-2-11" x="360.191406" y="314.771484"/>
<use xlink:href="#glyph-2-0" x="370.191406" y="314.771484"/>
<use xlink:href="#glyph-2-8" x="378.191406" y="314.771484"/>
<use xlink:href="#glyph-2-12" x="381.191406" y="314.771484"/>
<use xlink:href="#glyph-2-3" x="385.191406" y="314.771484"/>
<use xlink:href="#glyph-2-13" x="388.191406" y="314.771484"/>
<use xlink:href="#glyph-2-7" x="395.191406" y="314.771484"/>
<use xlink:href="#glyph-2-3" x="402.191406" y="314.771484"/>
<use xlink:href="#glyph-2-14" x="405.191406" y="314.771484"/>
<use xlink:href="#glyph-2-6" x="409.191406" y="314.771484"/>
<use xlink:href="#glyph-2-15" x="416.191406" y="314.771484"/>
<use xlink:href="#glyph-2-2" x="422.191406" y="314.771484"/>
<use xlink:href="#glyph-2-8" x="425.191406" y="314.771484"/>
<use xlink:href="#glyph-2-6" x="428.191406" y="314.771484"/>
<use xlink:href="#glyph-2-16" x="435.191406" y="314.771484"/>
<use xlink:href="#glyph-2-6" x="442.191406" y="314.771484"/>
<use xlink:href="#glyph-2-15" x="449.191406" y="314.771484"/>
<use xlink:href="#glyph-2-2" x="455.191406" y="314.771484"/>
<use xlink:href="#glyph-2-17" x="458.191406" y="314.771484"/>
</g>
<g fill="rgb(0%, 0%, 0%)" fill-opacity="1">
<use xlink:href="#glyph-2-18" x="106.355469" y="35.705078"/>
<use xlink:href="#glyph-2-5" x="114.355469" y="35.705078"/>
<use xlink:href="#glyph-2-1" x="121.355469" y="35.705078"/>
<use xlink:href="#glyph-2-19" x="127.355469" y="35.705078"/>
<use xlink:href="#glyph-2-6" x="134.355469" y="35.705078"/>
<use xlink:href="#glyph-2-7" x="141.355469" y="35.705078"/>
<use xlink:href="#glyph-2-8" x="148.355469" y="35.705078"/>
<use xlink:href="#glyph-2-20" x="151.355469" y="35.705078"/>
<use xlink:href="#glyph-2-3" x="154.355469" y="35.705078"/>
<use xlink:href="#glyph-2-13" x="157.355469" y="35.705078"/>
<use xlink:href="#glyph-2-6" x="164.355469" y="35.705078"/>
<use xlink:href="#glyph-2-8" x="171.355469" y="35.705078"/>
<use xlink:href="#glyph-2-21" x="174.355469" y="35.705078"/>
<use xlink:href="#glyph-2-8" x="181.355469" y="35.705078"/>
<use xlink:href="#glyph-2-2" x="184.355469" y="35.705078"/>
<use xlink:href="#glyph-2-14" x="187.355469" y="35.705078"/>
<use xlink:href="#glyph-2-22" x="191.355469" y="35.705078"/>
<use xlink:href="#glyph-2-6" x="198.355469" y="35.705078"/>
<use xlink:href="#glyph-2-8" x="205.355469" y="35.705078"/>
<use xlink:href="#glyph-2-9" x="208.355469" y="35.705078"/>
<use xlink:href="#glyph-2-10" x="216.355469" y="35.705078"/>
<use xlink:href="#glyph-2-11" x="225.355469" y="35.705078"/>
<use xlink:href="#glyph-2-0" x="235.355469" y="35.705078"/>
<use xlink:href="#glyph-2-8" x="243.355469" y="35.705078"/>
<use xlink:href="#glyph-2-12" x="246.355469" y="35.705078"/>
<use xlink:href="#glyph-2-23" x="250.355469" y="35.705078"/>
<use xlink:href="#glyph-2-24" x="257.355469" y="35.705078"/>
<use xlink:href="#glyph-2-25" x="260.355469" y="35.705078"/>
<use xlink:href="#glyph-2-23" x="267.355469" y="35.705078"/>
<use xlink:href="#glyph-2-17" x="274.355469" y="35.705078"/>
<use xlink:href="#glyph-2-8" x="278.355469" y="35.705078"/>
<use xlink:href="#glyph-2-8" x="281.355469" y="35.705078"/>
<use xlink:href="#glyph-2-26" x="284.355469" y="35.705078"/>
<use xlink:href="#glyph-2-8" x="287.355469" y="35.705078"/>
<use xlink:href="#glyph-2-8" x="290.355469" y="35.705078"/>
<use xlink:href="#glyph-2-0" x="293.355469" y="35.705078"/>
<use xlink:href="#glyph-2-14" x="301.355469" y="35.705078"/>
<use xlink:href="#glyph-2-14" x="305.355469" y="35.705078"/>
<use xlink:href="#glyph-2-27" x="309.355469" y="35.705078"/>
<use xlink:href="#glyph-2-14" x="316.355469" y="35.705078"/>
<use xlink:href="#glyph-2-8" x="320.355469" y="35.705078"/>
<use xlink:href="#glyph-2-28" x="323.355469" y="35.705078"/>
<use xlink:href="#glyph-2-5" x="330.355469" y="35.705078"/>
<use xlink:href="#glyph-2-14" x="337.355469" y="35.705078"/>
<use xlink:href="#glyph-2-1" x="341.355469" y="35.705078"/>
<use xlink:href="#glyph-2-8" x="347.355469" y="35.705078"/>
<use xlink:href="#glyph-2-21" x="350.355469" y="35.705078"/>
<use xlink:href="#glyph-2-8" x="357.355469" y="35.705078"/>
<use xlink:href="#glyph-2-29" x="360.355469" y="35.705078"/>
<use xlink:href="#glyph-2-30" x="367.355469" y="35.705078"/>
<use xlink:href="#glyph-2-31" x="374.355469" y="35.705078"/>
<use xlink:href="#glyph-2-8" x="385.355469" y="35.705078"/>
<use xlink:href="#glyph-2-28" x="388.355469" y="35.705078"/>
<use xlink:href="#glyph-2-27" x="395.355469" y="35.705078"/>
<use xlink:href="#glyph-2-27" x="402.355469" y="35.705078"/>
<use xlink:href="#glyph-2-2" x="409.355469" y="35.705078"/>
<use xlink:href="#glyph-2-1" x="412.355469" y="35.705078"/>
<use xlink:href="#glyph-2-2" x="418.355469" y="35.705078"/>
<use xlink:href="#glyph-2-14" x="421.355469" y="35.705078"/>
<use xlink:href="#glyph-2-5" x="425.355469" y="35.705078"/>
<use xlink:href="#glyph-2-32" x="432.355469" y="35.705078"/>
<use xlink:href="#glyph-2-8" x="439.355469" y="35.705078"/>
<use xlink:href="#glyph-2-10" x="442.355469" y="35.705078"/>
<use xlink:href="#glyph-2-33" x="451.355469" y="35.705078"/>
</g>
<g fill="rgb(0%, 0%, 0%)" fill-opacity="1">
<use xlink:href="#glyph-3-0" x="106.355469" y="16.473633"/>
<use xlink:href="#glyph-3-1" x="116.355469" y="16.473633"/>
<use xlink:href="#glyph-3-2" x="124.355469" y="16.473633"/>
<use xlink:href="#glyph-3-3" x="132.355469" y="16.473633"/>
<use xlink:href="#glyph-3-4" x="140.355469" y="16.473633"/>
<use xlink:href="#glyph-3-5" x="147.355469" y="16.473633"/>
<use xlink:href="#glyph-3-6" x="151.355469" y="16.473633"/>
<use xlink:href="#glyph-3-7" x="155.355469" y="16.473633"/>
<use xlink:href="#glyph-3-7" x="167.355469" y="16.473633"/>
<use xlink:href="#glyph-3-8" x="179.355469" y="16.473633"/>
<use xlink:href="#glyph-3-9" x="184.355469" y="16.473633"/>
<use xlink:href="#glyph-3-4" x="193.355469" y="16.473633"/>
<use xlink:href="#glyph-3-5" x="200.355469" y="16.473633"/>
<use xlink:href="#glyph-3-10" x="204.355469" y="16.473633"/>
<use xlink:href="#glyph-3-11" x="207.355469" y="16.473633"/>
<use xlink:href="#glyph-3-12" x="219.355469" y="16.473633"/>
<use xlink:href="#glyph-3-5" x="227.355469" y="16.473633"/>
<use xlink:href="#glyph-3-10" x="231.355469" y="16.473633"/>
<use xlink:href="#glyph-3-1" x="234.355469" y="16.473633"/>
<use xlink:href="#glyph-3-13" x="242.355469" y="16.473633"/>
<use xlink:href="#glyph-3-6" x="250.355469" y="16.473633"/>
<use xlink:href="#glyph-3-14" x="254.355469" y="16.473633"/>
<use xlink:href="#glyph-3-4" x="261.355469" y="16.473633"/>
<use xlink:href="#glyph-3-15" x="268.355469" y="16.473633"/>
<use xlink:href="#glyph-3-6" x="272.355469" y="16.473633"/>
<use xlink:href="#glyph-3-16" x="276.355469" y="16.473633"/>
<use xlink:href="#glyph-3-17" x="287.355469" y="16.473633"/>
<use xlink:href="#glyph-3-18" x="295.355469" y="16.473633"/>
<use xlink:href="#glyph-3-6" x="305.355469" y="16.473633"/>
<use xlink:href="#glyph-3-19" x="309.355469" y="16.473633"/>
<use xlink:href="#glyph-3-1" x="319.355469" y="16.473633"/>
<use xlink:href="#glyph-3-1" x="327.355469" y="16.473633"/>
<use xlink:href="#glyph-3-5" x="335.355469" y="16.473633"/>
<use xlink:href="#glyph-3-4" x="339.355469" y="16.473633"/>
<use xlink:href="#glyph-3-5" x="346.355469" y="16.473633"/>
<use xlink:href="#glyph-3-20" x="350.355469" y="16.473633"/>
<use xlink:href="#glyph-3-12" x="355.355469" y="16.473633"/>
<use xlink:href="#glyph-3-21" x="363.355469" y="16.473633"/>
<use xlink:href="#glyph-3-22" x="371.355469" y="16.473633"/>
<use xlink:href="#glyph-3-6" x="375.355469" y="16.473633"/>
<use xlink:href="#glyph-3-16" x="379.355469" y="16.473633"/>
<use xlink:href="#glyph-3-3" x="390.355469" y="16.473633"/>
<use xlink:href="#glyph-3-5" x="398.355469" y="16.473633"/>
<use xlink:href="#glyph-3-23" x="402.355469" y="16.473633"/>
<use xlink:href="#glyph-3-10" x="405.355469" y="16.473633"/>
<use xlink:href="#glyph-3-24" x="408.355469" y="16.473633"/>
<use xlink:href="#glyph-3-20" x="416.355469" y="16.473633"/>
<use xlink:href="#glyph-3-6" x="421.355469" y="16.473633"/>
<use xlink:href="#glyph-3-18" x="425.355469" y="16.473633"/>
<use xlink:href="#glyph-3-24" x="435.355469" y="16.473633"/>
<use xlink:href="#glyph-3-13" x="443.355469" y="16.473633"/>
<use xlink:href="#glyph-3-4" x="451.355469" y="16.473633"/>
<use xlink:href="#glyph-3-10" x="458.355469" y="16.473633"/>
<use xlink:href="#glyph-3-5" x="461.355469" y="16.473633"/>
<use xlink:href="#glyph-3-10" x="465.355469" y="16.473633"/>
<use xlink:href="#glyph-3-14" x="468.355469" y="16.473633"/>
<use xlink:href="#glyph-3-10" x="475.355469" y="16.473633"/>
<use xlink:href="#glyph-3-5" x="478.355469" y="16.473633"/>
<use xlink:href="#glyph-3-25" x="482.355469" y="16.473633"/>
</g>
</svg>
